<svg xmlns="http://www.w3.org/2000/svg" viewBox="0 0 121.45 142.12">
    <defs>
        <style>.cls-1{fill:#06c4ff;}</style>
    </defs>
    <title>Asset 2</title>
    <g id="Layer_2" data-name="Layer 2">
        <g id="Layer_1-2" data-name="Layer 1">
            <path class="cls-1"
                  d="M47.5,50H2.5A2.5,2.5,0,0,1,0,47.5V2.5A2.5,2.5,0,0,1,2.5,0h45A2.5,2.5,0,0,1,50,2.5v45A2.5,2.5,0,0,1,47.5,50ZM5,45H45V5H5Z"/>
            <path class="cls-1"
                  d="M87,142.12a2.45,2.45,0,0,1-1.25-.34L54.05,123.35a2.52,2.52,0,0,1-1.24-2.15l-.1-36.69a2.49,2.49,0,0,1,3.75-2.16l31.72,18.43a2.47,2.47,0,0,1,1.24,2.15l.1,36.68a2.49,2.49,0,0,1-2.5,2.51ZM57.81,119.75l26.7,15.52-.08-30.89L57.72,88.86Z"/>
            <path class="cls-1"
                  d="M86.92,105.44a2.42,2.42,0,0,1-1.25-.34L54,86.67a2.5,2.5,0,0,1,0-4.33L85.88,63.91a2.46,2.46,0,0,1,2.5,0L120.1,82.35a2.5,2.5,0,0,1,0,4.32L88.17,105.1A2.45,2.45,0,0,1,86.92,105.44ZM60.19,84.51l26.74,15.54L113.86,84.5,87.12,69Z"/>
            <path class="cls-1"
                  d="M87,142.12a2.48,2.48,0,0,1-1.24-.33,2.54,2.54,0,0,1-1.26-2.16L84.42,103a2.53,2.53,0,0,1,1.25-2.18l31.92-18.43a2.5,2.5,0,0,1,3.75,2.16l.11,36.68a2.53,2.53,0,0,1-1.25,2.18L88.27,141.79A2.49,2.49,0,0,1,87,142.12Zm2.41-37.74.08,30.92,26.93-15.55-.08-30.92Z"/>
            <path class="cls-1"
                  d="M87.08,50a2.5,2.5,0,0,1-2.5-2.5v-20H60a2.5,2.5,0,1,1,0-5H87.08a2.5,2.5,0,0,1,2.5,2.5V47.5A2.5,2.5,0,0,1,87.08,50Z"/>
            <polygon class="cls-1" points="80.97 42.87 87.08 45.46 93.19 42.87 87.08 57.35 80.97 42.87"/>
        </g>
    </g>
</svg>