<svg id="Layer_1" data-name="Layer 1" xmlns="http://www.w3.org/2000/svg" viewBox="0 0 200 200">
    <defs>
        <style>.cls-1{fill:#06c4ff;}</style>
    </defs>
    <title>Analytics - Cyan</title>
    <path class="cls-1"
          d="M22.68,180.8c-1.09-.69-2-1.57-1.52-3,.85-2.64,3.24-1.44,5.19-1.91V136.41c0-4.57,1.32-5.87,5.94-5.87h13.1c4,0,5.44,1.46,5.44,5.38q0,19,0,38v2h6.23v-55.3c0-4,1.49-5.5,5.52-5.5,4.57,0,9.15,0,13.73,0,3.66,0,5.26,1.6,5.27,5.3V176h6.14V90c0-4.29,1.47-5.74,5.8-5.74h13.57c3.54,0,5.19,1.67,5.19,5.24q0,42.21,0,84.42V176h6.14v-2q0-34.24,0-68.49a8.88,8.88,0,0,1,.41-3.09c.94-2.45,5.54-3.79,7.61-2.15a2.91,2.91,0,0,1,.88,2.42c-.17.7-1.15,1.34-1.92,1.72a5.54,5.54,0,0,1-2.14,0V176H138.1V104.44c-.78,0-1.63.24-2.19-.06-.79-.43-1.78-1.2-1.89-1.94a2.77,2.77,0,0,1,1.25-2.34,6.26,6.26,0,0,1,6.13.72,4.44,4.44,0,0,1,1.56,3.79c0,7.68,0,15.36,0,23V176h6.23V59.66c0-.53,0-1,0-1.58.06-2.9,1.68-4.63,4.61-4.67q7.58-.1,15.15,0c3.11,0,4.7,1.79,4.71,5.06q0,16.89,0,33.77,0,9.7,0,19.41a12.45,12.45,0,0,1-.06,1.73,2.31,2.31,0,0,1-4.54.16,10.65,10.65,0,0,1-.12-2q0-25.56,0-51.12V58.23H154V176h14.88v-2q0-24.23,0-48.44a8.69,8.69,0,0,1,.15-2,2.3,2.3,0,0,1,4.49.18,10.83,10.83,0,0,1,.08,1.89q0,24.22,0,48.44v2.11c.77,0,1.43,0,2.08,0,1.37-.07,2.59.19,3.08,1.63s-.33,2.39-1.5,3.11ZM107.43,176V89.08H92.57V176ZM61.91,120V176H76.75V120ZM31.22,135.36V176H46V135.36Z"/>
    <path class="cls-1"
          d="M74.28,82C79.9,76.4,85.42,70.85,91,65.36c.83-.82.29-1.4,0-2.09A9.66,9.66,0,1,1,109.27,57a7.06,7.06,0,0,1,.35,3.1c-.29,1.48.36,2,1.53,2.54,3.75,1.78,7.43,3.71,11.16,5.53a1.75,1.75,0,0,0,1.48,0A9.93,9.93,0,0,1,134,65.88c6.74-10.13,13.46-20.23,20.24-30.4A10.62,10.62,0,0,1,151.74,29a9.68,9.68,0,1,1,7.75,9.38c-.75-.15-1.32-.38-1.88.47-6.52,9.86-13.08,19.7-19.69,29.63.27.38.54.75.8,1.13a9.68,9.68,0,0,1-11.4,14.49,9.44,9.44,0,0,1-6.2-9.47,2.26,2.26,0,0,0-1.57-2.58c-4.07-1.94-8.08-4-12.14-6l-.76.66a9.42,9.42,0,0,1-10.53,1.81,1.43,1.43,0,0,0-1.91.28C89,74.09,83.66,79.35,78.42,84.67a1.83,1.83,0,0,0-.36,1.55c1.83,4.75.65,9.38-3.18,12.1s-8.68,2.27-12.55-1.19c-.11-.1-.25-.18-.47-.34-4.32,2.17-8.7,4.33-13,6.59-.39.2-.59,1.11-.57,1.67a9.69,9.69,0,0,1-19,3.46,9.51,9.51,0,0,1,3.94-10.77A9.66,9.66,0,0,1,45,98.5c.32.28.62.57,1,1,4.39-2.21,8.8-4.4,13.18-6.65a1.22,1.22,0,0,0,.52-1C59.67,83,66.15,78.54,74.28,82ZM99.93,54.72a5,5,0,1,0,5,4.83A5,5,0,0,0,99.93,54.72ZM69.33,95.33a4.93,4.93,0,0,0,0-9.85,4.93,4.93,0,1,0,0,9.85ZM43.52,105.72a4.92,4.92,0,1,0-4.81,5A5,5,0,0,0,43.52,105.72ZM166.33,28.9a4.93,4.93,0,1,0-4.88,4.92A4.88,4.88,0,0,0,166.33,28.9ZM125.79,75.08a4.94,4.94,0,0,0,4.93,4.9,5,5,0,1,0-4.93-4.9Z"/>
</svg>