<svg xmlns:xlink="http://www.w3.org/1999/xlink" id="Layer_1" data-name="Layer 1" xmlns="http://www.w3.org/2000/svg"
     viewBox="0 0 200 200">
    <defs>
        <style>
            .cls-1{fill:url(#New_Gradient_Swatch);}.cls-2{fill:url(#New_Gradient_Swatch-2);}.cls-3{fill:url(#New_Gradient_Swatch-3);}.cls-4{fill:url(#New_Gradient_Swatch-4);}.cls-5{fill:url(#New_Gradient_Swatch-5);}.cls-6{fill:url(#New_Gradient_Swatch-6);}.cls-7{fill:url(#New_Gradient_Swatch-7);}.cls-8{fill:url(#New_Gradient_Swatch-8);}.cls-9{fill:url(#New_Gradient_Swatch-9);}
        </style>
        <linearGradient id="New_Gradient_Swatch" x1="36.46" y1="142.13" x2="163.54" y2="142.13"
                        gradientUnits="userSpaceOnUse">
            <stop offset="0" stop-color="#06c4ff"/>
            <stop offset="0.52" stop-color="#0683ff"/>
            <stop offset="1" stop-color="#f90680"/>
        </linearGradient>
        <linearGradient id="New_Gradient_Swatch-2" x1="55.64" y1="30.08" x2="77.28" y2="30.08"
                        xlink:href="#New_Gradient_Swatch"/>
        <linearGradient id="New_Gradient_Swatch-3" x1="122.63" y1="30.08" x2="144.32" y2="30.08"
                        xlink:href="#New_Gradient_Swatch"/>
        <linearGradient id="New_Gradient_Swatch-4" x1="36.49" y1="78.98" x2="131.81" y2="78.98"
                        xlink:href="#New_Gradient_Swatch"/>
        <linearGradient id="New_Gradient_Swatch-5" x1="42.07" y1="46.57" x2="64.26" y2="46.57"
                        xlink:href="#New_Gradient_Swatch"/>
        <linearGradient id="New_Gradient_Swatch-6" x1="135.38" y1="69.28" x2="157.16" y2="69.28"
                        xlink:href="#New_Gradient_Swatch"/>
        <linearGradient id="New_Gradient_Swatch-7" x1="42.76" y1="69.28" x2="64.57" y2="69.28"
                        xlink:href="#New_Gradient_Swatch"/>
        <linearGradient id="New_Gradient_Swatch-8" x1="135.67" y1="46.57" x2="157.91" y2="46.57"
                        xlink:href="#New_Gradient_Swatch"/>
        <linearGradient id="New_Gradient_Swatch-9" x1="45.86" y1="169.42" x2="53.84" y2="169.42"
                        xlink:href="#New_Gradient_Swatch"/>
    </defs>
    <title>Convenient - Gradient</title>
    <path class="cls-1"
          d="M38,181.05c-.2-.17-.38-.35-.59-.5a2.19,2.19,0,0,1-.84-2.66,2.23,2.23,0,0,1,2.21-1.5c.94,0,1.89,0,2.84,0H64.25c2,0,2.24-.22,2.24-2.29q0-17.1,0-34.19c0-.53,0-1.06,0-1.58a2.27,2.27,0,0,1,2.13-2.46,2.23,2.23,0,0,1,2.29,2.46c0,4,0,7.92,0,11.87v17.26C71,170,71,170,73.41,170c6.74,0,13.48.1,20.22-.05a7.22,7.22,0,0,1,6,2.32,12.47,12.47,0,0,0,7.23,3.93,16.14,16.14,0,0,0,2.51.2h36.8c4,0,6.7-2.54,6.69-6.2s-2.75-6.22-6.7-6.25c-3.47,0-7,0-10.42,0-1.91,0-2.84-.72-2.88-2.16s.88-2.3,2.91-2.31c4.32,0,8.63,0,13,0a9.68,9.68,0,0,0,3.12-.37,6.16,6.16,0,0,0,4.08-6.87,6,6,0,0,0-5.81-5.08c-3.58-.06-7.16,0-10.75,0-1.81,0-2.85-1-2.69-2.54.13-1.27,1.1-2,2.73-2,4.27,0,8.53,0,12.8,0a6.9,6.9,0,0,0,1.63-13.57,11.21,11.21,0,0,0-2.66-.22c-3.27,0-6.53,0-9.8,0a2.58,2.58,0,0,1-2.55-1.23c-.86-1.57.26-3.28,2.23-3.31,3.16,0,6.32,0,9.48,0a8.13,8.13,0,1,0,.06-16.25c-3,0-6,0-9,0-1.83,0-2.78-.82-2.77-2.29s.92-2.28,2.64-2.26c3.68,0,7.38-.32,11,.18a12.61,12.61,0,0,1,7.26,21.41c-1,1-1,1.4.06,2.35a11.3,11.3,0,0,1-.86,17.42c-1.21.91-1.14,1.38-.34,2.51a10.59,10.59,0,0,1-2.76,14.93c-.58.4-1.37.6-.6,1.62a10.74,10.74,0,0,1-6.72,17.05,1.91,1.91,0,0,0-.55.28H107.55a21.4,21.4,0,0,1-11.93-6.25,1.5,1.5,0,0,0-1.17-.37H72.18c-.63,0-1.18.1-1.21.89-.12,3.17-2.06,4.79-4.81,5.73Z"/>
    <path class="cls-2"
          d="M67.11,19a9.31,9.31,0,0,1,4.64,4.27c1.39,2.23,2.93,4.38,4.37,6.58,1.86,2.82,1.48,5.49-1.06,7.74-1,.84-1.89,1.69-2.89,2.46a5.27,5.27,0,0,1-6.94-.2c-2.61-2.29-5.2-4.62-7.73-7a5.17,5.17,0,0,1,.12-8c2.42-2.07,4.51-4.6,7.59-5.8Zm-1.19,4.72a2.35,2.35,0,0,0-.46.27c-1.6,1.37-3.2,2.75-4.78,4.13-.64.57-.44,1.1.11,1.6,2.42,2.19,4.85,4.38,7.26,6.58a1.06,1.06,0,0,0,1.75-.19c.86-1.19,3-1.36,2.73-3.44a.74.74,0,0,0-.16-.27l-5.37-8A1.13,1.13,0,0,0,65.92,23.67Z"/>
    <path class="cls-3"
          d="M134.73,19c3.29,1.38,5.64,4,8.14,6.37a5,5,0,0,1-.11,7.13c-2.68,2.61-5.46,5.11-8.29,7.55a5.18,5.18,0,0,1-6.57.09,46,46,0,0,1-3.58-3.1,5.08,5.08,0,0,1-.89-6.51c2-3.16,4.13-6.23,6.21-9.33.77-1.16,2.06-1.57,3.19-2.2Zm-.66,4.74a1,1,0,0,0-1,.51l-5.55,8.26c-.58.86-.08,1.46.59,1.81,1.25.66,1.71,2.71,3.66,2.09a.76.76,0,0,0,.25-.19l7.14-6.48c.63-.57.71-1.13,0-1.72q-2.26-2-4.54-3.92A3.38,3.38,0,0,0,134.07,23.69Z"/>
    <path class="cls-4"
          d="M52.24,106.78H64.09c4.24,0,5.87,1.28,6.84,5.39.15.64.43.88,1.06.88,3.37,0,6.74,0,10.11,0a1.43,1.43,0,0,0,1.34-.89c4.71-8.47,9.45-16.94,14.15-25.42.43-.76,1-1.88.56-2.47s-1.52.21-2.28.47c-3.53,1.22-7,2.51-10.55,3.75-3.77,1.32-6.19-.38-6.12-4.33q.12-7.12.38-14.24a3.89,3.89,0,0,0-.91-2.74C75.78,63.5,72.94,59.76,70.09,56c-2.41-3.15-1.49-6,2.33-7.1,4.49-1.34,9-2.68,13.47-4a4.06,4.06,0,0,0,2.44-1.79c2.61-3.9,5.27-7.77,7.93-11.63,2.22-3.23,5.22-3.2,7.47.06a11.27,11.27,0,0,1,1,1.59,2.16,2.16,0,0,1-.71,2.94,2,2,0,0,1-2.94-.47c-1-1.61-1.53-1-2.32.18-2.39,3.61-4.9,7.12-7.28,10.73A5.49,5.49,0,0,1,88.19,49c-4.31,1.19-8.57,2.54-12.87,3.76-1.26.35-1.5.73-.63,1.84,2.85,3.6,5.58,7.28,8.42,10.88a4.6,4.6,0,0,1,1,3.2c-.16,4.64-.21,9.28-.38,13.92,0,1.31.31,1.52,1.51,1.08C89.87,82,94.48,80.4,99.1,78.8a1.68,1.68,0,0,0,1.18-1.31c.34-1.33.7-2.65,1.06-4,1.71-6.22,6-9,12.25-7.46a3.31,3.31,0,0,0,4.12-1.56c2.43-3.38,5-6.66,7.59-9.92.82-1,.63-1.44-.58-1.78-4.4-1.25-8.77-2.63-13.18-3.82-2.56-.68-3.44-2.79-4.43-4.78-.46-.92.17-1.85,1.06-2.39a1.83,1.83,0,0,1,2.68.43c1.34,2.69,4,2.9,6.3,3.62,3.57,1.1,7.16,2.11,10.73,3.2,3.32,1,4.28,3.87,2.21,6.66q-4.41,6-9,11.86c-.62.81-.71,1.27.18,2,5.7,4.82,7.37,10.94,6,18.2-.85,4.52-2.68,8.63-4.45,12.79-1.14,2.69-1.15,2.69,1.83,2.69,1.48,0,3,0,4.43,0,1.65,0,2.68,1,2.68,2.29s-1.06,2.26-2.69,2.26q-10.59,0-21.17,0c-1.59,0-2.52-.85-2.56-2.18s.88-2.34,2.56-2.37c2.52-.05,5,0,7.58,0,.64,0,1.24,0,1.56-.74,2.42-5.82,5.35-11.44,6.15-17.85.92-7.42-5.39-14.68-12.83-14.49-2.25.06-3.8,1.33-4.47,3.75q-1.75,6.22-3.44,12.48a14.22,14.22,0,0,1-1.3,3.21c-4.81,8.6-9.64,17.19-14.38,25.83a3.76,3.76,0,0,1-3.8,2.19c-3.36-.08-6.74.08-10.1-.07-1.7-.07-2.06.55-2,2.08.1,2.15,0,4.32,0,6.48,0,1.8-.77,2.66-2.21,2.66s-2.22-.87-2.22-2.64c0-4,0-8,0-12,0-2.69-.11-2.8-2.72-2.8h-24a7.34,7.34,0,0,1-1.41,0,2.09,2.09,0,0,1-1.85-2A2,2,0,0,1,38.05,107a7.34,7.34,0,0,1,1.87-.2C44,106.77,48.14,106.78,52.24,106.78Z"/>
    <path class="cls-5"
          d="M64.26,47.45A17.88,17.88,0,0,1,61.84,54a4.76,4.76,0,0,1-5.12,2.05q-5.1-1-10.17-2.16c-3.64-.84-5.27-3.78-4.12-7.32.66-2,1.32-4,2-6a5.26,5.26,0,0,1,7.45-3.12c3.19,1.49,6.35,3.06,9.48,4.66C63.32,43.16,64.26,44.84,64.26,47.45Zm-4.55-.13c.18-.75-.28-1.07-.83-1.35-2.83-1.39-5.66-2.77-8.49-4.17-.91-.45-1.46-.24-1.78.76q-.87,2.71-1.86,5.37c-.34,1,0,1.36.9,1.56,3.14.67,6.26,1.38,9.39,2.07a1.05,1.05,0,0,0,1.4-.67C58.87,49.7,59.29,48.51,59.71,47.32Z"/>
    <path class="cls-6"
          d="M143.81,60.39c2.88.23,5.77.41,8.65.69a5,5,0,0,1,4.69,5.33,36,36,0,0,1-1.56,8.36c-.85,2.77-3.68,4.09-6.65,3.2-3.32-1-6.62-2.06-9.9-3.2a5,5,0,0,1-3.63-5.6,31.51,31.51,0,0,1,.78-4.51,5.29,5.29,0,0,1,6-4.32l1.57.13Zm-1.24,4.51c-1.34-.34-2,.21-2.14,1.45A23.5,23.5,0,0,1,140,69a1.21,1.21,0,0,0,1,1.65c3,.94,6,1.9,9,2.9.93.31,1.41,0,1.58-.89.35-1.86.65-3.73,1.06-5.58.26-1.16-.23-1.55-1.27-1.61Z"/>
    <path class="cls-7"
          d="M42.76,67c0-3.5,1.86-5.69,4.64-6q5.41-.5,10.85-.78a5.09,5.09,0,0,1,5.38,4,23.69,23.69,0,0,1,.94,5.28,4.91,4.91,0,0,1-3.3,5.06c-3.46,1.23-7,2.42-10.49,3.41-3.26.92-6-.89-6.71-4.22C43.55,71.33,43.11,68.84,42.76,67Zm14.85-2.16-8.72.57-.32,0c-1,.06-1.45.43-1.22,1.52.4,1.85.73,3.71,1.06,5.58.18,1,.68,1.29,1.67,1,2.14-.72,4.32-1.32,6.45-2.07,4.28-1.52,3.79-.25,2.92-5.32A1.34,1.34,0,0,0,57.61,64.88Z"/>
    <path class="cls-8"
          d="M135.67,47.35c0-2.56.94-4.16,2.77-5.1,3.23-1.66,6.47-3.29,9.77-4.81a5.17,5.17,0,0,1,7.14,3c.84,2.16,1.62,4.35,2.28,6.56a5.22,5.22,0,0,1-4,6.89c-3.52.84-7.06,1.62-10.63,2.28A4.65,4.65,0,0,1,138.07,54,18.38,18.38,0,0,1,135.67,47.35Zm7.14,4.23,9.71-2.14c.69-.15,1-.56.74-1.28q-1-2.91-2-5.82c-.22-.66-.65-1-1.32-.68a89.91,89.91,0,0,0-9.15,4.6c-1.54,1,.26,2.52.46,3.81C141.35,50.81,141.55,51.71,142.81,51.58Z"/>
    <path class="cls-9"
          d="M49.89,167.18a17.34,17.34,0,0,1,2,0,2,2,0,0,1,1.91,2.1,2,2,0,0,1-1.75,2.23,15.67,15.67,0,0,1-4.38,0,2,2,0,0,1-1.85-2.16,2,2,0,0,1,2-2.2c.68-.06,1.36,0,2,0Z"/>
</svg>