<svg id="Layer_1" data-name="Layer 1" xmlns="http://www.w3.org/2000/svg" viewBox="0 0 200 200">
    <defs>
        <style>.cls-1{fill:#06c4ff;}</style>
    </defs>
    <title>Easy for user and customer - Cyan</title>
    <path class="cls-1"
          d="M23.35,137V106.08c0-5.49,3.24-8.7,8.74-8.71,5.68,0,11.35,0,17,0,5.28,0,8.54,3.28,8.56,8.56,0,3.56,0,3.56,3.38,2.36q14.53-5.17,29.05-10.37a8.81,8.81,0,0,1,3.05-.56c10.63,0,21.26,0,31.89,0,6.91,0,10.57,5.87,7.54,12-1.24,2.52-2.52,5-3.77,7.53-.78,1.57-.78,1.58,1.05,1.58,9,0,18.06,0,27.09,0,3.41,0,6.2,1.06,7.88,4.13s1.13,6.12-.8,9q-21.47,32.13-59.55,38.66a82.52,82.52,0,0,1-14.14,1.07c-10.52,0-21,0-31.56,0a2.06,2.06,0,0,0-2.17,1.23,7.34,7.34,0,0,1-6.73,4.05q-9.33.1-18.67,0a7.84,7.84,0,0,1-7.85-8.08C23.33,158,23.35,147.49,23.35,137Zm34.32,3.56c0,8,0,16,0,23.95,0,1.27.28,1.67,1.61,1.66,10.52-.06,21,0,31.56,0a81.81,81.81,0,0,0,69-37.64,3.09,3.09,0,0,0,.43-3.25,2.76,2.76,0,0,0-2.91-1.45c-.44,0-.88,0-1.32,0H97.74c-2,0-3-1-3-2.69s1.11-2.54,3-2.55c7.6,0,15.19,0,22.79,0a2.19,2.19,0,0,0,2.4-1.43c1.54-3.29,3.23-6.5,4.85-9.75,1.51-3.05.43-4.76-3-4.76q-15.43,0-30.89,0a8,8,0,0,0-2.73.49q-16,5.73-32,11.4a1.86,1.86,0,0,0-1.51,2.09C57.7,124.56,57.67,132.54,57.67,140.53Zm-29.08-3.71q0,15.6,0,31.2c0,2.47.91,3.37,3.39,3.37q8.5,0,17,0c2.49,0,3.43-.9,3.43-3.33q0-31,0-62.08c0-2.46-.92-3.36-3.4-3.37-5.61,0-11.22,0-16.84,0-2.78,0-3.59.84-3.6,3.67Z"/>
    <path class="cls-1"
          d="M97.38,48.38c0-5.51,0-11,0-16.52,0-5.18,3.3-8.5,8.44-8.51q15.53,0,31.06,0a5.71,5.71,0,0,1,1.31,0,2.6,2.6,0,0,1,0,5.12,7.44,7.44,0,0,1-1.64.06h-30.4c-2.71,0-3.56.84-3.56,3.54V64.84c0,2.57.89,3.44,3.49,3.45,7.1,0,14.21,0,21.31,0a4.58,4.58,0,0,1,3.64,1.54c1.62,1.72,3.38,3.32,5,5,.77.84,1.24.73,2,0,1.7-1.8,3.51-3.5,5.23-5.28a4,4,0,0,1,3.08-1.27c7.16,0,14.32,0,21.48,0,2.78,0,3.6-.85,3.6-3.67q0-16.19,0-32.38c0-2.82-.82-3.65-3.62-3.65H152.59c-2.16,0-3.31-.91-3.34-2.57s1.15-2.66,3.41-2.66c5.23,0,10.46,0,15.69,0a7.91,7.91,0,0,1,8.29,8.33q0,16.77,0,33.53a7.89,7.89,0,0,1-8.31,8.31q-10.16,0-20.32,0a2.87,2.87,0,0,0-2.3,1c-2.11,2.18-4.26,4.31-6.42,6.43-1.65,1.62-2.91,1.61-4.54,0-2.16-2.12-4.32-4.25-6.42-6.43a2.9,2.9,0,0,0-2.31-1c-6.66,0-13.32,0-20,0-5.39,0-8.64-3.25-8.65-8.63S97.38,53.88,97.38,48.38Z"/>
    <path class="cls-1"
          d="M33.93,64.36a25.09,25.09,0,1,1,25.19,25A25.13,25.13,0,0,1,33.93,64.36Zm5.24-.17A19.85,19.85,0,1,0,59.12,44.45,19.85,19.85,0,0,0,39.17,64.19Z"/>
    <path class="cls-1"
          d="M127.91,49.78c4.57,0,9.14,0,13.71,0,2.08,0,3.31,1,3.28,2.65S143.66,55,141.55,55H114c-2.12,0-3.33-1-3.37-2.57s1.21-2.66,3.43-2.67Z"/>
    <path class="cls-1"
          d="M121.26,41.8c-2.53,0-5.06,0-7.59,0-1.85,0-3-1-3.06-2.55s1.16-2.67,3.08-2.68q7.43,0,14.86,0c1.94,0,3.14,1,3.13,2.62s-1.2,2.59-3.16,2.61C126.1,41.82,123.68,41.8,121.26,41.8Z"/>
    <path class="cls-1"
          d="M56.06,74.5A2.91,2.91,0,0,1,54,73.59c-2-2-3.91-3.87-5.83-5.84C46.93,66.47,46.89,65,48,63.93s2.6-1.09,3.94.18c1.08,1,2.17,2,3.14,3.16.76.86,1.23.69,2,0,3.31-3.38,6.68-6.7,10-10.06a3,3,0,0,1,2.78-1.11,2.54,2.54,0,0,1,1.44,4.22c-1.06,1.26-2.29,2.37-3.46,3.54l-9.33,9.34A3.68,3.68,0,0,1,56.06,74.5Z"/>
</svg>