<svg xmlns:xlink="http://www.w3.org/1999/xlink" id="Layer_1" data-name="Layer 1" xmlns="http://www.w3.org/2000/svg"
     viewBox="0 0 200 200">
    <defs>
        <style>
            .cls-1{fill:url(#New_Gradient_Swatch);}.cls-2{fill:url(#New_Gradient_Swatch-2);}.cls-3{fill:url(#New_Gradient_Swatch-3);}.cls-4{fill:url(#New_Gradient_Swatch-4);}.cls-5{fill:url(#New_Gradient_Swatch-5);}.cls-6{fill:url(#New_Gradient_Swatch-6);}.cls-7{fill:url(#New_Gradient_Swatch-7);}.cls-8{fill:url(#New_Gradient_Swatch-8);}.cls-9{fill:url(#New_Gradient_Swatch-9);}
        </style>
        <linearGradient id="New_Gradient_Swatch" x1="19.46" y1="100" x2="154.54" y2="100"
                        gradientUnits="userSpaceOnUse">
            <stop offset="0" stop-color="#06c4ff"/>
            <stop offset="0.52" stop-color="#0683ff"/>
            <stop offset="1" stop-color="#f90680"/>
        </linearGradient>
        <linearGradient id="New_Gradient_Swatch-2" x1="32.13" y1="156.22" x2="45.19" y2="156.22"
                        xlink:href="#New_Gradient_Swatch"/>
        <linearGradient id="New_Gradient_Swatch-3" x1="112.81" y1="75.47" x2="125.78" y2="75.47"
                        xlink:href="#New_Gradient_Swatch"/>
        <linearGradient id="New_Gradient_Swatch-4" x1="83.44" y1="105.51" x2="95.94" y2="105.51"
                        xlink:href="#New_Gradient_Swatch"/>
        <linearGradient id="New_Gradient_Swatch-5" x1="83.42" y1="75.44" x2="96.01" y2="75.44"
                        xlink:href="#New_Gradient_Swatch"/>
        <linearGradient id="New_Gradient_Swatch-6" x1="83.46" y1="85.45" x2="102.42" y2="85.45"
                        xlink:href="#New_Gradient_Swatch"/>
        <linearGradient id="New_Gradient_Swatch-7" x1="99.44" y1="102.82" x2="109.77" y2="102.82"
                        xlink:href="#New_Gradient_Swatch"/>
        <linearGradient id="New_Gradient_Swatch-8" x1="101.04" y1="74.76" x2="109.78" y2="74.76"
                        xlink:href="#New_Gradient_Swatch"/>
        <linearGradient id="New_Gradient_Swatch-9" x1="106.75" y1="91.52" x2="117.77" y2="91.52"
                        xlink:href="#New_Gradient_Swatch"/>
    </defs>
    <title>Personalized Branding - Gradient</title>
    <path class="cls-1"
          d="M87.76,170.77c.91.78,1.87,1.16,2.47,2.13v1.57l-1,.61a.92.92,0,0,1-1.11.18A10.77,10.77,0,0,1,86,173.92a101.42,101.42,0,0,0-8.5-6.25c-1.76-1.21-3.39-2.6-5.1-3.87-1.36-1-2.7-2.07-4.13-3s-2.49-1.92-3.83-2.75c-1.13-.7-2.1-1.66-3.22-2.4-1.37-.89-2.56-2-4-2.88-1.59-1-3-2.24-4.55-3.35-1.31-1-2.66-1.88-4-2.84l-5.12-3.8-5-3.64a3.57,3.57,0,0,1-.28-.27,2.21,2.21,0,0,0-3.54.45c-.81,1.13-1.91,2-2.42,3.39-1.31.66-1.71,2.11-2.64,3.11-1.65,1.8-3,3.9-4.61,5.73-1.11,1.22-1.93,2.7-3.15,3.85H20.45l-.89-.92a2.06,2.06,0,0,1,.5-2.06c1.41-1.49,2.61-3.14,3.86-4.74,1.6-2.06,3.26-4.09,4.83-6.18a60.72,60.72,0,0,1,4.07-5c1-1.08,2.38-1.09,3.51-1.73,1.2.51,2.65.17,3.72,1.19.62.59,1.12.48,1.55-.16.16-.24.14-.57.41-.79,1.3-1.07,1.41-2.62,1.57-4.12a17.26,17.26,0,0,0,0-3c-.19-3,.68-5.87.39-8.83.57-1.31.24-2.71.41-4a52.28,52.28,0,0,1,1.19-6.59,11.33,11.33,0,0,1,1.07-2.6c1.25-2.24,1.8-4.74,2.7-7.11.71-1.88,1.07-3.87,1.83-5.74a11.61,11.61,0,0,0,.38-2.31c.17-1,.38-2,.53-3.07.29-2,.45-4,.78-6,.43-2.59.15-5.14.28-7.7.07-1.46,0-2.93,0-4.39A32.07,32.07,0,0,1,54,63.3c.42-2.31,3.35-4.6,5.71-4.63.7,0,1.4,0,2.1,0a7,7,0,0,1,4.95,1.9c.46.41,1.19.47,1.46,1.08s.8.8,1.21,1.18c0,0,.09,0,.23-.08V60.92c0-9.37,0-18.74,0-28.11a7.43,7.43,0,0,1,4.28-7A8.75,8.75,0,0,1,78,24.64q26.58,0,53.16,0a8.58,8.58,0,0,1,5.57,2.25c2.19,1.81,2.81,4.22,2.86,6.85.07,3.43,0,6.86,0,10.22.55.48.75-.05,1-.21a7,7,0,0,1,3.74-1.06c2.46.06,4.94.51,6.79,2.47a8.76,8.76,0,0,1,2.14,2.56,24.2,24.2,0,0,1,1.2,3.7,9.77,9.77,0,0,1-1.45,5.51A9.6,9.6,0,0,1,150,60a2.5,2.5,0,0,0-.55.53c-1.61,1.64-3.5,3-5.18,4.51-1.52,1.4-3.31,2.52-4.54,4.11V79.68c2.43-.58,4.75-.67,6.91.7a11,11,0,0,1,4.95,6.5c.66,2.14,0,3.93-.63,5.78-.45,1.36-1.68,2.2-2.71,3.06a18.87,18.87,0,0,0-2.88,2.22c-.42.52-1.23.39-1.45,1.18a11.21,11.21,0,0,1,4.66,1.86,9,9,0,0,1,3.23,4.22,8.54,8.54,0,0,1,.86,4,13.22,13.22,0,0,1-1.68,4.85c-1.3.48-1.91,1.85-3.23,2.37-1.64.64-3.21,1.49-4.8,2.27a2.79,2.79,0,0,0-.55.48c1.35,1.25,3.15,2.13,3.37,4.27,1.44,1.79.82,3.81.3,5.62a5.22,5.22,0,0,1-2.61,3.37c-.5.23-.75.72-1.36.88a12.85,12.85,0,0,0-2.45,1.28c0,4.21,0,8.54,0,12.86a9.18,9.18,0,0,1-2.26,6.13,7,7,0,0,1-5.6,2.6c-6.76,0-13.51,0-20.26,0l-2.71,2.71A24.54,24.54,0,0,1,98,164.67c-.71.13-1.45.19-2.13.38a17.7,17.7,0,0,1-2.14.36,4.4,4.4,0,0,0-3.31,2.06A16.28,16.28,0,0,1,87.76,170.77ZM136.1,81.89V41.52c-7.6-.3-61.77-.17-63.36.14V139h63.35v-2.64c-1,.54-1.93,1.06-2.88,1.52a3.15,3.15,0,0,1-1.75.41,11,11,0,0,0-2.29,0,3.84,3.84,0,0,1-2.07-.56,8,8,0,0,1-2.82-2.39,9.28,9.28,0,0,1-1.34-2.5,15.25,15.25,0,0,1-.53-3,2.93,2.93,0,0,1,.24-1.23c.61-1.74,1.17-3.45,2.93-4.47A16.38,16.38,0,0,1,122,121a13.13,13.13,0,0,1-1.79-4.44c-.44-1.51.26-3.07.8-4.73H112.9v-6.41h3.4v3h7.51c.75-.94,1.89-1.1,2.89-1.74a14.47,14.47,0,0,1-3.33-2.34c-1-1-1.31-2.3-2.12-3.34.27-1.35-.78-2.57-.25-4,.45-1.21.45-2.59,1.4-3.64,0-1.71,0-3.43,0-5.15A1.33,1.33,0,0,1,123,87c.87.23,1.94-.45,2.89.65v2.08Zm-29.69,74.32h-2.1q-13.49,0-27,0a6,6,0,0,1-3.14-.76c-2.87-1.62-4.6-3.89-4.6-7.32q0-37,0-74a26.86,26.86,0,0,0-.48-4,6.37,6.37,0,0,0-.83-2.5,17.69,17.69,0,0,0-2.78-3.66c-1.76-1.58-3.62-2.44-6-1.83a3.42,3.42,0,0,0-2.2,2A2.27,2.27,0,0,0,57,65.51c.1.61-.42,1-.43,1.57-.09,4.6.37,9.22-.36,13.8.28,1.89-.56,3.7-.38,5.58,0,.12,0,.3-.05.36-.82.71.17,1.89-.67,2.6a8.15,8.15,0,0,1-.45,2.68,32,32,0,0,1-1,4.17c-.54,1.75-1,3.51-1.65,5.24a33.82,33.82,0,0,1-2.07,5.26c-1.29,2.32-1.64,4.84-2.1,7.35-.22,1.2.17,2.49-.41,3.66.27,2.58-.36,5.12-.41,7.68a36.92,36.92,0,0,1-.28,6.55,10,10,0,0,1-1.89,4.78c0,.8-1.19,1-.85,2a10.47,10.47,0,0,0,1.21,1c2,1.34,4,2.73,5.89,4.25s3.81,2.81,5.73,4.18,4,3,6,4.45c1.26.93,2.62,1.76,3.8,2.79.88.78,2,1.18,2.82,2a65,65,0,0,0,5.42,4.08c1.73,1.32,3.43,2.69,5.26,3.87a57.37,57.37,0,0,1,5,3.67,6.8,6.8,0,0,0,.88-1.12,14.18,14.18,0,0,1,2.74-3.61A9.17,9.17,0,0,1,93.51,162a4.13,4.13,0,0,0,2.52-.39,10.43,10.43,0,0,0,5.09-1.55C103,159.05,105,158.17,106.41,156.21ZM72.67,142.48a33.71,33.71,0,0,1,0,3.78,8.06,8.06,0,0,0,.48,3.08,4,4,0,0,0,2.37,3,9.57,9.57,0,0,0,3.48.85q24.68,0,49.34,0a18,18,0,0,0,4.06-.33,5.26,5.26,0,0,0,3.75-4.23c.19-2,0-4.05,0-6.1ZM72.67,38h63.5c0-1.58,0-3.1,0-4.62A5.34,5.34,0,0,0,131,28c-17.07.11-34.13.05-51.2.06-1.47,0-3-.19-4.39.53a7.36,7.36,0,0,1-.93.92c-1.33.95-1.54,2.46-1.73,3.86A34.74,34.74,0,0,0,72.67,38Zm72.48,64.7a22.27,22.27,0,0,1-2.45,0,3,3,0,0,0-1.74.43c-2.91,1.42-5.78,3-8.67,4.41a19.15,19.15,0,0,1-2.16,1.22,5.1,5.1,0,0,0-2.18,1.22c-1.25-.18-1.81,1-2.58,1.54a4.83,4.83,0,0,0-1.83,3.79,5.89,5.89,0,0,0,3,5.34,4.12,4.12,0,0,0,3.26.74,19.21,19.21,0,0,0,3.95-1.53c.92-.53,1.82-1.11,2.77-1.61,1.66-.87,3.42-1.57,5.06-2.51s3.45-1.8,5.19-2.69c2.35-1.21,2.85-3.38,2.23-5.64a6.28,6.28,0,0,0-2.52-3.7A8.34,8.34,0,0,1,145.15,102.66Zm3.26-15.51c0-.82-.8-1.21-1.2-1.78a5.17,5.17,0,0,0-4.76-2.61c-.63,0-1.27,0-1.79,0a58.5,58.5,0,0,0-6.48,4.9c-1.41,1.18-2.89,2.31-4.35,3.41a26.85,26.85,0,0,0-4.2,3.55c-1.27,1.43-1.81,4.34-.89,6,1.74,3,5.54,4.45,8.48,2.15,1-.13,1.38-1.16,2.18-1.64a24.19,24.19,0,0,0,3.78-2.83c1.42-1.29,3.25-2.06,4.44-3.61,0-.07.29,0,.36,0a41.07,41.07,0,0,0,3.64-3.22,2.74,2.74,0,0,0,.79-2C148.38,88.68,148.41,87.92,148.41,87.15Zm-8.74,34.65c-.71.06-1.86-.27-2.88.37a13.54,13.54,0,0,1-3.17,1.56c-1.2.36-2.09,1.37-3.38,1.5-.58.87-1.66.92-2.45,1.49a4,4,0,0,0-1.45,5.34,6.29,6.29,0,0,0,1.78,2.11c.88.7,1.82,1.49,3,.62.86.14,1.46-.52,2.13-.83,2-.93,3.89-1.94,5.89-2.82,2.7-1.19,4.28-2.68,3.86-5.93,0-.06,0-.12,0,.12A5,5,0,0,0,139.67,121.8Zm0-73V64.41c1.62-1.23,3.06-2.52,4.57-3.74,1.86-1.48,3.53-3.19,5.27-4.83a4.85,4.85,0,0,0,.82-6.28c-.51-.76-.83-1.69-1.6-2.18a12.06,12.06,0,0,0-2.88-1.3c-1.19-.37-3.85.48-4.76,1.36C140.58,47.93,140.09,48.42,139.67,48.84Z"/>
    <path class="cls-2"
          d="M45.13,154.49a13,13,0,0,0,0,2.07c.23,1.32-.57,2.34-1,3.41a4.64,4.64,0,0,1-2.65,2.23,6.65,6.65,0,0,1-4,.49,6,6,0,0,1-3.29-1.62,8.73,8.73,0,0,1-2.09-4.44,11,11,0,0,1,1-3.58c.46-1.1,1.48-1.66,2.18-2.53,1.47-.29,2.89-1.21,4.42-.78a7.63,7.63,0,0,1,3.77,2,13.23,13.23,0,0,1,1.2,2.18A7.23,7.23,0,0,0,45.13,154.49Zm-3.44,3.06c0-.7,0-1.41,0-2.11a1,1,0,0,0-.12-.32,3,3,0,0,0-2.79-2,3.36,3.36,0,0,0-2.86,2.15,2.79,2.79,0,0,0,.94,3.53,3.44,3.44,0,0,0,3.89-.34C41.07,158.19,41.38,157.86,41.69,157.55Z"/>
    <path class="cls-3"
          d="M113.41,69c3,0,6.07,0,9.13,0,.35,0,.75-.15,1.06.22s.5.09.79-.09c.59-.38,1-.08,1.39.37V82h-13V75.5c0-1.78,0-3.57,0-5.35A1.37,1.37,0,0,1,113.41,69Zm2.9,9.5h6v-6h-6Z"/>
    <path class="cls-4"
          d="M95.94,111.81H83.45V99.35s0,0,.06-.07a.35.35,0,0,1,.16-.06H95.94Zm-3.41-9.09H86.82v5.61h5.71Z"/>
    <path class="cls-5"
          d="M83.42,81.94V69h3.93a27.86,27.86,0,0,0,4.19,0c1.26-.19,2.46,1.1,3.69,0a1,1,0,0,1,.78,1.1C96,74,96,78,96,81.94Zm3.06-3.44h6.46c0-1.08,0-2.09,0-3.09a26.72,26.72,0,0,0,0-3c-1.86,0-3.57,0-5.28,0a1.32,1.32,0,0,0-1.13.56Z"/>
    <path class="cls-6" d="M86.41,89.85v4.34h-3v-8.7H99.4V76.71h3V88.89H87.78C87.26,88.88,86.74,88.83,86.41,89.85Z"/>
    <path class="cls-7"
          d="M99.64,93.86h2.86c0,.79,0,1.59,0,2.4v2.51h7a1.23,1.23,0,0,1,.18.2.35.35,0,0,1,.06.16v12.64H101v-3.31h5.29c.07-1,0-2,0-3s0-2,0-3.1H99.66A42.9,42.9,0,0,1,99.64,93.86Z"/>
    <path class="cls-8"
          d="M101,69h8.16c.58.33.58.81.58,1.34q0,4.95,0,9.94c-.51.32-1.08.13-1.63.16s-1.13,0-1.75,0V72.54a13.83,13.83,0,0,0-2.64-.09c-.88,0-1.77,0-2.71,0Z"/>
    <path class="cls-9" d="M117.77,92.65v3.44h-11V87c1.13.21,2.32-.41,3.41.52v5.18Z"/>
</svg>