<svg id="Layer_1" data-name="Layer 1" xmlns="http://www.w3.org/2000/svg" viewBox="0 0 200 200">
    <defs>
        <style>.cls-1{fill:#06c4ff;}</style>
    </defs>
    <title>Ultimate Compatibility - Cyan</title>
    <path class="cls-1"
          d="M31.83,146.83c1-2.42,2.87-3.26,5.41-3.16,2.37.08,2,.28,2-2,0-3.72,0-7.45,0-11.17a3.65,3.65,0,0,1,.21-1.57,1.91,1.91,0,0,1,2.13-1.23,1.84,1.84,0,0,1,1.69,1.62,7.33,7.33,0,0,1,.06,1.33c0,3.85,0,7.71,0,11.57,0,1.5,0,1.5,1.55,1.5H154.29a9.35,9.35,0,0,1,1.06,0c1,.12,1.28-.35,1.17-1.24a4.68,4.68,0,0,1,0-.53V88.32c0-1.33,0-1.31-1.17-.74a18.56,18.56,0,0,1-2.66,1.2,1.32,1.32,0,0,0-1.05,1.54c0,5.5,0,11,0,16.49,0,8.38-.08,16.77,0,25.15a5.59,5.59,0,0,1-6,6q-45.75,0-91.52,0a5.59,5.59,0,0,1-6-5.93q.12-24.28,0-48.56a5.54,5.54,0,0,1,5.87-5.88c2.16.12,4.34,0,6.51,0,.89,0,1.17-.28,1.14-1.14-.06-1.24,0-2.48,0-3.73,0-.65-.21-1-.92-.94-5.23,0-10.47,0-15.7,0-1.13,0-1.6.52-1.7,1.63,0,.44,0,.88,0,1.33v44.29a12.16,12.16,0,0,1-.06,1.6,1.82,1.82,0,0,1-1.74,1.7A2,2,0,0,1,39.43,121a4.19,4.19,0,0,1-.14-1.45V74c0-3.93,2.27-6.17,6.21-6.17,5,0,9.93,0,14.9,0,1.07,0,1.34-.33,1.33-1.35,0-7.53,0-15.07,0-22.61A8.55,8.55,0,0,1,62,41.09a5.6,5.6,0,0,1,5.56-3.93c7.53,0,15.07,0,22.61,0H102.3c3.77,0,6.13,2.36,6.14,6.16,0,7.67,0,15.34,0,23,0,1.46,0,1.47,1.41,1.47h8.65c2,0,1.63.07,1.66-1.6a24.65,24.65,0,0,1,2.2-9.78,2.14,2.14,0,0,1,2.25-1.51c1.48.15,2.17,1.55,1.49,3.13a22.24,22.24,0,0,0-1.73,6.51A19.86,19.86,0,1,0,164,65.6c-.39-7.86-4.28-13.76-11.41-17.12s-14-2.46-20.35,2.06c-.33.23-.63.5-1,.71a2,2,0,0,1-2.73-.45A2,2,0,0,1,128.8,48a6.73,6.73,0,0,1,.71-.59c7.35-5.35,15.35-6.6,23.75-3.12s13.26,9.89,14.57,18.85c1.1,7.57-1.2,14.18-6.39,19.77a2.82,2.82,0,0,0-.85,2.1q0,28.61,0,57.2c0,1.43,0,1.42,1.46,1.44a21,21,0,0,1,2.38.1,3.91,3.91,0,0,1,3.52,3.48,34.37,34.37,0,0,1-.12,8.48,8.62,8.62,0,0,1-8.44,7.1H159q-59.07,0-118.13,0a8.79,8.79,0,0,1-8.52-5.65c-.17-.44-.16-1-.53-1.32Zm68.11-13H145c2.54,0,2.54,0,2.54-2.48v-4.79q0-17.55,0-35.11c0-.75.09-1.35-1.07-1.24a23.28,23.28,0,0,1-20.06-7.69,2.41,2.41,0,0,0-2-.82c-4.84,0-9.67,0-14.5,0-1.54,0-1.55,0-1.55,1.61q0,11.64,0,23.27c0,3.89-2.33,6.24-6.19,6.24q-17.16,0-34.32,0c-3.89,0-6.16-2.28-6.21-6.2,0-1.68,0-3.37,0-5,0-6.17,0-12.33,0-18.49,0-1.11-.33-1.45-1.43-1.4-1.9.08-3.81,0-5.71,0-2.11,0-2.27.16-2.27,2.27V131.6c0,.31,0,.62,0,.93a1.16,1.16,0,0,0,1.33,1.29H99.94Zm4.41-64.48q0-12.64,0-25.28a8.75,8.75,0,0,0-.07-1.45,1.45,1.45,0,0,0-1.4-1.37c-1.42,0-3-.33-4.2.16-.82.33-.64,2-.92,3a4.35,4.35,0,0,1-4.48,3.61q-8.19.06-16.36,0a4.32,4.32,0,0,1-4.49-3.58c-.3-1-.09-2.51-.93-3.08s-2.23-.16-3.38-.17c-1.82,0-2.26.44-2.26,2.29q0,25.8,0,51.61c0,1.13.35,1.39,1.43,1.39,11.88,0,23.77,0,35.65,0,1.44,0,1.45,0,1.45-1.46Zm-4.54,89.44h58.93c3.08,0,5.1-1.75,5.24-4.64.08-1.81,0-3.63,0-5.45,0-.63-.25-.89-.86-.87-.36,0-.71,0-1.06,0H112.47c-.31,0-.63,0-.93,0-.77-.07-1,.3-1,1a19,19,0,0,1,0,2.39,3.68,3.68,0,0,1-3.81,3.63q-6.85,0-13.7,0a3.67,3.67,0,0,1-3.74-3.7c0-.84,0-1.68,0-2.53,0-.55-.19-.83-.76-.81-.4,0-.8,0-1.2,0H37.85c-.31,0-.63,0-.94,0-.78-.08-1.11.21-1.07,1.05a37.66,37.66,0,0,1,0,4.25c-.25,3.36,2,5.73,5.7,5.71C61,158.74,80.39,158.79,99.81,158.79ZM85.2,100.55c-6.07,0-12.14,0-18.21,0-.82,0-1.2.16-1.16,1.08.06,1.73,0,3.46,0,5.19,0,1.47.53,2,2,2q17.22,0,34.42,0c1.45,0,2-.54,2-2,0-1.64-.06-3.28,0-4.92.06-1.09-.36-1.3-1.36-1.3C97.07,100.57,91.14,100.55,85.2,100.55Zm30.45-22.91c2.13,0,4.25,0,6.38,0,.69,0,.88-.16.54-.83A19.31,19.31,0,0,1,121,72.6c-.15-.62-.47-.75-1-.75-3.55,0-7.09,0-10.64,0-.72,0-.91.29-.89.94,0,1.24,0,2.49,0,3.73,0,.84.2,1.17,1.1,1.14C111.57,77.6,113.61,77.64,115.65,77.64ZM85.1,43.94h6.77c2,0,1.92,0,2.23-1.92.12-.7-.09-.81-.72-.81-5.49,0-11,0-16.47,0-.29,0-.65-.1-.85.19-.43.62.57,2.51,1.34,2.52C80,44,82.54,43.93,85.1,43.94ZM100,150.8c1.86,0,3.72,0,5.58,0,.65,0,1-.15,1-.88a6.76,6.76,0,0,1,0-1.19c.05-.72-.31-.9-1-.9-3.72,0-7.44,0-11.16,0-.71,0-1.1.19-1,1a2.51,2.51,0,0,1,0,.67c-.14,1,.19,1.41,1.29,1.35C96.4,150.73,98.18,150.8,100,150.8Z"/>
    <path class="cls-1"
          d="M129.41,66.32a5.36,5.36,0,0,1,3.4-4.65,5.52,5.52,0,0,1,6.29,1c1.58,1.37,1.56,1.38,3-.09,2.32-2.32,4.59-4.68,7-6.94A5.72,5.72,0,0,1,158.58,58a5.36,5.36,0,0,1-1.21,5.68q-6.93,7.07-14,14a3.93,3.93,0,0,1-5.64,0c-2.32-2.24-4.6-4.54-6.85-6.86C129.83,69.7,129.41,68.44,129.41,66.32Zm4.08.78c0,.52.4,1,.85,1.41,1.82,1.81,3.67,3.59,5.43,5.46.66.7,1,.62,1.64,0,4.11-4.16,8.25-8.27,12.38-12.41a5,5,0,0,0,.63-.68,1.64,1.64,0,0,0-.09-2.19,1.69,1.69,0,0,0-2.29-.15,7.46,7.46,0,0,0-.77.72c-2.91,2.91-5.81,5.83-8.74,8.73-1.37,1.37-2.51,1.36-3.9,0-.79-.77-1.55-1.57-2.37-2.32a1.51,1.51,0,0,0-1.84-.23A1.72,1.72,0,0,0,133.49,67.1Z"/>
    <path class="cls-1"
          d="M92.62,73a3.06,3.06,0,0,1,3.09-3.12,3.1,3.1,0,0,1,3.13,3.11,3.23,3.23,0,0,1-3,3.1A3.15,3.15,0,0,1,92.62,73Z"/>
    <path class="cls-1"
          d="M82,72.92a3,3,0,0,1,3.12-3.08,3.1,3.1,0,0,1,3.09,3A3.22,3.22,0,0,1,85.13,76,3.11,3.11,0,0,1,82,72.92Z"/>
    <path class="cls-1" d="M71.32,73a3.11,3.11,0,0,1,6.22-.13A3.21,3.21,0,0,1,74.49,76,3.15,3.15,0,0,1,71.32,73Z"/>
</svg>