<svg xmlns:xlink="http://www.w3.org/1999/xlink" id="Layer_1" data-name="Layer 1" xmlns="http://www.w3.org/2000/svg"
     viewBox="0 0 200 200">
    <defs>
        <style>
            .cls-1{fill:url(#New_Gradient_Swatch);}.cls-2{fill:url(#New_Gradient_Swatch-2);}.cls-3{fill:url(#New_Gradient_Swatch-3);}.cls-4{fill:url(#New_Gradient_Swatch-4);}.cls-5{fill:url(#New_Gradient_Swatch-5);}.cls-6{fill:url(#New_Gradient_Swatch-6);}.cls-7{fill:url(#New_Gradient_Swatch-7);}.cls-8{fill:url(#New_Gradient_Swatch-8);}.cls-9{fill:url(#New_Gradient_Swatch-9);}.cls-10{fill:url(#New_Gradient_Swatch-10);}.cls-11{fill:url(#New_Gradient_Swatch-11);}.cls-12{fill:url(#New_Gradient_Swatch-12);}.cls-13{fill:url(#New_Gradient_Swatch-13);}.cls-14{fill:url(#New_Gradient_Swatch-14);}
        </style>
        <linearGradient id="New_Gradient_Swatch" x1="56.33" y1="100" x2="143.69" y2="100"
                        gradientUnits="userSpaceOnUse">
            <stop offset="0" stop-color="#06c4ff"/>
            <stop offset="0.52" stop-color="#0683ff"/>
            <stop offset="1" stop-color="#f90680"/>
        </linearGradient>
        <linearGradient id="New_Gradient_Swatch-2" x1="67.85" y1="99.98" x2="132.14" y2="99.98"
                        xlink:href="#New_Gradient_Swatch"/>
        <linearGradient id="New_Gradient_Swatch-3" x1="79.7" y1="141.38" x2="120.29" y2="141.38"
                        xlink:href="#New_Gradient_Swatch"/>
        <linearGradient id="New_Gradient_Swatch-4" x1="38.67" y1="79.37" x2="50.39" y2="79.37"
                        xlink:href="#New_Gradient_Swatch"/>
        <linearGradient id="New_Gradient_Swatch-5" x1="149.59" y1="79.4" x2="161.21" y2="79.4"
                        xlink:href="#New_Gradient_Swatch"/>
        <linearGradient id="New_Gradient_Swatch-6" x1="38.75" y1="120.69" x2="50.39" y2="120.69"
                        xlink:href="#New_Gradient_Swatch"/>
        <linearGradient id="New_Gradient_Swatch-7" x1="149.53" y1="120.68" x2="161.22" y2="120.68"
                        xlink:href="#New_Gradient_Swatch"/>
        <linearGradient id="New_Gradient_Swatch-8" x1="32" y1="100.04" x2="46.76" y2="100.04"
                        xlink:href="#New_Gradient_Swatch"/>
        <linearGradient id="New_Gradient_Swatch-9" x1="153.22" y1="100.05" x2="168" y2="100.05"
                        xlink:href="#New_Gradient_Swatch"/>
        <linearGradient id="New_Gradient_Swatch-10" x1="84.83" y1="32.85" x2="104.72" y2="32.85"
                        xlink:href="#New_Gradient_Swatch"/>
        <linearGradient id="New_Gradient_Swatch-11" x1="108.19" y1="32.85" x2="115.11" y2="32.85"
                        xlink:href="#New_Gradient_Swatch"/>
        <linearGradient id="New_Gradient_Swatch-12" x1="92.59" y1="169.76" x2="107.41" y2="169.76"
                        xlink:href="#New_Gradient_Swatch"/>
        <linearGradient id="New_Gradient_Swatch-13" x1="84.81" y1="100.04" x2="115.18" y2="100.04"
                        xlink:href="#New_Gradient_Swatch"/>
        <linearGradient id="New_Gradient_Swatch-14" x1="92.58" y1="100.04" x2="107.41" y2="100.04"
                        xlink:href="#New_Gradient_Swatch"/>
    </defs>
    <title>Wall and floor product visualizer - Gradient</title>
    <path class="cls-1"
          d="M132.18,20.2a5.52,5.52,0,0,0,1.95.51,12.55,12.55,0,0,1,9.5,11.93c.1,5.24,0,10.5,0,15.74,0,1.67-.88,2.63-2.24,2.63s-2.22-.95-2.24-2.62c0-2.24,0-4.48,0-6.71,0-.94-.21-1.44-1.28-1.43q-6.09,0-12.19,0a1.67,1.67,0,0,0-1.63,1.16c-2.25,4.6-1.66,4-6.59,4-12.34,0-24.68,0-37,0-1.9,0-3.16-.59-3.71-2.36C76,40.7,74.56,40,72.1,40.14c-3,.25-6.14.06-9.21.07-2,0-2,0-2,2.06v111c0,1.72,0,3.43,0,5.15,0,1.11.4,1.51,1.44,1.44.47,0,.94,0,1.41,0h72.65l1.72,0c.76,0,1.17-.29,1.12-1.11,0-.52,0-1,0-1.56q0-48.64,0-97.3a9.07,9.07,0,0,1,.1-2,2,2,0,0,1,2.21-1.78A2.11,2.11,0,0,1,143.6,58a6.51,6.51,0,0,1,.06,1.4v107c0,8-5.37,13.44-13.4,13.44q-30.3,0-60.62,0c-7.91,0-13.31-5.43-13.31-13.37V33.88c0-7.21,3.71-11.82,10.76-13.39a4.93,4.93,0,0,0,.72-.29Zm-32.1,4.59H69.46A9.46,9.46,0,0,0,67,25c-4.14,1.11-6.19,4.24-6.17,9.26,0,1.22.37,1.62,1.6,1.61,4.58-.06,9.16,0,13.75,0a2.7,2.7,0,0,1,2.74,1.65,11.15,11.15,0,0,1,.68,1.39c.53,1.82,1.75,2.19,3.54,2.17,10.88-.07,21.77-.13,32.65,0,2.66,0,4.35-.56,5.14-3.18.49-1.63,1.72-2.1,3.39-2.07,4.48.08,9,0,13.44,0,.58,0,1.23.17,1.41-.78a8.43,8.43,0,0,0-8.45-10.27ZM100,175.3c10,0,20.1-.16,30.15.06,5.05.11,9.39-3.63,9-9-.15-2.08,0-2.09-2.18-2.09H62.94l-1.25,0c-.58,0-.77.32-.85.87-.89,5.76,2.87,10.16,8.71,10.16Z"/>
    <path class="cls-2"
          d="M100,74.48a33.49,33.49,0,0,1,31.9,23.8,6,6,0,0,1,0,3.51,33.32,33.32,0,0,1-63.73.16,6.43,6.43,0,0,1,0-3.81A33.14,33.14,0,0,1,96.56,74.8Zm.09,4.57a28.88,28.88,0,0,0-27.26,19,5.44,5.44,0,0,0,0,3.91,28.93,28.93,0,0,0,54.41,0,5.46,5.46,0,0,0,0-3.92A28.85,28.85,0,0,0,100.07,79.05Z"/>
    <path class="cls-3"
          d="M100,148.71c-5,0-10,0-15,0-3.6,0-5.3-1.75-5.32-5.36,0-1.56,0-3.12,0-4.67a4.46,4.46,0,0,1,4.5-4.59q15.77-.06,31.52,0a4.43,4.43,0,0,1,4.52,4.56c0,1.66,0,3.32,0,5,0,3.29-1.8,5.06-5.14,5.08C110.1,148.73,105.05,148.71,100,148.71Zm0-10.34c-4,0-8,0-12,0-4.55.05-3.91-.69-4,4,0,2,0,2,2.12,2,8.53,0,17.06,0,25.58,0,4.86,0,4.1.9,4.21-4.33,0-1.32-.51-1.69-1.75-1.67C109.48,138.41,104.74,138.38,100,138.37Z"/>
    <path class="cls-4"
          d="M50.39,83a2.18,2.18,0,0,1-1.12,1.92,1.89,1.89,0,0,1-2.33-.18C44.3,82.2,41.67,79.63,39.16,77a1.91,1.91,0,0,1,.27-2.8A2,2,0,0,1,42.25,74c2.6,2.46,5.1,5,7.62,7.55A2.19,2.19,0,0,1,50.39,83Z"/>
    <path class="cls-5"
          d="M161.21,75.75a2.42,2.42,0,0,1-.93,1.9c-2.2,2.19-4.39,4.4-6.6,6.58-1.25,1.23-2.42,1.33-3.42.37s-.9-2.27.24-3.43c2.26-2.29,4.55-4.54,6.82-6.82a2.3,2.3,0,0,1,2.7-.58A1.89,1.89,0,0,1,161.21,75.75Z"/>
    <path class="cls-6"
          d="M50.39,117a2.81,2.81,0,0,1-.94,2c-2.21,2.19-4.4,4.4-6.62,6.58-1.18,1.15-2.5,1.27-3.43.37s-.85-2.31.36-3.54q3.35-3.36,6.71-6.7a2.2,2.2,0,0,1,2.68-.6A2.12,2.12,0,0,1,50.39,117Z"/>
    <path class="cls-7"
          d="M161.21,124.33a2,2,0,0,1-1.16,2,2,2,0,0,1-2.34-.26c-2.56-2.49-5.12-5-7.58-7.58a2,2,0,0,1,.12-2.94,2,2,0,0,1,2.93-.1c2.54,2.43,5,5,7.5,7.45A1.77,1.77,0,0,1,161.21,124.33Z"/>
    <path class="cls-8"
          d="M39.47,97.9c1.66,0,3.33,0,5,0a2.12,2.12,0,0,1,2.29,2.18,2.08,2.08,0,0,1-2.24,2.1c-3.42,0-6.85,0-10.27,0A2.08,2.08,0,0,1,32,100.07a2.14,2.14,0,0,1,2.33-2.17C36.05,97.86,37.76,97.9,39.47,97.9Z"/>
    <path class="cls-9"
          d="M160.6,97.89c1.66,0,3.32,0,5,0A2.24,2.24,0,0,1,168,100a2.19,2.19,0,0,1-2.33,2.18c-3.38,0-6.75,0-10.13,0a2.16,2.16,0,0,1-2.32-2.18,2.2,2.2,0,0,1,2.4-2.1C157.28,97.87,158.94,97.89,160.6,97.89Z"/>
    <path class="cls-10"
          d="M94.8,35.09c-2.39,0-4.78,0-7.17,0-1.73,0-2.83-.91-2.8-2.25s1.07-2.19,2.72-2.2q7.26,0,14.51,0c1.72,0,2.64.84,2.66,2.2s-1,2.24-2.74,2.25C99.59,35.1,97.19,35.09,94.8,35.09Z"/>
    <path class="cls-11"
          d="M111.58,35.08c-.36,0-.72,0-1.08,0a2.15,2.15,0,0,1-2.3-2,2.13,2.13,0,0,1,2.12-2.37,11.76,11.76,0,0,1,2.78,0,2.07,2.07,0,0,1,2,2.31,2.16,2.16,0,0,1-2.29,2.07C112.41,35.1,112,35.08,111.58,35.08Z"/>
    <path class="cls-12"
          d="M100,172c-1.66,0-3.33,0-5,0a2.24,2.24,0,1,1-.15-4.47c3.43-.07,6.87-.07,10.3,0A2.25,2.25,0,1,1,105,172C103.28,172,101.62,172,100,172Z"/>
    <path class="cls-13"
          d="M115.18,100A15.19,15.19,0,1,1,100,84.88,15.31,15.31,0,0,1,115.18,100Zm-4.48.16a10.71,10.71,0,1,0-10.8,10.59A10.69,10.69,0,0,0,110.7,100.13Z"/>
    <path class="cls-14"
          d="M100.05,92.64a7.4,7.4,0,1,1-7.47,7.26A7.49,7.49,0,0,1,100.05,92.64Zm2.84,7.41a2.9,2.9,0,1,0-3,2.88A2.82,2.82,0,0,0,102.89,100.05Z"/>
</svg>