<svg xmlns="http://www.w3.org/2000/svg" viewBox="0 0 88.09 88.05">
    <defs>
        <style>.cls-1{fill:#06c4ff;}</style>
    </defs>
    <title>Asset 7</title>
    <g id="Layer_2" data-name="Layer 2">
        <g id="Layer_1-2" data-name="Layer 1">
            <path class="cls-1"
                  d="M88.09,83.28c-.1.3-.19.6-.28.9A5.47,5.47,0,0,1,82.75,88H5.93a5.57,5.57,0,0,1-4.75-2.13,5.14,5.14,0,0,1-.71-5.43,5.16,5.16,0,0,1,4.32-3.24,10.57,10.57,0,0,1,1.37-.07H25.52a2.5,2.5,0,0,0,1.16-.12,24.25,24.25,0,0,0,.37-3.47,7.54,7.54,0,0,1-1.8-.67,4.64,4.64,0,0,1-2.36-4.13q0-5.73,0-11.44a4.72,4.72,0,0,1,3.29-4.73,3.52,3.52,0,0,0,.39-.17,2.09,2.09,0,0,0,.1-1c0-4,0-7.91,0-11.87A6,6,0,0,1,33,33.25H55.1a6,6,0,0,1,6.3,6.31c0,1,0,1.95,0,2.93a1.25,1.25,0,1,1-2.49.07c0-1,0-2.06,0-3.09a3.43,3.43,0,0,0-3.7-3.7q-11.13,0-22.28,0a3.43,3.43,0,0,0-3.73,3.67c0,4.15,0,8.31,0,12.47,0,.2,0,.4,0,.67,3,1.21,3.55,3.74,3.24,6.65,3.27-.72,6.48-.29,9.67-.37,3-.07,5.91,0,8.86,0,1.51,0,3-.2,4.55.48.16-1.41-.14-2.78.44-4.06a5.19,5.19,0,0,1,2.93-2.7c0-1.25,0-2.48,0-3.71,0-1,.62-1.57,1.4-1.47a1.27,1.27,0,0,1,1.1,1.4c0,1.21,0,2.41,0,3.62.32.12.6.21.85.33A4.6,4.6,0,0,1,65.17,57c0,4,0,7.91,0,11.87A4.66,4.66,0,0,1,62,73.28c-.3.11-.6.19-1,.3A24.3,24.3,0,0,0,61.37,77a1.93,1.93,0,0,0,1.14.15H81.18c4.22,0,5.45.84,6.91,4.74ZM44,85.53H81.89c.32,0,.64,0,1,0a3,3,0,0,0,2.69-2.68,2.91,2.91,0,0,0-2.22-3.06A4.66,4.66,0,0,0,82,79.67H6c-.23,0-.46,0-.69,0a2.94,2.94,0,1,0,.47,5.85ZM44,71.07h8.69c2.49,0,5,0,7.48,0a2.21,2.21,0,0,0,2.44-2.13c0-4,0-8,0-12a2.07,2.07,0,0,0-1.37-1.92,2.26,2.26,0,0,0-3.16,2.16c0,2.9,0,5.79,0,8.69,0,1.53-.35,1.89-1.85,1.89H31.82c-1.5,0-1.85-.36-1.85-1.89,0-2.87,0-5.74,0-8.61a2.28,2.28,0,1,0-4.56-.06c0,3.67,0,7.34,0,11,0,2,.82,2.82,2.82,2.82ZM32.5,65.23h23c.39-2.45-.22-4-3.24-3.92-5.56.12-11.12,0-16.67,0a8.8,8.8,0,0,0-1,0,2.2,2.2,0,0,0-2,2C32.46,64,32.5,64.56,32.5,65.23ZM35.39,77.1h17.3l-1.33-3.48H36.7Zm-5.77-3.48-.37,3.49H32.7L34,73.62Zm24.45,0,1.3,3.46h3.46l-.39-3.46Z"/>
            <path class="cls-1"
                  d="M88.09,14.11a.7.7,0,0,0-.14.21,4.84,4.84,0,0,1-5.18,3.86c-5.91,0-11.81,0-17.72,0H52.88a2.71,2.71,0,0,1-2.6,2.62c-.52,1.28-1.09,2.53-1.53,3.82a2.73,2.73,0,0,1-3,2.15.72.72,0,0,0-.25,0s0,0-.11.07a2.27,2.27,0,0,0-.11,1.22c0,1.68-.36,2.38-1.26,2.28S42.7,30,42.79,28.05a2.32,2.32,0,0,0-.09-1.17s-.06-.06-.09-.05c-2.07.13-3-1.07-3.56-2.88-.32-1.06-.82-2.07-1.24-3.13a2.71,2.71,0,0,1-2.59-2.58H16.51a4.63,4.63,0,0,0-.15,1.85A5.21,5.21,0,0,1,6.12,21.23a19,19,0,0,1-.24-3c-.6-.06-1.19-.08-1.77-.17a4.76,4.76,0,0,1,.66-9.48c1.37,0,2.75,0,4.13,0,.93,0,1.42.45,1.41,1.24S9.85,11.06,9,11.08c-1.29,0-2.58,0-3.87,0a2.29,2.29,0,0,0-2.54,2.3,2.33,2.33,0,0,0,2.59,2.27h8.54a1.4,1.4,0,0,0,.21-1.06c0-2.87,0-5.73,0-8.6,0-3.29,1.43-5.08,4.63-5.88A1,1,0,0,0,18.74,0H40.42a2.14,2.14,0,0,0,.39.16,5.31,5.31,0,0,1,4.45,5.07.88.88,0,0,0,.29.79h4.72a2.36,2.36,0,0,1,2.28,1.39A8.26,8.26,0,0,1,53,8.6H83a4.69,4.69,0,0,1,4.89,3.73,3.29,3.29,0,0,0,.17.39ZM35.2,15.64V11.22a2.32,2.32,0,0,0-1.06-.12H21.93a6,6,0,0,1-.95,0,1.13,1.13,0,0,1-1-1.26,1.12,1.12,0,0,1,1.12-1.17,8.29,8.29,0,0,1,.86,0H34.15a2,2,0,0,0,1-.1c.57-2,1.19-2.49,3.3-2.49.89,0,1.78,0,2.66,0a4.06,4.06,0,0,0,1.59-.12,2.85,2.85,0,0,0-3-3.32H19.79c-2.3,0-3.42,1.11-3.42,3.43,0,2.9,0,5.79,0,8.69a1.27,1.27,0,0,0,.18,1Zm17.67,0H82.74a5.1,5.1,0,0,0,.68,0,2.29,2.29,0,0,0,2.11-2.31,2.25,2.25,0,0,0-2.18-2.22c-.25,0-.51,0-.77,0H53.94a2,2,0,0,0-1.07.14ZM50.26,8.55H37.83v9.64H50.26ZM8.55,18.22c-.38,1.9.06,3.27,1.22,4a2.67,2.67,0,0,0,3.05-.2,3.45,3.45,0,0,0,.89-3.77Zm32,2.6,1.36,3.39h4.31l1.37-3.39Z"/>
        </g>
    </g>
</svg>