<svg xmlns="http://www.w3.org/2000/svg" viewBox="0 0 72.29 116.18">
    <defs>
        <style>.cls-1{fill:#06c4ff;}</style>
    </defs>
    <title>Asset 6</title>
    <g id="Layer_2" data-name="Layer 2">
        <g id="Layer_1-2" data-name="Layer 1">
            <path class="cls-1"
                  d="M1.14,116.18A2.57,2.57,0,0,1,0,113.77Q0,58.08,0,2.38A2.46,2.46,0,0,1,.42.65,1.59,1.59,0,0,1,2.25.1,1.63,1.63,0,0,1,3.43,1.73c0,1.48,0,2.95,0,4.42,0,.76.23,1,1,1a30.09,30.09,0,0,1,3.29,0c.73,0,1-.17,1-.94-.06-1.36,0-2.72,0-4.08S9.32,0,10.36,0s1.68.8,1.69,2.12,0,2.8,0,4.2c0,.6.2.79.78.77,1.18,0,2.35,0,3.53,0,.67,0,.94-.17.91-.89-.05-1.43,0-2.87,0-4.31A1.7,1.7,0,0,1,18.92,0a1.73,1.73,0,0,1,1.74,1.85c0,1.4.06,2.81,0,4.2,0,.89.28,1.1,1.1,1.05a20.84,20.84,0,0,1,3.06,0c.9.07,1.09-.3,1.06-1.11-.06-1.36,0-2.72,0-4.08a1.71,1.71,0,1,1,3.4-.06c0,1.43,0,2.87,0,4.31,0,.64.12,1,.87.94,1.17-.06,2.34,0,3.52,0,.59,0,.8-.2.79-.79,0-1.43,0-2.87,0-4.31,0-1.25.68-2,1.7-2s1.68.73,1.71,2c0,1.44,0,2.88,0,4.31,0,.59.2.81.79.79,1.21,0,2.43,0,3.64,0,.63,0,.76-.27.75-.82,0-1.36,0-2.72,0-4.08S43.69,0,44.77,0s1.65.78,1.67,2.13.05,2.65,0,4c0,.84.3,1,1.06,1a22.32,22.32,0,0,1,3.06,0c1,.08,1.14-.32,1.1-1.16-.06-1.29,0-2.57,0-3.86S52.31,0,53.37,0,55,.79,55,2.13s0,2.72,0,4.08c0,.72.24.92.91.89,1.14,0,2.28,0,3.41,0,.69,0,.93-.17.91-.88-.06-1.36,0-2.73,0-4.09S60.88,0,61.93,0s1.71.78,1.73,2.07,0,2.73,0,4.09c0,.76.24,1,1,.94,1.13-.06,2.27-.05,3.41,0,.63,0,.87-.17.85-.83,0-1.44,0-2.87,0-4.31,0-1.21.72-2,1.73-1.95a1.76,1.76,0,0,1,1.68,1.91c0,.23,0,.46,0,.68q0,55.53,0,111.06a2.6,2.6,0,0,1-1.13,2.52H70a2.23,2.23,0,0,1-1.18-2.25c.07-1.32,0-2.65,0-4,0-.66-.22-.84-.85-.82-1.17,0-2.35.06-3.52,0-.75,0-.88.27-.85.92,0,1.25,0,2.5,0,3.74a2.35,2.35,0,0,1-1.15,2.39H61.38a2.36,2.36,0,0,1-1.15-2.39c.06-1.24,0-2.49,0-3.74,0-.65-.11-1-.85-.92-1.17.07-2.35.05-3.52,0-.64,0-.87.17-.85.82,0,1.32,0,2.65,0,4a2.22,2.22,0,0,1-1.18,2.25H52.74a2.46,2.46,0,0,1-1.13-2.4c.06-1.28,0-2.56,0-3.84,0-.56-.11-.82-.74-.8-1.25,0-2.49,0-3.74,0-.54,0-.73.18-.72.72,0,1.24,0,2.49,0,3.73a2.93,2.93,0,0,1-1,2.59H44.1A2.58,2.58,0,0,1,43,113.74c.05-1.24,0-2.49,0-3.74,0-.61-.13-.89-.81-.86-1.17,0-2.35,0-3.52,0-.64,0-.87.18-.85.83,0,1.25,0,2.5,0,3.74a2.69,2.69,0,0,1-1,2.47H35.46a2.69,2.69,0,0,1-1-2.47c.06-1.24,0-2.49,0-3.74,0-.64-.21-.85-.86-.83-1.17,0-2.34,0-3.52,0-.68,0-.83.25-.81.86,0,1.24,0,2.49,0,3.74a2.6,2.6,0,0,1-1.09,2.44H26.83a2.87,2.87,0,0,1-1-2.59c.07-1.2,0-2.41,0-3.62,0-.64-.2-.86-.84-.83-1.17,0-2.35.06-3.51,0-.74,0-.89.26-.87.92.05,1.24,0,2.49,0,3.73a2.46,2.46,0,0,1-1.13,2.4H18.41a2.21,2.21,0,0,1-1.18-2.25c.07-1.32,0-2.65,0-4,0-.65-.21-.84-.84-.82-1.18,0-2.35,0-3.52,0-.61,0-.89.11-.86.8.05,1.28,0,2.57,0,3.85a2.39,2.39,0,0,1-1.16,2.39H9.77a2.35,2.35,0,0,1-1.15-2.39c.06-1.24,0-2.49,0-3.74,0-.65-.11-1-.86-.92-1.17.07-2.35.05-3.52,0-.63,0-.87.15-.85.82.05,1.32,0,2.64,0,4a2.23,2.23,0,0,1-1.18,2.26ZM68.86,58.25q0-19.62,0-39.25c0-.87-.2-1.17-1.12-1.15-3.26,0-6.52,0-9.78,0-1.41,0-2.23-.64-2.25-1.69s.79-1.71,2.21-1.72h8.52c2.4,0,2.41,0,2.4-2.34,0-1.81.26-1.59-1.66-1.6H5.94c-2.51,0-2.52,0-2.5,2.45,0,1.61-.25,1.48,1.54,1.48h43.3a9.07,9.07,0,0,1,1.48.06,1.55,1.55,0,0,1,1.37,1.57A1.59,1.59,0,0,1,50,17.73a4.43,4.43,0,0,1-1.58.14q-21.83,0-43.64,0c-1.1,0-1.37.28-1.37,1.37q0,39,0,77.93c0,1,.25,1.32,1.3,1.32q31.42-.06,62.85,0c1,0,1.33-.23,1.32-1.29Q68.83,77.71,68.86,58.25Zm-32.7,47.49H66.27c2.59,0,2.53,0,2.62-2.57,0-1.14-.34-1.34-1.39-1.34q-30.73,0-61.47,0c-2.6,0-2.53,0-2.63,2.58,0,1.15.35,1.33,1.39,1.33C15.25,105.72,25.7,105.74,36.16,105.74Z"/>
            <path class="cls-1"
                  d="M16.64,76.43c0-3.86.1-7.72,0-11.57A14.72,14.72,0,0,1,22.4,52.39c.3-.24.94-.45.3-1-4.11-3.58-3.55-10.52-1.08-14.71a15.86,15.86,0,0,1,3.25-3.91c1.56-1.37,3.15-2.72,4.72-4.09a21.54,21.54,0,0,0,4.19-4.74,2.66,2.66,0,0,1,4.68-.06,26.82,26.82,0,0,0,5.47,5.88c1.51,1.31,3.1,2.56,4.49,4a14,14,0,0,1,3.87,12.91,8.58,8.58,0,0,1-2.51,4.49c-.49.49-.54.75,0,1.21a15,15,0,0,1,5.85,12.76c-.14,8.05,0,16.11,0,24.16,0,3.1-1.34,4.43-4.43,4.43H33.38c-.23,0-.46,0-.68,0-1.16,0-1.88-.7-1.88-1.7a1.68,1.68,0,0,1,1.85-1.7c1.71,0,3.41,0,5.12,0,4.47,0,8.94,0,13.41,0,.78,0,1-.2,1-1,0-8.58,0-17.16,0-25.75,0-4.21-2.41-7.1-5.69-9.4-.28-.2-.58-.36-.86-.55-1.31-.87-1.38-2-.2-3.07a5.2,5.2,0,0,1,.43-.37C49.12,47.62,50,44.85,48.44,40A11.75,11.75,0,0,0,44.76,35a77.78,77.78,0,0,1-7.3-6.64c-.44-.51-.72-1.44-1.31-1.44s-.88.93-1.32,1.43c-2.25,2.58-5,4.61-7.55,6.87A11.52,11.52,0,0,0,23.12,44a6.6,6.6,0,0,0,2.19,5.15c.52.49,1.08,1,1.6,1.44a1.72,1.72,0,0,1-.26,3,17.21,17.21,0,0,0-3.7,3A10.58,10.58,0,0,0,20.06,64q0,12.54,0,25.07c0,1,.25,1.35,1.26,1.26a29.21,29.21,0,0,1,3,0c1.35,0,2.1.61,2.12,1.67s-.76,1.73-2.18,1.74c-1.17,0-2.35,0-3.52,0a3.68,3.68,0,0,1-4-4C16.63,85.28,16.65,80.85,16.64,76.43Z"/>
            <path class="cls-1"
                  d="M10.27,33.25c0,1.77-.5,2.56-1.64,2.6S6.86,35,6.86,33.24a8.49,8.49,0,0,1,0-1.13,1.65,1.65,0,0,1,1.81-1.5,1.58,1.58,0,0,1,1.56,1.62C10.29,32.57,10.27,32.91,10.27,33.25Z"/>
            <path class="cls-1"
                  d="M62,33.17c0-.3,0-.6,0-.9a1.58,1.58,0,0,1,1.52-1.66,1.61,1.61,0,0,1,1.83,1.46,9.66,9.66,0,0,1,0,2.15A1.69,1.69,0,1,1,62,34.08c0-.3,0-.61,0-.91Z"/>
            <path class="cls-1"
                  d="M10.27,83c0,.26,0,.52,0,.79,0,1.17-.67,1.85-1.69,1.84a1.68,1.68,0,0,1-1.71-1.73,14.06,14.06,0,0,1,0-1.59c.06-1.2.77-2,1.78-1.92s1.59.77,1.63,1.93C10.28,82.49,10.27,82.72,10.27,83Z"/>
            <path class="cls-1"
                  d="M62,83c0-.23,0-.45,0-.68,0-1.23.68-2,1.7-2s1.67.76,1.71,2a12,12,0,0,1,0,1.47,1.68,1.68,0,0,1-1.78,1.78A1.64,1.64,0,0,1,62,83.78C62,83.52,62,83.26,62,83Z"/>
            <path class="cls-1"
                  d="M10.27,63.12c0,1.78-.5,2.55-1.66,2.57s-1.75-.82-1.75-2.62a6.07,6.07,0,0,1,0-1.13,1.66,1.66,0,0,1,1.71-1.5,1.65,1.65,0,0,1,1.65,1.66C10.29,62.44,10.27,62.78,10.27,63.12Z"/>
            <path class="cls-1"
                  d="M62,63.07c0-1.83.54-2.66,1.71-2.64s1.71.88,1.7,2.69a6.94,6.94,0,0,1,0,.79,1.73,1.73,0,0,1-1.8,1.78A1.68,1.68,0,0,1,62,63.87C62,63.6,62,63.34,62,63.07Z"/>
            <path class="cls-1"
                  d="M10.26,23.29c0,1.8-.46,2.56-1.62,2.59s-1.78-.79-1.78-2.59a5.7,5.7,0,0,1,.06-1.24,1.58,1.58,0,0,1,1.77-1.4,1.57,1.57,0,0,1,1.57,1.62C10.29,22.6,10.26,23,10.26,23.29Z"/>
            <path class="cls-1"
                  d="M62,23.28c0-.26,0-.53,0-.79,0-1.16.69-1.85,1.69-1.85a1.71,1.71,0,0,1,1.71,1.75,13.88,13.88,0,0,1,0,1.58c-.06,1.22-.75,2-1.79,1.91S62.06,25.14,62,24C62,23.73,62,23.51,62,23.28Z"/>
            <path class="cls-1"
                  d="M10.27,43.16c0,1.82-.54,2.67-1.71,2.65s-1.7-.88-1.7-2.69a7,7,0,0,1,0-1,1.67,1.67,0,0,1,1.77-1.54,1.63,1.63,0,0,1,1.61,1.7C10.29,42.56,10.27,42.86,10.27,43.16Z"/>
            <path class="cls-1"
                  d="M62,43.14c0-1.81.46-2.55,1.62-2.58s1.79.79,1.78,2.58a5.67,5.67,0,0,1-.06,1.24,1.59,1.59,0,0,1-1.78,1.4A1.57,1.57,0,0,1,62,44.16C62,43.82,62,43.48,62,43.14Z"/>
            <path class="cls-1"
                  d="M10.27,53.11c0,1.83-.53,2.67-1.71,2.65s-1.7-.88-1.7-2.69c0-.26,0-.53,0-.79a1.74,1.74,0,0,1,1.79-1.79,1.69,1.69,0,0,1,1.61,1.83C10.28,52.58,10.27,52.85,10.27,53.11Z"/>
            <path class="cls-1"
                  d="M62,53.17c0-.31,0-.61,0-.91a1.67,1.67,0,0,1,1.67-1.77,1.72,1.72,0,0,1,1.73,1.73,12.06,12.06,0,0,1,0,1.7,1.77,1.77,0,0,1-1.75,1.84c-1,0-1.61-.76-1.65-1.92,0-.22,0-.45,0-.67Z"/>
            <path class="cls-1"
                  d="M10.27,73c0,.23,0,.46,0,.68,0,1.26-.65,2-1.7,1.95s-1.66-.73-1.71-2a14.42,14.42,0,0,1,0-1.47,1.76,1.76,0,0,1,1.78-1.8,1.73,1.73,0,0,1,1.62,1.83C10.28,72.48,10.27,72.74,10.27,73Z"/>
            <path class="cls-1"
                  d="M62,73c0-.23,0-.46,0-.68,0-1.22.71-2,1.71-2a1.78,1.78,0,0,1,1.7,1.89,14.06,14.06,0,0,1,0,1.59,1.69,1.69,0,0,1-1.79,1.77c-1,0-1.56-.69-1.61-1.81C62,73.56,62,73.29,62,73Z"/>
            <path class="cls-1"
                  d="M10.27,92.89c0,.3,0,.6,0,.9a1.7,1.7,0,0,1-3.39.14,10.94,10.94,0,0,1,0-1.81,1.7,1.7,0,0,1,1.76-1.81c1,0,1.6.72,1.64,1.9,0,.22,0,.45,0,.68Z"/>
            <path class="cls-1"
                  d="M62,92.94c0-.23,0-.45,0-.68,0-1.24.67-2,1.7-2a1.74,1.74,0,0,1,1.71,1.88,13.87,13.87,0,0,1,0,1.58,1.7,1.7,0,0,1-1.79,1.78A1.67,1.67,0,0,1,62,93.73C62,93.47,62,93.2,62,92.94Z"/>
        </g>
    </g>
</svg>