<svg xmlns="http://www.w3.org/2000/svg" viewBox="0 0 82.39 90.78">
    <defs>
        <style>.cls-1{fill:#06c4ff;}</style>
    </defs>
    <title>Asset 5</title>
    <g id="Layer_2" data-name="Layer 2">
        <g id="Layer_1-2" data-name="Layer 1">
            <path class="cls-1"
                  d="M80.2,0c1.67.79,2.2,2.11,2.19,3.94,0,12.43,0,24.87,0,37.31,0,.3,0,.59,0,.89a1.37,1.37,0,0,1-1.3,1.49,1.34,1.34,0,0,1-1.39-1.48c0-2.1,0-4.2,0-6.3v-32c0-1.18,0-1.18-1.15-1.18H3.88c-1.14,0-1.15,0-1.15,1.19V86.92c0,1.18,0,1.18,1.15,1.18H78.51c1.15,0,1.15,0,1.15-1.18V49.34a8.61,8.61,0,0,1,0-.88,1.34,1.34,0,0,1,1.39-1.31,1.33,1.33,0,0,1,1.29,1.32,8.61,8.61,0,0,1,0,.88c0,12.5,0,25,0,37.49,0,1.83-.52,3.15-2.19,3.94h-78C.53,90,0,88.68,0,86.85Q.06,45.39,0,3.93C0,2.11.52.79,2.19,0Z"/>
            <path class="cls-1"
                  d="M71.41,45.43V76.89c0,.36,0,.71,0,1.06a1.89,1.89,0,0,1-1.86,1.88c-.3,0-.59,0-.89,0H13.7a9.39,9.39,0,0,1-1.06,0A1.85,1.85,0,0,1,11,78.18a7.46,7.46,0,0,1,0-1.06V13.67a8.75,8.75,0,0,1,0-.89A1.88,1.88,0,0,1,12.81,11c.32,0,.65,0,1,0H68.64a9.3,9.3,0,0,1,1.06,0,1.86,1.86,0,0,1,1.68,1.67,11,11,0,0,1,0,1.15ZM13.7,45.34V75.57c0,.35,0,.7,0,1.06,0,.2,0,.39.26.49a1,1,0,0,0,1.41-.9c0-.26,0-.53.07-.79a31.39,31.39,0,0,1,5.73-16.15,34.42,34.42,0,0,0,4-6.21,3.44,3.44,0,0,0,.38-1.5c0-6.06,0-12.12,0-18.17A15.83,15.83,0,0,1,25.84,30c2.59-12,15.54-15.7,24.51-10.2,5.58,3.43,7.82,9,8.1,15.25.25,5.51,0,11.05,0,16.57a3.19,3.19,0,0,1-.56,2.1.45.45,0,0,0,0,.68,33.49,33.49,0,0,0,2.15,2.7,21.67,21.67,0,0,1,5.4,10.11,39.81,39.81,0,0,1,1.31,9.09c0,.29-.13.68.28.85.9.37,1.6-.07,1.6-1q0-30.72,0-61.43c0-.78-.17-1-1-1q-26.51,0-53,0c-.83,0-1,.25-1,1Q13.73,30,13.7,45.34Zm14.56,5.09c1.8-1.14,3.44-2.12,5-3.2a3.2,3.2,0,0,0,1.32-2.59,1.2,1.2,0,0,0-.38-1,9,9,0,0,1-2.61-6.48q0-3.6,0-7.18a7.73,7.73,0,0,1,9.69-7.53,8.86,8.86,0,0,1,6.84,8.87c0,7.62,0,15.24,0,22.86,0,1.23,0,1.24,1.17.75,1.85-.78,3.68-1.61,5.54-2.35a1.23,1.23,0,0,0,.92-1.36q0-7.8,0-15.59a15.76,15.76,0,0,0-.42-3.69c-1.5-6.31-5.26-11-12.18-11.81a13,13,0,0,0-14.9,13q0,6.6,0,13.2Zm28.21,6.39c-.22-.27-.38-.44-.51-.63a1.17,1.17,0,0,0-1.75-.44c-1.46.71-3,1.28-4.47,1.92a2.67,2.67,0,0,1-2.64-.05c-.66-.44-1-.19-1.48.24A17,17,0,0,1,38.78,62c-3.88,1.05-7.17-.67-8-4.19a8.41,8.41,0,0,1-.16-3.16c.12-.87.25-1.74.4-2.73-1,.61-1.88,1.18-2.78,1.72a2,2,0,0,0-.72.76A15.56,15.56,0,0,0,27,69.77a2,2,0,0,0,2,1.2c1.24,0,2.49,0,3.73,0a7.89,7.89,0,0,1,7.75,5.61.7.7,0,0,0,.82.56c1.15,0,2.3,0,3.45,0,.67,0,.88-.17,1-.86a37,37,0,0,1,2.8-11.39C50.06,61.22,52.29,58.11,56.47,56.82Zm-.23,20.31c2.28,0,4.55,0,6.82,0,.78,0,1.07-.14,1-1a38.74,38.74,0,0,0-1.49-9.32A19.85,19.85,0,0,0,59.15,60a1.45,1.45,0,0,0-1.67-.58,7.77,7.77,0,0,0-4,2.45,15.26,15.26,0,0,0-2.65,4.37,39.41,39.41,0,0,0-2.48,10.2c-.07.55.09.72.65.71C51.4,77.12,53.82,77.13,56.24,77.13ZM34.31,33.89a34.34,34.34,0,0,0,.16,4.65,5.52,5.52,0,0,0,11-.87q0-3.31,0-6.65a6.17,6.17,0,0,0-4.71-5.92A5,5,0,0,0,34.32,30C34.29,31.17,34.31,32.38,34.31,33.89Zm11.13,9.88a8.72,8.72,0,0,1-7.73,1.82c-.46-.11-.51.18-.61.53a6,6,0,0,1-1.94,3.1c-.15.14-.35.27-.42.45-1,2.3-1.8,4.63-1.32,7.2a3.06,3.06,0,0,0,3.38,2.69,7,7,0,0,0,2.71-.75,21.4,21.4,0,0,0,5.65-4.22.85.85,0,0,0,.28-.7Zm-23,18.78c-.15.08-.22.09-.24.13a30,30,0,0,0-4.15,13.94c0,.49.22.52.59.51,2,0,4.07,0,6.11,0,.48,0,.7-.13.73-.63a9.15,9.15,0,0,1,.68-3c.1-.24.13-.43-.1-.62-1.81-1.43-2.37-3.54-3-5.6A18.62,18.62,0,0,1,22.48,62.55ZM32.94,77.13c1.36,0,2.72,0,4.07,0,.61,0,.75-.15.44-.7a5,5,0,0,0-3.93-2.67A24.44,24.44,0,0,0,31,73.71c-2.07,0-2.28.17-2.64,2.24,0,.17,0,.35-.06.52-.08.51.12.68.62.67C30.23,77.11,31.59,77.13,32.94,77.13Z"/>
            <path class="cls-1"
                  d="M5.51,45.32V8.53c0-2.31.76-3.07,3.07-3.07H73.82c2.31,0,3.07.76,3.07,3.08q0,36.87,0,73.75a3,3,0,0,1-.72,2.37,2.53,2.53,0,0,1-1.87.66H44.61c-1,0-1.64-.49-1.66-1.32s.61-1.38,1.69-1.38H73c1.33,0,1.17.18,1.17-1.18q0-36.08,0-72.15c0-.86-.15-1.14-1.09-1.14q-31.9,0-63.82,0c-.82,0-1.08.16-1.08,1q0,36.21,0,72.42c0,.81.21,1,1,1,9.28,0,18.56,0,27.83,0h.71c1.08,0,1.7.54,1.68,1.4s-.62,1.31-1.66,1.31H19.16c-3.6,0-7.21,0-10.81,0-2,0-2.84-.84-2.84-2.86Q5.5,63.89,5.51,45.32Z"/>
        </g>
    </g>
</svg>