<svg xmlns="http://www.w3.org/2000/svg" viewBox="0 0 65.22 65.22">
    <defs>
        <style>.cls-1{fill:#06c4ff;}</style>
    </defs>
    <title>Asset 2</title>
    <g id="Layer_2" data-name="Layer 2">
        <g id="Layer_1-2" data-name="Layer 1">
            <path class="cls-1"
                  d="M0,36.93a9,9,0,0,1,1.47-3.34,7.42,7.42,0,0,1,8.73-2.38c.64.26.64.26.64-.47q0-7.41,0-14.83A4.76,4.76,0,0,1,14.46,11,6.47,6.47,0,0,1,16,10.85H30.75c.72,0,.72,0,.46-.65A7.4,7.4,0,0,1,36.58.12c.12,0,.25,0,.35-.12h2.16a8.16,8.16,0,0,1,4.09,2.05,7.41,7.41,0,0,1,1.71,8.09c-.28.71-.28.71.51.71H51a2.78,2.78,0,0,1,.76.09.86.86,0,0,1,.64.85.89.89,0,0,1-.61,1,1.93,1.93,0,0,1-.68.1H42.83a1.13,1.13,0,0,1-1.1-.61A1,1,0,0,1,42,11,5.43,5.43,0,0,0,38.37,2a5.47,5.47,0,0,0-5.63,4.28A5.33,5.33,0,0,0,34,10.92c.34.39.61.79.39,1.31s-.75.62-1.29.62c-5.68,0-11.37,0-17.06,0A3,3,0,0,0,12.82,16c.07,5.58,0,11.16,0,16.74,0,.19,0,.38,0,.57a1,1,0,0,1-1.77.78,5.29,5.29,0,0,0-2.75-1.37,5.41,5.41,0,1,0,2.51,9.49l.34-.3a1,1,0,0,1,1.66.73c0,2.42,0,4.84,0,7.25a1,1,0,0,1-1,1,1,1,0,0,1-.94-1.08c0-1.55,0-3.1,0-4.64,0-.47-.1-.52-.53-.35A7.36,7.36,0,0,1,.09,39.33,2.34,2.34,0,0,0,0,39.09Z"/>
            <path class="cls-1"
                  d="M44.66,63.27H60.21a2.79,2.79,0,0,0,3-3c0-14.77,0-29.54,0-44.31a2.9,2.9,0,0,0-3.1-3.08c-1.37.07-2.75,0-4.13,0a2.4,2.4,0,0,1-.76-.09.89.89,0,0,1-.67-.9.91.91,0,0,1,.71-.93,1.79,1.79,0,0,1,.51-.07c1.55,0,3.1,0,4.64,0a4.7,4.7,0,0,1,4.74,4.92V60.29a4.7,4.7,0,0,1-4.91,4.93H43c-.51,0-1,0-1.24-.56s0-.95.39-1.35A5.42,5.42,0,1,0,32.63,60,5.12,5.12,0,0,0,34,63.3c.36.4.64.82.38,1.37s-.73.55-1.24.55H15.77a4.69,4.69,0,0,1-4.91-4.75c-.06-2.06,0-4.12,0-6.18,0-.75.42-1.22,1-1.2s1,.46,1,1.19c0,2,0,3.95,0,5.92a2.78,2.78,0,0,0,3.09,3.06H31.47a15.85,15.85,0,0,1-.7-2.19,7.37,7.37,0,0,1,5.62-8.5c.55-.12.69-.35.68-.88,0-1.57,0-3.14,0-4.71,0-.6-.17-.68-.72-.62a13.31,13.31,0,0,1-13.11-5.58,13.19,13.19,0,0,1-2.36-10.26c.21-1.39,1.15-2.11,2.87-2.27a13.66,13.66,0,0,1,14,7.65c.05.12.12.22.18.34.23-.1.22-.31.28-.47a16.23,16.23,0,0,1,2.72-4.65c.53-.64,1.09-.77,1.57-.37s.47,1,0,1.62a13.64,13.64,0,0,0-3.19,10c0,.08,0,.16.05.29a8.78,8.78,0,0,0,2.22-1A16.23,16.23,0,0,0,48,34.61a4.11,4.11,0,0,1,.27-.51,1,1,0,0,1,1.73.83,4.17,4.17,0,0,1-.33.75,17.61,17.61,0,0,1-9.25,8.78,9.74,9.74,0,0,0,3.1.19A14,14,0,0,0,56.24,28.44a.9.9,0,0,0-.83-.82A13.71,13.71,0,0,0,46,29.35c-.91.53-1.47.52-1.81-.08s-.11-1.07.79-1.6a15.56,15.56,0,0,1,10.77-2,2.68,2.68,0,0,1,2.44,2.39,15.35,15.35,0,0,1-2.65,11.79A15.58,15.58,0,0,1,41.23,46.6a11.36,11.36,0,0,1-1.75-.26c-.31-.07-.43,0-.43.29,0,1.81,0,3.61,0,5.41,0,.45.31.44.58.51a7.25,7.25,0,0,1,5.51,5.19,7.16,7.16,0,0,1-.34,5l-.15.35S44.65,63.16,44.66,63.27ZM34.93,44.54,34.24,44a12.23,12.23,0,0,1-3.31-4c-.41-.82.06-1.65.87-1.57a1.15,1.15,0,0,1,.93.77,11.13,11.13,0,0,0,3.76,4.07c.37.26.54.25.56-.27a16.83,16.83,0,0,0-.14-3.17,11.74,11.74,0,0,0-13.39-9.47.75.75,0,0,0-.71.73A11.68,11.68,0,0,0,29.07,43.3,11.34,11.34,0,0,0,34.93,44.54Z"/>
        </g>
    </g>
</svg>