<svg xmlns="http://www.w3.org/2000/svg" viewBox="0 0 69.66 72.18">
    <defs>
        <style>.cls-1{fill:#06c4ff;}</style>
    </defs>
    <title>Asset 1</title>
    <g id="Layer_2" data-name="Layer 2">
        <g id="Layer_1-2" data-name="Layer 1">
            <path class="cls-1"
                  d="M21.58,72.18c-.82-.79-.84-1.21-.11-2.09,2.16-2.59,4.34-5.17,6.49-7.79a2.16,2.16,0,0,1,1.55-.82l10.06-1.19c.86-.1,1.39.24,1.46.91s-.35,1.12-1.17,1.22l-7.33.88c-.84.1-1.68.22-2.52.28a1,1,0,0,0-.72.5l-6.05,7.24c-.26.3-.54.57-.82.86Z"/>
            <path class="cls-1"
                  d="M31.77,32.66a5,5,0,0,0,0-1.46c-.16-2.67-.33-5.34-.44-8,0-.66-.15-.92-.9-.9a2.91,2.91,0,0,1-3.09-3.4,3,3,0,0,1,2.85-2.62,3,3,0,0,1,3,2.34s0,.09,0,.14c.12.45-.11,1.1.24,1.32s.94.09,1.43.1h.07a3.35,3.35,0,0,0,1.39-.06c.44-.23.17-.85.25-1.29a3,3,0,0,1,5.9.63,3,3,0,0,1-2.91,2.86c-1,0-1,0-1.11,1q-.26,4.25-.49,8.51c0,.19-.09.41.08.61,0-.08.09-.14.08-.2-.26-1.36.48-2.37,1.16-3.42C41.12,26,43,23.11,44.8,20.18a11.2,11.2,0,0,0,0-12.52A11.2,11.2,0,0,0,33.5,2.25a11,11,0,0,0-10.11,9c-.12.57-.4,1-1,1.07a1,1,0,0,1-1.06-.66,1.58,1.58,0,0,1,0-1c1.3-5.34,4.57-8.81,9.9-10.19A13.87,13.87,0,0,1,48.57,11.61a13.27,13.27,0,0,1-1.94,9.71c-2,3.12-4,6.21-6,9.3a3.35,3.35,0,0,0-.41,1.31,58.21,58.21,0,0,0-.48,6.19,2.94,2.94,0,0,1-3,2.6c-1.29.05-2.59.05-3.88,0a3.09,3.09,0,0,1-3-3.16c0-.71,0-1.41,0-2.12a3.74,3.74,0,0,0-.31-2.11,1,1,0,0,1-.1-.62,3.93,3.93,0,0,0-.88-2.86c-1.84-2.78-3.62-5.6-5.42-8.4a14.08,14.08,0,0,1-2-4.93,4.52,4.52,0,0,1-.08-.63,1.06,1.06,0,0,1,2.07-.34c.09.31.14.64.21,1A11.53,11.53,0,0,0,25,20.32c2,3.08,3.94,6.17,6,9.23a3.35,3.35,0,0,1,.67,2.29A1.14,1.14,0,0,0,31.77,32.66ZM36,27.31h0c.09-1.52.17-3,.27-4.56,0-.33-.06-.47-.41-.46-.53,0-1.07,0-1.61,0-.89,0-.9,0-.84.92.17,2.88.36,5.75.51,8.63,0,.52.14.79.71.7s1.11.26,1.12-.68C35.82,30.35,36,28.83,36,27.31Zm-1.18,7.38c-.77,0-1.55,0-2.32,0-.33,0-.53,0-.51.45,0,.8,0,1.6,0,2.4a1,1,0,0,0,1.07,1q1.76,0,3.51,0c.74,0,1-.36,1.06-1.11s0-1.5,0-2.25c0-.39-.11-.55-.52-.53C36.4,34.71,35.62,34.69,34.85,34.69ZM30.5,20.16c.2-.09.61.22.62-.35,0-.87-.26-1.37-.84-1.37a.75.75,0,0,0-.82.84C29.45,19.86,29.78,20.15,30.5,20.16Zm8.14-.57c0,.56,0,.56.49.57.76,0,1.19-.29,1.17-.88a.78.78,0,0,0-.83-.84C38.93,18.43,38.66,18.82,38.64,19.59Z"/>
            <path class="cls-1"
                  d="M55.31,38a4.22,4.22,0,0,1,7.12,1.87c.25,0,.38-.25.56-.39a4.12,4.12,0,0,1,5.7.55,4.05,4.05,0,0,1-.44,5.7c-2.23,2-4.51,3.84-6.77,5.75-2.77,2.36-5.59,4.67-8.32,7.08a13.73,13.73,0,0,1-8.57,3.28,1.07,1.07,0,0,1-1.16-.9,1,1,0,0,1,.91-1.21c.78-.14,1.58-.2,2.37-.33a9.56,9.56,0,0,0,4.77-2.25l15.1-12.8a2,2,0,0,0,.74-2.49,1.94,1.94,0,0,0-2-1.11,2.52,2.52,0,0,0-1.34.72c-3.07,2.6-6.14,5.18-9.19,7.8a4.85,4.85,0,0,1-3.35,1.2c-2.64,0-5.27,0-7.9,0a1.22,1.22,0,0,0-1,.39,4.65,4.65,0,0,1-3.43,1.39H29.88c-.79,0-1.21-.32-1.28-.92s.38-1.22,1.26-1.24H34c1.66,0,3.33,0,5,0a2.7,2.7,0,1,0,0-5.38q-7.25,0-14.51,0A15.07,15.07,0,0,0,18,46.16a3.68,3.68,0,0,1-.45.21,1.07,1.07,0,0,1-1.4-.6,1,1,0,0,1,.55-1.35,17,17,0,0,1,5.42-1.7,15.78,15.78,0,0,1,2.38-.16c4.87,0,9.73-.08,14.59,0a3.71,3.71,0,0,0,2.77-1c2-1.77,4.17-3.38,6.09-5.23C50.57,33.82,54.25,34.7,55.31,38ZM46.52,48.31h5.35A1.8,1.8,0,0,0,53,47.94c2.27-1.94,4.55-3.86,6.78-5.83A1.71,1.71,0,0,0,60.16,40,1.94,1.94,0,0,0,57,39.4c-1.63,1.35-3.23,2.73-4.84,4.09ZM44,47.6c3-2.51,5.79-4.89,8.6-7.31a1.92,1.92,0,0,0-2.57-2.85c-2.44,2-4.84,4.08-7.26,6.13-.16.13-.35.26-.11.5A5.13,5.13,0,0,1,44,47.6Z"/>
            <path class="cls-1"
                  d="M14.51,48a1.38,1.38,0,0,1-.49.93A15.3,15.3,0,0,0,10.51,54a6.48,6.48,0,0,1-.82,1.3L2.43,64.44a8.34,8.34,0,0,1-.53.65,1.07,1.07,0,0,1-1.52.14,1,1,0,0,1-.15-1.45c.52-.7,1.07-1.38,1.61-2.06,1.69-2.13,3.37-4.27,5.08-6.39a17.52,17.52,0,0,0,2.22-3.41,15.67,15.67,0,0,1,3.48-4.65,1.09,1.09,0,0,1,1.89.71Z"/>
            <path class="cls-1"
                  d="M17,9.47a15.25,15.25,0,0,1-2.88-1.14.91.91,0,0,1-.27-1.26A.93.93,0,0,1,15,6.51a23.48,23.48,0,0,1,2.69,1,.92.92,0,0,1,.47,1.19A1.08,1.08,0,0,1,17,9.47Z"/>
            <path class="cls-1"
                  d="M14.86,23.7a1.14,1.14,0,0,1-1.12-.84.93.93,0,0,1,.53-1.17,24.19,24.19,0,0,1,2.62-1,1,1,0,0,1,1.2.6.91.91,0,0,1-.28,1.2A15.79,15.79,0,0,1,14.86,23.7Z"/>
            <path class="cls-1"
                  d="M51.56,8.43a1,1,0,0,1,.7-1c.74-.29,1.48-.57,2.24-.83a1.07,1.07,0,1,1,.74,2c-.74.3-1.49.58-2.24.82A1,1,0,0,1,51.56,8.43Z"/>
            <path class="cls-1"
                  d="M14.16,16.12c-.43,0-.85,0-1.27,0a1,1,0,0,1-1-1A1,1,0,0,1,12.74,14a12.06,12.06,0,0,1,2.88,0,1,1,0,0,1,.87,1.1,1,1,0,0,1-1,1C15.05,16.14,14.6,16.12,14.16,16.12Z"/>
            <path class="cls-1"
                  d="M56,22.59a1,1,0,0,1-1.32,1c-.85-.26-1.68-.58-2.5-.92a1,1,0,0,1-.57-1.29.92.92,0,0,1,1.21-.69,26.37,26.37,0,0,1,2.69,1A.86.86,0,0,1,56,22.59Z"/>
            <path class="cls-1"
                  d="M55.49,16.12c-.43,0-.85,0-1.27,0a1,1,0,0,1-1-1A1,1,0,0,1,54.11,14a20.27,20.27,0,0,1,2.81,0,1.06,1.06,0,0,1-.1,2.1c-.44,0-.89,0-1.33,0Z"/>
        </g>
    </g>
</svg>