<svg xmlns="http://www.w3.org/2000/svg" viewBox="0 0 56.16 68.07">
    <defs>
        <style>.cls-1{fill:#06c4ff;}</style>
    </defs>
    <title>Asset 3</title>
    <g id="Layer_2" data-name="Layer 2">
        <g id="Layer_1-2" data-name="Layer 1">
            <path class="cls-1"
                  d="M47.6,68.07c-.45-.34-.8-.72-.57-1.34s.74-.69,1.3-.68q1.37,0,2.73,0a3,3,0,0,0,3-3q0-8.41,0-16.81a2.94,2.94,0,0,0-3-3H38.61a1.24,1.24,0,0,0-.84.3,15.88,15.88,0,0,1-20.21,0,1.27,1.27,0,0,0-.84-.3H5a2.94,2.94,0,0,0-3,3Q2,54.62,2,63a3,3,0,0,0,3.23,3q16.47,0,33,0c1.57,0,3.14,0,4.71,0,.56,0,1.09,0,1.33.64a1.17,1.17,0,0,1-.51,1.38H4.15a8.57,8.57,0,0,1-1.77-.73A4.8,4.8,0,0,1,0,63.2q0-8.58,0-17.14a4.9,4.9,0,0,1,4.83-4.85c3.16,0,6.33,0,9.5,0h.71c0-.08,0-.14,0-.16a20.05,20.05,0,0,1-3.31-7.46c-1.19-4.69-2.42-9.38-3.74-14a5.52,5.52,0,0,1,2.83-5.88,3,3,0,0,1,3.8,1.09c1,1.38,2.05,2.78,3.07,4.17.55.75,1.13,1.48,1.64,2.25.32.48.49.4.8,0,1.72-2.31,3.46-4.6,5.19-6.89a3.75,3.75,0,0,1,.47-.57.94.94,0,0,1,1.27-.08.93.93,0,0,1,.3,1.29,3.78,3.78,0,0,1-.38.54q-2.67,3.55-5.36,7.1a2.18,2.18,0,0,1-3.8,0l-4.69-6.36c-.7-1-1.36-1-2.17-.15a3.26,3.26,0,0,0-.89,3.33C11.57,24.63,12.84,30,14.4,35.23a13,13,0,0,0,10.48,9.54A13.13,13.13,0,0,0,38.41,40c2.6-3.16,5-6.52,7.39-9.81a2.2,2.2,0,0,0-3.53-2.62c-1.05,1.37-2.08,2.76-3.11,4.15a1.05,1.05,0,0,1-1.38.44,1,1,0,0,1-.27-1.63Q39.34,28,41.2,25.54a2,2,0,0,0,.21-2.47,2.22,2.22,0,0,0-2.24-1.13,1.91,1.91,0,0,0-1.43.86L35,26.52a1.35,1.35,0,0,1-.68.61,1,1,0,0,1-1.13-.32,1,1,0,0,1,.06-1.34c1.26-1.69,2.51-3.38,3.77-5.06a2,2,0,0,0,.38-1.93,2.21,2.21,0,0,0-1.72-1.57,2,2,0,0,0-2.21.87c-.63.88-1.29,1.74-1.94,2.61-.5.66-1.06.8-1.58.4s-.54-1,0-1.63c3.34-4.5,6.66-9,10.06-13.46a2.25,2.25,0,0,0-1.36-3.6A2,2,0,0,0,36.44,3q-3,4-6,8a2.92,2.92,0,0,1-.43.5,1,1,0,0,1-1.28,0,.94.94,0,0,1-.25-1.2,2.39,2.39,0,0,1,.21-.34c2.1-2.77,4.17-5.56,6.29-8.31a4.07,4.07,0,0,1,5.31-1,4.26,4.26,0,0,1,2,5.05A5.36,5.36,0,0,1,41.46,7c-1.8,2.41-3.59,4.83-5.41,7.23-.33.43-.3.55.25.69a4.24,4.24,0,0,1,3.19,4.28c0,.49.14.64.6.71a4.22,4.22,0,0,1,3.64,3.83c0,.66.21.86.86.95a4.27,4.27,0,0,1,3.55,5.16,4.48,4.48,0,0,1-.87,1.71l-6.63,8.88c-.14.2-.29.39-.43.6.23.2.49.11.71.11,3.3,0,6.6,0,9.9,0a5,5,0,0,1,5.31,5.33c0,5.23-.08,10.45,0,15.68.06,3-1.34,5.15-4.18,5.87Z"/>
            <path class="cls-1"
                  d="M22.14,7.53a1.11,1.11,0,0,1-.78-.31c-1-.83-2-1.65-2.93-2.49a1,1,0,0,1-.25-1.56,1,1,0,0,1,1.57,0l3,2.53a1,1,0,0,1-.59,1.82Z"/>
            <path class="cls-1"
                  d="M17.39,11a2.34,2.34,0,0,1-.55,0,1,1,0,0,1-.73-1.05A.93.93,0,0,1,17,8.94c1.14-.12,2.29-.21,3.43-.28a1,1,0,0,1,1.2.94c0,.6-.38,1-1.08,1.08Z"/>
            <path class="cls-1"
                  d="M26,4.09a3.6,3.6,0,0,1,0,.58,1,1,0,0,1-1,.86.93.93,0,0,1-1-.89c-.13-1.14-.22-2.28-.29-3.43A1,1,0,0,1,24.62,0c.6,0,1,.38,1.08,1.09C25.79,2.12,25.87,3.13,26,4.09Z"/>
            <path class="cls-1"
                  d="M21.94,48.73a1.21,1.21,0,0,1,1.2.83q1.74,4.75,3.46,9.52a1,1,0,1,1-1.9.71l0-.07c-.22-.5-.22-1.19-.65-1.48s-1.11-.08-1.68-.1-1.37,0-2.06,0a.54.54,0,0,0-.62.44,11.57,11.57,0,0,1-.41,1.12c-.28.71-.79,1-1.38.79A1.05,1.05,0,0,1,17.33,59l3-8c.18-.48.34-1,.53-1.43A1.18,1.18,0,0,1,21.94,48.73Zm0,3.58c-.47,1.27-.85,2.34-1.26,3.4-.11.3,0,.4.28.39H22.9c.36,0,.41-.11.3-.43C22.8,54.62,22.42,53.57,22,52.31Z"/>
            <path class="cls-1"
                  d="M33.3,60.54a5.32,5.32,0,0,1-3.86-1.62c-.52-.53-.57-1.07-.15-1.52a1,1,0,0,1,1.57.08,3.35,3.35,0,0,0,2.58,1,2.15,2.15,0,0,0,.71-.15,1.41,1.41,0,0,0,1-1.16,1.21,1.21,0,0,0-.8-1.25c-1-.48-2.07-.9-3.11-1.34a2.57,2.57,0,0,1-1.57-1.91,3.22,3.22,0,0,1,2.83-3.9,5.1,5.1,0,0,1,3.86,1,1,1,0,0,1,.36,1.49,1,1,0,0,1-1.52.17,3.35,3.35,0,0,0-2.22-.7,1.78,1.78,0,0,0-.82.24,1,1,0,0,0-.52,1,.86.86,0,0,0,.62.77c.86.34,1.72.69,2.57,1.07a3.6,3.6,0,0,1,2.31,2.55,3.52,3.52,0,0,1-3.2,4.08Z"/>
            <path class="cls-1"
                  d="M11.69,48.77c.69,0,1.37,0,2.06,0a1,1,0,0,1,1.05,1,1,1,0,0,1-1,1q-1.26,0-2.52,0c-.41,0-.61.07-.58.53a13.52,13.52,0,0,1,0,1.8c0,.46.17.56.58.54.71,0,1.42,0,2.12,0a1,1,0,0,1,1.15,1,1.07,1.07,0,0,1-1.17,1c-.73,0-1.46,0-2.19,0-.38,0-.5.13-.49.5a17.81,17.81,0,0,1,0,1.79c0,.43.15.53.54.51.8,0,1.59,0,2.39,0s1.21.4,1.21,1-.43,1-1.21,1H9.81c-.82,0-1.17-.36-1.17-1.18q0-4.72,0-9.43a1,1,0,0,1,1.13-1.16c.64,0,1.28,0,1.92,0Z"/>
            <path class="cls-1"
                  d="M43.41,52.69c.74-1.14,1.41-2.18,2.09-3.21.45-.69,1-.86,1.55-.5s.59.94.14,1.63q-1.23,1.92-2.5,3.83a1.61,1.61,0,0,0-.27.93c0,1.3,0,2.61,0,3.91,0,.81-.39,1.26-1.05,1.25s-1-.43-1-1.22a10.21,10.21,0,0,1,0-1.66,6.32,6.32,0,0,0-1.53-5.13,18.59,18.59,0,0,1-1.35-2.05A1,1,0,0,1,39.74,49a1,1,0,0,1,1.48.4C41.94,50.43,42.65,51.53,43.41,52.69Z"/>
        </g>
    </g>
</svg>