<svg xmlns="http://www.w3.org/2000/svg" viewBox="0 0 51.63 51.54">
    <defs>
        <style>.cls-1{fill:#06c4ff;}</style>
    </defs>
    <title>Asset 4</title>
    <g id="Layer_2" data-name="Layer 2">
        <g id="Layer_1-2" data-name="Layer 1">
            <path class="cls-1"
                  d="M35.35,31.89A1.22,1.22,0,0,0,36,32c3,0,6.08,0,9.12,0a2.68,2.68,0,0,1,2.57,1.43,2.65,2.65,0,0,1-.19,2.88A29.06,29.06,0,0,1,27.81,49.32a27.66,27.66,0,0,1-5.14.44H12.05a.78.78,0,0,0-.82.45,2.51,2.51,0,0,1-2.29,1.33H2.66A2.64,2.64,0,0,1,0,48.88Q0,38.2,0,27.52a2.64,2.64,0,0,1,2.64-2.66H9a2.68,2.68,0,0,1,2.63,2.63c0,.44-.21,1.07.12,1.29s.81-.21,1.23-.36L22.52,25a2.87,2.87,0,0,1,.92-.16h10.9a2.68,2.68,0,0,1,2.51,4C36.36,29.88,35.85,30.87,35.35,31.89ZM11.61,39.37c0,2.64,0,5.28,0,7.93,0,.48.09.65.62.65,3.48,0,7,0,10.45,0a25.6,25.6,0,0,0,3.71-.25A27.34,27.34,0,0,0,42.07,40,26.22,26.22,0,0,0,46,35.22a.88.88,0,0,0-.75-1.44h-20c-.87,0-1.24-.27-1.24-.9s.36-.92,1.22-.92c2.5,0,5,0,7.5,0a.71.71,0,0,0,.75-.48c.52-1.08,1.07-2.15,1.61-3.22s.18-1.59-1-1.59H23.78a2.61,2.61,0,0,0-.87.15q-5.4,1.93-10.81,3.85a.63.63,0,0,0-.5.71C11.62,34,11.61,36.7,11.61,39.37ZM1.82,38.16q0,5.19,0,10.37c0,.88.29,1.18,1.15,1.18H8.59c.91,0,1.19-.29,1.19-1.2q0-10.32,0-20.63c0-.91-.28-1.2-1.18-1.2H3c-.94,0-1.21.28-1.22,1.23Z"/>
            <path class="cls-1"
                  d="M51.63,8.5c0,1.86,0,3.73,0,5.6a2.67,2.67,0,0,1-2.83,2.81q-3.39,0-6.78,0a1.06,1.06,0,0,0-.82.34c-.71.74-1.43,1.45-2.16,2.16a.94.94,0,0,1-1.54,0q-1.09-1.07-2.16-2.16a1,1,0,0,0-.82-.35q-3.39,0-6.78,0a2.66,2.66,0,0,1-2.83-2.8q0-5.67,0-11.32A2.66,2.66,0,0,1,27.7,0H38.32c.74,0,1.15.38,1.1,1s-.41.82-1.05.82H27.86c-.83,0-1.13.31-1.13,1.15V14c0,.83.3,1.14,1.13,1.14h7.23a1.47,1.47,0,0,1,1.18.49c.54.57,1.13,1.11,1.68,1.69.25.28.41.25.65,0,.56-.59,1.16-1.14,1.72-1.73a1.35,1.35,0,0,1,1.09-.44h7.16c1,0,1.24-.28,1.24-1.21V3c0-.9-.3-1.19-1.21-1.19H43.49c-.75,0-1.14-.32-1.14-.91S42.74,0,43.49,0h5.39a2.66,2.66,0,0,1,2.75,2.73C51.64,4.65,51.63,6.57,51.63,8.5Z"/>
            <path class="cls-1"
                  d="M12.05,5.33a8.46,8.46,0,1,1-8.49,8.5A8.45,8.45,0,0,1,12.05,5.33Zm6.63,8.51A6.65,6.65,0,1,0,12,20.41,6.7,6.7,0,0,0,18.68,13.84Z"/>
            <path class="cls-1"
                  d="M35.1,10.7H30.54c-.78,0-1.19-.33-1.18-.93s.41-.89,1.15-.89h9.4a.94.94,0,0,1,1,.62.84.84,0,0,1-.26,1,1.11,1.11,0,0,1-.83.24Z"/>
            <path class="cls-1"
                  d="M32.93,6.26h-2.5c-.68,0-1.08-.35-1.07-.92s.39-.89,1-.9h5.06c.65,0,1,.35,1,.89s-.4.92-1.08.93Z"/>
            <path class="cls-1"
                  d="M8.92,13.34a1.1,1.1,0,0,1,.74.35c.33.33.68.64,1,1s.44.32.74,0c1-1.08,2.11-2.13,3.17-3.19.12-.11.23-.24.36-.34a.92.92,0,0,1,1.22.07.87.87,0,0,1,.09,1.16,2.28,2.28,0,0,1-.29.33l-4,4c-.67.66-1.07.66-1.73,0S8.91,15.54,8.3,14.91a.85.85,0,0,1-.2-1A1,1,0,0,1,8.92,13.34Z"/>
        </g>
    </g>
</svg>