<?xml version="1.0" standalone="no"?>
<!DOCTYPE svg PUBLIC "-//W3C//DTD SVG 20010904//EN"
        "http://www.w3.org/TR/2001/REC-SVG-20010904/DTD/svg10.dtd">
<svg version="1.0" xmlns="http://www.w3.org/2000/svg"
     width="986.000000pt" height="792.000000pt" viewBox="0 0 986.000000 792.000000"
     preserveAspectRatio="xMidYMid meet">

    <g transform="translate(0.000000,792.000000) scale(0.100000,-0.100000)"
       fill="#000000" stroke="none">
        <path d="M5276 7554 c-132 -32 -279 -126 -359 -229 -36 -48 -47 -55 -77 -55
l-35 -1 28 -15 c15 -8 27 -17 27 -20 0 -3 -4 -2 -10 1 -5 3 -10 -1 -10 -9 0
-9 5 -16 11 -16 6 0 17 -7 26 -15 8 -8 19 -13 24 -9 5 3 9 2 8 -3 -7 -42 32
-65 63 -36 17 15 20 15 40 -7 17 -18 18 -22 5 -17 -13 5 -17 1 -17 -17 0 -20
6 -24 46 -30 26 -3 80 -6 121 -6 l75 0 -4 38 c-6 51 8 96 40 131 l27 29 1495
3 1495 4 80 -23 c127 -37 209 -86 306 -182 100 -98 154 -186 194 -310 23 -73
28 -110 34 -257 7 -165 13 -205 27 -170 4 12 13 15 29 11 13 -3 37 2 55 11 21
11 45 15 66 12 20 -3 34 -1 36 5 3 8 56 12 157 13 99 1 156 6 163 13 9 9 15 5
24 -16 12 -25 12 -25 13 -4 1 15 7 22 20 22 18 0 20 9 24 93 2 50 3 191 2 312
-1 199 -4 227 -24 290 -57 174 -188 329 -342 404 -158 76 -6 71 -2019 70
-1532 -1 -1814 -3 -1864 -15z m4154 -1134 c0 -5 -4 -10 -10 -10 -5 0 -10 5
-10 10 0 6 5 10 10 10 6 0 10 -4 10 -10z m60 0 c0 -5 -2 -10 -4 -10 -3 0 -8 5
-11 10 -3 6 -1 10 4 10 6 0 11 -4 11 -10z"/>
        <path d="M867 7258 c-18 -6 -26 -15 -23 -24 3 -8 -1 -14 -8 -14 -8 0 -16 -7
-20 -15 -3 -8 -12 -15 -21 -15 -8 0 -15 -4 -15 -9 0 -5 -3 -18 -7 -28 -6 -16
-5 -17 13 -3 19 14 19 14 0 -7 -10 -13 -28 -25 -39 -29 -12 -4 -30 -17 -40
-30 -10 -13 -21 -23 -25 -23 -19 3 -25 -2 -13 -10 12 -8 8 -16 -21 -45 -20
-20 -46 -36 -58 -36 -22 0 -50 -21 -50 -39 0 -5 -12 -19 -26 -30 -15 -12 -23
-25 -18 -32 4 -7 3 -9 -3 -6 -6 4 -16 0 -23 -8 -7 -8 -19 -15 -27 -15 -8 0
-12 -4 -9 -9 6 -9 -60 -81 -74 -81 -4 0 -10 -7 -14 -15 -3 -8 -12 -15 -21 -15
-8 0 -15 -4 -15 -9 0 -5 -14 -24 -31 -43 -17 -18 -38 -41 -47 -50 -8 -10 -24
-18 -34 -18 -10 0 -18 -6 -18 -13 0 -15 -50 -65 -51 -51 -2 30 -18 -40 -18
-83 -1 -60 13 -63 44 -11 17 29 19 30 26 12 4 -10 8 -14 8 -9 1 6 6 3 12 -5 8
-11 9 -7 4 15 -5 26 1 37 38 77 25 25 47 52 50 59 4 10 6 10 6 2 1 -9 7 -7 19
5 10 9 34 30 54 46 20 16 42 41 48 55 6 15 25 36 43 46 42 25 93 77 102 104 4
12 13 20 23 19 9 -2 22 8 30 25 7 15 17 27 23 27 5 0 17 16 26 35 10 20 24 35
34 35 9 0 22 12 27 28 12 31 76 104 89 100 4 -2 18 6 29 17 12 11 36 32 53 47
17 15 31 32 31 37 0 5 15 18 33 30 l32 21 -50 -1 c-27 0 -63 -5 -78 -11z"/>
        <path d="M2145 7260 c-3 -5 -1 -10 4 -10 6 0 11 5 11 10 0 6 -2 10 -4 10 -3 0
-8 -4 -11 -10z"/>
        <path d="M2973 7263 c9 -2 25 -2 35 0 9 3 1 5 -18 5 -19 0 -27 -2 -17 -5z"/>
        <path d="M3756 7228 c-20 -24 -36 -46 -36 -49 0 -4 -9 -9 -20 -12 -24 -6 -26
-32 -5 -53 10 -10 22 -13 37 -8 13 5 26 7 29 6 4 -1 4 8 1 20 -3 14 -1 19 6
14 6 -3 16 3 23 15 l12 22 13 -24 c11 -21 18 -20 16 2 -1 4 6 6 16 5 9 0 16 4
15 11 -2 7 4 10 12 7 8 -4 15 -2 15 4 0 5 10 13 23 16 19 6 14 11 -38 37 -33
16 -65 29 -71 29 -6 0 -28 -19 -48 -42z"/>
        <path d="M4397 7259 c7 -7 15 -10 18 -7 3 3 -2 9 -12 12 -14 6 -15 5 -6 -5z"/>
        <path d="M4731 7247 c24 -13 57 -27 73 -31 25 -6 28 -5 17 8 -7 8 -26 18 -42
21 -16 4 -31 11 -34 16 -4 5 -18 9 -32 9 -23 0 -21 -3 18 -23z"/>
        <path d="M1945 7250 c-3 -5 1 -10 9 -10 9 0 16 5 16 10 0 6 -4 10 -9 10 -6 0
-13 -4 -16 -10z"/>
        <path d="M1990 7249 c0 -5 5 -7 10 -4 6 3 10 8 10 11 0 2 -4 4 -10 4 -5 0 -10
-5 -10 -11z"/>
        <path d="M1955 7210 c-3 -5 1 -10 9 -10 9 0 16 5 16 10 0 6 -4 10 -9 10 -6 0
-13 -4 -16 -10z"/>
        <path d="M4847 7163 c-12 -12 -7 -19 13 -19 11 0 20 6 20 13 0 14 -22 18 -33
6z"/>
        <path d="M4045 7150 c-3 -5 -4 -14 0 -19 3 -5 1 -12 -5 -16 -16 -10 -12 -23
10 -29 11 -3 29 -9 40 -12 16 -4 19 -2 13 13 -5 15 -3 16 8 6 20 -20 29 -16
29 13 0 19 -8 28 -35 40 -41 17 -52 17 -60 4z m71 -28 c-10 -2 -22 0 -28 6 -6
6 0 7 19 4 21 -5 23 -7 9 -10z m-26 -22 c0 -5 -2 -10 -4 -10 -3 0 -8 5 -11 10
-3 6 -1 10 4 10 6 0 11 -4 11 -10z"/>
        <path d="M4223 7083 c9 -2 23 -2 30 0 6 3 -1 5 -18 5 -16 0 -22 -2 -12 -5z"/>
        <path d="M4945 7080 c-3 -5 1 -10 9 -10 9 0 16 5 16 10 0 6 -4 10 -9 10 -6 0
-13 -4 -16 -10z"/>
        <path d="M3540 7019 c0 -5 5 -7 10 -4 6 3 10 8 10 11 0 2 -4 4 -10 4 -5 0 -10
-5 -10 -11z"/>
        <path d="M3895 7020 c-208 -29 -349 -161 -385 -361 -8 -46 -11 -786 -11 -2780
1 -2900 -1 -2797 47 -2891 56 -110 144 -185 259 -221 l70 -22 1135 0 c1073 0
1138 1 1195 18 151 47 256 159 296 317 12 46 14 493 14 2810 l0 2755 -22 70
c-47 150 -146 247 -298 292 -56 16 -138 18 -1150 19 -599 1 -1117 -2 -1150 -6z
m345 -110 c4 -7 11 -33 14 -59 3 -26 17 -63 30 -82 47 -69 23 -66 716 -70 588
-4 628 -3 666 14 50 23 94 86 94 137 0 71 3 72 216 68 171 -3 194 -6 239 -26
55 -25 128 -91 152 -137 47 -89 45 -11 50 -2018 4 -1463 2 -1891 -7 -1902 -9
-10 -33 -15 -76 -15 -35 0 -64 -4 -64 -9 0 -9 15 -13 92 -27 33 -5 38 -10 44
-41 3 -18 3 -37 0 -40 -4 -4 -63 -1 -132 6 -70 6 -129 10 -131 7 -3 -3 -16
-48 -29 -100 -55 -229 -57 -528 -4 -801 16 -82 31 -169 35 -192 4 -23 12 -46
18 -51 7 -6 62 -18 122 -27 61 -9 113 -22 117 -28 4 -7 8 -96 8 -198 0 -224
-14 -287 -81 -363 -48 -55 -94 -80 -181 -101 -88 -21 -2178 -22 -2273 -1 -140
30 -225 109 -260 241 -14 52 -16 145 -16 664 0 448 3 606 12 612 6 4 35 10 63
14 60 8 331 67 431 95 74 20 269 28 279 11 9 -13 11 -1064 3 -1077 -8 -14 23
-24 73 -24 l36 0 1 553 c1 303 2 555 2 560 1 4 31 7 69 7 69 0 99 10 88 28 -4
7 -92 9 -266 5 -189 -4 -260 -2 -260 6 0 13 6 14 89 11 77 -2 131 21 131 57 0
25 -14 29 -54 13 -30 -11 -33 -4 -9 22 15 17 15 21 3 29 -28 18 -62 22 -84 9
-23 -12 -64 -19 -146 -24 -67 -4 -72 -5 -66 -15 8 -12 -23 -36 -59 -48 -16 -5
-30 -16 -30 -24 0 -11 23 -15 100 -19 l100 -5 -65 -8 c-36 -4 -81 -8 -100 -7
-19 1 -104 4 -187 7 l-153 5 0 43 0 43 50 11 c28 6 70 11 93 12 23 1 53 4 67
8 21 6 16 9 -31 19 -30 7 -83 26 -117 42 l-62 29 0 58 0 58 45 0 c58 1 80 20
39 35 -21 8 -35 8 -53 0 -13 -6 -25 -9 -27 -7 -9 9 -4 3686 5 3739 29 170 135
263 320 279 127 10 301 5 311 -11z m-559 -4219 c44 -9 42 -13 -6 -13 -64 0
-75 3 -75 18 0 11 6 13 19 9 10 -3 39 -10 62 -14z m554 -81 c-3 -5 -16 -10
-28 -10 -18 0 -19 2 -7 10 20 13 43 13 35 0z m228 -316 c-1 -109 -2 -353 -2
-541 -1 -302 -3 -343 -16 -343 -14 0 -16 54 -14 488 2 524 5 605 23 599 8 -3
10 -63 9 -203z m-686 180 c-3 -3 -12 -4 -19 -1 -8 3 -5 6 6 6 11 1 17 -2 13
-5z m-82 -19 c-48 -16 -95 -19 -95 -6 0 11 36 18 95 18 l40 1 -40 -13z"/>
        <path d="M5807 5243 c5 -353 0 -436 -31 -441 -24 -5 -66 36 -66 65 0 13 -4 23
-10 23 -5 0 -10 -9 -10 -21 0 -26 -50 -89 -72 -89 -11 0 -18 10 -20 27 -4 36
-47 49 -64 19 -10 -18 -12 -15 -19 22 -6 40 -25 59 -25 27 0 -8 -6 -15 -14
-15 -7 0 -16 -13 -19 -29 -6 -28 -8 -29 -37 -18 -17 6 -30 19 -30 28 0 9 -7
19 -14 22 -8 3 -18 22 -22 41 -8 45 -21 46 -29 2 -4 -21 -14 -36 -25 -39 -13
-3 -21 -20 -28 -58 -8 -43 -11 -49 -17 -32 -4 12 -13 24 -21 27 -10 4 -13 17
-10 42 5 37 -7 74 -23 74 -16 0 -32 -57 -26 -91 3 -19 1 -41 -5 -49 -17 -25
-30 7 -30 71 0 61 -18 82 -47 57 -12 -10 -14 -26 -9 -75 4 -40 3 -63 -4 -63
-11 0 -18 26 -22 79 -4 49 -28 53 -29 4 -1 -95 -25 -148 -41 -91 -3 13 -6 16
-7 9 -1 -12 -4 -12 -13 -3 -16 16 -28 15 -28 -3 0 -14 -3 -14 -24 0 -18 12
-26 13 -31 4 -14 -21 -25 14 -25 77 0 34 -3 97 -7 140 l-7 79 -8 -65 c-4 -36
-10 -87 -12 -115 -9 -97 -19 -138 -37 -156 -29 -29 -47 -23 -55 17 -5 25 -14
38 -31 45 -13 5 -25 9 -26 9 -1 0 -2 -19 -3 -43 -1 -64 -11 -94 -34 -100 -30
-8 -36 14 -44 138 -6 113 -20 185 -36 185 -5 0 -11 -8 -14 -17 -7 -26 -2 -240
6 -248 3 -4 -10 -33 -30 -65 -36 -58 -38 -59 -74 -53 -34 5 -38 3 -38 -16 0
-12 -4 -20 -9 -16 -5 3 -12 1 -16 -5 -8 -12 -52 -13 -59 -2 -3 5 -11 102 -17
215 -7 114 -15 204 -18 201 -3 -3 -7 -51 -7 -106 -1 -75 -5 -104 -17 -115 -14
-14 -16 -12 -22 20 -4 20 -5 59 -4 86 2 29 0 52 -6 52 -5 1 -24 3 -41 5 l-32
2 6 -64 c2 -35 1 -64 -4 -64 -17 1 -44 27 -44 44 0 11 -9 16 -26 16 l-27 0 5
-70 c3 -39 1 -73 -4 -76 -5 -3 -8 -16 -7 -27 5 -65 -2 -207 -11 -207 -5 0 -11
39 -13 88 -1 48 -4 -34 -5 -182 -2 -246 -1 -268 14 -262 10 4 149 7 310 7
l294 0 4 22 c3 12 7 43 9 68 5 54 41 131 78 168 54 54 90 81 107 81 10 0 22 4
28 10 5 5 48 10 96 11 47 1 96 8 109 15 l24 12 -30 7 c-53 12 -59 15 -48 26 6
6 19 6 38 -1 25 -10 87 -5 109 8 17 10 57 8 66 -3 5 -6 -6 -16 -31 -27 -33
-14 -39 -14 -39 -2 0 19 -7 18 -41 -7 -35 -25 -36 -36 -6 -49 42 -17 123 -104
150 -161 15 -31 29 -82 33 -112 l7 -55 247 0 247 1 6 306 c10 452 9 1131 -2
1131 -6 0 -7 -132 -4 -327z m-167 -603 c5 0 12 5 15 10 8 13 35 13 35 -1 0
-13 -81 -94 -109 -109 -27 -14 -35 15 -20 75 9 37 15 46 29 42 15 -4 19 5 26
52 l9 56 3 -62 c2 -35 7 -63 12 -63z m-693 -84 c4 -3 -22 -6 -56 -6 -34 0 -60
3 -57 8 5 9 104 7 113 -2z m593 -12 c0 -6 3 -26 6 -43 6 -30 6 -31 -31 -31
-21 0 -35 -3 -31 -7 4 -5 11 -8 14 -8 4 0 17 -7 30 -16 l23 -16 -32 -7 c-18
-3 -33 -5 -35 -3 -1 1 -6 27 -10 56 -5 39 -4 52 4 47 7 -4 14 3 18 18 6 25 44
34 44 10z m-697 -26 c10 -5 16 -12 13 -15 -7 -8 -106 19 -106 29 0 10 66 0 93
-14z m-380 -112 l28 -23 -20 -24 -20 -24 -31 31 c-53 52 -15 88 43 40z"/>
        <path d="M5600 4596 c0 -9 5 -16 10 -16 6 0 10 4 10 9 0 6 -4 13 -10 16 -5 3
-10 -1 -10 -9z"/>
        <path d="M4442 4840 c0 -19 2 -27 5 -17 2 9 2 25 0 35 -3 9 -5 1 -5 -18z"/>
        <path d="M4033 4780 c0 -47 2 -66 4 -42 2 23 2 61 0 85 -2 23 -4 4 -4 -43z"/>
        <path d="M4391 4813 c1 -34 2 -35 9 -13 11 36 11 50 0 50 -5 0 -10 -17 -9 -37z"/>
        <path d="M4487 4793 c3 -32 10 -63 15 -70 6 -8 3 -15 -11 -23 -30 -15 -26 -31
7 -27 26 4 27 6 27 67 0 41 -5 65 -13 68 -6 2 -12 10 -12 17 0 8 -4 16 -9 20
-6 3 -7 -18 -4 -52z"/>
        <path d="M4910 4401 c-49 -10 -71 -24 -117 -73 -46 -51 -76 -120 -71 -168 5
-54 25 -47 32 12 13 103 60 160 165 200 78 30 162 6 228 -65 41 -44 63 -96 63
-149 0 -18 5 -28 15 -28 19 0 20 60 1 113 -35 96 -118 157 -219 162 -34 2 -78
0 -97 -4z"/>
        <path d="M4930 4307 c-69 -32 -113 -94 -108 -149 4 -44 30 -43 60 2 50 74 139
73 201 -2 20 -24 39 -38 46 -34 26 16 3 113 -36 148 -25 23 -87 48 -115 47
-13 0 -34 -6 -48 -12z"/>
        <path d="M3960 3960 c0 -6 33 -10 83 -10 45 -1 214 -3 375 -6 190 -4 292 -3
292 4 0 5 -7 12 -15 15 -27 11 -735 8 -735 -3z"/>
        <path d="M4380 3335 c0 -8 5 -15 10 -15 6 0 10 7 10 15 0 8 -4 15 -10 15 -5 0
-10 -7 -10 -15z"/>
        <path d="M3957 3274 c-15 -15 8 -24 64 -24 59 0 79 12 37 24 -30 8 -93 8 -101
0z"/>
        <path d="M4090 3260 c0 -5 7 -10 16 -10 8 0 12 5 9 10 -3 6 -10 10 -16 10 -5
0 -9 -4 -9 -10z"/>
        <path d="M4188 3253 c12 -2 30 -2 40 0 9 3 -1 5 -23 4 -22 0 -30 -2 -17 -4z"/>
        <path d="M4288 3253 c6 -2 18 -2 25 0 6 3 1 5 -13 5 -14 0 -19 -2 -12 -5z"/>
        <path d="M3988 3168 c-2 -18 -10 -24 -38 -26 -26 -2 -38 -9 -47 -27 l-11 -25
64 0 c35 0 64 -2 64 -4 0 -3 -4 -16 -10 -30 -9 -24 -14 -26 -75 -26 -42 0 -65
-4 -65 -11 0 -9 20 -10 68 -6 37 4 93 7 124 7 55 0 57 1 49 23 -5 13 -20 25
-37 28 -24 6 -16 14 9 10 5 -1 31 -3 58 -6 28 -2 61 -11 74 -19 20 -13 25 -13
35 -1 7 8 20 15 30 15 10 0 20 7 24 15 3 8 14 15 24 15 27 0 39 17 34 51 -3
21 -9 28 -18 25 -50 -21 -50 -21 -35 -3 12 16 8 17 -58 17 -39 0 -71 -3 -71
-7 0 -3 7 -15 17 -25 15 -17 15 -18 -1 -18 -9 0 -27 11 -40 25 -21 22 -31 25
-94 25 -66 0 -71 -2 -74 -22z m297 -17 c-6 -5 -23 -12 -40 -16 l-30 -6 30 15
c35 17 53 20 40 7z"/>
        <path d="M4384 3103 c3 -21 6 -54 7 -73 2 -30 3 -28 9 15 4 28 11 61 15 75 5
19 4 22 -4 10 -7 -10 -11 -11 -11 -2 0 6 -5 12 -11 12 -8 0 -10 -13 -5 -37z"/>
        <path d="M4150 2936 c0 -18 27 -27 69 -24 31 2 45 18 16 18 -8 0 -15 5 -15 10
0 6 -16 10 -35 10 -24 0 -35 -5 -35 -14z"/>
        <path d="M3950 2900 c0 -10 52 -40 70 -40 23 0 8 22 -25 36 -41 17 -45 17 -45
4z"/>
        <path d="M4338 2883 c7 -3 16 -2 19 1 4 3 -2 6 -13 5 -11 0 -14 -3 -6 -6z"/>
        <path d="M4201 2815 l-25 -13 30 -15 c16 -8 46 -18 66 -22 44 -8 62 -27 53
-55 -8 -24 -5 -24 43 -4 20 9 57 19 82 23 l45 8 -45 12 c-25 6 -67 21 -94 31
-27 11 -64 20 -82 20 -18 0 -37 6 -41 14 -7 12 -12 12 -32 1z"/>
        <path d="M5630 2750 c-13 -9 -11 -14 13 -31 15 -11 27 -27 27 -35 0 -8 9 -14
20 -14 11 0 22 -6 24 -12 3 -7 7 -105 10 -217 6 -207 11 -228 44 -216 8 3 17
5 21 5 4 0 7 66 8 148 0 89 7 190 17 256 14 89 15 111 4 117 -18 12 -170 11
-188 -1z"/>
        <path d="M5490 2705 c-34 -41 -309 -101 -590 -130 -205 -21 -210 -22 -210 -40
0 -20 22 -19 231 5 193 23 333 48 435 79 71 21 164 73 164 91 0 15 -16 12 -30
-5z"/>
        <path d="M4066 2395 c-18 -19 -20 -31 -6 -40 6 -3 10 -39 10 -78 0 -40 7 -153
15 -252 8 -99 15 -220 15 -270 0 -49 5 -97 11 -105 8 -11 9 20 5 110 -4 69 -9
240 -12 380 -3 140 -9 259 -14 263 -4 5 -15 1 -24 -8z"/>
        <path d="M5723 1911 c-13 -10 -23 -26 -23 -35 0 -8 -8 -21 -17 -28 -48 -36
-73 -167 -38 -201 15 -16 93 -32 208 -43 61 -6 67 -5 67 12 -1 29 -47 294 -52
299 -3 3 -31 7 -64 10 -49 5 -63 3 -81 -14z"/>
        <path d="M5917 1913 c-3 -5 3 -57 13 -118 10 -60 21 -131 25 -157 7 -52 5 -51
98 -63 47 -6 47 -6 47 23 0 16 -11 78 -24 138 -13 60 -27 126 -30 147 l-7 37
-59 0 c-32 0 -61 -3 -63 -7z"/>
        <path d="M6897 6960 c17 -34 88 -129 96 -130 5 0 -6 19 -22 43 -39 52 -85 107
-74 87z"/>
        <path d="M7018 6794 c6 -11 19 -27 28 -35 16 -13 16 -12 6 7 -6 11 -19 27 -28
35 -16 13 -16 12 -6 -7z"/>
        <path d="M7146 6640 c20 -37 266 -375 303 -418 22 -26 92 -114 154 -197 76
-100 121 -151 135 -153 12 -2 22 -1 22 3 0 5 -69 95 -192 248 -109 136 -200
250 -285 358 -88 110 -151 184 -137 159z"/>
        <path d="M3434 6432 c-6 -4 -16 -17 -22 -29 -10 -19 -9 -20 9 -16 21 6 34 25
27 42 -1 6 -8 7 -14 3z"/>
        <path d="M161 6394 c0 -11 3 -14 6 -6 3 7 2 16 -1 19 -3 4 -6 -2 -5 -13z"/>
        <path d="M9288 6363 c6 -2 18 -2 25 0 6 3 1 5 -13 5 -14 0 -19 -2 -12 -5z"/>
        <path d="M9368 6363 c6 -2 18 -2 25 0 6 3 1 5 -13 5 -14 0 -19 -2 -12 -5z"/>
        <path d="M1737 6266 c-4 -10 -1 -13 8 -9 8 3 12 9 9 14 -7 12 -11 11 -17 -5z"/>
        <path d="M3232 6267 c-6 -7 -23 -14 -38 -15 -35 -3 -37 -6 -29 -31 6 -21 7
-21 36 -4 44 26 77 63 57 63 -9 0 -20 -6 -26 -13z"/>
        <path d="M880 6248 c0 -4 9 -8 20 -8 11 0 20 4 20 9 0 6 -9 9 -20 8 -11 -1
-20 -5 -20 -9z"/>
        <path d="M775 6180 c-29 -12 -98 -87 -91 -99 4 -5 2 -12 -4 -16 -18 -11 -12
-47 8 -43 9 2 17 8 17 13 1 19 16 55 23 55 17 1 94 79 88 89 -8 13 -14 13 -41
1z"/>
        <path d="M3059 6143 c-6 -7 -17 -13 -23 -13 -6 0 -17 -9 -24 -20 -7 -11 -8
-20 -4 -20 9 0 92 57 92 63 0 10 -32 2 -41 -10z"/>
        <path d="M2810 5869 c0 -5 5 -7 10 -4 6 3 10 8 10 11 0 2 -4 4 -10 4 -5 0 -10
-5 -10 -11z"/>
        <path d="M2655 5829 c-11 -17 1 -21 15 -4 8 9 8 15 2 15 -6 0 -14 -5 -17 -11z"/>
        <path d="M8695 5761 c-11 -5 -96 -13 -190 -20 -93 -6 -215 -16 -270 -21 -55
-5 -130 -12 -168 -15 -37 -4 -65 -10 -62 -14 2 -5 17 -6 32 -3 16 2 25 2 22
-2 -9 -10 40 -59 71 -73 14 -6 44 -16 68 -22 23 -7 42 -16 42 -21 0 -6 7 -10
15 -10 15 0 54 -32 112 -92 20 -21 44 -38 53 -38 9 0 37 -13 61 -30 24 -16 52
-30 62 -30 9 0 17 -5 17 -11 0 -5 4 -8 9 -5 5 3 14 -1 21 -9 7 -8 19 -15 26
-15 8 0 14 -7 14 -16 0 -8 5 -12 10 -9 6 3 10 -1 10 -10 0 -9 5 -13 10 -10 9
5 15 -15 11 -37 0 -5 3 -8 9 -8 5 0 10 -69 12 -165 2 -126 0 -165 -9 -165 -20
0 -53 -33 -53 -52 0 -10 -4 -18 -9 -18 -4 0 -8 17 -7 38 1 31 -2 37 -21 40
-17 3 -26 -3 -32 -21 -7 -17 -20 -26 -43 -30 -18 -3 -46 -8 -63 -12 -16 -3
-40 -8 -52 -11 -12 -2 -25 -13 -28 -24 -3 -11 -12 -20 -19 -20 -16 0 -26 44
-26 114 0 64 -64 421 -82 458 -26 55 -79 27 -110 -57 -5 -13 -6 -9 -3 12 2 17
-3 58 -12 90 -8 32 -18 71 -22 88 -6 25 -14 32 -54 43 -31 9 -47 19 -47 29 0
16 -1 16 -12 0 -7 -9 -29 -17 -48 -19 l-35 -3 3 -50 c2 -27 10 -72 18 -99 17
-61 18 -76 2 -76 -21 1 -67 77 -74 122 -14 89 -48 79 -86 -24 -19 -55 -47 -86
-62 -71 -3 3 -6 26 -6 49 0 24 -4 53 -9 66 -5 13 -12 35 -15 50 -11 48 -38 52
-97 16 l-52 -33 7 -235 c7 -246 13 -295 37 -295 8 0 21 -5 29 -10 8 -6 24 -10
35 -10 14 0 21 -9 26 -30 8 -42 16 -16 22 70 3 39 8 79 13 89 5 14 4 17 -4 12
-17 -10 -15 44 2 67 7 9 16 17 18 17 3 0 9 -70 13 -155 7 -149 8 -155 29 -156
19 -1 18 -2 -4 -8 -33 -9 -41 -51 -11 -51 12 0 21 -4 21 -10 0 -5 -7 -10 -15
-10 -8 0 -15 -6 -15 -14 0 -7 -20 -29 -45 -47 -24 -19 -47 -42 -51 -52 -8 -26
-34 -3 -34 30 0 22 -2 24 -15 13 -13 -11 -14 -10 -9 5 5 13 4 16 -4 11 -8 -5
-12 3 -12 23 0 17 -4 31 -10 31 -6 0 -10 -64 -10 -171 l0 -171 -22 7 c-13 3
-45 12 -72 18 -27 7 -51 17 -53 24 -6 17 55 27 73 12 19 -16 22 -11 29 47 6
49 -6 104 -24 104 -5 0 -13 -17 -18 -37 -12 -52 -30 -52 -40 -1 l-9 43 -17
-32 c-21 -39 -21 -53 -2 -53 25 0 17 -19 -12 -27 -16 -4 -66 -7 -113 -7 -67 1
-95 6 -129 24 -37 18 -41 24 -30 35 18 17 104 3 162 -27 54 -27 67 -19 67 41
0 27 5 62 10 77 12 30 -2 56 -25 48 -7 -3 -23 0 -34 6 -19 10 -22 8 -27 -20
-4 -17 -11 -33 -15 -36 -5 -3 -9 -15 -10 -27 -1 -12 -5 -2 -10 23 -9 44 -11
136 -6 350 7 333 -1 380 -48 277 -23 -49 -29 -56 -44 -47 -36 19 -48 -15 -55
-150 -10 -174 -15 -213 -32 -230 -13 -13 -17 -12 -33 9 -14 19 -20 21 -27 10
-5 -8 -9 -18 -9 -24 -1 -5 -5 -49 -9 -97 -13 -134 -28 -109 -20 32 5 90 4 123
-6 135 -7 8 -10 21 -7 29 3 8 2 27 -2 43 l-8 28 -11 -40 c-11 -43 -24 -150
-26 -223 -1 -37 -5 -46 -24 -53 -18 -7 -22 -5 -22 12 0 14 -5 19 -17 17 -10
-2 -18 -12 -18 -23 0 -14 -9 -21 -34 -26 l-34 -7 7 151 c7 152 22 276 52 417
42 201 40 180 14 200 -15 11 -21 23 -17 34 4 11 3 15 -4 10 -6 -3 -17 3 -25
15 -25 34 -38 24 -56 -42 -57 -208 -70 -260 -84 -337 -8 -47 -19 -94 -25 -105
-5 -11 -9 -56 -7 -100 l3 -80 59 -5 c55 -5 57 -6 40 -21 -25 -22 -61 -32 -69
-19 -9 15 -35 12 -35 -5 0 -8 6 -15 14 -15 10 0 12 -11 8 -47 -3 -27 -10 -52
-16 -56 -8 -6 -7 -10 2 -14 6 -2 12 -14 12 -25 0 -17 -2 -18 -15 -8 -9 7 -18
11 -20 8 -3 -2 -6 -123 -7 -269 l-3 -264 155 -2 c189 -2 260 4 260 23 0 15 35
19 44 5 11 -17 181 -24 531 -22 198 2 517 4 710 4 l350 2 28 124 c28 129 32
139 44 127 13 -13 16 -156 4 -156 -8 0 -9 -5 -1 -19 5 -11 10 -33 10 -49 0
-17 6 -32 15 -36 13 -5 15 90 15 814 0 451 -1 820 -2 819 -2 0 -12 -4 -23 -8z
m-1922 -353 c-3 -18 -12 -28 -23 -28 -24 0 -31 23 -18 61 10 30 11 30 29 12
12 -12 16 -27 12 -45z m1184 -194 c18 -132 28 -267 28 -379 0 -81 -3 -100 -15
-100 -20 0 -25 41 -40 285 -7 113 -14 221 -15 240 -3 40 2 53 18 47 6 -2 17
-44 24 -93z m203 30 c0 -8 -4 -12 -10 -9 -5 3 -10 13 -10 21 0 8 5 12 10 9 6
-3 10 -13 10 -21z m10 -100 c0 -8 -4 -12 -10 -9 -5 3 -10 13 -10 21 0 8 5 12
10 9 6 -3 10 -13 10 -21z m9 -137 c-1 -81 -6 -73 -12 20 -2 34 0 60 5 57 4 -3
7 -38 7 -77z m-1029 -46 c0 -17 -4 -33 -10 -36 -6 -4 -10 8 -10 29 0 20 5 36
10 36 6 0 10 -13 10 -29z m1097 -73 c-2 -18 -4 -4 -4 32 0 36 2 50 4 33 2 -18
2 -48 0 -65z m36 -63 c3 -61 2 -101 -3 -89 -9 24 -18 228 -9 211 4 -7 9 -61
12 -122z m-1146 23 c-3 -7 -5 -2 -5 12 0 14 2 19 5 13 2 -7 2 -19 0 -25z
m1050 -20 c-3 -8 -6 -5 -6 6 -1 11 2 17 5 13 3 -3 4 -12 1 -19z m407 9 c-3 -9
2 -13 13 -13 10 1 18 -3 18 -9 0 -5 -11 -10 -25 -10 -14 -1 -36 -11 -48 -23
-13 -13 -27 -20 -33 -16 -8 4 -7 10 0 17 15 15 14 27 -4 27 -8 0 -15 -5 -15
-10 0 -6 -8 -5 -20 2 -23 15 -22 16 27 33 51 19 94 19 87 2z m-707 -239 c-1
-46 -3 -9 -3 82 0 91 2 128 3 83 2 -46 2 -120 0 -165z m-783 170 c1 -25 -3
-53 -10 -62 -10 -14 -12 -13 -17 11 -3 16 -4 39 -2 53 1 14 3 34 4 45 2 37 22
0 25 -47z m1281 3 c3 -5 -4 -13 -16 -16 -23 -8 -34 -1 -24 14 8 13 32 14 40 2z
m75 -1 c0 -5 -4 -10 -10 -10 -5 0 -10 5 -10 10 0 6 5 10 10 10 6 0 10 -4 10
-10z m-30 -129 c0 -3 -7 -13 -17 -23 -20 -22 -51 -24 -59 -3 -4 10 -20 15 -50
15 -24 0 -44 5 -44 10 0 7 31 10 85 8 47 -2 85 -5 85 -7z m78 -3 c9 -9 12 -9
12 3 0 12 2 12 10 -1 13 -21 -37 -43 -64 -28 -19 10 -19 11 -1 24 23 17 28 17
43 2z m180 -12 c2 -11 0 -16 -6 -12 -6 3 -17 -3 -25 -15 l-15 -21 -12 22 c-17
31 -5 52 27 48 18 -2 29 -10 31 -22z m-1850 -48 c7 -18 23 -46 37 -62 23 -29
24 -30 75 -18 28 7 71 12 95 12 24 0 45 4 47 10 2 6 15 7 31 2 23 -6 7 -11
-80 -25 -59 -9 -135 -19 -168 -23 -54 -6 -58 -5 -41 8 19 15 19 16 -2 46 -12
17 -19 37 -16 46 4 10 1 16 -9 16 -9 0 -19 5 -22 10 -3 6 4 10 17 10 18 0 27
-8 36 -32z m800 16 c6 -2 12 -9 12 -15 0 -8 -13 -9 -42 -5 -48 8 -60 14 -53
26 5 8 47 5 83 -6z m1018 -35 c21 -1 17 -4 -16 -9 -39 -7 -48 -5 -69 15 -35
34 -17 51 23 20 18 -14 46 -26 62 -26z m-313 -1 c34 0 81 0 104 1 23 1 44 -3
48 -9 4 -7 -33 -10 -109 -10 l-116 0 1 33 c1 23 3 26 6 10 4 -21 11 -23 66
-25z m-993 -54 c0 -9 14 -21 30 -27 29 -11 37 -33 12 -31 -7 1 -21 2 -32 3
-11 0 -20 7 -20 15 0 8 -7 17 -16 20 -13 5 -14 9 -4 21 16 20 30 19 30 -1z
m880 7 c0 -6 -4 -13 -10 -16 -5 -3 -10 1 -10 9 0 9 5 16 10 16 6 0 10 -4 10
-9z m-1495 -52 c9 -14 6 -16 -37 -24 -31 -6 -38 -4 -38 8 0 9 11 17 28 20 15
2 30 5 34 6 4 0 10 -4 13 -10z m555 -19 c10 -6 12 -12 5 -19 -7 -7 -20 -4 -40
9 l-30 20 25 0 c14 0 32 -5 40 -10z m-92 -88 c24 -15 61 -42 84 -60 22 -18 69
-48 104 -68 64 -36 81 -50 71 -61 -13 -12 -341 222 -364 260 -4 7 9 -1 28 -16
18 -15 53 -40 77 -55z m292 61 c0 -14 -26 -18 -34 -4 -7 11 0 18 19 18 8 0 15
-6 15 -14z m77 1 c37 -6 126 -42 106 -43 -6 -1 -39 8 -72 18 -50 15 -61 16
-61 5 0 -25 -27 -15 -33 12 -3 20 -1 24 11 19 8 -3 31 -8 49 -11z m-611 -18
c3 -8 7 -23 8 -33 2 -10 10 -17 20 -15 16 3 38 -35 29 -50 -9 -15 -23 -8 -23
12 0 11 -4 20 -8 20 -15 0 -83 66 -76 73 13 12 44 8 50 -7z m-203 -25 c3 -14
1 -18 -9 -14 -15 6 -18 16 -7 26 9 10 10 9 16 -12z m957 -11 c0 -5 -2 -10 -4
-10 -3 0 -8 5 -11 10 -3 6 -1 10 4 10 6 0 11 -4 11 -10z m170 -30 c80 -17 150
-32 155 -35 24 -10 -125 7 -170 21 -27 8 -72 21 -100 28 -80 23 -40 18 115
-14z m-935 -39 c3 -5 1 -12 -4 -15 -13 -9 17 -66 35 -66 8 0 12 -4 9 -10 -14
-22 -37 -8 -56 35 -19 43 -19 65 1 65 5 0 11 -4 15 -9z m1222 -27 c-3 -3 -12
-4 -19 -1 -8 3 -5 6 6 6 11 1 17 -2 13 -5z m273 -24 c0 -5 -5 -10 -11 -10 -5
0 -7 5 -4 10 3 6 8 10 11 10 2 0 4 -4 4 -10z m-1140 -40 c0 -5 -2 -10 -4 -10
-3 0 -8 5 -11 10 -3 6 -1 10 4 10 6 0 11 -4 11 -10z m-25 -40 c3 -5 2 -10 -4
-10 -5 0 -13 5 -16 10 -3 6 -2 10 4 10 5 0 13 -4 16 -10z"/>
        <path d="M7000 5633 c0 -4 5 -15 10 -23 8 -13 10 -13 10 2 0 9 -4 20 -10 23
-5 3 -10 3 -10 -2z"/>
        <path d="M6896 5608 c-9 -35 -8 -38 15 -38 18 0 19 3 9 15 -7 8 -10 22 -6 30
3 8 2 15 -3 15 -5 0 -11 -10 -15 -22z"/>
        <path d="M6568 5614 c-15 -14 -8 -25 12 -19 15 5 21 0 26 -19 6 -26 28 -35 39
-16 3 6 17 10 31 10 26 0 29 7 15 29 -10 15 -111 28 -123 15z"/>
        <path d="M6736 5605 c4 -8 10 -15 15 -15 4 0 6 7 3 15 -4 8 -10 15 -15 15 -4
0 -6 -7 -3 -15z"/>
        <path d="M6563 5493 c0 -29 4 -53 9 -53 14 0 58 51 52 61 -3 5 -16 9 -29 9
-14 0 -25 7 -27 18 -2 9 -4 -7 -5 -35z"/>
        <path d="M3325 5370 c-3 -6 0 -12 7 -15 19 -7 20 -45 2 -52 -20 -7 -47 5 -39
17 5 8 11 7 21 -1 10 -9 14 -9 14 0 0 6 -7 14 -15 17 -8 4 -15 12 -15 20 0 10
-12 14 -39 14 -34 0 -38 -3 -34 -20 3 -11 12 -20 20 -20 7 0 22 -13 31 -30 14
-23 23 -29 47 -27 30 2 30 2 33 -57 2 -46 -1 -62 -12 -68 -9 -5 -16 -22 -16
-38 0 -22 -4 -28 -15 -24 -8 4 -15 2 -15 -4 0 -6 13 -8 30 -6 l30 5 -1 -83 c0
-67 -2 -79 -11 -60 -12 24 -28 30 -28 10 0 -7 -6 -4 -12 6 -9 15 -7 22 8 33
16 12 16 13 -9 13 -17 0 -27 -5 -27 -14 0 -8 -5 -16 -11 -18 -12 -4 -14 -106
-3 -168 l7 -35 -22 19 c-25 23 -25 23 -39 -34 -10 -44 -11 -44 -9 -8 1 20 -2
40 -6 44 -12 13 -8 83 7 91 7 4 16 33 20 63 4 30 9 66 12 80 3 14 5 40 5 59
-2 52 17 98 41 105 29 7 36 0 9 -9 -25 -8 -27 -21 -5 -29 23 -9 43 11 37 35
-4 15 -13 19 -37 17 -26 -2 -32 1 -34 20 -2 12 -9 23 -15 23 -7 1 -16 2 -22 4
-5 1 -16 3 -22 3 -7 1 -13 10 -13 20 0 15 6 18 33 15 l32 -4 -25 14 c-22 13
-27 13 -40 -3 -19 -21 -78 -16 -97 7 -7 9 -19 13 -29 9 -10 -4 -30 4 -51 20
-19 14 -37 23 -41 19 -4 -4 -6 -29 -5 -56 1 -27 -2 -49 -7 -49 -6 0 -10 -4
-10 -10 0 -5 7 -10 15 -10 10 0 15 -10 15 -30 0 -16 -4 -30 -8 -30 -9 0 -13
-27 -15 -97 0 -54 -5 -61 -24 -42 -8 8 -13 6 -17 -9 -4 -11 -13 -23 -21 -26
-8 -3 -15 -12 -15 -20 0 -15 16 -16 37 -3 6 4 14 3 17 -2 4 -5 2 -12 -4 -16
-6 -4 -8 -10 -5 -14 2 -5 5 -33 6 -64 1 -39 -3 -60 -14 -71 -14 -14 -16 -14
-22 2 -6 14 -9 13 -21 -10 -20 -38 -28 -35 -21 7 3 19 2 35 -4 35 -5 0 -9 -20
-9 -45 0 -25 -4 -45 -10 -45 -5 0 -10 11 -10 24 0 25 -24 53 -33 39 -3 -5 -2
-15 4 -23 13 -21 11 -60 -3 -60 -6 0 -19 -7 -29 -16 -13 -12 -22 -13 -37 -5
-12 6 -30 7 -48 1 -46 -14 -126 -33 -160 -37 -25 -4 -32 -1 -37 16 -2 11 0 22
7 25 7 3 6 9 -5 18 -12 10 -13 17 -6 30 8 12 6 23 -7 43 -10 15 -19 25 -21 23
-5 -4 -16 -54 -20 -88 -2 -14 -4 -27 -5 -30 0 -3 -7 4 -15 14 -20 26 -19 7 0
-21 14 -19 13 -21 -10 -26 -20 -3 -27 1 -31 19 -3 13 -10 24 -15 24 -5 0 -9 8
-9 19 0 26 -23 44 -38 29 -9 -9 -12 -8 -12 6 0 27 -18 10 -25 -25 -4 -17 -9
-28 -11 -26 -10 10 -18 129 -16 247 2 153 7 191 27 183 18 -6 20 -39 3 -46
-10 -4 -10 -6 -1 -6 6 -1 15 4 18 9 3 6 13 10 21 10 16 0 19 -36 4 -45 -5 -3
-10 2 -10 11 0 10 -3 15 -6 11 -10 -10 7 -47 21 -47 7 0 16 8 18 18 4 16 5 16
6 -1 0 -10 -10 -29 -24 -43 -15 -15 -27 -40 -30 -65 -5 -38 -4 -39 16 -28 16
8 23 8 29 -1 6 -9 9 -9 13 1 4 11 6 11 6 1 1 -7 4 -11 9 -8 4 2 6 33 4 68 -7
140 -4 155 24 161 26 5 34 -19 13 -40 -9 -9 -7 -11 8 -7 29 8 50 -22 35 -47
-10 -16 -10 -21 4 -26 10 -4 14 -13 10 -29 -6 -22 -5 -22 24 -8 28 14 41 34
22 34 -4 0 -9 14 -10 31 -2 25 1 30 13 25 9 -3 18 1 22 9 4 12 9 13 19 4 11
-9 20 -7 41 7 16 10 31 17 36 16 4 -1 7 2 7 8 0 14 -37 31 -55 24 -10 -4 -28
6 -50 29 -19 20 -35 39 -35 43 0 4 -8 16 -17 27 -17 20 -17 20 1 13 16 -6 17
-4 6 9 -8 9 -21 14 -31 12 -10 -3 -31 4 -48 14 -32 20 -81 26 -81 10 0 -4 20
-16 45 -25 44 -17 64 -43 25 -33 -11 3 -18 1 -15 -3 3 -5 1 -11 -4 -14 -5 -3
-14 8 -20 25 -9 27 -15 31 -37 26 -20 -3 -28 0 -31 14 -8 29 -71 27 -82 -3 -6
-18 -9 -19 -14 -5 -8 20 -63 23 -70 5 -4 -10 -6 -10 -6 0 -1 14 -37 15 -130 6
l-61 -7 0 -608 0 -608 78 0 c42 0 84 4 92 9 8 5 19 6 25 2 5 -4 47 -6 93 -4
80 3 82 4 82 28 0 14 4 22 10 19 6 -3 10 -14 10 -24 0 -18 18 -19 348 -19 239
0 349 3 354 11 4 7 10 8 20 0 8 -6 81 -11 181 -12 l167 -1 0 650 c0 637 0 650
-19 650 -11 0 -23 -5 -26 -10z m-308 -116 c9 -8 22 -13 29 -10 8 3 14 1 14 -4
0 -6 22 -10 49 -10 28 0 53 -4 56 -10 4 -6 -5 -10 -20 -10 -18 0 -25 -4 -22
-12 19 -51 18 -58 -2 -58 -18 0 -21 -6 -21 -42 0 -50 -8 -64 -35 -69 -30 -6
-28 -54 3 -53 19 0 22 -4 22 -43 0 -31 4 -43 14 -43 19 0 27 28 29 94 1 40 4
53 14 49 8 -3 13 3 13 17 0 16 -4 20 -15 16 -9 -3 -15 0 -15 9 0 8 3 14 8 14
24 -4 29 4 26 47 -4 50 14 58 27 11 15 -54 21 -195 10 -213 -11 -20 -12 -17
-15 51 -2 29 -29 25 -37 -5 -7 -31 1 -93 14 -101 5 -4 12 -34 14 -68 4 -51 2
-61 -11 -61 -11 0 -16 9 -16 28 0 30 -15 60 -25 50 -4 -3 -8 -30 -9 -59 -4
-74 -26 -78 -26 -5 0 61 -9 68 -49 40 -20 -14 -22 -23 -19 -70 3 -49 -4 -64
-28 -64 -12 0 -2 127 11 144 18 23 19 58 4 73 -8 8 -8 22 0 49 13 48 14 94 2
94 -5 0 -11 -6 -14 -12 -2 -7 -7 18 -11 55 -9 86 1 138 25 144 11 3 19 9 19
15 0 5 -9 4 -20 -2 -18 -9 -20 -8 -20 15 0 29 5 31 27 9z m-713 -14 c25 -9 26
-10 9 -28 -21 -22 -40 -18 -22 4 10 12 8 16 -9 21 -12 3 -22 10 -22 15 0 5 4
7 9 4 4 -3 20 -10 35 -16z m801 10 c3 -5 -1 -10 -10 -10 -9 0 -13 5 -10 10 3
6 8 10 10 10 2 0 7 -4 10 -10z m105 -55 c-7 -9 -15 -13 -19 -10 -3 3 1 10 9
15 21 14 24 12 10 -5z m-1156 -27 c7 -44 28 -277 28 -306 0 -30 -11 -40 -22
-22 -8 13 -12 12 -24 -5 -9 -11 -16 -29 -16 -40 l-1 -20 -9 20 c-13 31 -12 68
3 62 9 -3 11 29 8 149 -2 117 0 154 9 154 7 0 10 8 7 20 -3 11 -1 20 3 20 5 0
11 -15 14 -32z m143 -10 c-3 -8 -6 -5 -6 6 -1 11 2 17 5 13 3 -3 4 -12 1 -19z
m-75 -150 c4 -165 14 -252 29 -242 5 3 9 -2 9 -11 0 -9 -4 -13 -10 -10 -5 3
-10 -2 -11 -12 0 -10 -5 -5 -10 12 -5 17 -7 35 -4 42 2 7 0 15 -4 17 -11 7
-24 97 -24 156 2 156 22 194 25 48z m-156 43 c19 16 17 -1 -4 -31 -20 -29 -42
-37 -42 -14 0 9 5 12 12 8 8 -5 9 -2 5 10 -4 10 -4 23 0 29 5 8 8 7 11 -1 3
-10 7 -10 18 -1z m201 -98 c-3 -10 -5 -4 -5 12 0 17 2 24 5 18 2 -7 2 -21 0
-30z m28 27 c3 -5 1 -10 -4 -10 -6 0 -11 5 -11 10 0 6 2 10 4 10 3 0 8 -4 11
-10z m-255 -20 c0 -5 -4 -10 -10 -10 -5 0 -10 5 -10 10 0 6 5 10 10 10 6 0 10
-4 10 -10z m50 -21 c0 -14 -29 -17 -34 -4 -3 9 2 13 15 12 10 -1 19 -4 19 -8z
m1316 -19 c15 0 18 -30 8 -92 -10 -57 -27 -47 -22 12 3 28 1 53 -3 56 -5 3 -9
15 -8 27 0 12 3 16 6 10 2 -7 11 -13 19 -13z m-1321 -61 c-4 -35 -4 -36 -15
-19 -7 11 -10 5 -10 -22 0 -21 -4 -38 -10 -38 -5 0 -10 15 -10 34 0 19 5 38
10 41 6 3 10 17 10 31 0 22 2 23 14 12 7 -8 12 -25 11 -39z m212 29 c-3 -8 -6
-5 -6 6 -1 11 2 17 5 13 3 -3 4 -12 1 -19z m1152 -50 c1 -21 -3 -38 -8 -38 -5
0 -9 26 -9 58 0 64 16 46 17 -20z m-1149 17 c0 -8 -2 -15 -4 -15 -2 0 -6 7
-10 15 -3 8 -1 15 4 15 6 0 10 -7 10 -15z m770 -82 c0 -82 -10 -126 -25 -111
-13 13 -10 146 4 172 8 14 16 26 18 26 2 0 3 -39 3 -87z m-776 11 c23 -9 20
-23 -4 -17 -11 3 -20 9 -20 14 0 11 3 11 24 3z m-104 -28 c0 -8 -4 -17 -9 -21
-12 -7 -24 12 -16 25 9 15 25 12 25 -4z m221 -33 c6 -6 8 -17 4 -23 -6 -9 -10
-8 -17 4 -13 24 -26 19 -31 -11 -3 -23 -4 -21 -6 9 -1 33 2 37 19 35 11 -2 25
-8 31 -14z m-174 -45 c-3 -8 -6 -5 -6 6 -1 11 2 17 5 13 3 -3 4 -12 1 -19z
m760 -20 c-3 -8 -6 -5 -6 6 -1 11 2 17 5 13 3 -3 4 -12 1 -19z m296 -24 c-7
-19 -23 -7 -23 18 0 17 3 18 14 8 8 -6 12 -18 9 -26z m-100 -17 c-9 -16 -24 9
-17 28 7 18 8 18 14 -1 4 -10 5 -23 3 -27z m-1023 11 c0 -18 -2 -20 -9 -8 -6
8 -7 18 -5 22 9 14 14 9 14 -14z m150 -8 c0 -5 -4 -10 -10 -10 -5 0 -10 5 -10
10 0 6 5 10 10 10 6 0 10 -4 10 -10z m1140 -22 c0 -5 -4 -8 -10 -8 -5 0 -10
10 -10 23 0 18 2 19 10 7 5 -8 10 -18 10 -22z m-899 0 c10 -4 19 -24 23 -52 8
-51 1 -70 -20 -62 -8 3 -14 1 -14 -4 0 -6 -11 -10 -25 -10 -33 0 -40 -20 -24
-67 11 -34 13 -36 20 -15 6 15 17 22 34 22 49 0 25 -88 -26 -91 -10 -1 -24 -2
-31 -3 -7 -1 -12 17 -14 44 -1 25 -5 89 -9 143 l-7 97 25 0 c14 0 29 5 33 11
4 7 9 7 13 2 3 -5 13 -12 22 -15z m-308 -18 c3 -11 2 -18 -3 -15 -4 3 -10 14
-13 25 -3 11 -2 18 3 15 4 -3 10 -14 13 -25z m976 -107 c-5 -38 -6 -30 -6 42
0 66 1 79 6 48 4 -23 4 -63 0 -90z m57 97 c-1 -39 -16 -39 -16 0 0 17 4 30 9
30 4 0 8 -13 7 -30z m-961 -27 c4 -21 3 -33 -4 -33 -6 0 -11 7 -11 15 0 8 -5
15 -11 15 -8 0 -7 6 2 17 10 11 10 14 2 9 -14 -8 -18 6 -6 18 10 10 20 -5 28
-41z m125 -39 c0 -14 -4 -22 -10 -19 -5 3 -10 17 -10 31 0 14 4 22 10 19 6 -3
10 -17 10 -31z m-63 4 c-3 -8 -6 -5 -6 6 -1 11 2 17 5 13 3 -3 4 -12 1 -19z
m593 1 c0 -11 -4 -18 -10 -14 -5 3 -7 12 -3 20 7 21 13 19 13 -6z m207 -11
c-3 -8 -6 -5 -6 6 -1 11 2 17 5 13 3 -3 4 -12 1 -19z m-47 2 c0 -5 -2 -10 -4
-10 -3 0 -8 5 -11 10 -3 6 -1 10 4 10 6 0 11 -4 11 -10z m-1073 -32 c-3 -7 -5
-2 -5 12 0 14 2 19 5 13 2 -7 2 -19 0 -25z m242 15 c-9 -10 -8 -13 5 -13 23 0
20 -17 -4 -23 -25 -7 -47 18 -31 36 6 8 17 14 26 14 11 0 12 -4 4 -14z m1146
7 c3 -5 1 -10 -4 -10 -6 0 -11 5 -11 10 0 6 2 10 4 10 3 0 8 -4 11 -10z m-745
-9 c0 -11 -31 -24 -38 -16 -3 3 0 5 7 5 7 0 9 5 6 10 -3 6 1 10 9 10 9 0 16
-4 16 -9z m387 -43 c-3 -8 -6 -5 -6 6 -1 11 2 17 5 13 3 -3 4 -12 1 -19z m100
0 c-3 -8 -6 -5 -6 6 -1 11 2 17 5 13 3 -3 4 -12 1 -19z m-100 -80 c-2 -13 -4
-5 -4 17 -1 22 1 32 4 23 2 -10 2 -28 0 -40z m63 20 c0 -13 -5 -30 -10 -38 -7
-11 -10 -5 -10 23 0 20 5 37 10 37 6 0 10 -10 10 -22z m49 -90 c1 -16 -3 -28
-8 -28 -12 0 -17 36 -12 75 5 30 5 30 12 5 4 -14 7 -37 8 -52z m-578 -108 c-5
-22 -7 -51 -4 -63 4 -18 3 -19 -6 -7 -12 17 -15 123 -4 134 14 14 23 -24 14
-64z m122 53 c17 -10 5 -22 -20 -18 -38 5 -63 15 -63 27 0 8 64 2 83 -9z m-33
-43 c0 -5 -2 -10 -4 -10 -3 0 -8 5 -11 10 -3 6 -1 10 4 10 6 0 11 -4 11 -10z
m40 -10 c0 -5 -2 -10 -4 -10 -3 0 -8 5 -11 10 -3 6 -1 10 4 10 6 0 11 -4 11
-10z m110 -19 c0 -20 -17 -37 -27 -28 -7 8 7 47 18 47 5 0 9 -9 9 -19z m-470
-11 c0 -5 -4 -10 -10 -10 -5 0 -10 5 -10 10 0 6 5 10 10 10 6 0 10 -4 10 -10z"/>
        <path d="M2648 5332 c-33 -4 -36 -17 -7 -32 16 -9 24 -8 38 4 10 9 25 16 34
16 9 0 17 4 17 9 0 9 -26 10 -82 3z"/>
        <path d="M2770 5329 c0 -5 5 -7 10 -4 6 3 10 8 10 11 0 2 -4 4 -10 4 -5 0 -10
-5 -10 -11z"/>
        <path d="M2775 5264 c-16 -18 -43 -36 -59 -40 -21 -5 -25 -8 -15 -15 29 -18
55 -9 87 33 50 65 40 82 -13 22z"/>
        <path d="M2905 5290 c-3 -5 1 -10 9 -10 9 0 16 5 16 10 0 6 -4 10 -9 10 -6 0
-13 -4 -16 -10z"/>
        <path d="M2875 5269 c-10 -15 3 -25 16 -12 7 7 7 13 1 17 -6 3 -14 1 -17 -5z"/>
        <path d="M7244 5183 c6 -76 13 -273 16 -397 0 -6 5 -5 12 2 7 7 20 12 30 12
23 0 23 16 0 22 -13 4 -18 16 -19 46 -1 24 3 42 9 42 5 0 8 7 4 15 -3 9 0 15
8 15 8 0 19 20 26 50 7 28 16 50 21 50 5 0 9 29 9 65 0 60 -2 65 -24 71 -14 3
-30 3 -37 -1 -17 -11 -29 14 -29 63 0 32 -4 42 -16 42 -15 0 -16 -11 -10 -97z"/>
        <path d="M2560 5245 c-21 -23 -20 -30 4 -26 4 1 14 -3 20 -8 10 -8 11 -3 8 21
-4 26 -2 30 12 25 10 -4 15 -3 11 3 -10 17 -30 11 -55 -15z"/>
        <path d="M2645 5250 c3 -5 8 -10 11 -10 2 0 4 5 4 10 0 6 -5 10 -11 10 -5 0
-7 -4 -4 -10z"/>
        <path d="M2710 5250 c0 -5 4 -10 9 -10 6 0 13 5 16 10 3 6 -1 10 -9 10 -9 0
-16 -4 -16 -10z"/>
        <path d="M2660 5150 c0 -7 24 -20 36 -20 13 0 1 19 -16 23 -11 3 -20 2 -20 -3z"/>
        <path d="M2898 5146 c-23 -17 -23 -26 2 -26 13 0 20 7 20 20 0 23 0 23 -22 6z"/>
        <path d="M3257 5133 c-11 -10 -8 -43 3 -43 9 0 30 31 30 44 0 8 -25 7 -33 -1z"/>
        <path d="M2400 5070 c0 -5 7 -10 15 -10 8 0 15 5 15 10 0 6 -7 10 -15 10 -8 0
-15 -4 -15 -10z"/>
        <path d="M2816 5055 c-8 -31 1 -88 20 -124 13 -24 14 -20 14 52 0 42 0 80 1
85 0 4 -6 8 -14 10 -9 2 -17 -8 -21 -23z"/>
        <path d="M2767 5052 c-10 -10 -14 -22 -10 -25 3 -4 13 2 21 14 18 26 10 35
-11 11z"/>
        <path d="M2524 5029 c-9 -16 10 -31 30 -23 13 5 14 9 5 20 -14 17 -25 18 -35
3z"/>
        <path d="M2510 4980 c-12 -7 -10 -9 8 -7 12 0 22 5 22 9 0 11 -12 10 -30 -2z"/>
        <path d="M2600 4906 c0 -8 5 -18 10 -21 6 -3 10 3 10 14 0 12 -4 21 -10 21 -5
0 -10 -6 -10 -14z"/>
        <path d="M2481 4894 c0 -11 3 -14 6 -6 3 7 2 16 -1 19 -3 4 -6 -2 -5 -13z"/>
        <path d="M2660 4901 c0 -5 7 -24 15 -42 14 -33 14 -33 15 -7 0 28 14 45 24 29
4 -5 0 -11 -6 -14 -7 -2 -10 -8 -5 -12 12 -14 37 28 25 42 -12 15 -68 18 -68
4z"/>
        <path d="M2870 4881 c-7 -17 -10 -36 -7 -43 3 -9 7 -6 12 7 3 11 11 28 16 37
11 22 11 28 0 28 -5 0 -14 -13 -21 -29z"/>
        <path d="M2342 4870 c0 -19 2 -27 5 -17 2 9 2 25 0 35 -3 9 -5 1 -5 -18z"/>
        <path d="M2835 4880 c3 -5 8 -10 11 -10 2 0 4 5 4 10 0 6 -5 10 -11 10 -5 0
-7 -4 -4 -10z"/>
        <path d="M2375 4860 c-3 -6 1 -7 9 -4 18 7 21 14 7 14 -6 0 -13 -4 -16 -10z"/>
        <path d="M7640 4851 c0 -13 29 -35 37 -28 7 8 -15 37 -28 37 -5 0 -9 -4 -9 -9z"/>
        <path d="M2550 4816 c0 -8 -2 -20 -3 -28 -2 -7 -2 -10 0 -6 2 4 10 5 18 2 10
-4 12 0 8 15 -7 26 -23 38 -23 17z"/>
        <path d="M2252 4800 c0 -14 2 -19 5 -12 2 6 2 18 0 25 -3 6 -5 1 -5 -13z"/>
        <path d="M273 4147 c-7 -11 -4 -246 7 -617 5 -179 12 -450 16 -603 6 -234 9
-277 21 -272 26 9 245 44 443 70 107 14 265 37 350 50 145 23 433 65 446 65 3
0 3 14 -1 30 -4 17 -3 30 2 30 10 0 5 1232 -5 1242 -10 9 -1273 15 -1279 5z
m1129 -200 c13 -10 17 -50 21 -239 5 -170 3 -229 -6 -236 -7 -5 -66 -12 -132
-16 -66 -3 -131 -8 -145 -10 -89 -15 -148 -16 -158 -3 -13 16 -19 484 -6 497
19 19 403 26 426 7z m-578 -16 c15 -12 16 -40 14 -260 l-3 -246 -105 -6 c-159
-10 -322 -21 -352 -24 -15 -2 -32 2 -38 10 -7 8 -9 98 -8 271 l3 259 115 6
c196 10 355 6 374 -10z m590 -497 c14 -5 16 -34 16 -222 0 -118 2 -213 4 -211
3 4 19 275 20 357 0 40 12 56 21 30 6 -21 14 -411 8 -441 -4 -20 -11 -27 -29
-27 -21 0 -23 3 -17 32 l6 31 -21 -21 c-13 -13 -36 -22 -54 -23 -18 -1 -25 -3
-15 -6 9 -2 17 -8 17 -11 0 -13 -86 -42 -125 -42 -22 0 -69 -5 -105 -10 -67
-9 -114 -5 -104 11 3 5 -4 9 -15 9 -11 0 -29 10 -41 22 l-20 22 0 -22 c0 -14
-6 -22 -18 -22 -16 0 -18 9 -17 74 0 41 2 72 4 70 2 -2 13 19 23 48 20 57 24
118 8 118 -15 0 -12 58 2 62 9 3 13 28 13 75 0 39 4 75 8 79 5 5 92 11 195 15
103 3 195 6 204 7 9 1 23 -1 32 -4z m-580 -42 c2 -4 7 -121 12 -259 l7 -252
-27 -11 c-15 -5 -36 -10 -46 -10 -10 0 -30 -10 -44 -23 -20 -19 -45 -26 -123
-36 -54 -7 -115 -16 -135 -21 -30 -6 -38 -5 -38 7 0 8 -4 12 -9 9 -14 -9 -41
4 -41 20 0 8 -9 14 -20 14 -44 0 -51 35 -51 236 1 247 7 303 35 309 65 16 472
30 480 17z"/>
        <path d="M1290 2926 c0 -2 7 -6 15 -10 8 -3 15 -1 15 4 0 6 -7 10 -15 10 -8 0
-15 -2 -15 -4z"/>
        <path d="M6560 3951 c0 -9 2269 -4 2279 5 2 2 -509 4 -1137 4 -713 0 -1142 -4
-1142 -9z"/>
        <path d="M2115 3940 c-313 -6 -310 -22 5 -28 225 -4 226 -5 255 -30 l30 -25 0
-230 c0 -268 -9 -294 -51 -152 -6 20 -17 31 -32 33 -29 4 -37 -18 -24 -70 8
-29 7 -46 0 -58 -8 -13 -8 -30 1 -62 13 -44 57 -108 76 -108 6 0 21 -9 34 -19
14 -10 31 -17 38 -14 10 4 13 -8 13 -48 0 -30 3 -84 6 -121 7 -64 6 -66 -17
-70 -23 -3 -24 -6 -29 -118 -3 -67 -9 -115 -15 -115 -22 1 -132 38 -167 56
-21 11 -38 15 -38 10 0 -15 42 -38 131 -72 46 -17 89 -36 96 -41 9 -7 11 -57
6 -199 -6 -192 -5 -197 31 -183 18 7 22 67 7 108 -10 25 -25 266 -17 266 3 0
16 -4 31 -10 l26 -10 -2 -117 c-4 -201 -1 -233 18 -233 15 0 16 16 10 175 -5
135 -4 175 6 175 6 0 66 -11 132 -24 169 -34 302 -52 510 -71 225 -21 246 -25
185 -37 -25 -5 -55 -11 -68 -14 l-22 -4 6 -637 6 -636 -23 7 c-13 4 -53 14
-89 22 -36 9 -114 29 -175 45 -60 16 -130 34 -153 40 -39 9 -43 13 -37 32 17
51 44 265 39 299 -8 54 -36 84 -83 92 -89 14 -91 16 -93 135 -1 58 -2 118 -1
134 1 30 -20 37 -32 10 -9 -21 -6 -136 4 -205 l8 -48 -36 -6 c-21 -4 -59 -1
-96 9 -37 9 -80 13 -112 10 -75 -8 -203 13 -317 53 -55 19 -115 34 -133 34
-43 0 -72 18 -65 42 5 22 -13 24 -22 3 -6 -17 -42 -13 -86 11 -24 13 -24 13
-3 14 12 0 24 3 26 8 10 15 -6 62 -20 62 -8 0 -28 8 -43 17 -38 22 -65 3 -56
-39 8 -41 21 -43 -314 56 -80 24 -190 54 -245 66 -55 12 -113 26 -129 31 -37
12 -202 12 -224 0 -22 -11 -143 -21 -137 -11 9 14 -28 22 -120 26 -49 3 -108
9 -130 14 -22 4 -66 12 -98 15 -31 4 -60 11 -63 16 -3 5 -10 7 -15 4 -5 -4 -9
-1 -9 5 0 6 -16 18 -35 26 -70 29 -65 64 -65 -453 0 -533 3 -553 74 -698 54
-108 108 -174 201 -244 130 -98 229 -138 379 -151 94 -8 101 -10 121 -37 119
-166 311 -328 517 -438 77 -41 325 -132 334 -123 12 12 -30 38 -101 62 -219
75 -398 188 -571 360 -67 67 -126 131 -133 144 l-12 22 1181 0 c1131 0 1180
-1 1171 -18 -20 -38 -188 -206 -266 -267 -45 -35 -117 -85 -161 -111 -88 -52
-265 -134 -291 -134 -9 0 -13 -3 -10 -7 4 -3 -1 -12 -11 -20 -15 -12 -14 -13
13 -7 52 11 223 82 291 120 156 87 308 213 422 348 l75 91 71 5 71 5 6 170 c7
176 -1 257 -25 284 -12 13 -16 119 -22 614 -6 551 -6 597 9 597 12 0 17 8 17
26 0 23 -3 25 -32 22 l-33 -3 3 -610 c3 -441 1 -607 -7 -599 -12 11 -32 601
-35 1032 -2 222 -2 222 20 222 12 0 36 3 53 6 31 7 32 8 29 58 l-3 51 -40 2
c-50 3 -402 40 -509 53 -44 5 -83 13 -87 17 -4 5 -13 39 -19 76 -6 38 -17 87
-25 110 -8 23 -15 54 -15 70 0 34 -32 67 -66 67 -24 0 -25 -2 -19 -32 4 -18
15 -44 25 -58 37 -52 84 -210 67 -226 -2 -3 -34 0 -70 6 l-66 12 -7 45 c-4 25
-4 74 -1 108 8 84 -1 136 -25 143 -10 2 -18 9 -18 16 0 6 -7 56 -15 110 -19
128 -19 129 5 123 39 -10 139 86 125 120 -3 7 -7 19 -10 26 -3 8 12 41 35 74
26 39 40 72 40 92 0 18 6 45 14 60 8 15 20 68 26 117 13 98 32 181 50 213 10
20 19 21 223 22 129 0 201 4 184 9 -33 10 -799 17 -1142 10z m660 -40 c3 -10
1 -36 -4 -57 -6 -21 -11 -58 -11 -82 0 -53 -34 -179 -60 -224 -10 -18 -21 -45
-24 -62 -4 -16 -21 -46 -37 -65 -17 -19 -28 -29 -24 -23 3 7 7 125 9 262 2
137 7 254 10 260 4 6 36 11 71 11 54 0 65 -3 70 -20z m-205 -77 c-1 -43 -1
-124 0 -180 1 -109 -7 -193 -20 -193 -11 0 -16 19 -19 70 -1 25 -6 59 -10 75
-16 53 -11 226 7 267 28 64 44 49 42 -39z m-9 -940 c3 -49 7 -107 13 -161 l6
-53 -27 3 -28 3 2 85 c2 98 10 150 23 150 6 0 11 -12 11 -27z"/>
        <path d="M7990 3344 c0 -4 10 -23 22 -43 19 -30 23 -54 26 -138 3 -65 1 -103
-6 -103 -5 0 -12 7 -15 15 -5 12 -12 12 -44 1 l-38 -13 3 -64 c2 -35 10 -129
18 -208 8 -78 13 -145 10 -148 -2 -3 -14 -2 -25 2 -18 5 -21 15 -23 73 l-2 67
-5 -70 -6 -70 -70 0 c-78 0 -458 24 -538 34 -52 6 -52 6 -57 46 l-5 40 -245
16 c-135 9 -287 20 -338 24 l-93 8 3 -49 3 -49 95 -3 c52 -1 114 -7 137 -12
23 -6 66 -10 95 -10 29 0 100 -10 158 -21 66 -13 155 -23 240 -25 74 -1 150
-5 168 -8 18 -2 120 -10 228 -17 166 -11 197 -15 204 -30 10 -19 -9 -33 -33
-23 -7 2 -116 13 -242 24 -127 11 -293 26 -370 34 -167 18 -617 59 -660 60
l-30 1 -3 -583 c-1 -366 1 -590 8 -601 10 -19 31 -27 115 -41 178 -29 305 -51
340 -60 22 -5 58 -12 80 -14 69 -7 186 -26 285 -46 52 -10 144 -26 204 -35 59
-8 113 -18 119 -22 5 -3 20 -7 31 -9 70 -8 122 -17 129 -21 4 -2 29 -7 55 -9
26 -3 61 -9 77 -14 17 -5 69 -14 118 -20 48 -6 117 -20 153 -31 75 -23 255
-59 297 -59 22 0 54 26 161 133 129 130 176 191 157 210 -4 4 -6 28 -4 51 3
26 1 46 -6 50 -6 4 -11 15 -11 25 0 10 -11 28 -25 41 -14 13 -25 31 -25 41 0
10 -7 22 -16 27 -15 9 -16 45 -11 406 l5 397 54 50 c51 48 52 51 34 65 -11 8
-38 14 -60 14 -50 0 -407 39 -456 49 -21 5 -34 13 -32 21 9 38 14 213 7 255
-5 38 -15 57 -42 83 l-35 33 3 107 c3 80 9 115 21 134 9 14 14 28 11 32 -8 8
-303 8 -303 0z"/>
        <path d="M7576 3191 c-8 -12 54 -21 139 -21 86 0 116 14 49 24 -68 9 -182 7
-188 -3z"/>
        <path d="M7825 3180 c3 -5 17 -10 31 -10 13 0 24 5 24 10 0 6 -14 10 -31 10
-17 0 -28 -4 -24 -10z"/>
        <path d="M7898 3114 c-4 -3 -14 -7 -24 -8 -28 -4 -41 -32 -27 -56 7 -11 9 -21
3 -25 -5 -3 -12 -1 -15 5 -4 7 -11 8 -18 1 -8 -6 -79 -5 -200 2 -169 9 -211 8
-195 -8 3 -3 81 -10 174 -15 247 -15 254 -16 254 -46 0 -13 -3 -24 -7 -25 -5
0 -18 -2 -30 -3 -12 -1 -50 1 -85 6 -86 12 -298 24 -298 18 0 -17 30 -30 69
-30 71 0 121 -11 121 -26 0 -9 12 -14 34 -14 27 0 36 5 41 21 7 22 8 22 110 4
11 -2 23 -4 28 -4 4 -1 7 -8 7 -16 0 -8 9 -15 19 -15 12 0 21 -9 25 -25 4 -14
11 -25 17 -25 11 0 7 95 -7 192 -4 29 -2 39 10 43 53 17 51 14 28 35 -23 22
-26 23 -34 14z"/>
        <path d="M2300 2920 c-11 -7 -12 -12 -3 -21 15 -15 47 -7 51 14 4 19 -23 23
-48 7z"/>
        <path d="M7329 2911 l-23 -18 38 -7 c31 -6 42 -4 57 12 10 11 15 23 12 26 -13
13 -62 5 -84 -13z"/>
        <path d="M3269 2899 c-205 -13 -276 -25 -314 -50 -18 -13 -32 -26 -30 -29 7
-11 251 -11 345 0 96 11 190 49 190 76 0 15 3 15 -191 3z"/>
        <path d="M3435 2829 c-4 -6 -5 -13 -2 -16 7 -7 27 6 27 18 0 12 -17 12 -25 -2z"/>
        <path d="M3273 2792 c-13 -2 -23 -7 -23 -12 0 -14 50 -20 130 -16 55 3 75 7
75 17 0 11 -19 14 -80 14 -44 0 -90 -1 -102 -3z"/>
        <path d="M1350 2764 c-85 -12 -247 -37 -360 -54 -113 -17 -295 -44 -405 -61
-110 -17 -234 -32 -275 -33 l-75 -2 -3 -47 c-5 -71 -19 -70 308 -17 403 65
744 121 880 144 47 8 106 17 133 21 50 7 52 10 37 49 -12 32 -29 32 -240 0z"/>
        <path d="M2900 2421 c0 -7 -7 -19 -15 -27 -24 -24 -18 -44 13 -44 15 0 37 -3
50 -6 13 -4 22 -2 22 5 0 6 -12 11 -26 11 -23 0 -25 3 -20 24 4 15 0 28 -9 36
-11 9 -15 10 -15 1z m0 -51 c0 -5 -4 -10 -10 -10 -5 0 -10 5 -10 10 0 6 5 10
10 10 6 0 10 -4 10 -10z"/>
        <path d="M2250 2396 c-39 -10 -45 -16 -47 -40 -3 -37 -10 -43 -64 -59 -41 -12
-36 -13 71 -9 63 2 117 6 119 9 6 5 -18 96 -27 104 -4 3 -27 1 -52 -5z"/>
        <path d="M3217 2364 c-3 -5 -10 -155 -16 -334 -6 -179 -13 -361 -15 -405 -3
-51 -1 -73 4 -60 5 11 19 155 30 320 12 165 24 334 26 375 5 57 2 80 -9 94 -7
10 -16 15 -20 10z"/>
        <path d="M2771 2162 c-8 -20 -9 -42 -2 -73 5 -24 13 -98 16 -164 10 -168 27
-193 20 -30 -3 72 -5 167 -5 213 0 85 -9 102 -29 54z"/>
        <path d="M2436 1971 c-4 -5 -4 -47 0 -91 4 -45 10 -76 14 -70 6 9 9 9 12 -1
11 -29 18 1 21 82 2 79 1 84 -20 87 -11 2 -24 -1 -27 -7z"/>
        <path d="M2509 1973 c-3 -35 4 -169 9 -178 8 -11 20 67 21 138 1 35 -3 47 -14
47 -8 0 -15 -3 -16 -7z"/>
    </g>
</svg>
