<?xml version="1.0" standalone="no"?>
<!DOCTYPE svg PUBLIC "-//W3C//DTD SVG 20010904//EN"
        "http://www.w3.org/TR/2001/REC-SVG-20010904/DTD/svg10.dtd">
<svg version="1.0" xmlns="http://www.w3.org/2000/svg"
     width="1080.000000pt" height="854.000000pt" viewBox="0 0 1080.000000 854.000000"
     preserveAspectRatio="xMidYMid meet">

    <g transform="translate(0.000000,854.000000) scale(0.100000,-0.100000)"
       fill="#000000" stroke="none">
        <path d="M2065 8155 c-132 -24 -238 -79 -339 -174 -137 -131 -200 -273 -212
-483 -4 -56 -3 -412 1 -790 l7 -688 207 -2 206 -3 3 -252 c1 -157 6 -253 12
-253 6 0 10 51 11 128 2 318 -1 296 42 337 65 64 67 58 67 -220 0 -189 3 -245
13 -246 6 -1 131 -2 277 -3 146 -1 272 -4 280 -7 13 -3 15 31 18 261 l2 265
-357 3 c-197 1 -360 7 -363 11 -3 5 -2 224 2 488 8 509 13 563 62 684 78 193
252 364 440 429 146 52 86 50 1727 50 841 0 1530 -3 1530 -7 1 -5 5 -111 8
-238 l7 -230 2 238 2 237 265 0 c296 0 279 -5 245 74 -85 199 -281 352 -500
392 -108 19 -3560 19 -3665 -1z m290 -2532 c-1 -21 -3 -44 -4 -50 -1 -7 -14
-13 -31 -13 -35 0 -59 32 -40 55 7 9 8 15 0 20 -23 14 -8 25 34 25 l45 0 -4
-37z m-148 -45 c-3 -8 -6 -5 -6 6 -1 11 2 17 5 13 3 -3 4 -12 1 -19z"/>
        <path d="M7857 7388 c-4 -166 -10 -1377 -14 -2690 l-6 -2386 36 -7 c19 -4 44
-4 54 -1 10 3 25 1 33 -4 10 -7 -6 -10 -55 -11 l-70 -1 80 -13 c44 -6 90 -8
101 -4 12 4 167 4 345 0 280 -7 326 -6 342 7 15 13 17 13 17 -1 0 -15 13 -17
96 -17 80 0 99 -3 109 -17 13 -17 14 -17 32 0 12 10 36 17 60 17 37 0 41 2 47
31 3 17 6 111 6 208 l1 176 65 -70 c129 -138 250 -345 313 -533 17 -51 31 -97
31 -103 0 -5 -182 -9 -471 -9 -281 0 -468 -4 -465 -9 4 -5 1 -11 -5 -13 -11
-4 -14 -566 -3 -577 2 -3 219 -7 482 -9 262 -2 479 -6 481 -8 8 -8 -19 -125
-50 -219 -74 -223 -188 -405 -363 -581 -166 -165 -339 -278 -546 -355 -41 -15
-67 -28 -57 -29 9 0 17 -4 17 -10 0 -14 128 34 235 88 141 70 260 157 381 277
208 208 353 470 413 750 l18 80 424 5 424 5 -340 302 -340 302 -96 1 -96 0
-17 63 c-63 226 -183 437 -366 639 l-74 81 -2 486 c-4 881 -2 799 -22 805 -19
6 -23 41 -7 66 5 8 10 31 11 51 2 31 -1 36 -17 32 -10 -3 -20 -12 -22 -22 -3
-11 -5 -10 -6 5 0 12 5 37 13 55 12 31 12 36 -5 53 -14 15 -19 16 -20 5 0 -8
-4 -6 -9 6 -5 14 -2 26 11 41 11 11 19 27 19 35 0 8 7 23 15 33 18 24 20 92 3
99 -10 4 -10 6 0 6 6 1 13 11 14 24 0 12 4 0 8 -28 l7 -50 -1 55 c-1 46 -4 55
-18 52 -21 -3 -24 13 -5 22 10 5 10 7 0 12 -7 3 -13 12 -13 19 0 8 -9 23 -21
34 -12 11 -18 25 -14 31 5 8 16 3 36 -16 16 -15 31 -25 35 -22 3 3 5 277 5
609 0 483 -3 604 -13 611 -10 6 -10 10 -1 16 17 11 21 1110 4 1201 -45 237
-204 443 -424 546 -132 63 -163 67 -478 72 l-286 5 -6 -304z m1030 -1528 c-1
-11 -5 -20 -9 -20 -10 0 -10 4 -2 24 8 22 13 20 11 -4z m-441 -138 c-24 -24
-30 -7 -9 24 15 24 18 25 21 10 2 -10 -3 -25 -12 -34z m-32 -193 c11 1 16 -2
11 -8 -3 -6 -10 -9 -15 -6 -4 3 -10 -2 -14 -10 -3 -8 -13 -15 -23 -15 -14 0
-15 2 -4 9 9 6 10 11 2 15 -6 4 -9 12 -5 17 3 5 11 6 17 2 7 -4 20 -6 31 -4z
m-69 -38 c3 -5 1 -12 -5 -16 -5 -3 -10 1 -10 9 0 18 6 21 15 7z m-32 -134 c20
-30 89 -218 83 -224 -3 -3 -32 49 -65 115 -32 66 -57 123 -53 126 10 11 20 6
35 -17z m14 -259 c29 -20 42 -38 29 -38 -12 0 -76 43 -76 51 0 14 11 11 47
-13z m133 -173 c7 -14 11 -28 7 -31 -3 -3 -13 8 -22 25 -8 17 -12 31 -7 31 5
0 15 -11 22 -25z m1 -109 c26 -87 37 -100 45 -56 7 30 8 31 15 12 10 -26 -9
-85 -24 -75 -6 3 -7 1 -3 -5 4 -6 11 -56 15 -111 7 -75 14 -106 30 -128 18
-25 48 -159 38 -170 -10 -10 -58 135 -68 205 -26 181 -39 242 -68 320 -35 95
-38 110 -16 92 8 -7 25 -45 36 -84z m-110 -143 c1 -143 16 -258 35 -274 12
-10 14 3 14 79 0 50 4 94 10 97 12 7 53 -83 68 -150 43 -189 53 -292 82 -825
11 -185 12 -198 32 -280 13 -52 28 -75 28 -42 0 30 16 28 24 -3 8 -30 26 -24
27 8 0 12 7 -5 14 -38 18 -77 18 -75 -1 -75 -14 0 -15 -9 -10 -62 3 -35 11
-173 16 -308 5 -135 12 -285 14 -335 5 -90 5 -90 -4 -20 -11 87 -50 617 -50
679 l0 46 -78 -3 c-89 -4 -109 -11 -91 -33 16 -19 4 -44 -21 -44 -22 0 -28 28
-9 47 9 9 5 13 -17 18 -16 3 -62 14 -101 25 -40 11 -82 20 -93 20 -13 0 -20 7
-20 19 0 26 15 34 32 18 11 -11 13 17 13 167 0 206 5 196 -93 178 l-49 -9 7
36 c4 20 12 46 18 58 7 12 14 72 17 135 9 211 17 283 31 306 10 15 13 36 9 58
-3 22 5 76 21 142 36 149 35 145 37 262 1 58 6 112 11 120 22 33 41 50 58 50
15 0 18 -10 19 -67z m644 -276 c-4 -9 -13 -13 -20 -10 -11 4 -12 9 -2 24 13
21 31 10 22 -14z m-348 -159 c-3 -8 -6 -5 -6 6 -1 11 2 17 5 13 3 -3 4 -12 1
-19z m10 -60 c-3 -7 -5 -2 -5 12 0 14 2 19 5 13 2 -7 2 -19 0 -25z m21 -98 l0
-35 -8 30 c-4 17 -8 44 -8 60 0 29 0 29 8 5 4 -14 8 -41 8 -60z m37 -215 c22
-162 17 -170 -11 -15 -24 137 -32 235 -13 160 5 -19 15 -84 24 -145z m-67 89
c-4 -3 -12 5 -18 18 -12 22 -12 22 6 6 10 -10 15 -20 12 -24z m99 -346 c-3 -7
-5 -2 -5 12 0 14 2 19 5 13 2 -7 2 -19 0 -25z m10 -75 c-3 -10 -5 -2 -5 17 0
19 2 27 5 18 2 -10 2 -26 0 -35z m-602 7 c3 -6 -1 -7 -9 -4 -18 7 -21 14 -7
14 6 0 13 -4 16 -10z m664 -311 c17 -101 33 -204 36 -229 14 -118 87 -622 96
-672 12 -63 10 -81 -8 -70 -8 5 -30 123 -58 303 -25 162 -54 346 -65 409 -23
130 -46 316 -54 435 -5 76 -5 78 8 44 8 -19 28 -118 45 -220z m-640 -144 c-5
-33 -11 -71 -14 -85 -3 -14 -2 -20 2 -13 11 16 55 25 72 14 11 -7 8 -15 -14
-39 -22 -25 -31 -29 -49 -22 -21 8 -24 5 -34 -48 -9 -50 -102 -498 -119 -574
-8 -40 -27 -35 -20 5 25 140 156 803 163 826 3 9 8 11 13 5 5 -5 5 -35 0 -69z
m-69 -122 c0 -10 -4 -24 -9 -32 -7 -11 -13 -10 -34 5 l-24 19 31 11 c17 6 32
12 34 13 1 0 2 -7 2 -16z m-115 -3 c3 -5 1 -10 -4 -10 -6 0 -11 5 -11 10 0 6
2 10 4 10 3 0 8 -4 11 -10z m320 -41 c11 -17 -1 -21 -15 -4 -8 9 -8 15 -2 15
6 0 14 -5 17 -11z"/>
        <path d="M8327 4351 c-4 -18 -7 -77 -7 -130 0 -53 -7 -123 -15 -156 -19 -76
-33 -455 -18 -455 6 0 14 24 18 53 9 74 13 85 33 83 12 -1 18 8 20 34 2 19 10
39 18 43 22 12 17 29 -8 25 -19 -2 -23 2 -23 22 0 14 8 34 18 45 10 11 16 28
13 38 -2 10 10 34 31 60 64 76 81 154 46 216 -21 36 -43 40 -43 9 l-1 -23 -19
24 c-11 13 -20 29 -20 36 0 7 -5 15 -10 17 -6 2 -14 23 -18 48 l-8 45 -7 -34z"/>
        <path d="M8320 3700 c0 -19 3 -21 12 -12 9 9 9 15 0 24 -9 9 -12 7 -12 -12z"/>
        <path d="M8321 3644 c0 -11 3 -14 6 -6 3 7 2 16 -1 19 -3 4 -6 -2 -5 -13z"/>
        <path d="M4321 7164 c-183 -39 -297 -156 -336 -341 -13 -63 -15 -386 -13
-2580 l3 -2508 23 -3 c28 -4 24 -26 -6 -30 -22 -3 -22 -6 -22 -190 0 -126 5
-210 15 -257 39 -182 150 -298 327 -340 81 -19 1008 -22 1008 -4 0 7 -5 29
-11 50 l-12 38 -486 3 -486 3 -60 28 c-72 34 -119 76 -150 137 -25 49 -52 166
-41 177 4 4 311 6 684 4 372 -1 673 1 669 6 -5 4 -311 10 -680 13 l-672 5 -3
64 -3 63 63 -6 c97 -9 293 -18 288 -12 -8 8 -178 34 -267 42 l-81 6 -1 58 0
57 47 -8 c26 -4 73 -8 104 -8 31 -1 60 -6 63 -11 4 -7 52 -10 121 -9 64 0 113
3 111 5 -12 13 -189 37 -307 43 l-135 6 -3 48 c-3 42 -1 47 18 47 12 0 19 4
16 8 -10 16 372 50 541 48 101 -1 131 -9 103 -26 -12 -8 -9 -10 10 -11 l25 0
-25 -11 c-14 -5 -33 -14 -42 -19 -10 -5 -30 -10 -45 -10 l-28 -1 30 -7 c17 -4
35 -3 42 1 18 14 108 5 106 -10 -2 -7 7 -12 22 -12 16 0 25 6 25 15 0 9 9 15
25 15 32 0 32 14 0 28 -32 15 -78 16 -70 2 3 -5 2 -10 -4 -10 -11 0 -26 39
-17 47 3 3 34 1 68 -5 37 -6 67 -6 72 -1 6 6 4 9 -6 9 -9 0 -20 5 -23 10 -4 7
6 10 29 8 20 -1 41 3 48 10 9 9 -10 12 -90 12 l-102 0 -1 88 c-1 48 -1 150 0
227 0 77 1 265 1 418 0 229 2 277 14 277 12 0 353 -251 556 -410 47 -36 99
-74 115 -84 28 -16 27 -15 -5 12 -19 17 -165 130 -325 252 -159 122 -292 226
-293 231 -3 6 285 9 745 7 l748 -3 3 -388 2 -387 -50 0 -50 0 0 -35 0 -35 50
0 50 0 -3 -92 -3 -93 -39 -6 -40 -6 43 -8 c23 -4 42 -13 41 -19 -3 -24 1 -59
6 -54 8 7 6 1113 -1 1133 -5 13 -93 15 -789 15 l-782 0 -9 -407 -9 -408 -330
-3 c-181 -1 -340 0 -352 3 l-23 5 0 453 0 453 53 27 c28 15 43 25 32 23 -11
-3 -33 -8 -49 -12 -26 -6 -27 -5 -17 15 7 11 16 21 21 21 5 0 7 6 4 14 -9 22
16 30 31 10 13 -18 14 -16 15 16 0 26 7 40 25 54 19 15 24 24 19 45 -4 14 -8
41 -9 59 -1 18 -10 39 -21 47 -23 17 -17 18 25 4 32 -11 42 -29 16 -29 -13 0
-11 -9 10 -43 14 -24 25 -51 25 -60 0 -10 5 -17 10 -17 15 0 12 63 -5 87 -13
19 -13 22 3 29 9 4 21 6 25 5 15 -3 20 31 6 40 -12 8 -12 10 0 18 11 7 11 12
-2 31 -15 22 -15 22 -19 1 -2 -15 -7 -18 -17 -12 -12 8 -12 12 2 25 17 18 37
21 37 7 0 -5 6 -16 13 -23 21 -21 38 -76 25 -84 -7 -4 -6 -9 2 -14 18 -11 32
-98 20 -120 -7 -13 -7 -21 1 -25 6 -4 -3 -16 -23 -29 l-33 -21 70 -3 c39 -2
116 0 173 3 87 6 101 9 91 21 -14 17 -41 18 -57 2 -14 -14 21 56 38 77 10 12
10 19 -1 32 -13 15 -11 16 12 10 19 -5 31 -1 45 14 18 20 18 21 -6 40 -32 24
-42 24 -58 -1 -7 -11 -22 -20 -35 -19 -22 0 -22 0 -1 9 30 12 39 42 18 57 -21
15 -11 17 15 3 14 -7 23 -4 41 15 l22 23 32 -19 c32 -19 33 -19 51 1 17 19 17
21 1 39 -16 17 -16 18 7 14 31 -6 46 16 24 32 -26 19 -20 28 6 10 21 -13 24
-13 40 6 l18 20 30 -22 c29 -20 31 -20 50 -4 14 14 16 21 8 32 -9 10 -8 13 2
13 7 0 23 12 35 27 12 16 26 24 30 20 5 -4 4 -11 -1 -15 -6 -4 -19 -17 -29
-30 -19 -22 -19 -22 4 -47 18 -19 26 -22 37 -13 26 22 22 1 -7 -34 l-30 -36
27 -21 c18 -15 30 -18 37 -11 16 16 30 12 16 -5 -6 -8 -8 -20 -4 -26 4 -7 3
-9 -3 -6 -6 4 -19 -3 -29 -14 -18 -21 -18 -21 5 -40 27 -22 34 -19 55 22 17
34 11 88 -10 96 -7 2 -10 11 -8 18 3 7 0 31 -6 54 -8 31 -14 39 -28 35 -14 -5
-14 -4 -3 4 19 13 3 89 -18 84 -7 -1 -22 7 -33 20 -15 18 -22 20 -36 11 -9 -6
-16 -16 -14 -22 3 -16 -80 -91 -92 -84 -5 4 -3 9 6 12 19 7 72 70 65 77 -3 3
10 22 29 42 19 20 34 44 35 52 0 10 3 8 9 -5 7 -18 8 -17 15 10 4 17 8 35 10
42 8 27 -21 31 -125 17 -109 -15 -382 -21 -419 -9 -12 3 -23 18 -27 33 -8 39
-37 92 -49 92 -6 0 -15 -4 -21 -9 -24 -22 -229 -71 -266 -63 -17 3 -18 50 -18
821 l0 817 160 -4 160 -4 -6 408 c-3 225 -7 415 -10 422 -2 9 -42 12 -152 12
l-149 0 -5 44 c-9 73 2 497 13 545 25 107 85 182 184 228 58 27 67 28 246 31
213 4 212 5 222 -78 8 -63 38 -107 91 -131 38 -17 73 -19 465 -19 l423 0 -4
-94 c-2 -52 -9 -100 -15 -107 -5 -8 -21 -61 -34 -118 -34 -152 -70 -205 -180
-260 -98 -50 -117 -65 -135 -108 -20 -47 -18 -126 4 -146 28 -25 125 -38 327
-44 215 -6 368 6 393 30 11 11 16 36 16 79 1 91 -18 117 -129 175 -76 41 -95
56 -122 98 -49 77 -59 85 -103 85 -43 0 -52 13 -20 30 11 6 18 15 15 20 -3 5
-1 11 5 15 6 4 8 10 5 14 -2 5 0 22 4 39 6 21 5 50 -4 89 -8 32 -14 90 -15
130 l0 71 198 4 c141 2 205 7 224 17 41 21 78 81 85 139 3 29 12 57 19 63 9 8
71 10 196 7 175 -4 186 -5 244 -32 113 -51 174 -138 194 -272 5 -40 10 -329
10 -681 l0 -613 -119 0 c-66 0 -122 -4 -125 -8 -2 -4 -6 -192 -7 -417 l-2
-410 124 -5 124 -5 3 -445 c1 -245 0 -454 -3 -466 -4 -18 -15 -22 -77 -29 -88
-10 -222 -8 -263 4 -16 5 -49 12 -72 15 -39 6 -43 4 -58 -23 -8 -17 -15 -31
-15 -33 0 -2 64 -4 143 -5 197 -3 283 -10 315 -25 l27 -13 0 -760 0 -760 -195
3 c-107 1 -220 -1 -250 -5 -53 -8 -55 -9 -55 -38 l0 -30 245 -3 c134 -1 248
-6 252 -10 7 -7 10 -173 9 -420 l-1 -124 -37 22 c-33 19 -47 21 -103 16 -36
-4 -92 -9 -125 -13 -109 -10 -72 -16 72 -10 149 5 183 -2 170 -37 -4 -10 -1
-16 7 -16 8 0 13 -12 12 -32 l-1 -33 -390 -5 c-323 -4 -349 -6 -154 -8 130 -1
304 -5 387 -9 l152 -6 0 -27 c0 -81 -61 -198 -128 -243 -71 -50 -115 -60 -287
-66 l-160 -6 -3 -47 -3 -48 143 0 c92 0 166 6 207 15 160 38 271 146 318 310
10 33 17 124 20 261 6 209 5 211 -16 217 -27 7 -27 23 -1 30 20 5 20 5 18
2539 l-3 2533 -21 62 c-12 34 -33 82 -47 106 -57 98 -180 176 -307 196 -42 7
-445 11 -1145 10 -885 0 -1092 -3 -1144 -15z m30 -1184 c4 -118 4 -290 1 -381
l-5 -166 -135 -7 c-74 -4 -136 -5 -138 -4 -5 5 -11 730 -6 755 l4 24 137 -3
136 -3 6 -215z m1447 74 c51 -4 92 -11 92 -15 0 -10 -65 -24 -100 -22 -14 1
-105 5 -203 9 -97 4 -175 9 -173 12 14 14 264 24 384 16z m1092 -999 l0 -385
-110 0 -110 0 0 183 c0 100 3 273 7 385 l6 202 104 0 103 0 0 -385z m-2641
-1349 c-3 -3 -11 5 -18 17 -13 21 -12 21 5 5 10 -10 16 -20 13 -22z m411 -81
c0 -7 -54 -55 -63 -55 -4 0 7 13 25 30 34 31 38 33 38 25z m-464 -45 c9 -21
24 -42 34 -45 12 -4 19 -18 22 -43 3 -20 8 -45 12 -54 6 -13 4 -18 -8 -18 -23
0 -69 85 -62 115 4 14 3 25 -2 25 -5 0 -14 11 -20 25 -15 32 -15 35 -2 35 6 0
17 -18 26 -40z m324 6 c0 -2 -8 -10 -17 -17 -16 -13 -17 -12 -4 4 13 16 21 21
21 13z m84 -50 c-21 -15 -30 -14 -19 3 3 6 14 11 23 11 13 0 13 -2 -4 -14z
m104 3 c-10 -5 -18 -17 -18 -24 0 -8 -7 -15 -15 -15 -8 0 -19 -9 -25 -19 -8
-16 -5 -23 21 -41 l30 -22 20 21 c35 38 31 22 -6 -23 -43 -52 -55 -58 -80 -40
-25 19 -44 18 -69 -3 -21 -18 -21 -18 -3 4 11 12 16 27 12 32 -3 6 0 11 8 11
8 0 22 8 31 19 16 18 16 20 -10 40 -29 23 -25 28 7 10 22 -11 54 5 43 22 -3 5
2 9 11 9 8 0 18 7 21 15 4 8 14 15 23 15 14 -1 14 -2 -1 -11z m88 -22 c-1 -15
-8 -22 -23 -23 -28 -2 -28 0 -1 26 27 25 26 25 24 -3z m-209 -293 c-3 -3 -12
-4 -19 -1 -8 3 -5 6 6 6 11 1 17 -2 13 -5z m185 -1216 c3 -7 4 -43 2 -80 -2
-37 1 -70 6 -73 13 -8 13 -52 0 -60 -6 -3 -10 4 -10 17 0 22 -2 23 -97 23 -54
0 -156 3 -228 6 -71 4 -113 5 -92 2 51 -6 46 -19 -10 -27 -105 -15 -273 -19
-273 -8 0 8 18 12 48 12 34 0 43 3 32 10 -8 5 -30 10 -47 10 -18 0 -33 4 -33
9 0 4 53 7 118 6 64 -1 92 -1 62 1 -30 2 -66 7 -80 11 -24 6 -23 6 10 14 19 5
97 12 173 16 76 3 140 10 143 15 8 13 -98 9 -231 -7 -65 -8 -136 -15 -157 -15
l-38 0 0 65 0 65 349 0 c270 0 350 -3 353 -12z m97 -264 c-6 -8 -15 -14 -20
-14 -11 0 -7 23 6 32 15 11 27 -3 14 -18z"/>
        <path d="M4620 3425 c-11 -13 -10 -18 6 -30 26 -20 41 -18 54 5 8 15 6 21 -9
30 -27 14 -36 13 -51 -5z"/>
        <path d="M4263 1933 c9 -2 23 -2 30 0 6 3 -1 5 -18 5 -16 0 -22 -2 -12 -5z"/>
        <path d="M4588 1933 c12 -2 30 -2 40 0 9 3 -1 5 -23 4 -22 0 -30 -2 -17 -4z"/>
        <path d="M4423 1873 c15 -2 37 -2 50 0 12 2 0 4 -28 4 -27 0 -38 -2 -22 -4z"/>
        <path d="M3730 5817 c0 -308 3 -416 12 -425 7 -7 43 -12 90 -12 77 0 78 0 78
25 0 24 -2 25 -63 25 l-64 0 -6 371 c-4 205 -4 376 -1 380 3 5 31 9 62 9 71 0
102 8 102 26 0 11 -22 14 -105 14 l-105 0 0 -413z"/>
        <path d="M4650 5960 c-7 -14 -9 -133 -5 -383 3 -200 5 -380 5 -400 l0 -37 323
2 322 3 0 415 0 415 -317 3 c-309 2 -317 2 -328 -18z m608 -402 l2 -378 -284
0 c-218 0 -285 3 -287 13 -2 6 -3 177 -1 380 l2 367 283 -2 282 -3 3 -377z"/>
        <path d="M4900 5622 c0 -5 9 -17 20 -27 18 -16 20 -16 20 -2 0 9 -9 21 -20 27
-11 6 -20 7 -20 2z"/>
        <path d="M4830 5579 c0 -18 39 -63 48 -55 3 4 -1 12 -10 19 -9 6 -20 21 -26
32 -9 15 -11 16 -12 4z"/>
        <path d="M4820 5481 c0 -14 29 -41 46 -41 21 0 17 6 -16 30 -16 12 -30 17 -30
11z"/>
        <path d="M4978 5473 c7 -3 16 -2 19 1 4 3 -2 6 -13 5 -11 0 -14 -3 -6 -6z"/>
        <path d="M4900 5430 c20 -13 33 -13 25 0 -3 6 -14 10 -23 10 -15 0 -15 -2 -2
-10z"/>
        <path d="M5641 5747 c-8 -11 -11 -124 -9 -428 l3 -414 323 -3 322 -2 0 327 c1
181 3 370 6 420 5 73 3 94 -8 97 -7 3 -151 7 -319 11 -256 5 -308 4 -318 -8z
m542 -34 l67 -6 0 -127 c0 -70 -3 -242 -7 -383 l-6 -257 -284 0 -283 0 0 329
c0 180 3 356 6 390 l7 61 216 0 c119 0 246 -3 284 -7z"/>
        <path d="M5960 5370 c0 -5 5 -10 10 -10 6 0 10 5 10 10 0 6 -4 10 -10 10 -5 0
-10 -4 -10 -10z"/>
        <path d="M5890 5318 c0 -4 6 -8 14 -8 8 0 22 -3 32 -7 12 -4 15 -2 12 8 -5 15
-58 21 -58 7z"/>
        <path d="M6025 5311 c-9 -16 9 -20 23 -5 10 12 10 14 -2 14 -8 0 -17 -4 -21
-9z"/>
        <path d="M5860 5251 c0 -6 5 -13 10 -16 6 -3 10 1 10 9 0 9 -4 16 -10 16 -5 0
-10 -4 -10 -9z"/>
        <path d="M5952 5248 c3 -7 12 -14 21 -16 12 -2 15 1 11 12 -7 19 -38 22 -32 4z"/>
        <path d="M2636 5472 c-4 -4 -159 -9 -344 -12 l-337 -5 -3 -24 c-7 -46 6 -68
43 -74 19 -3 42 -13 51 -21 8 -9 29 -17 45 -17 16 -1 34 -2 41 -3 16 -1 29
-66 17 -88 -6 -10 -16 -15 -25 -11 -14 5 -16 -1 -12 -38 5 -50 10 -72 19 -79
13 -10 21 -70 10 -70 -7 0 -16 -11 -21 -25 -6 -15 -17 -25 -29 -25 -11 0 -23
-9 -26 -20 -5 -15 -15 -20 -41 -20 -63 0 -74 -12 -74 -85 l0 -65 33 0 c153 0
627 -11 643 -15 13 -3 24 1 27 10 10 24 8 683 -1 689 -5 3 -12 2 -16 -2z
m-451 -568 c-3 -13 -7 -35 -10 -49 -6 -30 -33 -33 -64 -6 -22 19 -20 57 3 44
6 -3 6 -1 -1 8 -20 21 -16 27 20 31 47 5 58 -1 52 -28z m-165 6 c0 -5 -4 -10
-10 -10 -5 0 -10 5 -10 10 0 6 5 10 10 10 6 0 10 -4 10 -10z m10 -39 c0 -11
-4 -23 -10 -26 -6 -4 -10 5 -10 19 0 14 5 26 10 26 6 0 10 -9 10 -19z"/>
        <path d="M7050 5460 c0 -18 8 -20 103 -22 l102 -3 0 -47 c-1 -27 -2 -199 -3
-383 l-2 -334 -112 -3 c-93 -2 -113 -6 -113 -18 0 -12 22 -15 126 -18 l126 -3
6 143 c4 79 7 267 7 419 l0 276 -92 7 c-141 10 -148 9 -148 -14z"/>
        <path d="M2315 4739 c-170 -3 -322 -7 -337 -8 -25 -1 -28 -5 -28 -36 0 -23 4
-33 13 -30 27 8 194 13 206 6 25 -16 -15 -59 -61 -66 -28 -5 -42 -13 -45 -26
-4 -15 -9 -17 -19 -8 -16 13 -66 8 -71 -7 -2 -7 9 -16 24 -22 15 -5 37 -17 48
-27 20 -16 20 -16 -2 -6 -31 15 -63 13 -69 -4 -4 -8 -10 -12 -15 -9 -5 3 -9
-4 -9 -15 0 -11 5 -23 10 -26 6 -3 10 -11 10 -16 0 -6 -4 -7 -10 -4 -7 4 -10
-166 -10 -503 l0 -509 23 -21 c13 -12 38 -25 57 -28 19 -4 48 -16 64 -27 26
-18 27 -22 12 -32 -9 -7 -16 -17 -16 -23 0 -5 -31 -16 -70 -23 l-70 -12 0 -69
0 -68 108 0 c59 -1 214 -2 344 -3 l237 -2 3 240 c2 132 2 245 0 250 -1 6 -108
9 -301 7 -294 -3 -298 -3 -304 17 -5 21 -2 21 198 21 234 0 218 -9 209 111
l-6 69 31 0 31 0 0 -89 0 -88 67 -6 c38 -3 71 -3 75 0 5 2 8 32 8 66 l1 62 22
-26 c24 -28 77 -66 77 -54 0 4 -9 20 -21 36 -12 17 -22 48 -23 71 -2 31 -8 45
-29 60 l-27 20 0 203 0 204 -172 -2 -171 -2 -4 28 c-4 28 -3 29 36 22 23 -4
41 -2 45 4 7 11 -37 26 -51 18 -5 -3 -13 5 -19 17 -10 22 -10 22 18 8 17 -8
42 -12 59 -8 27 5 28 4 17 -14 -11 -16 -9 -22 7 -35 12 -9 28 -12 40 -8 11 4
61 8 110 9 61 1 90 5 89 13 -1 6 -2 101 -2 211 -2 154 -5 200 -14 198 -7 -1
-152 -5 -323 -9z m-48 -65 c-3 -3 -12 -4 -19 -1 -8 3 -5 6 6 6 11 1 17 -2 13
-5z m141 -146 c-3 -7 -11 -13 -18 -13 -7 0 -15 6 -17 13 -3 7 4 12 17 12 13 0
20 -5 18 -12z m-71 -4 c-3 -3 -12 -4 -19 -1 -8 3 -5 6 6 6 11 1 17 -2 13 -5z
m-75 -26 c-7 -7 -12 -42 -12 -85 0 -84 -14 -96 -42 -34 -25 52 -23 67 15 101
30 28 65 44 39 18z m208 -2 c0 -24 -16 -27 -35 -6 -18 19 -17 20 8 20 17 0 27
-5 27 -14z m-153 -28 c-3 -8 -6 -5 -6 6 -1 11 2 17 5 13 3 -3 4 -12 1 -19z
m183 -30 c0 -13 -23 -5 -28 10 -2 7 2 10 12 6 9 -3 16 -11 16 -16z m-351 -30
c-8 -14 -14 -18 -17 -10 -4 13 17 46 25 38 3 -2 -1 -15 -8 -28z m-84 -213 c1
-28 -2 -35 -17 -35 -11 0 -16 5 -13 11 4 6 -2 13 -14 16 l-21 5 21 30 c26 36
43 25 44 -27z m40 -55 c3 -5 3 -10 -2 -10 -4 0 -18 -3 -30 -6 -13 -4 -23 -2
-23 4 0 9 15 16 42 21 4 0 10 -3 13 -9z m351 -19 c-3 -5 -16 -11 -28 -14 -22
-6 -22 -5 -4 8 22 17 40 20 32 6z m-379 -69 c-19 -2 -27 -9 -27 -23 0 -10 -2
-19 -4 -19 -2 0 -11 -3 -20 -6 -12 -4 -16 0 -16 16 0 13 8 24 20 27 11 3 20
14 20 24 0 19 1 19 27 2 l27 -18 -27 -3z m-5 -74 c-7 -7 -12 -8 -12 -2 0 14
12 26 19 19 2 -3 -1 -11 -7 -17z m396 0 c-2 -7 -28 -26 -58 -41 -29 -15 -59
-36 -66 -45 -20 -25 -17 -6 5 37 11 20 30 42 43 48 32 16 81 16 76 1z m89 -54
c-3 -3 -12 -4 -19 -1 -8 3 -5 6 6 6 11 1 17 -2 13 -5z m48 -33 c3 -5 1 -12 -5
-16 -5 -3 -10 1 -10 9 0 18 6 21 15 7z m25 -51 c-20 -13 -33 -13 -25 0 3 6 14
10 23 10 15 0 15 -2 2 -10z m-256 -37 c8 -35 5 -118 -4 -133 -6 -11 -20 82
-20 136 0 33 17 30 24 -3z m-334 -223 c0 -5 -2 -10 -4 -10 -3 0 -8 5 -11 10
-3 6 -1 10 4 10 6 0 11 -4 11 -10z m143 -77 c12 -4 17 -15 16 -42 -2 -34 -2
-34 -6 -6 -6 39 -22 48 -52 28 -22 -14 -24 -14 -18 2 4 9 7 21 7 27 0 6 8 7
18 3 9 -4 25 -10 35 -12z m157 -212 c0 -6 -5 -13 -11 -17 -8 -5 -8 -8 0 -14 9
-5 9 -14 2 -34 -9 -23 -15 -26 -38 -20 -34 8 -29 4 -37 31 -6 19 -2 24 26 32
33 9 33 9 5 10 -16 1 -26 5 -22 11 8 13 75 13 75 1z m-180 -50 c0 -24 -26 -35
-34 -15 -10 26 -7 34 14 34 13 0 20 -7 20 -19z"/>
        <path d="M3730 3734 c0 -8 15 -36 33 -62 42 -62 128 -232 122 -242 -3 -5 6
-21 20 -37 l24 -28 1 193 0 192 -100 0 c-84 0 -100 -2 -100 -16z"/>
        <path d="M4956 3601 c-6 -10 28 -44 36 -35 3 3 4 14 1 25 -5 19 -28 26 -37 10z"/>
        <path d="M6363 3558 c-5 -7 -16 -30 -26 -50 l-16 -37 112 2 c197 4 367 -12
367 -35 0 -4 14 -8 30 -8 38 0 38 9 -3 39 l-32 23 28 -6 c55 -13 23 18 -54 51
-73 32 -76 33 -235 33 -118 0 -164 -3 -171 -12z"/>
        <path d="M4831 3427 c-17 -21 23 -55 44 -37 14 12 14 15 -1 31 -20 23 -28 23
-43 6z"/>
        <path d="M4929 3424 c-11 -14 -10 -18 6 -30 10 -8 24 -14 31 -14 20 0 24 27 5
44 -22 20 -25 20 -42 0z"/>
        <path d="M4786 3381 c-16 -18 -16 -20 12 -40 l29 -20 19 20 c18 20 18 21 -6
40 -31 23 -33 23 -54 0z"/>
        <path d="M6811 3365 c-13 -19 -29 -35 -35 -35 -6 0 -40 10 -76 22 -53 17 -97
22 -237 26 l-173 4 -20 -43 c-32 -72 -34 -71 93 -64 129 8 296 -6 349 -28 36
-15 37 -16 27 -54 -6 -21 -12 -43 -14 -50 -3 -9 -22 -7 -72 8 -53 15 -102 19
-223 20 -224 2 -209 5 -226 -37 -8 -20 -13 -38 -11 -40 2 -3 77 -9 167 -14
210 -12 316 -27 364 -52 l39 -21 -5 27 c-3 16 -2 65 3 109 7 63 19 101 49 164
22 44 40 84 40 87 0 16 -17 3 -39 -29z"/>
        <path d="M4883 3375 c-10 -11 -8 -18 14 -34 31 -25 37 -26 53 -6 10 13 10 19
-5 35 -21 23 -45 25 -62 5z"/>
        <path d="M4650 3325 c-10 -12 -10 -18 0 -30 16 -19 34 -19 50 0 11 13 10 18
-6 30 -24 18 -29 18 -44 0z"/>
        <path d="M4754 3325 c-7 -17 12 -45 30 -45 7 0 17 5 24 12 9 9 8 16 -5 30 -20
22 -42 23 -49 3z"/>
        <path d="M4859 3324 c-10 -12 -9 -18 4 -31 18 -18 47 -11 47 11 0 25 -35 39
-51 20z"/>
        <path d="M4953 3315 c-3 -9 2 -22 13 -30 16 -12 21 -12 33 0 12 11 12 17 1 29
-16 20 -39 20 -47 1z"/>
        <path d="M4814 3279 c-17 -19 -17 -20 4 -42 19 -18 25 -20 40 -9 34 24 43 24
67 2 24 -23 25 -23 45 -5 l20 18 -22 24 c-26 27 -35 28 -60 6 -17 -15 -20 -15
-47 5 -29 21 -29 21 -47 1z"/>
        <path d="M4710 3275 c-10 -13 -10 -19 5 -35 22 -24 38 -25 55 -5 10 13 10 19
-5 35 -22 24 -38 25 -55 5z"/>
        <path d="M4310 3240 c0 -5 5 -10 10 -10 6 0 10 5 10 10 0 6 -4 10 -10 10 -5 0
-10 -4 -10 -10z"/>
        <path d="M4671 3217 c-8 -11 -6 -18 9 -32 19 -17 22 -17 37 -2 13 13 14 19 3
31 -15 20 -34 20 -49 3z"/>
        <path d="M4773 3214 c-7 -20 22 -45 43 -37 17 6 18 25 2 41 -17 17 -38 15 -45
-4z"/>
        <path d="M4876 3214 c-12 -32 27 -57 52 -32 9 9 8 16 -5 30 -20 22 -39 23 -47
2z"/>
        <path d="M4980 3215 c-10 -12 -10 -18 0 -30 16 -19 39 -19 46 0 6 15 -11 45
-26 45 -4 0 -13 -7 -20 -15z"/>
        <path d="M5400 3207 c-24 -12 -59 -62 -50 -70 3 -3 45 -6 94 -8 96 -4 114 5
68 33 -15 9 -41 26 -57 37 -26 17 -34 18 -55 8z"/>
        <path d="M5074 3199 c-10 -17 23 -46 38 -31 8 8 8 15 -2 27 -15 18 -26 19 -36
4z"/>
        <path d="M4621 3159 c-11 -19 -10 -25 12 -47 l25 -24 17 26 c17 25 17 27 0 46
-23 26 -37 25 -54 -1z"/>
        <path d="M4730 3165 c-10 -12 -10 -21 -2 -41 11 -22 10 -24 -7 -15 -14 8 -23
6 -36 -9 -18 -20 -16 -20 116 -15 74 3 136 10 140 16 3 5 11 9 18 7 7 -2 18 4
24 13 23 36 -24 78 -49 44 -10 -13 -11 -22 -4 -29 16 -16 11 -28 -9 -21 -11 3
-22 1 -26 -5 -3 -5 -11 -10 -17 -10 -6 0 -3 9 7 20 18 20 18 21 -3 43 -18 17
-26 19 -40 11 -9 -7 -17 -21 -16 -32 0 -14 -7 -22 -23 -25 -19 -3 -21 -2 -12
10 9 10 8 18 -6 33 -22 24 -38 25 -55 5z"/>
        <path d="M5037 3163 c-11 -10 -8 -28 7 -48 14 -19 15 -19 35 -1 20 18 20 20 5
38 -18 19 -36 23 -47 11z"/>
        <path d="M5737 3164 c-8 -8 1 -24 13 -24 4 0 10 7 14 15 5 15 -14 21 -27 9z"/>
        <path d="M5116 3142 c-2 -4 4 -18 14 -32 l18 -24 -5 27 c-6 29 -18 43 -27 29z"/>
        <path d="M5695 3140 c-3 -5 1 -10 10 -10 9 0 13 5 10 10 -3 6 -8 10 -10 10 -2
0 -7 -4 -10 -10z"/>
        <path d="M5175 3099 c16 -58 28 -79 46 -79 10 0 22 -8 28 -17 9 -17 35 -18
346 -17 234 1 340 5 348 13 8 8 -40 11 -186 11 -116 0 -197 4 -197 9 0 6 -8
10 -17 10 -10 0 -31 3 -48 7 -16 3 -42 6 -57 5 -15 0 -30 4 -33 9 -4 6 -14 10
-25 10 -10 0 -20 6 -23 13 -3 7 -36 19 -73 26 -38 7 -80 15 -93 18 -21 5 -22
3 -16 -18z"/>
        <path d="M5005 3100 c3 -5 8 -10 11 -10 2 0 4 5 4 10 0 6 -5 10 -11 10 -5 0
-7 -4 -4 -10z"/>
        <path d="M5095 3100 c-3 -5 1 -10 10 -10 9 0 13 5 10 10 -3 6 -8 10 -10 10 -2
0 -7 -4 -10 -10z"/>
        <path d="M2618 3085 c-2 -3 -154 -5 -336 -5 l-332 -1 0 -324 0 -325 193 -2
c105 -1 260 -2 342 -2 l150 -1 3 333 c2 296 -1 346 -20 327z"/>
        <path d="M4225 3060 c-13 -6 -15 -9 -5 -9 8 0 22 4 30 9 18 12 2 12 -25 0z"/>
        <path d="M6241 2473 c-1 -357 -2 -383 -18 -384 -10 -1 -88 -4 -173 -8 l-155
-6 35 -25 c32 -23 46 -25 170 -30 l135 -5 2 -77 c1 -73 0 -78 -20 -78 -16 0
-18 -3 -9 -12 24 -24 11 -28 -20 -6 -29 20 -217 166 -550 425 -106 82 -139
102 -102 62 19 -21 18 -21 -5 -40 -27 -22 -14 -26 15 -4 10 8 22 15 26 15 9 0
262 -199 266 -210 2 -6 -83 -11 -220 -12 -333 -3 -312 -2 -348 -32 l-32 -26
345 0 344 0 36 -27 c20 -16 63 -48 96 -73 33 -25 61 -50 61 -57 0 -9 -35 -13
-127 -15 -112 -3 -122 -4 -75 -12 59 -10 68 -23 20 -29 -18 -2 14 -2 72 0 58
2 119 7 136 9 21 4 36 0 47 -10 8 -9 20 -16 25 -16 5 0 15 -7 22 -15 7 -8 21
-15 31 -15 17 0 18 3 7 20 -7 11 -17 20 -23 20 -7 0 -9 169 -7 502 2 275 1
513 -1 527 -2 14 -5 -146 -6 -356z"/>
        <path d="M2818 2726 c-5 -43 -8 -121 -8 -172 l0 -93 -39 -21 c-35 -20 -39 -27
-45 -74 -3 -28 -6 -97 -6 -153 l0 -103 -40 0 -39 0 -3 118 -3 117 -342 3 -343
2 0 -195 0 -195 -67 0 -68 0 0 -299 0 -299 140 -7 c77 -3 548 -5 1046 -3 l906
3 -271 308 -271 307 -395 0 -395 0 33 20 c17 11 32 23 32 28 0 14 56 13 85 -2
19 -10 35 -12 58 -5 20 6 249 7 590 3 l557 -7 0 35 0 36 -102 4 c-59 3 -108 1
-116 -5 -15 -12 -119 -4 -133 10 -7 7 -6 18 2 36 8 18 9 46 3 94 -10 80 -11
69 14 163 32 124 35 147 16 147 -12 0 -15 -8 -12 -33 4 -31 2 -33 -39 -39 -33
-5 -43 -11 -43 -25 0 -25 -65 -80 -96 -80 -34 0 -26 -24 9 -28 15 -2 25 -7 22
-12 -3 -4 16 -11 41 -15 36 -5 44 -9 35 -18 -9 -9 -97 -12 -324 -10 -292 1
-391 9 -344 28 23 9 22 37 -2 52 -11 7 -20 20 -20 30 -16 441 -16 431 -23 349z
m-425 -753 c-29 -2 -77 -2 -105 0 -29 2 -6 3 52 3 58 0 81 -1 53 -3z m825
-255 c-3 -8 -23 -13 -53 -13 -30 0 -50 5 -52 13 -4 9 11 12 52 12 41 0 56 -3
53 -12z m160 0 c-3 -8 -23 -13 -53 -13 -30 0 -50 5 -52 13 -4 9 11 12 52 12
41 0 56 -3 53 -12z m160 0 c-3 -8 -23 -13 -53 -13 -30 0 -50 5 -52 13 -4 9 11
12 52 12 41 0 56 -3 53 -12z"/>
        <path d="M3637 2683 c4 -44 2 -63 -6 -63 -6 0 -11 -17 -11 -40 0 -22 4 -40 9
-40 10 0 36 168 27 177 -3 4 -6 0 -7 -8 -1 -8 -5 -3 -9 11 -5 15 -6 0 -3 -37z"/>
        <path d="M2746 2514 c-19 -19 -21 -54 -3 -54 18 0 37 21 37 41 0 26 -16 32
-34 13z"/>
        <path d="M4810 2045 l0 -25 185 -1 c102 -1 188 -2 193 -3 4 -1 23 11 42 26
l35 28 -227 0 -228 0 0 -25z"/>
        <path d="M5099 1933 c-13 -16 -12 -17 4 -4 16 13 21 21 13 21 -2 0 -10 -8 -17
-17z"/>
        <path d="M6548 1943 c7 -3 16 -2 19 1 4 3 -2 6 -13 5 -11 0 -14 -3 -6 -6z"/>
        <path d="M4908 1933 c12 -2 32 -2 45 0 12 2 2 4 -23 4 -25 0 -35 -2 -22 -4z"/>
        <path d="M5243 1933 c9 -2 23 -2 30 0 6 3 -1 5 -18 5 -16 0 -22 -2 -12 -5z"/>
        <path d="M5908 1933 c12 -2 30 -2 40 0 9 3 -1 5 -23 4 -22 0 -30 -2 -17 -4z"/>
        <path d="M4936 1900 c45 -4 86 -10 91 -13 6 -4 19 0 29 8 17 13 7 14 -91 13
l-110 -1 81 -7z"/>
        <path d="M5086 1901 c-4 -5 16 -12 49 -16 80 -10 67 -25 -22 -25 -112 0 -127
-17 -22 -24 117 -8 154 -8 234 2 57 7 62 9 28 10 -59 3 -54 22 5 23 26 1 -16
7 -93 14 -77 7 -147 16 -156 20 -10 3 -20 2 -23 -4z"/>
        <path d="M5806 1900 c6 -6 42 -7 99 -1 l90 8 -99 2 c-67 1 -97 -2 -90 -9z"/>
        <path d="M6470 1900 c41 -4 102 -7 135 -7 l60 0 -55 7 c-30 5 -91 8 -135 7
l-80 0 75 -7z"/>
        <path d="M6695 1880 c44 -10 16 -17 -100 -25 -142 -9 -208 -18 -212 -31 -5
-14 54 -24 122 -22 43 1 45 2 13 5 -21 2 -38 8 -38 12 0 10 48 18 155 26 130
10 148 14 135 31 -8 9 -29 14 -59 13 -41 -1 -43 -2 -16 -9z"/>
        <path d="M4873 1873 c15 -2 37 -2 50 0 12 2 0 4 -28 4 -27 0 -38 -2 -22 -4z"/>
        <path d="M5983 1873 c9 -2 23 -2 30 0 6 3 -1 5 -18 5 -16 0 -22 -2 -12 -5z"/>
        <path d="M5575 1861 c-6 -5 -21 -11 -35 -14 -14 -2 21 -4 78 -4 101 0 131 9
71 21 -46 9 -104 7 -114 -3z"/>
        <path d="M4966 1811 c-9 -13 15 -19 121 -26 51 -4 91 -11 88 -15 -6 -9 142
-23 155 -15 35 21 -6 30 -200 44 -69 5 -132 12 -141 16 -10 3 -20 2 -23 -4z"/>
        <path d="M4568 1793 c7 -3 16 -2 19 1 4 3 -2 6 -13 5 -11 0 -14 -3 -6 -6z"/>
        <path d="M5788 1793 c7 -3 16 -2 19 1 4 3 -2 6 -13 5 -11 0 -14 -3 -6 -6z"/>
        <path d="M6665 1790 c45 -11 135 -11 135 0 0 6 -33 10 -82 9 -60 -1 -75 -4
-53 -9z"/>
        <path d="M4398 1773 c12 -2 32 -2 45 0 12 2 2 4 -23 4 -25 0 -35 -2 -22 -4z"/>
        <path d="M5570 1759 c-11 -7 3 -8 45 -3 33 3 62 8 64 10 10 9 -96 3 -109 -7z"/>
        <path d="M6020 1761 c0 -6 -17 -12 -37 -14 -21 -2 -5 -4 35 -5 54 -2 74 -6 78
-17 4 -8 16 -15 29 -15 13 0 25 7 29 15 4 11 -2 15 -27 15 -18 0 -45 7 -61 15
-33 17 -46 19 -46 6z"/>
        <path d="M6455 1761 c3 -5 -4 -11 -15 -13 -12 -2 -22 -7 -23 -13 -3 -14 32
-19 57 -6 11 5 32 12 46 14 24 4 24 4 -2 6 -16 0 -28 6 -28 11 0 6 -9 10 -21
10 -11 0 -18 -4 -14 -9z"/>
        <path d="M4380 1750 c-36 -4 -59 -7 -52 -8 6 -1 12 -9 12 -17 0 -20 20 -19 49
1 18 13 37 15 99 9 71 -6 75 -5 57 9 -21 16 -53 17 -165 6z"/>
        <path d="M6282 1736 c-26 -13 -24 -30 4 -34 12 -1 23 6 31 23 13 28 5 31 -35
11z"/>
        <path d="M5143 1720 c-4 -15 -15 -20 -42 -22 -32 -1 -31 -2 12 -7 26 -3 49
-10 50 -16 1 -6 -65 -12 -173 -16 -154 -6 -331 -27 -346 -41 -2 -3 19 -8 48
-11 29 -4 82 -11 118 -17 36 -5 112 -9 170 -9 103 2 104 2 40 10 -125 15 -150
20 -146 28 3 4 29 8 58 9 56 3 161 14 291 33 81 12 113 29 54 29 -55 0 -127
12 -127 21 0 5 9 9 19 9 11 0 23 5 26 10 4 6 -5 10 -20 10 -18 0 -29 -6 -32
-20z"/>
        <path d="M5635 1730 c-3 -5 3 -10 14 -10 12 0 21 5 21 10 0 6 -6 10 -14 10 -8
0 -18 -4 -21 -10z"/>
        <path d="M6580 1721 c0 -9 24 -21 41 -21 5 0 9 7 9 15 0 9 -9 15 -25 15 -14 0
-25 -4 -25 -9z"/>
        <path d="M4180 1710 c0 -5 11 -10 25 -10 14 0 25 5 25 10 0 6 -11 10 -25 10
-14 0 -25 -4 -25 -10z"/>
        <path d="M4980 1710 c0 -5 11 -10 25 -10 14 0 25 5 25 10 0 6 -11 10 -25 10
-14 0 -25 -4 -25 -10z"/>
        <path d="M5950 1710 c0 -5 9 -10 20 -10 11 0 20 5 20 10 0 6 -9 10 -20 10 -11
0 -20 -4 -20 -10z"/>
        <path d="M6730 1700 c-11 -7 -3 -10 28 -10 26 0 41 4 37 10 -8 13 -45 13 -65
0z"/>
        <path d="M4780 1686 c14 -9 48 -15 80 -15 51 1 52 2 20 9 -19 5 -55 11 -80 14
-43 6 -44 6 -20 -8z"/>
        <path d="M5610 1690 c-88 -6 -85 -14 5 -10 22 0 61 -8 88 -20 26 -12 58 -20
70 -17 21 3 21 4 2 11 -11 4 -27 11 -35 14 -11 4 -9 7 8 9 34 7 26 23 -10 21
-18 -1 -76 -5 -128 -8z"/>
        <path d="M4265 1680 c28 -12 135 -12 135 0 0 6 -32 10 -77 9 -53 0 -72 -3 -58
-9z"/>
        <path d="M5860 1650 c0 -5 7 -10 15 -10 8 0 15 5 15 10 0 6 -7 10 -15 10 -8 0
-15 -4 -15 -10z"/>
        <path d="M6304 1650 c17 -6 36 -5 45 0 11 7 3 9 -29 9 -42 -1 -43 -1 -16 -9z"/>
        <path d="M6675 1650 c-38 -5 -90 -13 -115 -19 -25 -6 -73 -11 -107 -11 -35 0
-63 -4 -63 -10 0 -6 41 -10 104 -10 57 0 119 -2 137 -5 27 -4 29 -3 9 3 -37
12 -15 19 83 27 58 5 87 11 84 19 -5 14 -43 16 -132 6z"/>
        <path d="M5960 1641 c0 -11 35 -21 73 -21 43 0 31 -18 -15 -23 -24 -2 7 -4 67
-4 101 -1 240 11 205 17 -8 1 -18 2 -21 2 -4 -1 -59 8 -124 18 -126 22 -185
25 -185 11z"/>
        <path d="M5173 1613 c15 -2 39 -2 55 0 15 2 2 4 -28 4 -30 0 -43 -2 -27 -4z"/>
        <path d="M4505 1585 c-5 -2 -72 -9 -147 -16 -75 -7 -135 -15 -133 -19 6 -10
96 -12 108 -2 16 12 223 33 262 26 23 -4 27 -3 15 5 -14 10 -82 14 -105 6z"/>
        <path d="M5757 1570 c3 -11 9 -20 13 -20 4 0 10 9 13 20 4 15 0 20 -13 20 -13
0 -17 -5 -13 -20z"/>
        <path d="M5860 1580 c0 -5 4 -10 9 -10 6 0 13 5 16 10 3 6 -1 10 -9 10 -9 0
-16 -4 -16 -10z"/>
        <path d="M6748 1583 c6 -2 18 -2 25 0 6 3 1 5 -13 5 -14 0 -19 -2 -12 -5z"/>
        <path d="M5130 1573 c8 -2 21 -7 29 -9 9 -3 11 -8 5 -14 -11 -11 -256 -40
-342 -41 -32 0 -88 -6 -127 -13 l-70 -14 90 -1 c50 0 158 6 240 14 83 8 194
18 248 21 54 4 100 11 103 16 3 4 2 17 -1 28 -6 18 -15 20 -98 19 -51 0 -85
-3 -77 -6z"/>
        <path d="M5380 1556 c0 -9 7 -16 16 -16 17 0 14 22 -4 28 -7 2 -12 -3 -12 -12z"/>
        <path d="M6145 1565 c-5 -2 -32 -7 -60 -11 l-50 -7 59 -9 c34 -4 62 -4 65 1 4
5 26 13 51 19 l45 10 -50 0 c-27 0 -54 -1 -60 -3z"/>
        <path d="M4755 1551 c-6 -5 -21 -11 -35 -14 -22 -4 -22 -4 5 -5 17 -1 59 5 95
12 l65 14 -60 1 c-34 0 -65 -3 -70 -8z"/>
        <path d="M5480 1550 c0 -5 5 -10 10 -10 6 0 10 5 10 10 0 6 -4 10 -10 10 -5 0
-10 -4 -10 -10z"/>
        <path d="M6543 1553 c9 -2 23 -2 30 0 6 3 -1 5 -18 5 -16 0 -22 -2 -12 -5z"/>
        <path d="M6597 1554 c-23 -23 33 -33 78 -14 18 8 18 9 -5 9 -14 1 -34 4 -45 7
-11 3 -24 2 -28 -2z"/>
        <path d="M5760 1520 c0 -5 25 -10 55 -10 30 0 55 5 55 10 0 6 -25 10 -55 10
-30 0 -55 -4 -55 -10z"/>
        <path d="M5458 1503 c6 -2 18 -2 25 0 6 3 1 5 -13 5 -14 0 -19 -2 -12 -5z"/>
        <path d="M5965 1499 c17 -6 86 -12 155 -14 151 -5 93 10 -76 19 -83 4 -102 3
-79 -5z"/>
        <path d="M5258 1483 c6 -2 18 -2 25 0 6 3 1 5 -13 5 -14 0 -19 -2 -12 -5z"/>
        <path d="M4383 1453 c9 -2 23 -2 30 0 6 3 -1 5 -18 5 -16 0 -22 -2 -12 -5z"/>
        <path d="M4798 1453 c6 -2 18 -2 25 0 6 3 1 5 -13 5 -14 0 -19 -2 -12 -5z"/>
        <path d="M5220 1450 c8 -5 33 -9 55 -9 31 0 36 2 20 9 -29 13 -94 13 -75 0z"/>
        <path d="M6060 1440 c0 -13 70 -13 90 0 11 7 0 10 -37 10 -29 0 -53 -4 -53
-10z"/>
        <path d="M6497 1443 c18 -2 50 -2 70 0 21 2 7 4 -32 4 -38 0 -55 -2 -38 -4z"/>
        <path d="M5475 1360 c-3 -5 1 -10 9 -10 9 0 16 5 16 10 0 6 -4 10 -9 10 -6 0
-13 -4 -16 -10z"/>
        <path d="M6999 490 c110 -103 216 -179 343 -245 130 -67 340 -142 323 -116 -3
7 0 8 9 5 9 -3 16 -2 16 2 0 5 -40 22 -88 37 -194 62 -405 186 -550 322 -62
58 -86 75 -108 75 -27 -1 -24 -6 55 -80z"/>
    </g>
</svg>
