<?xml version="1.0" standalone="no"?>
<!DOCTYPE svg PUBLIC "-//W3C//DTD SVG 20010904//EN"
        "http://www.w3.org/TR/2001/REC-SVG-20010904/DTD/svg10.dtd">
<svg version="1.0" xmlns="http://www.w3.org/2000/svg"
     width="1080.000000pt" height="852.000000pt" viewBox="0 0 1080.000000 852.000000"
     preserveAspectRatio="xMidYMid meet">

    <g transform="translate(0.000000,852.000000) scale(0.100000,-0.100000)"
       fill="#000000" stroke="none">
        <path d="M4965 8365 c-87 -16 -177 -52 -249 -99 -55 -37 -186 -168 -186 -186
0 -7 642 -10 1836 -10 2062 0 1901 6 2073 -77 80 -38 108 -59 186 -137 168
-166 231 -328 236 -605 1 -40 5 -68 9 -61 4 7 28 14 53 16 38 2 45 0 40 -13
-5 -12 1 -14 29 -10 20 2 41 7 46 11 6 3 14 1 18 -5 5 -9 11 -7 21 6 10 15 13
15 13 4 0 -8 -6 -21 -12 -29 -11 -12 -10 -12 5 -1 9 7 17 21 17 30 0 13 2 13
9 2 5 -7 13 -11 19 -7 6 3 13 2 17 -4 4 -6 12 -5 21 5 13 12 15 62 12 337 -3
313 -4 325 -28 392 -79 227 -282 399 -520 442 -108 19 -3560 19 -3665 -1z"/>
        <path d="M4326 7818 c-174 -33 -307 -165 -347 -343 -14 -65 -24 -4519 -11
-5145 9 -416 11 -449 31 -505 41 -115 134 -209 254 -255 l62 -24 990 -6 c545
-3 991 -5 993 -4 2 1 -30 24 -70 50 l-73 49 -915 5 c-1028 6 -963 1 -1054 81
-54 47 -82 91 -101 156 -16 55 -28 681 -17 913 l7 135 80 -3 c94 -3 84 -10
217 144 107 123 115 131 113 103 -1 -12 -12 -27 -26 -35 -19 -11 -20 -13 -6
-14 10 0 15 -4 12 -10 -3 -6 -2 -10 3 -10 16 0 22 -43 9 -59 -10 -14 -10 -14
4 -4 9 7 19 9 23 5 4 -4 12 -8 17 -8 5 -1 13 -2 18 -3 5 0 11 -10 14 -21 3
-13 14 -20 29 -20 14 0 28 -3 31 -7 4 -3 42 -8 85 -10 42 -1 96 -5 120 -8 l42
-5 0 160 0 160 24 0 c18 0 25 -7 30 -31 8 -43 7 -164 -4 -224 -6 -37 -5 -54 5
-64 15 -15 201 -19 944 -20 435 -1 601 4 601 19 0 5 10 8 23 8 20 -1 236 19
281 26 17 2 20 12 20 79 1 50 6 80 15 89 11 11 12 -10 7 -128 -6 -150 -1 -169
41 -162 35 5 43 -11 43 -82 l0 -68 46 -26 c26 -14 48 -26 50 -26 3 0 3 1079 2
2398 l-3 2397 -23 63 c-12 35 -33 80 -46 100 -34 54 -120 130 -172 153 -109
49 -106 49 -1274 48 -630 -1 -1116 -5 -1144 -11z m392 -105 c5 -10 12 -40 16
-67 8 -63 43 -109 98 -130 38 -15 111 -16 663 -14 506 2 625 6 647 17 42 21
78 81 85 139 3 29 12 57 19 63 9 7 72 10 196 7 162 -4 190 -7 242 -27 69 -28
139 -92 166 -155 39 -87 41 -143 38 -1410 l-3 -1229 -150 -3 c-82 -1 -303 -1
-490 0 -187 0 -753 1 -1258 1 -504 0 -917 0 -917 0 0 0 -3 547 -6 1215 -5 880
-3 1237 5 1294 14 97 45 168 97 219 81 80 137 95 366 96 159 1 178 -1 186 -16z
m2077 -2833 c-3 -5 -14 -10 -23 -10 -15 0 -15 2 -2 10 20 13 33 13 25 0z m85
-91 c0 -4 -22 -7 -49 -6 -27 1 -47 5 -45 9 6 10 94 7 94 -3z m-283 -21 c-3 -8
-6 -5 -6 6 -1 11 2 17 5 13 3 -3 4 -12 1 -19z m-727 2 c0 -5 -8 -10 -17 -10
-15 0 -16 2 -3 10 19 12 20 12 20 0z m847 4 c-3 -3 -12 -4 -19 -1 -8 3 -5 6 6
6 11 1 17 -2 13 -5z m48 -4 c-3 -5 -14 -10 -23 -9 -14 0 -13 2 3 9 27 11 27
11 20 0z m68 -7 c-7 -2 -19 -2 -25 0 -7 3 -2 5 12 5 14 0 19 -2 13 -5z m-707
-28 c-28 -26 -83 -38 -58 -12 10 9 60 32 81 36 2 1 -8 -10 -23 -24z m64 21 c0
-2 -7 -7 -16 -10 -8 -3 -12 -2 -9 4 6 10 25 14 25 6z m35 -6 c3 -5 1 -10 -4
-10 -6 0 -11 5 -11 10 0 6 2 10 4 10 3 0 8 -4 11 -10z m150 0 c3 -5 1 -10 -4
-10 -6 0 -11 5 -11 10 0 6 2 10 4 10 3 0 8 -4 11 -10z m204 6 c-2 -2 -24 -6
-48 -9 -29 -4 -40 -2 -30 4 13 8 88 14 78 5z m-718 -20 c-17 -20 0 -27 54 -25
48 3 60 15 23 22 -21 3 -21 4 -5 12 24 10 41 -7 32 -34 -5 -17 -15 -21 -48
-22 -23 0 -53 -2 -67 -4 -14 -1 -32 1 -40 6 -11 6 -9 8 9 9 31 0 24 7 -13 14
-40 7 -45 16 -10 17 16 0 38 4 49 9 28 12 29 12 16 -4z m49 10 c0 -2 -7 -9
-15 -16 -12 -10 -15 -10 -15 4 0 9 7 16 15 16 8 0 15 -2 15 -4z m125 -17 c-7
-10 -35 -1 -35 11 0 5 9 6 20 3 11 -3 17 -9 15 -14z m278 14 c-7 -2 -19 -2
-25 0 -7 3 -2 5 12 5 14 0 19 -2 13 -5z m550 0 c-7 -2 -19 -2 -25 0 -7 3 -2 5
12 5 14 0 19 -2 13 -5z m-43 -53 c0 -5 -7 -7 -15 -4 -8 4 -15 8 -15 10 0 2 7
4 15 4 8 0 15 -4 15 -10z m-660 -4 c0 -3 -4 -8 -10 -11 -5 -3 -10 -1 -10 4 0
6 5 11 10 11 6 0 10 -2 10 -4z m378 -13 c-16 -2 -40 -2 -55 0 -16 2 -3 4 27 4
30 0 43 -2 28 -4z m335 -10 c-7 -2 -19 -2 -25 0 -7 3 -2 5 12 5 14 0 19 -2 13
-5z m-750 -50 c-7 -2 -21 -2 -30 0 -10 3 -4 5 12 5 17 0 24 -2 18 -5z m-260
-10 c-7 -2 -21 -2 -30 0 -10 3 -4 5 12 5 17 0 24 -2 18 -5z m-180 -20 c-7 -2
-19 -2 -25 0 -7 3 -2 5 12 5 14 0 19 -2 13 -5z m397 -47 c119 -16 152 -33 229
-117 39 -43 71 -83 71 -90 0 -7 -10 -23 -22 -36 l-21 -23 39 0 c21 -1 57 -8
79 -16 22 -8 55 -20 72 -25 18 -5 52 -25 75 -45 24 -19 64 -48 90 -65 59 -39
88 -95 88 -168 0 -29 7 -93 16 -142 15 -80 15 -91 1 -102 -14 -12 -43 -84 -39
-99 1 -5 -152 -8 -341 -8 -188 0 -589 0 -892 0 -302 -1 -753 -1 -1002 0 l-452
0 -3 168 c-2 92 -2 305 0 475 l4 307 227 0 c226 0 410 -12 485 -31 36 -10 104
-50 169 -100 l28 -21 43 40 c53 48 108 67 261 88 207 28 612 33 795 10z m250
-976 c0 -5 -10 -10 -22 -10 -19 0 -20 2 -8 10 19 13 30 13 30 0z m-1510 -10
c13 -9 13 -10 0 -10 -8 0 -22 5 -30 10 -13 9 -13 10 0 10 8 0 22 -5 30 -10z
m283 -11 c40 -7 76 -16 82 -20 12 -12 -28 -11 -85 1 -25 6 -65 13 -90 16 -25
4 -47 8 -49 10 -9 8 72 4 142 -7z m1033 -17 c-10 -2 -22 0 -28 6 -6 6 0 7 19
4 21 -5 23 -7 9 -10z m-1297 -8 c3 -3 0 -9 -6 -15 -11 -11 -57 3 -68 21 -5 8
4 9 32 4 21 -4 40 -8 42 -10z m177 1 c19 -14 19 -14 -1 -14 -11 0 -29 6 -39
14 -20 15 -20 15 0 15 11 0 29 -7 40 -15z m897 8 c-7 -2 -19 -2 -25 0 -7 3 -2
5 12 5 14 0 19 -2 13 -5z m727 -15 c0 -16 -3 -16 -20 -6 -11 7 -20 16 -20 20
0 4 9 6 20 5 12 -1 20 -8 20 -19z m-1403 6 c-3 -3 -12 -4 -19 -1 -8 3 -5 6 6
6 11 1 17 -2 13 -5z m-257 -19 l45 -15 -48 5 c-52 5 -100 24 -62 25 11 0 40
-7 65 -15z m-214 -12 c-10 -10 -46 -11 -40 -1 3 4 15 8 26 8 12 0 18 -3 14 -7z
m931 1 c-3 -3 -12 -4 -19 -1 -8 3 -5 6 6 6 11 1 17 -2 13 -5z m385 -1 c-6 -2
-10 -9 -6 -14 3 -5 -6 -9 -20 -9 -14 0 -26 5 -26 11 0 6 7 8 16 5 8 -3 12 -2
9 4 -3 6 4 10 17 9 13 0 17 -3 10 -6z m623 -3 c3 -5 -1 -10 -10 -10 -9 0 -13
5 -10 10 3 6 8 10 10 10 2 0 7 -4 10 -10z m-1198 -6 c-3 -3 -12 -4 -19 -1 -8
3 -5 6 6 6 11 1 17 -2 13 -5z m1059 -7 c4 -4 -5 -7 -19 -7 -15 0 -27 4 -27 10
0 11 35 8 46 -3z m-1846 -67 c0 -5 -2 -10 -4 -10 -3 0 -8 5 -11 10 -3 6 -1 10
4 10 6 0 11 -4 11 -10z m290 -10 c0 -5 -2 -10 -4 -10 -3 0 -8 5 -11 10 -3 6
-1 10 4 10 6 0 11 -4 11 -10z m-240 -15 c24 -14 24 -14 3 -15 -30 0 -54 10
-47 21 7 12 14 11 44 -6z m980 11 c0 -2 -7 -7 -16 -10 -8 -3 -12 -2 -9 4 6 10
25 14 25 6z m860 -6 c0 -5 -9 -10 -21 -10 -11 0 -17 5 -14 10 3 6 13 10 21 10
8 0 14 -4 14 -10z m-1640 -10 c0 -5 -2 -10 -4 -10 -3 0 -8 5 -11 10 -3 6 -1
10 4 10 6 0 11 -4 11 -10z m-330 -32 c-22 -23 -34 -21 -24 6 3 9 15 16 25 16
19 0 19 -1 -1 -22z m94 6 c9 -25 7 -34 -9 -34 -9 0 -12 6 -9 15 4 8 1 15 -5
15 -6 0 -11 5 -11 10 0 16 27 11 34 -6z m916 6 c-38 -12 -99 -12 -80 0 8 5 35
9 60 9 37 -1 41 -2 20 -9z m637 4 c-3 -3 -12 -4 -19 -1 -8 3 -5 6 6 6 11 1 17
-2 13 -5z m-540 -10 c-3 -3 -12 -4 -19 -1 -8 3 -5 6 6 6 11 1 17 -2 13 -5z
m503 -4 c0 -5 -2 -10 -4 -10 -3 0 -8 5 -11 10 -3 6 -1 10 4 10 6 0 11 -4 11
-10z m-1025 -10 c3 -5 1 -10 -4 -10 -6 0 -11 5 -11 10 0 6 2 10 4 10 3 0 8 -4
11 -10z m81 3 c-11 -11 -35 -12 -42 -2 -3 5 7 9 22 9 15 0 24 -3 20 -7z m1511
-115 c-3 -8 -6 -5 -6 6 -1 11 2 17 5 13 3 -3 4 -12 1 -19z m-7 -28 c0 -5 -5
-10 -11 -10 -5 0 -7 5 -4 10 3 6 8 10 11 10 2 0 4 -4 4 -10z"/>
        <path d="M4223 4183 c9 -2 23 -2 30 0 6 3 -1 5 -18 5 -16 0 -22 -2 -12 -5z"/>
        <path d="M4293 4183 c15 -2 37 -2 50 0 12 2 0 4 -28 4 -27 0 -38 -2 -22 -4z"/>
        <path d="M5148 4183 c28 -2 76 -2 105 0 28 2 5 3 -53 3 -58 0 -81 -1 -52 -3z"/>
        <path d="M6723 3770 c0 -25 2 -35 4 -22 2 12 2 32 0 45 -2 12 -4 2 -4 -23z"/>
        <path d="M9125 7181 c-3 -5 -2 -12 3 -15 5 -3 9 1 9 9 0 17 -3 19 -12 6z"/>
        <path d="M8105 5326 c-123 -39 -235 -175 -235 -286 0 -29 1 -30 51 -30 33 0
48 4 44 11 -4 6 -4 25 -1 44 5 26 14 36 38 44 26 9 35 8 52 -6 31 -26 34 -33
32 -64 -2 -26 1 -29 28 -31 37 -2 67 -5 81 -8 6 -1 13 -2 16 -2 3 1 77 4 165
7 87 4 160 8 162 10 10 10 -30 131 -57 174 -78 121 -240 180 -376 137z"/>
        <path d="M8197 4913 c-4 -3 -7 -11 -7 -17 0 -6 5 -5 12 2 6 6 9 14 7 17 -3 3
-9 2 -12 -2z"/>
        <path d="M2406 4901 c-2 -3 -6 -107 -10 -231 -8 -274 -17 -493 -22 -501 -2 -3
-16 -6 -31 -7 -15 -1 -41 -5 -58 -10 l-30 -8 -3 -117 -3 -116 40 1 c21 0 45
-3 52 -8 17 -10 81 -6 93 6 19 19 29 9 10 -11 -12 -14 -25 -18 -42 -14 l-23 6
3 -116 c3 -130 6 -125 -78 -125 l-54 0 0 -33 0 -34 63 1 62 1 3 -137 3 -138
37 -1 c20 -1 98 -1 173 1 128 2 138 1 158 -19 12 -12 21 -28 21 -36 0 -8 6
-14 13 -13 15 4 23 -52 7 -62 -8 -5 -8 -14 0 -34 5 -15 9 -46 9 -69 -1 -40 -2
-40 -9 -12 -4 17 -5 -15 -2 -70 5 -97 13 -125 36 -125 31 1 36 20 46 180 5 91
12 179 15 197 l6 32 377 -5 c207 -3 438 -12 512 -19 74 -8 138 -11 142 -9 4 3
8 84 8 180 l0 174 -527 2 c-291 1 -511 3 -490 5 33 4 37 7 37 31 0 39 -16 60
-23 32 -3 -13 -10 -19 -17 -15 -11 7 -99 -31 -111 -48 -4 -5 -14 -7 -24 -5
-11 2 9 16 53 37 l70 34 16 86 c9 47 19 106 21 131 7 59 14 80 36 108 10 13
21 36 24 52 4 17 25 48 48 70 73 69 128 99 214 115 43 8 96 19 118 25 38 10
93 17 160 19 50 2 61 15 35 41 l-23 23 62 59 c76 74 163 116 254 125 l67 6 0
183 0 184 -72 2 c-213 4 -1449 4 -1452 -1z m40 -529 c-10 -2 -22 0 -28 6 -6 6
0 7 19 4 21 -5 23 -7 9 -10z m-21 -61 c3 -5 1 -12 -5 -16 -5 -3 -10 1 -10 9 0
18 6 21 15 7z m173 -148 c-16 -2 -40 -2 -55 0 -16 2 -3 4 27 4 30 0 43 -2 28
-4z m-198 -47 c0 -2 -18 -6 -40 -8 -22 -2 -40 0 -40 4 0 5 18 8 40 8 22 0 40
-2 40 -4z m10 -26 c0 -5 -7 -10 -16 -10 -8 0 -12 5 -9 10 3 6 10 10 16 10 5 0
9 -4 9 -10z m11 -48 c-7 -2 -18 1 -23 6 -8 8 -4 9 13 5 13 -4 18 -8 10 -11z
m-88 -39 c3 -5 -8 -9 -24 -10 -17 -1 -27 2 -24 7 7 12 42 13 48 3z m190 -10
c-7 -2 -19 -2 -25 0 -7 3 -2 5 12 5 14 0 19 -2 13 -5z m-143 -48 c0 -16 -17
-19 -47 -8 -16 6 -15 8 7 14 38 11 40 10 40 -6z m146 -4 c-3 -5 -17 -8 -31 -8
-13 0 -22 3 -19 8 3 5 16 9 30 9 14 0 23 -4 20 -9z m80 -11 c43 -17 22 -21
-27 -6 -27 9 -36 14 -22 15 12 1 34 -4 49 -9z m-166 -150 c0 -5 -2 -10 -4 -10
-3 0 -8 5 -11 10 -3 6 -1 10 4 10 6 0 11 -4 11 -10z"/>
        <path d="M7028 4413 c-1 -274 -3 -579 -4 -678 -3 -345 8 -782 20 -782 6 0 18
-4 26 -7 9 -4 25 2 36 13 17 15 42 21 115 25 128 8 199 17 199 25 0 3 30 7 66
8 73 2 97 18 109 74 l7 29 79 0 c46 0 79 4 79 10 0 6 11 10 25 10 14 0 25 5
25 10 0 6 4 10 10 10 5 0 18 7 28 16 15 12 46 17 133 18 151 3 299 17 299 27
0 5 -27 9 -60 9 -33 0 -60 4 -60 10 0 6 -10 10 -22 10 -13 0 -42 7 -66 15 -24
9 -48 12 -54 9 -6 -4 -8 -3 -5 3 8 13 -97 63 -133 63 -29 0 -30 1 -31 53 -2
82 -37 593 -45 645 -4 26 -12 36 -35 44 -43 15 -35 28 17 28 41 0 45 2 39 20
-3 11 -2 20 3 20 5 0 9 7 9 15 0 8 -4 15 -8 15 -4 0 -26 48 -50 108 -48 121
-105 192 -153 192 -22 0 -26 4 -26 30 0 25 -4 30 -24 30 -20 0 -25 7 -35 58
-9 47 -31 256 -31 300 0 9 -55 12 -240 12 l-240 0 -2 -497z"/>
        <path d="M8073 4543 c-45 -180 -79 -333 -76 -340 7 -19 19 -16 20 5 1 10 34
153 74 318 87 360 84 344 72 344 -5 0 -46 -147 -90 -327z"/>
        <path d="M8181 4803 c6 -130 -1 -294 -11 -288 -6 4 -10 -21 -11 -67 -1 -90
-13 -217 -23 -240 -7 -16 -3 -18 30 -17 22 1 50 5 64 9 22 7 20 8 -12 7 -21 0
-40 2 -43 5 -4 4 0 132 8 285 18 343 18 373 5 373 -6 0 -9 -26 -7 -67z"/>
        <path d="M8240 4862 c0 -4 27 -99 60 -210 93 -319 123 -432 116 -439 -3 -3
-38 -6 -78 -6 -64 0 -68 -1 -33 -8 61 -12 123 -11 128 4 4 10 6 10 6 0 1 -8
14 -12 34 -12 27 2 28 3 6 6 -25 4 -29 17 -114 305 -48 165 -92 316 -97 334
-8 29 -28 48 -28 26z"/>
        <path d="M8088 4193 c7 -3 16 -2 19 1 4 3 -2 6 -13 5 -11 0 -14 -3 -6 -6z"/>
        <path d="M8000 4148 c0 -5 14 -8 30 -8 17 0 30 4 30 8 0 4 -13 8 -30 7 -16 0
-30 -3 -30 -7z"/>
        <path d="M8070 4150 c0 -5 5 -10 10 -10 6 0 10 5 10 10 0 6 -4 10 -10 10 -5 0
-10 -4 -10 -10z"/>
        <path d="M8150 4148 c0 -4 7 -8 15 -8 8 0 15 4 15 8 0 5 -7 9 -15 9 -8 0 -15
-4 -15 -9z"/>
        <path d="M2961 3904 c0 -11 3 -14 6 -6 3 7 2 16 -1 19 -3 4 -6 -2 -5 -13z"/>
        <path d="M2962 3750 c0 -19 2 -27 5 -17 2 9 2 25 0 35 -3 9 -5 1 -5 -18z"/>
        <path d="M1847 3466 c-390 -199 -679 -573 -784 -1016 -30 -129 -43 -416 -24
-551 70 -491 369 -917 803 -1144 101 -53 297 -126 334 -124 11 0 14 3 6 6 -6
2 -10 8 -7 12 2 5 -33 20 -78 35 -530 175 -926 641 -1012 1191 -21 135 -16
417 10 535 98 446 383 823 773 1024 51 27 72 43 72 57 0 10 -1 19 -3 19 -2 0
-42 -20 -90 -44z"/>
        <path d="M8730 3361 c0 -5 -3 -16 -6 -25 -5 -14 3 -16 55 -16 48 0 61 3 61 15
0 16 0 16 -50 19 -19 1 -41 5 -47 9 -7 5 -13 4 -13 -2z"/>
        <path d="M7988 2513 c7 -3 16 -2 19 1 4 3 -2 6 -13 5 -11 0 -14 -3 -6 -6z"/>
        <path d="M8409 2493 c-13 -17 -13 -17 6 -3 11 8 22 16 24 17 2 2 0 3 -6 3 -6
0 -17 -8 -24 -17z"/>
        <path d="M8028 2493 c7 -3 16 -2 19 1 4 3 -2 6 -13 5 -11 0 -14 -3 -6 -6z"/>
        <path d="M8238 2493 c12 -2 30 -2 40 0 9 3 -1 5 -23 4 -22 0 -30 -2 -17 -4z"/>
        <path d="M7938 2473 c7 -3 16 -2 19 1 4 3 -2 6 -13 5 -11 0 -14 -3 -6 -6z"/>
        <path d="M8227 2449 c7 -7 15 -10 18 -7 3 3 -2 9 -12 12 -14 6 -15 5 -6 -5z"/>
        <path d="M8250 2400 c-13 -9 -13 -10 0 -10 8 0 22 5 30 10 13 9 13 10 0 10 -8
0 -22 -5 -30 -10z"/>
        <path d="M8066 2337 c3 -10 9 -15 12 -12 3 3 0 11 -7 18 -10 9 -11 8 -5 -6z"/>
        <path d="M8180 2340 c-8 -5 -10 -10 -5 -10 6 0 17 5 25 10 8 5 11 10 5 10 -5
0 -17 -5 -25 -10z"/>
        <path d="M8280 2339 c0 -5 5 -7 10 -4 6 3 10 8 10 11 0 2 -4 4 -10 4 -5 0 -10
-5 -10 -11z"/>
        <path d="M8330 2330 c-9 -6 -10 -10 -3 -10 6 0 15 5 18 10 8 12 4 12 -15 0z"/>
        <path d="M7860 2326 c0 -2 7 -7 16 -10 8 -3 12 -2 9 4 -6 10 -25 14 -25 6z"/>
        <path d="M8080 2300 c-18 -12 -2 -12 25 0 13 6 15 9 5 9 -8 0 -22 -4 -30 -9z"/>
        <path d="M8138 2303 c7 -3 16 -2 19 1 4 3 -2 6 -13 5 -11 0 -14 -3 -6 -6z"/>
        <path d="M8210 2306 c0 -2 7 -7 16 -10 8 -3 12 -2 9 4 -6 10 -25 14 -25 6z"/>
        <path d="M8361 2301 c-12 -8 -9 -11 12 -16 14 -4 32 -5 39 -2 7 3 0 6 -17 7
-26 1 -27 3 -10 10 13 6 15 9 5 9 -8 0 -22 -3 -29 -8z"/>
        <path d="M7972 2285 c-7 -8 -9 -15 -4 -15 5 0 15 7 22 15 16 19 -1 19 -18 0z"/>
        <path d="M8430 2289 c0 -5 5 -7 10 -4 6 3 10 8 10 11 0 2 -4 4 -10 4 -5 0 -10
-5 -10 -11z"/>
        <path d="M8565 2290 c-3 -6 1 -7 9 -4 18 7 21 14 7 14 -6 0 -13 -4 -16 -10z"/>
        <path d="M8200 2286 c0 -2 7 -9 15 -16 13 -11 14 -10 9 4 -5 14 -24 23 -24 12z"/>
        <path d="M8080 2242 c23 -4 23 -5 5 -12 -12 -4 0 -7 30 -6 28 0 42 2 33 4 -10
2 -18 7 -18 10 0 4 -17 8 -38 8 -23 1 -28 0 -12 -4z"/>
        <path d="M8240 2230 c0 -5 5 -10 11 -10 5 0 7 5 4 10 -3 6 -8 10 -11 10 -2 0
-4 -4 -4 -10z"/>
        <path d="M8020 2196 c7 -7 14 -6 21 1 9 9 7 12 -9 10 -14 -1 -18 -5 -12 -11z"/>
        <path d="M8090 2200 c-9 -6 -10 -10 -3 -10 6 0 15 5 18 10 8 12 4 12 -15 0z"/>
        <path d="M8320 2202 c0 -15 31 -31 49 -24 8 2 11 0 8 -5 -3 -5 0 -10 8 -10 11
0 12 4 3 14 -6 8 -16 12 -22 10 -6 -3 -19 2 -28 11 -11 9 -18 11 -18 4z"/>
        <path d="M8234 2185 c8 -8 20 -15 27 -15 7 0 4 6 -7 15 -25 19 -40 19 -20 0z"/>
        <path d="M7780 2176 c0 -2 9 -6 20 -9 11 -3 18 -1 14 4 -5 9 -34 13 -34 5z"/>
        <path d="M8178 2173 c7 -3 16 -2 19 1 4 3 -2 6 -13 5 -11 0 -14 -3 -6 -6z"/>
        <path d="M8308 2163 c7 -3 16 -2 19 1 4 3 -2 6 -13 5 -11 0 -14 -3 -6 -6z"/>
        <path d="M7738 2143 c6 -2 18 -2 25 0 6 3 1 5 -13 5 -14 0 -19 -2 -12 -5z"/>
        <path d="M7990 2133 c-13 -15 -12 -16 4 -10 10 4 20 7 22 7 2 0 4 5 4 10 0 15
-13 12 -30 -7z"/>
        <path d="M8048 2143 c7 -3 16 -2 19 1 4 3 -2 6 -13 5 -11 0 -14 -3 -6 -6z"/>
        <path d="M8080 2146 c0 -2 7 -7 16 -10 8 -3 12 -2 9 4 -6 10 -25 14 -25 6z"/>
        <path d="M8400 2120 l-25 -8 25 -1 c14 0 32 4 40 9 13 9 13 10 0 9 -8 -1 -26
-5 -40 -9z"/>
        <path d="M7758 2103 c7 -3 16 -2 19 1 4 3 -2 6 -13 5 -11 0 -14 -3 -6 -6z"/>
        <path d="M7911 2031 c-7 -5 -33 -7 -58 -6 -35 3 -43 1 -39 -11 3 -8 1 -14 -5
-14 -6 0 -7 -5 -3 -12 5 -8 0 -9 -14 -6 -12 4 -22 2 -22 -3 0 -17 36 -25 92
-22 49 3 57 0 63 -17 3 -11 12 -20 20 -20 10 0 11 -7 6 -27 -8 -31 -8 -31 -36
-16 -19 11 -19 12 5 21 25 10 25 10 -6 10 -17 -1 -39 4 -50 11 -12 7 -14 11
-4 9 9 -2 17 0 18 5 1 4 0 7 -3 7 -3 0 -23 0 -45 0 -27 0 -40 -4 -40 -14 0 -9
9 -12 28 -8 25 4 25 3 9 -10 -11 -8 -16 -20 -11 -31 8 -21 18 -22 39 0 11 10
19 12 23 6 4 -5 17 -15 29 -22 29 -15 20 -40 -13 -33 -13 2 -27 9 -31 15 -4 6
0 8 10 4 10 -3 17 -2 17 2 0 13 -25 20 -40 11 -35 -22 109 -136 215 -170 22
-7 72 -13 110 -13 182 1 322 97 404 277 17 38 31 72 31 75 0 3 -23 6 -50 6
-46 0 -52 -3 -66 -30 -21 -41 -25 -43 -18 -9 l6 30 -52 3 c-34 1 -50 -2 -45
-8 3 -6 0 -9 -7 -7 -37 12 -78 15 -73 6 3 -6 -5 -14 -19 -20 -27 -10 -36 -39
-13 -41 6 -1 1 -4 -13 -8 -30 -9 -80 17 -58 30 7 5 14 4 16 -1 2 -6 11 -10 19
-10 10 0 14 6 10 20 -3 11 -1 20 4 20 5 0 9 5 9 10 0 6 -7 10 -15 10 -8 0 -15
-4 -15 -10 0 -18 -50 -23 -68 -8 -12 11 -43 15 -101 16 -47 1 -96 4 -110 7
-14 3 -32 1 -40 -4z m119 -31 c0 -14 7 -20 23 -21 12 -1 -3 -7 -33 -13 -39 -9
-54 -17 -52 -27 3 -12 1 -12 -10 -1 -11 11 -10 15 5 23 9 6 15 13 13 17 -3 4
4 8 14 8 10 0 16 -5 13 -10 -3 -5 -1 -6 5 -2 17 10 15 26 -4 26 -8 0 -12 5 -9
10 11 18 35 11 35 -10z m50 10 c0 -5 -7 -10 -16 -10 -8 0 -12 5 -9 10 3 6 10
10 16 10 5 0 9 -4 9 -10z m350 0 c0 -5 -2 -10 -4 -10 -3 0 -8 5 -11 10 -3 6
-1 10 4 10 6 0 11 -4 11 -10z m-290 -16 c0 -2 -11 -4 -25 -4 -14 0 -25 4 -25
9 0 4 11 6 25 3 14 -2 25 -6 25 -8z m-253 0 c-3 -3 -12 -4 -19 -1 -8 3 -5 6 6
6 11 1 17 -2 13 -5z m70 0 c-3 -3 -12 -4 -19 -1 -8 3 -5 6 6 6 11 1 17 -2 13
-5z m367 -2 c3 -5 -1 -9 -9 -9 -8 0 -12 4 -9 9 3 4 7 8 9 8 2 0 6 -4 9 -8z
m233 -19 c-14 -14 -19 -15 -29 -4 -11 11 -10 13 4 8 10 -3 20 -2 23 3 4 6 9
10 13 10 3 0 -1 -8 -11 -17z m-452 -13 c-3 -5 -16 -10 -28 -9 -21 0 -21 1 -2
9 28 12 37 12 30 0z m205 -42 c-17 -16 -27 -34 -24 -40 4 -7 2 -8 -5 -4 -6 4
-8 12 -5 18 4 6 0 14 -7 19 -10 6 -6 9 14 9 25 0 34 13 28 44 -1 5 5 4 13 -3
14 -11 12 -17 -14 -43z m108 45 c-10 -2 -26 -2 -35 0 -10 3 -2 5 17 5 19 0 27
-2 18 -5z m-378 -11 c0 -12 -35 -52 -45 -52 -4 0 -5 7 -1 15 3 8 0 15 -7 16
-7 0 2 7 18 14 37 17 35 17 35 7z m153 -9 c-7 -2 -19 -2 -25 0 -7 3 -2 5 12 5
14 0 19 -2 13 -5z m252 -11 c-3 -3 -11 0 -18 7 -9 10 -8 11 6 5 10 -3 15 -9
12 -12z m95 14 c0 -2 -9 -6 -20 -9 -11 -3 -20 -1 -20 4 0 5 9 9 20 9 11 0 20
-2 20 -4z m-432 -25 c12 -14 13 -14 8 2 -7 22 26 24 44 2 10 -13 9 -15 -9 -15
-21 0 -23 -14 -6 -52 8 -19 55 -25 55 -8 0 7 7 7 21 0 24 -13 54 -5 43 11 -5
8 -3 9 5 4 26 -15 -10 -85 -43 -85 -6 0 -4 5 4 10 13 8 13 11 1 19 -8 5 -10
14 -6 21 6 10 2 12 -16 7 -13 -4 -32 -7 -41 -7 -11 0 -18 -8 -18 -20 0 -11 -5
-20 -11 -20 -6 0 -9 6 -6 14 3 7 0 19 -6 26 -9 10 -9 11 1 6 7 -4 12 -1 12 7
0 8 -14 17 -31 21 -37 7 -58 -2 -38 -16 11 -8 10 -9 -2 -5 -23 8 -42 -13 -28
-30 9 -10 7 -13 -9 -13 -15 0 -19 -5 -15 -20 6 -21 45 -29 41 -7 -2 7 5 11 17
9 22 -4 56 -32 38 -32 -6 0 -13 5 -15 10 -2 7 -15 5 -34 -5 -31 -15 -69 -11
-59 5 3 5 1 11 -4 14 -5 3 -2 21 7 40 9 19 19 33 24 30 7 -5 12 10 9 29 -1 7
26 11 64 8 20 -2 20 -1 1 14 -11 8 -27 15 -36 15 -9 0 -17 6 -17 13 0 18 39
16 55 -2z m302 9 c0 -5 -4 -10 -9 -10 -6 0 -13 5 -16 10 -3 6 1 10 9 10 9 0
16 -4 16 -10z m140 -10 c0 -5 -7 -7 -15 -4 -8 4 -15 8 -15 10 0 2 7 4 15 4 8
0 15 -4 15 -10z m-305 -10 c3 -5 1 -10 -4 -10 -6 0 -11 5 -11 10 0 6 2 10 4
10 3 0 8 -4 11 -10z m-45 -40 c-24 -15 -37 -11 -16 5 11 8 22 12 25 9 3 -3 -1
-9 -9 -14z m270 -22 c0 -4 -5 -8 -11 -8 -5 0 -7 5 -3 12 5 8 0 9 -14 6 -24 -7
-25 -6 -16 17 6 14 8 14 25 -1 11 -9 19 -21 19 -26z m-473 2 c2 -17 -1 -18
-18 -7 -24 15 -25 27 -1 27 10 0 18 -8 19 -20z m113 -4 c0 -3 -4 -8 -10 -11
-5 -3 -10 -1 -10 4 0 6 5 11 10 11 6 0 10 -2 10 -4z m203 -21 c-15 -12 -15
-13 5 -19 20 -7 21 -9 6 -23 -11 -12 -18 -13 -27 -4 -8 8 -6 11 8 11 18 0 18
1 1 13 -20 15 -12 49 10 40 12 -4 12 -7 -3 -18z m96 4 c19 -21 19 -49 -1 -49
-6 0 -7 7 -4 16 6 16 -9 37 -34 47 -12 4 -12 6 2 6 10 1 26 -8 37 -20z m-430
-57 c-4 -2 -23 5 -41 15 l-33 17 35 6 c29 4 36 2 41 -15 3 -11 2 -21 -2 -23z
m196 8 c-3 -5 -14 -10 -23 -11 -14 0 -13 -2 3 -9 11 -5 14 -9 8 -9 -7 -1 -13
-8 -13 -16 0 -8 -5 -15 -10 -15 -12 0 -9 37 3 58 5 6 15 12 23 12 8 0 12 -4 9
-10z m205 0 c0 -5 -10 -10 -22 -9 -22 0 -22 1 -3 9 11 5 21 9 23 9 1 1 2 -3 2
-9z m-100 -25 c-8 -10 -7 -14 7 -18 16 -4 15 -5 -2 -6 -11 0 -26 8 -32 19 -11
16 -10 18 2 14 8 -4 15 -1 15 6 0 6 5 8 10 5 8 -5 8 -11 0 -20z m-40 -16 c0
-14 -17 -10 -23 5 -4 10 -1 13 9 9 7 -3 14 -9 14 -14z"/>
        <path d="M7770 2019 c0 -5 5 -7 10 -4 6 3 10 8 10 11 0 2 -4 4 -10 4 -5 0 -10
-5 -10 -11z"/>
        <path d="M8200 2020 c-9 -6 -10 -10 -3 -10 6 0 15 5 18 10 8 12 4 12 -15 0z"/>
        <path d="M8275 2020 c-3 -5 -1 -10 4 -10 6 0 11 5 11 10 0 6 -2 10 -4 10 -3 0
-8 -4 -11 -10z"/>
        <path d="M3580 1050 c-156 -158 -343 -279 -536 -349 -36 -13 -61 -28 -61 -37
0 -19 4 -18 89 12 106 38 240 108 343 178 86 57 325 283 325 306 0 5 -10 9
-22 8 -15 0 -65 -43 -138 -118z"/>
    </g>
</svg>
