<?xml version="1.0" standalone="no"?>
<!DOCTYPE svg PUBLIC "-//W3C//DTD SVG 20010904//EN"
        "http://www.w3.org/TR/2001/REC-SVG-20010904/DTD/svg10.dtd">
<svg version="1.0" xmlns="http://www.w3.org/2000/svg"
     width="1018.000000pt" height="834.000000pt" viewBox="0 0 1018.000000 834.000000"
     preserveAspectRatio="xMidYMid meet">

    <g transform="translate(0.000000,834.000000) scale(0.100000,-0.100000)"
       fill="#000000" stroke="none">
        <path d="M7354 8226 c-101 -33 -250 -100 -289 -130 -19 -15 -19 -15 12 -16 19
0 70 19 122 45 49 24 128 58 177 74 56 19 88 35 90 45 3 20 6 21 -112 -18z"/>
        <path d="M8265 8223 c-13 -4 5 -14 58 -33 210 -77 391 -193 552 -355 510 -511
585 -1291 183 -1896 -132 -200 -382 -414 -600 -514 -50 -23 -88 -47 -91 -57
-8 -27 8 -22 131 37 159 77 280 162 408 290 228 228 373 509 430 835 22 127
22 373 0 497 -96 535 -436 965 -916 1160 -104 42 -117 45 -155 36z"/>
        <path d="M7600 8069 c0 -5 -7 -9 -15 -9 -8 0 -15 -4 -15 -10 0 -5 16 -10 35
-10 35 0 50 -22 23 -34 -7 -3 -1 -3 14 0 27 6 64 -16 51 -30 -4 -3 1 -6 10 -6
10 0 17 -4 17 -10 0 -5 15 -9 33 -8 18 1 43 -4 55 -11 12 -7 28 -9 34 -5 7 4
8 3 4 -4 -10 -16 16 -53 34 -47 8 3 28 -2 44 -10 15 -8 40 -15 55 -15 18 0 22
-3 13 -9 -10 -6 -8 -10 8 -14 12 -3 19 -10 15 -16 -3 -6 -2 -18 3 -27 7 -13
10 -10 15 16 6 28 8 30 22 17 8 -9 15 -23 15 -31 0 -10 9 -16 25 -16 14 0 25
-5 25 -11 0 -8 5 -7 15 1 10 8 13 20 9 33 -6 20 -6 20 11 4 11 -12 15 -26 11
-41 -4 -15 -1 -26 7 -29 9 -4 9 -6 0 -6 -7 -1 -13 -6 -13 -12 0 -7 10 -9 25
-7 13 3 26 0 29 -6 2 -6 5 -1 5 12 1 13 5 20 11 17 18 -11 10 4 -26 52 -21 27
-41 47 -45 45 -5 -1 -8 2 -7 7 5 17 -65 83 -133 127 -76 49 -150 81 -223 95
-75 14 -196 19 -196 8z m155 -79 c3 -5 -3 -10 -15 -10 -12 0 -18 5 -15 10 3 6
10 10 15 10 5 0 12 -4 15 -10z m145 -86 c0 -2 -9 -4 -21 -4 -11 0 -18 4 -14
10 5 8 35 3 35 -6z m75 -3 c-3 -6 -14 -10 -23 -10 -15 1 -15 2 1 6 9 2 17 9
17 15 0 6 3 9 6 5 3 -3 3 -10 -1 -16z m240 -141 c3 -5 1 -10 -4 -10 -6 0 -11
5 -11 10 0 6 2 10 4 10 3 0 8 -4 11 -10z"/>
        <path d="M7488 8063 c6 -2 18 -2 25 0 6 3 1 5 -13 5 -14 0 -19 -2 -12 -5z"/>
        <path d="M7534 8044 c3 -9 6 -19 6 -22 0 -9 20 21 20 31 0 4 -7 7 -16 7 -11 0
-14 -5 -10 -16z"/>
        <path d="M7650 7980 c-12 -8 -11 -10 8 -10 12 0 22 5 22 10 0 13 -11 13 -30 0z"/>
        <path d="M3936 7728 c-174 -33 -307 -165 -347 -343 -13 -58 -22 -4766 -9
-5280 6 -282 9 -315 28 -370 42 -116 135 -209 255 -256 l62 -24 1132 -3 c983
-2 1141 0 1198 13 162 37 265 130 319 288 l21 62 3 2735 c2 1902 -1 2756 -8
2805 -22 145 -120 285 -235 336 -110 49 -106 49 -1275 48 -630 -1 -1116 -5
-1144 -11z m388 -104 c9 -8 16 -31 16 -50 0 -52 23 -98 66 -130 l37 -29 646 0
646 0 34 24 c38 27 70 91 71 138 0 62 13 66 209 61 154 -4 184 -8 235 -28 117
-45 186 -137 206 -277 13 -94 13 -5383 0 -5477 -13 -90 -41 -151 -93 -204 -50
-52 -101 -77 -188 -92 -45 -8 -382 -10 -1164 -8 -1187 4 -1143 2 -1205 55 -65
55 -106 103 -129 152 l-26 56 -3 2750 c-2 2077 0 2763 9 2805 29 136 106 218
239 254 81 22 373 22 394 0z"/>
        <path d="M4558 4753 c-15 -4 -16 -8 -6 -26 11 -21 11 -21 -16 -3 -15 10 -30
15 -33 13 -2 -3 5 -11 17 -17 29 -16 20 -23 -13 -11 -20 8 -30 7 -40 -3 -7 -8
-22 -16 -33 -19 -15 -4 -14 -5 6 -6 22 -1 23 -3 7 -12 -13 -8 -22 -7 -34 3
-15 12 -102 19 -104 8 0 -3 -2 -12 -4 -21 -1 -8 -6 -42 -9 -75 -4 -32 -9 -81
-12 -109 -3 -27 -7 -58 -10 -67 -3 -9 -7 -27 -9 -39 -8 -39 -58 -129 -72 -129
-7 0 -13 -7 -13 -15 0 -8 -7 -15 -15 -15 -8 0 -15 -7 -15 -16 0 -9 -7 -14 -17
-12 -25 5 -62 -30 -44 -41 8 -6 9 -11 3 -15 -6 -3 -11 -19 -11 -34 -1 -37 -6
-65 -13 -77 -3 -6 0 -28 6 -50 l12 -40 74 -1 c125 -1 114 8 106 -86 -4 -46
-16 -168 -26 -273 -11 -104 -26 -280 -35 -390 -8 -110 -24 -294 -35 -408 -11
-115 -18 -213 -14 -218 8 -14 74 -11 79 4 2 6 31 197 65 422 64 439 67 440 41
15 -9 -134 -5 -150 36 -150 13 0 26 6 28 13 5 11 98 702 112 825 3 29 10 55
16 59 14 9 910 4 918 -5 4 -4 23 -155 44 -337 61 -553 62 -557 76 -566 18 -11
30 -11 48 0 11 7 12 54 2 301 -7 161 -11 294 -9 295 2 2 26 -188 52 -423 27
-235 52 -438 56 -452 5 -19 14 -26 39 -28 19 -2 37 0 42 5 9 9 2 146 -41 728
-17 231 -34 473 -38 538 l-7 117 45 1 c44 0 138 16 111 18 -10 1 -11 4 -2 14
6 8 8 24 5 38 -7 30 -12 66 -13 100 -1 14 -7 34 -15 44 -13 18 -14 10 -13 -65
2 -114 -6 -127 -85 -135 -100 -10 -549 -12 -555 -3 -2 5 -10 5 -16 0 -10 -7
-32 -9 -39 -2 -9 6 -37 7 -33 1 2 -5 -69 -8 -159 -8 l-164 0 24 35 c13 19 24
38 24 42 0 11 -63 21 -72 12 -12 -12 -69 -2 -62 10 4 6 0 7 -12 1 -11 -5 -39
-8 -64 -7 -32 2 -49 -2 -57 -14 -8 -9 -13 -11 -13 -4 0 7 -5 12 -11 12 -5 0
-7 -4 -4 -10 3 -5 -1 -10 -9 -10 -9 0 -16 6 -16 14 0 9 -13 13 -40 13 -22 0
-37 -3 -35 -7 6 -10 -57 -20 -70 -10 -12 9 -85 1 -85 -10 0 -4 -8 -7 -17 -6
-10 0 -18 -6 -18 -14 0 -17 -43 -25 -64 -11 -20 13 -26 115 -11 171 13 50 55
93 130 134 34 19 92 34 197 52 133 24 172 27 389 26 l241 0 39 51 c43 58 52
87 28 87 -8 0 -13 -4 -9 -9 3 -5 1 -12 -4 -15 -5 -4 -12 -2 -16 4 -3 5 -14 10
-23 10 -13 0 -14 -2 -3 -9 8 -5 9 -11 3 -15 -6 -3 -13 -3 -16 2 -2 4 -52 7
-110 6 -76 -2 -106 1 -106 9 0 7 -4 6 -10 -3 -6 -10 -10 -11 -10 -2 0 6 -6 12
-13 12 -7 0 -26 12 -43 28 -26 24 -37 27 -89 26 -33 -1 -69 3 -80 9 -11 6 -23
10 -27 9 -3 -1 -10 29 -14 66 -5 49 -9 60 -14 42 l-6 -25 -6 28 c-3 15 -1 30
3 33 5 3 9 13 8 22 0 14 -2 13 -9 -3 l-9 -20 -1 20 c-2 11 -2 23 -1 28 0 4 -3
7 -9 7 -5 0 -7 7 -4 15 4 8 5 14 3 14 -2 -1 -12 -3 -21 -6z m-64 -52 c3 -5 -1
-11 -9 -14 -9 -4 -12 -1 -8 9 6 16 10 17 17 5z m-104 -25 c0 -2 -7 -7 -16 -10
-8 -3 -12 -2 -9 4 6 10 25 14 25 6z m1320 -955 c6 -69 15 -193 20 -276 5 -82
12 -188 14 -235 3 -47 4 -80 1 -75 -5 11 -53 557 -60 690 -8 127 12 45 25
-104z"/>
        <path d="M4686 4534 c-5 -14 -4 -15 9 -4 17 14 19 20 6 20 -5 0 -12 -7 -15
-16z"/>
        <path d="M4718 4523 c6 -2 18 -2 25 0 6 3 1 5 -13 5 -14 0 -19 -2 -12 -5z"/>
        <path d="M4846 4495 c4 -8 8 -15 10 -15 2 0 4 7 4 15 0 8 -4 15 -10 15 -5 0
-7 -7 -4 -15z"/>
        <path d="M4970 4465 c0 -9 6 -12 15 -9 8 4 15 7 15 9 0 2 -7 5 -15 9 -9 3 -15
0 -15 -9z"/>
        <path d="M4378 4003 c7 -3 16 -2 19 1 4 3 -2 6 -13 5 -11 0 -14 -3 -6 -6z"/>
        <path d="M8245 7703 c4 -10 8 -24 8 -30 0 -7 6 -13 14 -13 11 0 11 6 -2 30
-17 32 -32 42 -20 13z"/>
        <path d="M8211 7674 c0 -11 3 -14 6 -6 3 7 2 16 -1 19 -3 4 -6 -2 -5 -13z"/>
        <path d="M587 5447 c-19 -29 -24 -58 -14 -74 11 -17 -2 -36 -19 -29 -8 3 -14
-1 -14 -11 0 -12 -7 -14 -28 -10 -23 5 -31 0 -50 -29 -31 -48 -131 -92 -166
-72 -10 6 -16 5 -16 -2 0 -6 8 -14 18 -17 9 -4 20 -11 24 -17 11 -16 10 -46
-2 -46 -5 0 -10 7 -10 16 0 15 -9 16 -65 11 -67 -6 -79 -1 -45 21 29 18 25 29
-15 36 -19 4 -35 11 -35 15 0 10 -52 22 -91 22 -22 0 -26 4 -22 19 4 15 0 20
-16 20 -22 0 -22 0 -20 -259 0 -143 3 -262 6 -265 3 -3 12 2 19 12 16 21 18
74 3 89 -14 14 -13 247 1 274 23 42 35 14 37 -82 7 -346 10 -399 23 -414 8 -9
16 -35 19 -58 6 -41 7 -42 45 -43 36 -1 58 -16 69 -47 6 -20 27 4 27 32 0 15
8 36 19 47 12 14 17 30 13 52 -2 20 0 32 7 32 6 0 11 12 10 28 0 15 4 42 9 60
10 29 9 32 -11 34 -12 0 -28 2 -36 2 -8 1 -17 8 -19 16 -3 8 -16 23 -29 33
-20 16 -22 22 -11 34 9 11 24 13 59 9 41 -6 50 -4 62 14 9 13 20 18 30 14 9
-3 24 1 32 10 19 18 31 20 40 6 4 -6 23 -7 46 -4 33 6 44 3 63 -15 13 -12 29
-20 37 -17 8 2 27 7 42 11 20 4 27 10 23 20 -3 8 0 15 5 15 6 0 27 14 46 30
18 17 44 30 56 30 12 0 28 9 35 21 8 13 19 18 31 14 22 -7 31 17 31 83 0 23 4
42 8 42 18 0 32 -26 32 -62 0 -44 12 -48 43 -12 33 38 45 81 46 161 1 64 -2
74 -21 88 -22 15 -22 17 -5 30 18 13 18 14 -4 36 l-22 22 -18 -24 c-12 -17
-15 -27 -7 -36 7 -9 2 -23 -18 -48 l-28 -37 -18 24 c-9 12 -18 26 -18 31 0 16
-20 6 -20 -10 0 -10 -6 -30 -14 -45 -10 -20 -11 -28 -3 -31 9 -3 8 -8 -2 -20
-17 -21 -40 -22 -47 -2 -4 8 -10 13 -14 10 -4 -3 -14 5 -23 18 -11 17 -13 34
-7 72 8 47 7 51 -20 75 -16 14 -30 34 -32 44 -5 29 -23 30 -41 3z m-452 -239
c14 -6 25 -14 25 -18 0 -12 -73 5 -78 18 -5 15 19 16 53 0z m699 -4 c9 -22 8
-24 -9 -24 -8 0 -15 9 -15 20 0 24 15 27 24 4z m-461 -111 c4 -3 2 -12 -4 -19
-11 -13 0 -21 54 -38 18 -6 24 -36 7 -36 -21 0 -70 31 -80 51 -17 31 2 64 23
42z m-63 -93 c0 -5 -4 -10 -10 -10 -5 0 -10 5 -10 10 0 6 5 10 10 10 6 0 10
-4 10 -10z m-125 -60 c3 -5 1 -10 -4 -10 -6 0 -11 5 -11 10 0 6 2 10 4 10 3 0
8 -4 11 -10z m25 -178 c0 -23 -8 -32 -25 -26 -17 7 -7 44 11 44 8 0 14 -8 14
-18z"/>
        <path d="M2445 5401 c-36 -4 -49 -10 -47 -20 2 -8 1 -26 -3 -39 -5 -19 -8 -22
-20 -12 -8 7 -15 21 -15 31 0 11 -4 19 -10 19 -5 0 -10 -9 -10 -20 0 -11 5
-20 11 -20 6 0 9 -9 6 -20 -6 -25 11 -39 70 -54 45 -12 48 -14 51 -49 4 -50
22 -47 22 3 0 27 4 40 13 39 41 -5 97 2 91 12 -15 24 -13 104 3 121 15 17 13
18 -48 16 -35 0 -86 -4 -114 -7z"/>
        <path d="M9712 5397 c-47 -42 -80 -82 -75 -91 4 -5 10 0 14 12 5 12 12 22 16
22 4 1 25 3 46 6 23 4 37 2 37 -5 0 -6 15 -19 34 -28 43 -20 55 -56 29 -86
-17 -20 -17 -20 0 -14 10 4 25 7 32 7 9 0 15 14 17 37 3 36 1 39 -43 62 -30
15 -51 34 -60 54 -16 35 -28 41 -47 24z"/>
        <path d="M7883 5383 c-13 -2 -23 -9 -23 -14 0 -5 -14 -9 -30 -9 -20 0 -40 -9
-57 -26 -51 -51 -124 -64 -107 -20 10 27 -11 34 -107 35 -90 1 -119 -10 -119
-45 0 -8 -10 -14 -22 -14 -19 0 -15 -7 30 -48 29 -27 52 -56 52 -67 0 -39 -12
-65 -30 -65 -10 0 -22 -9 -25 -20 -3 -11 -11 -20 -16 -20 -7 0 -7 -6 0 -17 7
-13 6 -22 -4 -33 -7 -8 -16 -34 -18 -57 -5 -43 3 -53 43 -53 11 0 27 -8 37
-19 22 -22 86 -26 107 -6 8 8 22 15 30 15 23 0 20 31 -3 37 -14 3 -18 12 -15
28 2 12 -3 28 -11 35 -12 10 -13 16 -4 26 16 19 59 18 59 -1 0 -19 11 -19 35
-2 20 15 13 37 -12 37 -10 0 -13 6 -9 16 3 9 6 26 6 39 0 18 7 24 34 29 28 5
33 10 29 26 -4 14 0 20 11 20 9 0 16 -5 16 -12 0 -9 3 -9 12 0 20 20 33 14 47
-25 13 -36 13 -37 -20 -64 l-34 -28 31 2 c20 1 30 6 27 15 -3 6 2 12 10 12 8
0 17 -7 21 -15 3 -8 1 -15 -4 -15 -5 0 -7 -7 -4 -15 12 -30 43 -17 52 23 9 32
17 324 10 321 -2 -1 -13 -4 -25 -6z m-343 -281 c0 -5 9 -19 19 -31 21 -24 18
-51 -4 -51 -7 0 -16 10 -20 23 -4 13 -8 17 -12 10 -2 -7 -11 -13 -19 -13 -14
0 -20 50 -7 63 9 10 43 9 43 -1z m-25 -108 c28 -18 31 -29 11 -37 -36 -14 -74
22 -49 46 9 10 10 9 38 -9z m77 -26 c-7 -7 -12 -8 -12 -2 0 14 12 26 19 19 2
-3 -1 -11 -7 -17z m-12 -28 c0 -5 -2 -10 -4 -10 -3 0 -8 5 -11 10 -3 6 -1 10
4 10 6 0 11 -4 11 -10z"/>
        <path d="M740 5371 c0 -5 7 -15 17 -22 15 -13 15 -12 4 9 -12 23 -21 28 -21
13z"/>
        <path d="M2180 5342 c0 -15 28 -47 35 -40 11 11 -5 48 -21 48 -8 0 -14 -4 -14
-8z"/>
        <path d="M7246 5323 c-4 -4 -21 -7 -39 -8 -25 0 -33 -5 -35 -21 -2 -12 -16
-33 -31 -48 l-28 -27 -19 23 c-13 16 -32 24 -61 26 -44 4 -48 -1 -42 -54 0 -4
-10 -12 -22 -18 -40 -20 -51 -94 -24 -153 14 -29 14 -36 0 -63 -15 -28 -15
-30 4 -30 11 0 23 -4 26 -10 3 -5 20 -10 37 -10 25 0 29 3 25 19 -5 22 11 54
24 46 5 -4 9 -14 9 -25 0 -10 7 -21 16 -24 23 -9 36 -7 30 3 -10 16 5 41 26
41 23 0 88 50 88 67 0 7 -7 10 -16 6 -9 -3 -19 -2 -23 3 -3 5 -18 15 -33 21
-28 13 -38 46 -18 58 6 3 10 18 10 33 1 19 12 36 38 56 37 30 88 96 73 96 -4
0 -11 -3 -15 -7z"/>
        <path d="M9584 5245 c-10 -8 -25 -15 -32 -15 -8 0 -29 -7 -48 -16 -32 -15 -34
-19 -28 -50 5 -29 3 -34 -19 -39 -14 -4 -30 -4 -35 -1 -10 6 -22 -38 -22 -78
0 -12 9 -28 19 -36 11 -7 18 -17 15 -22 -3 -4 -1 -8 5 -8 5 0 17 -3 27 -7 12
-4 15 -3 10 6 -15 24 14 41 65 36 58 -5 69 -10 69 -33 -1 -23 -64 -62 -89 -55
-15 4 -21 1 -21 -11 0 -9 4 -16 8 -16 4 0 9 -20 10 -44 2 -45 -20 -77 -54 -82
-20 -3 -31 -14 -15 -14 7 0 9 -4 6 -10 -3 -5 -15 -10 -26 -10 -16 0 -19 -5
-14 -20 6 -18 3 -19 -25 -14 -25 5 -34 2 -46 -15 -21 -29 -60 -27 -90 7 -24
25 -25 26 -13 3 12 -26 21 -125 13 -153 -4 -12 -15 -18 -37 -18 -78 0 -99 -28
-53 -72 26 -25 49 -85 37 -93 -5 -3 -12 -17 -16 -32 -3 -15 -12 -34 -18 -42
-16 -19 -17 -227 -2 -248 17 -23 38 -8 23 17 -16 24 4 84 38 119 l24 24 40
-37 c22 -20 51 -36 64 -36 13 0 30 -10 39 -22 l16 -23 0 23 c1 13 5 20 11 17
5 -3 20 3 32 15 15 13 33 20 51 18 20 -2 33 4 46 21 15 20 21 22 40 11 17 -9
20 -14 11 -25 -15 -18 24 -45 67 -45 43 0 50 16 15 37 -15 10 -52 44 -80 76
-44 48 -54 55 -59 40 -10 -27 -31 -45 -38 -33 -3 5 -3 15 0 20 3 6 1 10 -4 10
-6 0 -10 6 -8 13 1 7 -10 12 -28 13 -49 1 -54 3 -65 24 -15 28 -1 49 16 26 17
-24 34 -12 34 23 0 33 9 44 25 31 8 -7 10 -2 7 20 -3 22 2 37 19 55 33 34 56
31 96 -10 38 -39 73 -46 73 -16 0 22 61 42 68 22 2 -6 9 -11 16 -11 7 0 18
-10 25 -23 10 -18 21 -22 60 -23 32 0 55 -7 66 -17 9 -10 13 -17 9 -17 -5 0
-2 -6 4 -12 10 -10 15 -10 20 -1 9 15 23 6 41 -27 12 -22 12 -23 0 -14 -8 6
-21 11 -29 11 -8 0 -22 2 -30 4 -19 5 -15 -49 6 -72 16 -18 19 -55 4 -64 -5
-3 -10 -16 -10 -29 0 -12 -5 -27 -11 -33 -9 -9 -8 -16 4 -27 9 -9 19 -26 22
-37 5 -16 9 -18 15 -9 4 7 13 9 19 6 19 -12 12 -26 -14 -26 -14 0 -25 -6 -25
-13 0 -9 11 -12 35 -9 33 4 35 3 35 -27 0 -28 -4 -32 -45 -42 -52 -13 -50 -34
3 -26 65 11 144 -54 146 -120 l1 -38 -80 3 c-80 3 -80 3 -98 -27 -9 -16 -30
-35 -46 -42 -23 -11 -28 -19 -29 -53 -2 -31 -8 -45 -26 -59 -31 -22 -56 -71
-56 -109 0 -44 -23 -89 -69 -137 -29 -30 -47 -42 -60 -38 -14 3 -21 -2 -25
-18 -4 -14 -18 -27 -38 -34 -34 -12 -30 -13 -133 37 -29 14 -39 14 -55 4 -17
-10 -23 -9 -37 8 -10 11 -30 20 -45 20 -18 0 -28 5 -28 15 0 9 -8 19 -17 22
-21 8 -40 30 -53 61 -8 18 -15 22 -33 16 -12 -3 -29 -13 -39 -21 -21 -19 -31
-2 -18 31 10 27 1 40 -23 30 -18 -6 -67 37 -67 60 0 9 4 16 10 16 5 0 9 15 8
33 -1 18 4 41 9 52 11 20 38 223 32 230 -2 2 -21 6 -41 10 l-38 7 0 -46 c0
-25 -11 -80 -25 -123 -27 -86 -30 -122 -15 -206 9 -49 8 -60 -7 -83 -13 -20
-14 -29 -5 -32 7 -2 10 -8 7 -13 -4 -5 0 -6 8 -3 9 3 21 -4 29 -15 21 -29 67
-30 107 0 l33 24 19 -24 c13 -16 26 -22 40 -18 15 4 29 -2 44 -19 20 -22 22
-29 13 -50 -8 -17 -8 -27 2 -39 11 -13 15 -12 37 5 30 24 51 26 59 6 3 -8 11
-13 18 -10 6 2 22 -7 34 -21 22 -25 52 -34 52 -15 0 19 39 10 45 -10 4 -11 11
-18 16 -15 9 6 13 -7 10 -37 -2 -13 5 -18 24 -18 18 0 29 -6 32 -20 4 -15 14
-20 39 -20 28 0 34 4 34 21 0 12 7 27 16 33 13 10 14 16 3 40 -10 21 -10 32
-1 47 7 10 12 35 12 54 0 20 4 34 9 31 4 -3 13 6 19 19 9 20 19 25 47 25 36 0
50 -22 20 -34 -8 -3 -15 -11 -15 -17 0 -8 7 -6 18 4 10 10 30 17 43 17 14 0
34 7 46 15 22 15 41 5 28 -14 -3 -5 -1 -12 5 -16 15 -10 12 -23 -7 -28 -14 -3
-12 -6 10 -17 27 -13 30 -12 48 10 25 33 24 37 -10 45 -16 3 -32 13 -35 21 -9
22 12 54 34 54 13 0 20 7 20 20 0 18 44 50 68 50 16 0 21 -27 12 -62 -8 -28
-8 -31 4 -15 7 9 18 17 25 17 16 0 14 31 -5 51 -14 16 -14 18 4 28 17 9 21 8
25 -7 3 -14 6 -12 17 10 7 15 22 28 34 30 21 3 21 5 22 352 1 330 0 349 -18
354 -24 6 -23 39 2 54 16 10 20 24 20 65 0 46 -3 53 -20 53 -11 0 -20 -4 -20
-10 0 -5 -4 -10 -9 -10 -4 0 -6 12 -3 26 3 20 0 26 -17 31 -11 3 -21 9 -21 14
0 5 -17 7 -37 6 -32 -2 -38 1 -41 20 -2 13 -13 24 -28 27 -31 8 -30 23 1 52
14 13 25 31 25 40 0 28 34 93 48 94 7 0 10 -4 7 -10 -3 -6 4 -10 18 -10 13 0
36 -9 50 -20 43 -34 47 -27 47 71 l0 92 -39 -6 c-22 -3 -44 0 -50 6 -8 8 -11
8 -11 0 0 -6 -18 -14 -39 -18 -45 -7 -73 -40 -64 -73 4 -17 -1 -22 -31 -27
-20 -4 -36 -13 -36 -20 0 -8 -12 -28 -27 -45 -24 -30 -30 -32 -70 -26 -23 3
-42 2 -42 -2 1 -4 1 -18 0 -32 l-2 -25 -16 23 c-8 12 -26 22 -39 22 -16 0 -22
5 -21 19 0 10 8 18 17 17 9 -1 16 9 18 23 2 14 0 21 -7 17 -19 -12 -31 101
-20 174 3 14 1 47 -3 74 -4 30 -3 54 2 62 15 17 1 44 -26 55 -14 5 -30 21 -36
36 -7 16 -16 31 -21 34 -15 11 -29 90 -18 103 8 9 12 56 6 56 -1 0 -10 -7 -21
-15z m46 -694 c0 -12 -20 -25 -27 -18 -7 7 6 27 18 27 5 0 9 -4 9 -9z m463
-157 c10 -10 -17 -44 -36 -44 -23 0 -34 29 -16 41 16 10 43 12 52 3z m-610
-146 c3 -12 4 -25 1 -30 -7 -11 -33 21 -34 40 0 21 27 13 33 -10z m-445 -591
c2 -12 -1 -15 -12 -11 -19 7 -22 38 -3 32 6 -3 13 -12 15 -21z m842 -265 c0
-15 -11 -21 -27 -15 -12 5 -12 7 -1 14 17 11 28 11 28 1z"/>
        <path d="M9870 5231 c0 -5 5 -13 10 -16 6 -3 10 -2 10 4 0 5 -4 13 -10 16 -5
3 -10 2 -10 -4z"/>
        <path d="M2330 5205 c0 -14 5 -25 10 -25 6 0 10 11 10 25 0 14 -4 25 -10 25
-5 0 -10 -11 -10 -25z"/>
        <path d="M9920 5185 c0 -13 5 -27 10 -30 6 -3 10 -2 10 4 0 5 3 16 6 24 3 8
-2 17 -10 20 -12 5 -16 0 -16 -18z"/>
        <path d="M2637 5167 c-3 -8 -6 -87 -6 -175 -1 -155 -1 -160 18 -155 19 5 20
14 20 157 1 112 -3 157 -12 171 -12 15 -15 16 -20 2z"/>
        <path d="M9950 5171 c0 -17 18 -21 24 -6 3 9 0 15 -9 15 -8 0 -15 -4 -15 -9z"/>
        <path d="M2480 5091 c0 -52 4 -70 15 -75 12 -4 15 5 15 47 0 29 -3 62 -6 75
-12 44 -24 21 -24 -47z"/>
        <path d="M9175 5113 c-27 -7 -35 -22 -28 -55 5 -23 0 -30 -31 -49 -40 -23 -44
-36 -18 -55 13 -10 14 -15 5 -25 -10 -10 -9 -17 7 -34 15 -16 18 -29 13 -58
-3 -20 -11 -37 -18 -37 -7 0 -22 -18 -34 -40 -23 -44 -28 -75 -10 -65 6 4 9 0
7 -11 -3 -16 3 -18 35 -15 34 2 37 0 37 -22 0 -21 -4 -24 -22 -20 -18 4 -20 3
-12 -6 9 -9 21 -10 50 -2 l39 10 0 53 c0 45 3 53 18 52 12 -1 17 4 15 15 -2 9
-11 15 -21 15 -12 -1 -17 6 -17 22 0 12 4 25 9 28 4 3 7 29 5 59 -2 29 3 71
11 93 l13 39 72 -4 c53 -2 71 0 65 8 -3 7 -15 9 -25 6 -13 -4 -22 1 -30 14 -6
12 -16 18 -25 15 -10 -4 -15 0 -15 15 0 18 -4 20 -25 15 -20 -5 -25 -2 -31 20
-3 14 -9 25 -13 25 -3 -1 -15 -4 -26 -6z"/>
        <path d="M9994 5071 c-10 -17 -22 -31 -26 -31 -4 0 -8 -11 -8 -25 0 -22 4 -25
28 -23 38 3 52 -8 52 -42 0 -28 24 -48 35 -30 10 17 31 11 58 -16 25 -25 26
-25 36 -5 13 24 15 143 2 122 -5 -7 -14 -10 -20 -7 -6 4 -14 0 -17 -8 -7 -19
-30 -20 -64 -3 -18 9 -26 23 -30 51 -6 50 -23 56 -46 17z"/>
        <path d="M2779 4955 c-1 -33 -3 -88 -5 -122 -3 -64 3 -75 26 -48 18 22 15 153
-3 196 l-15 34 -3 -60z"/>
        <path d="M7860 4966 c0 -9 5 -16 10 -16 6 0 10 4 10 9 0 6 -4 13 -10 16 -5 3
-10 -1 -10 -9z"/>
        <path d="M2918 4919 c-4 -9 -10 -68 -13 -131 -6 -84 -4 -121 5 -138 10 -19 14
-21 21 -8 13 23 22 227 11 241 -5 7 -12 21 -14 32 -3 17 -5 17 -10 4z"/>
        <path d="M10171 4864 c0 -11 3 -14 6 -6 3 7 2 16 -1 19 -3 4 -6 -2 -5 -13z"/>
        <path d="M3036 4794 c-3 -9 -6 -34 -6 -57 l0 -41 21 21 c17 17 20 28 15 57 -7
38 -20 47 -30 20z"/>
        <path d="M2243 4595 c-10 -27 13 -156 31 -174 15 -14 16 -10 15 44 0 80 -11
137 -27 143 -6 2 -15 -4 -19 -13z"/>
        <path d="M2383 4464 c4 -53 12 -111 18 -129 11 -28 9 -35 -10 -54 -25 -25 -26
-40 -7 -66 10 -14 24 -19 48 -17 28 3 36 -1 48 -22 7 -14 22 -28 32 -32 28 -9
15 -101 -19 -132 l-25 -23 21 -23 c11 -12 21 -30 21 -39 0 -15 15 -17 139 -17
154 0 143 -5 166 77 13 47 13 46 -52 98 -18 15 -30 32 -27 39 3 9 -10 23 -34
36 -44 25 -106 105 -98 126 3 8 1 14 -4 14 -6 0 -10 -7 -10 -15 0 -8 -7 -15
-16 -15 -11 0 -14 6 -9 20 5 14 2 20 -9 20 -9 0 -16 1 -16 3 0 1 -7 20 -15 42
l-14 40 -1 -32 c0 -32 -1 -33 -45 -33 -40 0 -45 3 -46 23 -3 82 -10 184 -14
195 -2 6 -10 12 -16 12 -9 0 -10 -25 -6 -96z m183 -413 c0 -12 -6 -17 -18 -13
-10 2 -18 11 -18 18 0 8 8 14 18 14 11 0 18 -7 18 -19z"/>
        <path d="M2501 4524 c0 -11 3 -14 6 -6 3 7 2 16 -1 19 -3 4 -6 -2 -5 -13z"/>
        <path d="M2510 4486 c0 -9 5 -16 10 -16 6 0 10 4 10 9 0 6 -4 13 -10 16 -5 3
-10 -1 -10 -9z"/>
        <path d="M135 4450 c-3 -5 -1 -10 4 -10 6 0 11 5 11 10 0 6 -2 10 -4 10 -3 0
-8 -4 -11 -10z"/>
        <path d="M2515 4450 c-4 -7 0 -19 9 -28 13 -14 16 -14 16 -2 0 25 -16 44 -25
30z"/>
        <path d="M0 4354 c0 -41 2 -74 4 -74 3 0 12 7 20 16 11 10 16 34 16 69 0 44
-3 53 -20 58 -19 5 -20 0 -20 -69z"/>
        <path d="M900 4415 c-7 -8 -21 -15 -31 -15 -22 0 -23 -4 -6 -30 10 -17 9 -22
-2 -29 -10 -6 -12 -17 -6 -37 11 -46 17 -133 11 -159 -3 -13 -17 -36 -31 -51
-23 -25 -27 -26 -67 -16 -23 6 -44 9 -46 7 -2 -2 4 -14 12 -28 11 -16 26 -24
48 -25 33 -1 88 -20 88 -31 -1 -14 -27 -38 -60 -53 l-34 -17 29 -7 c46 -11 87
-54 52 -54 -25 0 -37 -21 -24 -42 10 -16 9 -22 -5 -32 -10 -7 -18 -22 -18 -33
0 -11 -3 -34 -6 -51 -6 -28 -8 -30 -27 -19 -30 16 -46 39 -40 54 3 7 0 13 -7
13 -9 0 -9 4 1 17 13 15 11 16 -10 10 -29 -7 -51 8 -51 34 0 11 -4 19 -10 19
-5 0 -10 -4 -10 -10 0 -5 -4 -10 -9 -10 -6 0 -11 21 -13 47 -4 55 -18 63 -51
28 -19 -22 -35 -27 -82 -30 -67 -4 -82 -14 -66 -43 16 -31 14 -39 -15 -46 -18
-5 -32 -2 -45 10 -10 9 -25 14 -34 11 -8 -4 -15 -2 -15 3 0 6 -17 10 -39 10
-45 0 -66 19 -57 54 5 19 1 28 -14 36 -26 14 -26 36 0 43 11 3 20 13 20 24 0
14 -2 15 -9 4 -7 -11 -24 -13 -70 -8 -55 5 -65 3 -90 -19 -16 -13 -36 -24 -45
-24 -13 0 -16 -11 -16 -55 0 -58 21 -105 46 -105 16 0 34 -31 34 -61 0 -12 16
-39 35 -60 19 -22 35 -44 35 -51 0 -6 10 -2 23 10 29 27 33 27 71 -1 57 -42
84 -52 101 -37 13 10 15 9 15 -8 0 -14 5 -20 14 -16 14 5 46 -36 46 -60 0 -18
-27 -28 -48 -17 -20 10 -45 3 -37 -9 3 -5 3 -21 -1 -35 -5 -22 -11 -26 -31
-20 -14 3 -31 1 -39 -5 -7 -7 -18 -9 -24 -5 -6 4 -20 -5 -31 -19 -28 -36 -38
-33 -45 14 -8 50 -21 59 -34 26 -5 -14 -16 -26 -24 -26 -8 0 -18 -9 -21 -20
-9 -29 -33 -50 -50 -44 -20 8 -19 21 2 28 11 3 7 4 -7 3 l-25 -2 -3 -134 -3
-133 23 6 c13 3 53 6 90 6 38 0 67 3 67 8 -1 4 -1 13 0 20 1 19 46 11 46 -8 0
-8 5 -18 10 -22 15 -11 83 -10 106 2 22 12 25 30 5 30 -24 0 -26 70 -2 108 19
29 25 32 54 27 26 -5 37 -2 51 17 l19 23 21 -25 c15 -19 19 -33 14 -55 -3 -16
-5 -39 -3 -50 1 -11 3 -35 4 -52 1 -32 3 -33 41 -33 57 0 103 15 124 42 14 16
22 20 32 13 20 -15 48 -12 59 5 7 11 12 12 20 4 14 -14 1 -47 -16 -40 -7 3
-11 0 -8 -7 4 -12 19 -12 157 -9 55 2 57 3 51 26 -5 20 0 27 25 40 16 9 39 16
49 16 11 0 26 8 33 17 13 15 11 16 -11 9 -45 -13 -55 -11 -65 12 -11 24 -25
28 -43 10 -14 -14 -17 -11 -26 25 -5 20 -3 28 6 26 33 -4 48 2 48 21 0 33 -41
52 -89 41 -39 -8 -42 -7 -47 15 -4 16 -13 24 -28 24 -11 0 -27 4 -34 9 -9 5
-22 0 -37 -15 -14 -14 -30 -21 -42 -18 -11 3 -26 -3 -37 -15 -15 -16 -23 -18
-38 -10 -13 7 -23 7 -32 0 -15 -13 -42 11 -32 28 3 5 -1 12 -10 15 -8 3 -14
14 -13 23 3 22 -10 68 -27 102 -8 14 -14 33 -14 42 0 9 -9 28 -20 42 -23 29
-26 45 -6 28 10 -8 16 -9 21 -1 3 5 19 10 36 10 31 0 38 17 17 38 -16 16 5 32
32 25 10 -3 24 4 32 16 20 28 112 41 122 16 3 -9 4 -21 0 -26 -3 -5 2 -9 10
-9 8 0 22 -7 30 -16 15 -14 20 -13 55 15 21 17 44 31 50 31 6 0 20 14 30 31
21 34 81 79 105 79 10 0 16 -9 16 -24 0 -47 51 -61 63 -17 5 20 -17 44 -121
134 -24 20 -31 33 -27 50 8 31 8 149 0 230 -4 42 -3 67 3 67 6 0 43 -16 83
-35 40 -19 88 -38 106 -41 25 -5 33 -11 33 -28 0 -12 6 -31 14 -42 12 -17 12
-22 0 -39 -21 -28 -18 -92 4 -98 14 -4 14 -5 1 -6 -28 -2 -33 -74 -9 -121 25
-49 60 -56 60 -12 0 15 -5 33 -11 39 -8 8 -7 19 5 40 9 15 19 64 24 108 7 75
8 80 32 83 14 2 34 11 44 20 12 11 16 12 11 3 -5 -9 -3 -12 5 -9 8 2 18 16 22
30 12 34 -22 113 -52 121 -16 4 -20 13 -20 44 0 46 -25 74 -83 93 -42 13 -75
11 -151 -11 -47 -14 -48 -13 -72 14 -26 30 -74 37 -94 12z m190 -45 c0 -5 -4
-10 -9 -10 -6 0 -13 5 -16 10 -3 6 1 10 9 10 9 0 16 -4 16 -10z m-120 -50 c0
-4 -7 -13 -15 -20 -13 -11 -15 -8 -15 13 0 19 4 25 15 21 8 -4 15 -10 15 -14z
m370 -170 c0 -5 -4 -10 -10 -10 -5 0 -10 5 -10 10 0 6 5 10 10 10 6 0 10 -4
10 -10z m-1050 -804 c0 -2 -7 -6 -15 -10 -8 -3 -15 -1 -15 4 0 6 7 10 15 10 8
0 15 -2 15 -4z m-68 -103 c-3 -14 -12 -23 -22 -23 -10 0 -25 -3 -34 -6 -14 -5
-14 -2 0 40 16 45 16 45 38 29 15 -12 21 -25 18 -40z m-35 -57 c-3 -8 -1 -17
6 -19 16 -6 -22 -36 -45 -37 -24 0 -23 19 4 47 24 26 43 31 35 9z m699 -2 c-3
-9 -9 -27 -12 -40 -4 -15 -13 -24 -25 -24 -27 0 -25 37 4 61 27 23 41 24 33 3z"/>
        <path d="M77 4403 c-3 -4 -6 -24 -7 -43 -6 -75 4 -86 40 -50 17 17 18 23 6 57
-12 36 -29 52 -39 36z"/>
        <path d="M724 4377 c3 -14 11 -38 16 -53 10 -26 12 -27 28 -10 16 16 16 18 1
29 -9 7 -18 21 -20 31 -2 11 -10 21 -18 24 -10 3 -12 -2 -7 -21z"/>
        <path d="M6920 4395 c0 -2 10 -10 23 -16 20 -11 21 -11 8 4 -13 16 -31 23 -31
12z"/>
        <path d="M9807 4386 c-6 -16 2 -28 14 -20 12 7 11 34 0 34 -5 0 -11 -6 -14
-14z"/>
        <path d="M9540 4351 c0 -11 -4 -23 -10 -26 -17 -10 -11 -25 10 -25 12 0 17 5
14 13 -3 8 2 20 11 27 13 11 13 15 3 21 -20 13 -28 11 -28 -10z"/>
        <path d="M7801 4254 c0 -11 3 -14 6 -6 3 7 2 16 -1 19 -3 4 -6 -2 -5 -13z"/>
        <path d="M6930 4181 c0 -52 -3 -62 -25 -79 -51 -40 -64 -101 -30 -142 7 -8 14
-21 16 -28 3 -9 14 -3 34 17 32 33 55 40 55 17 0 -7 6 -19 13 -25 21 -17 67 8
67 37 0 12 5 22 11 22 6 0 9 15 7 38 -3 32 0 37 20 40 12 2 20 8 17 13 -10 15
43 35 57 21 18 -18 28 -15 28 8 0 27 -34 34 -125 25 l-75 -7 0 35 c0 26 -6 39
-25 51 -39 26 -45 20 -45 -43z"/>
        <path d="M72 4209 c2 -6 8 -10 13 -10 5 0 11 4 13 10 2 6 -4 11 -13 11 -9 0
-15 -5 -13 -11z"/>
        <path d="M7800 4186 c0 -34 -1 -35 -42 -38 -24 -2 -79 1 -123 5 -63 6 -238 3
-301 -5 -18 -2 -4 -37 17 -43 35 -11 20 -49 -24 -60 -15 -4 -30 -11 -33 -16
-3 -5 -16 -9 -28 -9 -14 0 -30 -10 -40 -25 -17 -25 -17 -26 21 -41 21 -8 48
-20 61 -26 27 -14 32 -9 57 52 27 65 46 82 91 82 22 -1 46 -1 54 -1 8 -1 28 0
44 2 24 2 31 -3 36 -23 3 -14 10 -25 15 -25 6 0 20 -10 33 -22 12 -13 27 -23
32 -23 6 0 10 -14 10 -30 0 -24 -7 -35 -35 -51 -27 -16 -35 -28 -35 -49 0 -16
4 -31 9 -34 10 -7 34 18 26 26 -3 3 3 8 15 11 11 3 20 1 20 -5 0 -15 20 2 31
25 5 12 15 30 21 39 10 14 10 22 0 38 -17 27 -16 30 14 30 38 0 66 18 59 39
-3 10 1 31 9 46 13 24 16 26 22 12 6 -18 49 -23 72 -9 9 6 6 14 -13 32 -18 17
-25 34 -25 61 0 32 -5 41 -30 54 -39 20 -40 20 -40 -19z"/>
        <path d="M680 4162 c0 -5 7 -17 15 -28 12 -16 16 -17 24 -5 7 11 5 19 -7 28
-20 14 -32 16 -32 5z"/>
        <path d="M3316 4126 c-9 -15 -12 -26 -6 -26 6 0 10 -12 8 -27 -3 -27 -4 -28
-71 -28 -57 0 -68 -3 -73 -18 -4 -12 3 -29 21 -47 22 -23 24 -28 11 -33 -9 -4
-16 -11 -16 -17 0 -16 27 -12 34 5 3 8 11 15 18 15 32 0 90 23 118 46 35 30
40 74 11 103 -10 10 -23 26 -28 36 -9 15 -12 14 -27 -9z"/>
        <path d="M3120 4130 c0 -5 5 -10 11 -10 5 0 7 5 4 10 -3 6 -8 10 -11 10 -2 0
-4 -4 -4 -10z"/>
        <path d="M3066 4103 c-12 -12 -6 -33 9 -33 8 0 15 6 15 14 0 17 -14 28 -24 19z"/>
        <path d="M8350 4080 c0 -11 -4 -20 -10 -20 -5 0 -10 -7 -10 -16 0 -9 -12 -25
-26 -36 -18 -15 -22 -24 -15 -31 16 -16 13 -24 -11 -31 -18 -5 -20 -8 -9 -15
9 -6 10 -14 5 -22 -12 -19 -12 -71 0 -87 8 -11 5 -13 -14 -10 -23 3 -25 7 -24
55 1 29 -2 50 -7 47 -5 -3 -9 -12 -9 -20 0 -8 -11 -14 -27 -15 -19 -1 -22 -3
-10 -6 15 -4 18 -12 15 -38 -3 -30 -2 -32 14 -24 13 7 18 6 18 -5 0 -9 7 -12
20 -9 10 3 26 -2 35 -11 20 -20 61 -21 68 -2 6 14 5 316 0 316 -2 0 -3 -9 -3
-20z m-35 -89 c-3 -6 -11 -11 -17 -11 -6 0 -6 6 2 15 14 17 26 13 15 -4z m-98
-163 c-3 -7 -5 -2 -5 12 0 14 2 19 5 13 2 -7 2 -19 0 -25z"/>
        <path d="M3033 4058 c-7 -8 -8 -19 -3 -28 8 -12 10 -12 15 2 10 26 2 43 -12
26z"/>
        <path d="M2840 4015 c0 -8 5 -15 10 -15 6 0 10 7 10 15 0 8 -4 15 -10 15 -5 0
-10 -7 -10 -15z"/>
        <path d="M3 3985 c-3 -9 -3 -18 -1 -21 3 -3 8 4 11 16 6 23 -1 27 -10 5z"/>
        <path d="M3053 3915 c-17 -20 -19 -26 -7 -36 20 -16 17 -36 -7 -60 -20 -20
-21 -28 -15 -103 4 -44 9 -117 12 -161 6 -79 15 -105 38 -105 21 0 16 38 -6
43 -26 7 -18 31 12 35 l23 4 -8 151 c-5 84 -9 173 -9 199 -1 58 -6 63 -33 33z"/>
        <path d="M8885 3910 c-8 -13 14 -42 25 -35 10 6 1 45 -11 45 -4 0 -11 -5 -14
-10z"/>
        <path d="M6858 3903 c7 -3 16 -2 19 1 4 3 -2 6 -13 5 -11 0 -14 -3 -6 -6z"/>
        <path d="M3114 3804 c9 -113 19 -208 46 -414 11 -91 25 -203 30 -250 7 -57 17
-94 30 -112 13 -18 16 -29 9 -34 -7 -4 -9 -23 -5 -53 4 -25 8 -59 10 -76 1
-16 12 -45 23 -64 17 -26 19 -39 12 -59 -11 -29 0 -46 24 -36 32 12 13 157
-23 186 -22 18 -23 21 -11 68 7 27 10 54 7 59 -4 5 -2 12 2 15 5 3 7 27 5 53
-2 26 -10 136 -18 243 -24 300 -37 388 -68 433 -18 26 -18 29 -3 46 9 10 16
30 16 45 0 25 -3 28 -27 23 -15 -3 -36 -1 -47 5 -18 10 -19 7 -12 -78z"/>
        <path d="M6872 3780 c5 -90 9 -115 22 -122 20 -11 21 -32 1 -24 -10 4 -15 -1
-15 -14 0 -22 15 -27 26 -9 10 17 26 -17 19 -41 -8 -26 1 -26 15 0 6 11 7 26
3 33 -4 6 -9 30 -10 52 -2 62 -7 79 -23 91 -12 10 -12 17 5 48 18 33 19 39 5
64 -9 15 -24 28 -34 30 -18 4 -19 -3 -14 -108z"/>
        <path d="M716 3871 c-3 -5 1 -14 9 -21 12 -10 15 -10 15 3 0 19 -16 31 -24 18z"/>
        <path d="M8240 3849 c0 -5 5 -7 10 -4 6 3 10 8 10 11 0 2 -4 4 -10 4 -5 0 -10
-5 -10 -11z"/>
        <path d="M7020 3810 c0 -5 -9 -10 -20 -10 -11 0 -20 -4 -20 -10 0 -17 57 -12
64 6 9 22 8 24 -9 24 -8 0 -15 -4 -15 -10z"/>
        <path d="M7154 3788 c-3 -4 13 -8 35 -8 23 0 41 5 41 10 0 12 -69 10 -76 -2z"/>
        <path d="M9225 3760 c18 -20 45 -27 45 -12 0 15 -24 32 -44 32 -18 0 -19 -1
-1 -20z"/>
        <path d="M1160 3746 c0 -17 -63 -66 -84 -66 -9 0 -16 -7 -16 -15 0 -8 9 -15
20 -15 10 0 23 -6 27 -13 4 -7 21 -17 38 -22 18 -7 31 -19 35 -35 4 -14 13
-24 20 -22 11 3 11 0 1 -12 -9 -11 -9 -22 3 -50 8 -20 21 -36 28 -37 7 0 0 -5
-17 -10 -21 -6 -33 -5 -45 6 -23 21 -35 19 -48 -9 -9 -21 -8 -26 8 -31 24 -8
33 -34 18 -52 -10 -12 -9 -18 6 -29 13 -9 17 -21 13 -41 -4 -20 4 -41 30 -81
30 -48 32 -56 20 -71 -8 -9 -17 -23 -20 -31 -3 -9 -6 -10 -6 -2 -1 6 -6 12
-12 12 -6 0 -8 -7 -5 -16 11 -29 -5 -85 -27 -93 -18 -7 -18 -8 -4 -14 22 -8
23 -79 3 -100 -8 -8 -17 -34 -21 -58 -3 -24 -8 -56 -11 -71 -3 -16 -2 -28 3
-29 4 0 18 -2 31 -3 17 -2 21 1 17 15 -7 20 25 42 47 34 8 -3 14 2 15 12 8
174 16 218 43 248 29 32 37 70 44 224 2 42 11 96 20 120 9 24 16 54 16 68 0
37 -28 94 -64 133 -32 34 -56 94 -56 140 0 19 -4 21 -25 16 -14 -4 -25 -2 -25
4 0 5 -4 10 -10 10 -5 0 -10 -6 -10 -14z m30 -110 c0 -11 -19 -15 -25 -6 -3 5
1 10 9 10 9 0 16 -2 16 -4z m35 -596 c-3 -5 -10 -10 -16 -10 -5 0 -9 5 -9 10
0 6 7 10 16 10 8 0 12 -4 9 -10z"/>
        <path d="M2181 3640 c-1 -19 -8 -48 -16 -64 -11 -21 -12 -32 -4 -42 6 -7 8
-18 4 -24 -3 -6 -8 -44 -10 -84 -2 -65 0 -75 16 -79 10 -3 23 1 29 8 6 7 24
15 40 18 23 5 31 14 39 44 14 50 14 59 -5 77 -14 15 -14 17 0 32 9 8 16 26 16
40 0 24 -14 32 -25 14 -3 -5 -16 -10 -28 -10 -18 0 -26 10 -39 53 -16 50 -16
51 -17 17z"/>
        <path d="M8183 3615 c-68 -7 -130 -15 -138 -19 -8 -3 -15 -1 -15 4 0 6 -4 10
-10 10 -5 0 -10 -7 -10 -15 0 -10 -10 -15 -30 -15 -24 0 -30 4 -31 23 -1 21
-1 21 -8 -3 -5 -18 -13 -24 -29 -22 -15 2 -22 -2 -22 -12 0 -10 9 -16 25 -16
20 0 25 -5 25 -25 0 -14 6 -25 13 -25 8 0 7 -4 -3 -10 -16 -10 20 -13 131 -10
39 1 59 -3 68 -14 8 -9 23 -16 35 -15 19 0 19 1 -4 11 -20 9 -22 12 -8 15 9 2
27 -1 40 -8 13 -8 26 -12 31 -11 4 1 7 -2 7 -7 0 -5 25 -8 55 -8 l56 0 -3 91
c-4 108 11 101 -175 81z"/>
        <path d="M7978 3593 c7 -3 16 -2 19 1 4 3 -2 6 -13 5 -11 0 -14 -3 -6 -6z"/>
        <path d="M1827 3556 c-4 -9 0 -13 11 -11 9 2 21 4 25 4 5 1 5 6 2 11 -9 15
-32 12 -38 -4z"/>
        <path d="M7515 3559 c3 -5 1 -18 -5 -29 -15 -27 10 -27 35 0 10 11 25 20 34
19 12 0 11 -3 -4 -9 -19 -8 -19 -9 2 -9 12 -1 23 4 25 10 2 6 28 14 58 19 49
7 43 8 -48 8 -58 0 -100 -4 -97 -9z"/>
        <path d="M2050 3556 c0 -2 7 -7 16 -10 8 -3 12 -2 9 4 -6 10 -25 14 -25 6z"/>
        <path d="M2120 3550 c0 -5 5 -10 11 -10 5 0 7 5 4 10 -3 6 -8 10 -11 10 -2 0
-4 -4 -4 -10z"/>
        <path d="M6881 3483 c1 -53 2 -55 8 -21 4 20 13 43 20 51 9 12 8 16 -5 21 -8
3 -18 6 -20 6 -2 0 -3 -26 -3 -57z"/>
        <path d="M1741 3498 c-65 -38 -172 -136 -212 -195 -72 -105 -111 -212 -124
-348 -4 -38 -3 -410 1 -825 5 -415 10 -738 12 -717 l3 37 209 0 208 0 32 -30
c18 -16 26 -30 19 -30 -12 0 -12 -2 0 -9 7 -5 23 -7 35 -5 11 2 15 2 9 -2 -19
-8 -16 -32 5 -37 16 -4 16 -5 -1 -6 -16 -1 -14 -7 14 -48 86 -129 229 -236
359 -268 3 -1 19 -8 35 -16 25 -12 189 -14 1035 -14 553 0 1023 3 1045 8 24 4
32 4 20 -1 -12 -6 21 -9 90 -9 91 0 100 1 50 7 -50 5 -39 7 63 8 96 2 122 -1
116 -10 -6 -10 -4 -10 7 -1 7 7 20 13 28 13 14 0 14 -1 1 -10 -12 -8 -9 -9 12
-8 15 1 24 6 22 10 -3 4 16 7 43 7 l48 -2 -40 -7 c-33 -6 -29 -7 27 -6 36 0
61 4 55 8 -7 4 17 7 53 6 36 -1 74 1 85 6 20 8 20 7 1 -8 -23 -18 -14 -21 15
-6 11 6 24 8 30 5 5 -4 66 -8 134 -9 69 -1 119 1 113 6 -8 4 9 7 37 7 42 -1
45 -2 20 -8 -16 -4 492 -7 1130 -8 1086 0 1165 1 1231 18 115 29 225 91 315
179 43 43 109 131 109 147 0 8 7 21 15 29 8 9 15 20 15 25 0 5 -50 9 -112 9
-77 0 -108 -3 -98 -10 9 -6 10 -10 3 -10 -6 0 -15 5 -18 10 -9 14 -118 12
-134 -2 -11 -10 -13 -10 -7 0 6 9 -13 12 -78 12 -51 0 -86 -4 -86 -10 0 -5
-10 -10 -22 -10 -19 0 -20 2 -8 10 10 7 -68 10 -240 10 -140 0 -262 0 -270 0
-29 1 -81 -15 -81 -25 0 -5 17 -13 38 -16 32 -5 -191 -4 -297 1 l-35 2 30 9
c17 5 53 7 80 4 32 -4 85 1 150 14 93 20 139 21 650 24 l550 2 22 56 c12 30
26 75 32 98 l9 43 -359 -3 c-197 -2 -359 -5 -359 -7 0 -1 11 -25 25 -54 14
-28 25 -53 25 -55 0 -2 -10 -3 -22 -3 -19 0 -20 -2 -8 -10 12 -8 12 -10 -5
-11 -11 0 -14 -3 -7 -6 7 -3 19 1 28 7 8 7 17 10 21 6 3 -3 1 -6 -6 -6 -7 0
-9 -5 -6 -10 4 -6 11 -8 16 -5 5 4 9 1 9 -4 0 -14 -104 -5 -108 9 -2 6 -11 10
-20 9 -11 0 -12 -2 -4 -6 6 -2 12 -8 12 -13 0 -13 -31 -5 -42 11 -8 11 -9 10
-5 -6 4 -19 -1 -21 -54 -23 -33 -1 -59 1 -59 6 0 4 19 7 43 6 l42 -2 -40 7
c-50 8 -83 3 -63 -11 8 -6 -5 -7 -37 -3 -36 4 -46 3 -35 -4 9 -7 10 -11 3 -11
-6 0 -14 4 -17 9 -3 5 -17 11 -31 13 -13 3 -22 1 -19 -3 3 -5 -5 -10 -18 -10
-13 -1 -36 -3 -53 -4 -16 -1 -40 2 -52 6 -14 5 -23 5 -23 -1 0 -6 -10 -6 -26
0 -31 12 -47 13 -40 2 3 -5 0 -9 -7 -10 -7 0 -28 -4 -47 -8 -19 -4 -78 -8
-130 -9 -75 -2 -84 -1 -40 5 47 6 50 7 20 10 -19 1 -48 2 -65 2 -16 0 -65 -1
-108 -1 -49 -1 -76 -5 -72 -11 4 -6 -33 -10 -103 -10 -60 0 -145 -2 -188 -5
-54 -4 -73 -2 -59 4 11 5 67 10 124 10 57 1 101 4 98 7 -4 4 -60 6 -124 4 -65
-2 -130 -3 -145 -4 -36 0 -37 -16 -1 -16 14 0 23 -3 19 -7 -13 -13 -41 -12
-57 3 -12 11 -34 14 -90 10 -41 -2 -103 -5 -138 -5 -84 -1 -73 -11 15 -13 38
-1 59 -4 47 -6 -13 -2 -23 -8 -23 -13 0 -5 -5 -9 -11 -9 -5 0 -8 4 -4 9 3 6
-24 9 -65 8 -38 -1 -70 -5 -70 -8 0 -3 -16 -6 -35 -7 -19 -1 -35 3 -35 9 0 6
8 9 18 7 9 -3 31 1 47 9 30 13 30 13 -15 8 -25 -2 -81 -8 -125 -12 -67 -6 -74
-8 -45 -14 24 -4 8 -6 -50 -6 -56 -1 -78 2 -65 8 11 5 -130 6 -320 2 -187 -3
-343 -7 -347 -10 -5 -2 -8 1 -8 7 0 6 -5 8 -10 5 -6 -4 -33 -8 -60 -10 -38 -3
-48 -1 -44 10 4 10 26 13 87 10 59 -2 75 0 57 7 -14 5 -111 8 -217 6 -106 -2
-193 -1 -193 2 0 3 -46 3 -102 0 -167 -8 -435 -1 -418 11 12 9 11 9 -5 4 -11
-4 -29 -9 -40 -12 -16 -4 -17 -3 -5 6 9 7 10 11 3 11 -6 0 -15 -4 -18 -10 -4
-6 -59 -9 -138 -8 l-132 2 120 6 c80 3 107 7 80 11 -36 5 -35 6 20 8 44 2 53
5 35 10 -25 7 -55 7 -235 1 -99 -3 -99 -4 -35 -10 36 -4 -50 -6 -190 -6 -251
0 -252 0 -70 6 102 3 172 8 155 11 l-30 6 28 2 c17 0 27 7 27 16 0 8 -4 15
-10 15 -5 0 -10 -4 -10 -9 0 -16 -86 -31 -172 -28 -58 1 -88 6 -88 14 0 7 13
10 35 8 23 -2 35 1 35 9 0 8 -11 11 -32 8 -18 -3 -29 -1 -25 4 12 12 89 16 82
4 -4 -6 9 -10 32 -9 29 0 34 2 18 8 -11 5 -23 7 -27 4 -5 -2 -8 1 -8 6 0 6
-10 12 -22 12 -18 1 -19 2 -5 6 9 2 33 -1 53 -7 41 -14 56 -6 28 15 -12 9 -32
12 -55 8 -22 -3 -39 -1 -43 6 -4 6 -13 11 -19 11 -7 0 -6 -4 3 -10 12 -8 12
-10 1 -10 -8 0 -19 7 -26 17 -12 16 -40 10 -30 -7 2 -4 -26 -6 -63 -3 -94 6
-100 11 -15 12 45 1 73 5 75 13 3 7 30 13 69 14 50 2 57 1 34 -6 l-30 -9 35 2
c19 0 40 -2 47 -6 6 -4 14 -1 16 5 4 10 8 9 16 -2 13 -18 23 -9 11 10 -7 12
-36 15 -144 15 -74 0 -129 3 -123 8 11 7 -114 0 -140 -9 -26 -7 -12 -23 25
-27 35 -3 -193 0 -268 4 -19 1 15 5 75 9 113 8 168 17 161 29 -5 8 7 8 337 11
149 1 267 4 260 6 -7 3 -9 12 -6 20 3 10 -2 14 -18 14 -13 0 -31 5 -39 10 -12
7 -8 10 15 11 17 0 25 3 18 5 -7 3 -10 11 -7 19 3 7 1 16 -5 20 -6 3 -11 15
-11 25 0 12 -9 22 -22 25 -35 7 -207 11 -202 4 2 -4 -18 -7 -46 -7 -32 0 -55
-5 -65 -16 -20 -20 -21 -20 -29 0 -3 8 -2 12 3 9 5 -3 13 -1 16 5 4 7 -8 8
-37 4 -24 -4 -44 -11 -46 -15 -2 -5 -9 -3 -17 4 -10 10 -107 13 -479 10 -256
-1 -466 1 -466 5 0 4 -25 5 -55 4 -35 -3 -55 0 -55 7 0 6 -18 10 -42 10 l-43
-2 40 -6 40 -6 -55 -7 c-30 -4 -57 -4 -60 1 -10 16 -110 16 -121 0 -5 -9 -9
97 -8 284 l0 297 72 0 c52 0 68 3 60 11 -7 7 -35 10 -72 7 l-61 -4 0 33 c0 20
5 33 13 33 9 0 9 2 -1 9 -11 6 -12 92 -8 452 3 244 5 451 6 459 0 8 -1 31 -3
49 -3 19 -3 40 -1 46 3 6 46 9 122 8 77 -2 110 0 97 6 -11 5 -32 10 -47 10
-16 1 -28 5 -28 10 0 6 -31 9 -70 8 -66 -2 -69 -1 -72 22 -4 35 -16 35 -77 -1z
m162 -1745 c-13 -2 -33 -2 -45 0 -13 2 -3 4 22 4 25 0 35 -2 23 -4z m1562 -21
c-3 -3 -11 0 -18 7 -9 10 -8 11 6 5 10 -3 15 -9 12 -12z m-485 -2 c0 -5 -4
-10 -10 -10 -5 0 -10 5 -10 10 0 6 5 10 10 10 6 0 10 -4 10 -10z m66 3 c-30
-3 -36 -7 -25 -14 12 -9 12 -10 0 -7 -8 3 -17 10 -19 16 -2 8 10 11 40 10 l43
-1 -39 -4z m344 3 c0 -2 -7 -6 -15 -10 -8 -3 -15 -1 -15 4 0 6 7 10 15 10 8 0
15 -2 15 -4z m-740 -10 c0 -11 -19 -15 -25 -6 -3 5 1 10 9 10 9 0 16 -2 16 -4z
m-463 -12 c-3 -3 -12 -4 -19 -1 -8 3 -5 6 6 6 11 1 17 -2 13 -5z m761 -11
c-10 -2 -26 -2 -35 0 -10 3 -2 5 17 5 19 0 27 -2 18 -5z m96 -32 c4 -5 -3 -7
-14 -4 -23 6 -26 13 -6 13 8 0 17 -4 20 -9z m436 -3 c0 -4 -4 -8 -9 -8 -6 0
-12 4 -15 8 -3 5 1 9 9 9 8 0 15 -4 15 -9z m77 6 c-3 -3 -12 -4 -19 -1 -8 3
-5 6 6 6 11 1 17 -2 13 -5z m-467 -14 c0 -5 -8 -10 -17 -10 -15 0 -16 2 -3 10
19 12 20 12 20 0z m-70 -10 c0 -5 -3 -10 -7 -10 -5 0 -19 -3 -33 -6 -24 -6
-25 -6 -5 9 23 19 45 22 45 7z m268 3 c-10 -2 -28 -2 -40 0 -13 2 -5 4 17 4
22 1 32 -1 23 -4z m109 1 c-3 -3 -12 -4 -19 -1 -8 3 -5 6 6 6 11 1 17 -2 13
-5z m-822 -14 c3 -6 -4 -10 -17 -10 -18 0 -20 2 -8 10 19 12 18 12 25 0z m198
1 c4 -1 7 -5 7 -11 0 -6 -19 -7 -47 -4 -27 3 -67 7 -91 8 -23 2 -45 6 -48 9
-5 5 110 3 179 -2z m172 -1 c3 -6 -4 -10 -17 -10 -18 0 -20 2 -8 10 19 12 18
12 25 0z m115 0 c12 -8 11 -10 -7 -10 -13 0 -23 5 -23 10 0 13 11 13 30 0z
m-1083 -26 c-3 -3 -12 -4 -19 -1 -8 3 -5 6 6 6 11 1 17 -2 13 -5z m236 -1
c-13 -2 -33 -2 -45 0 -13 2 -3 4 22 4 25 0 35 -2 23 -4z m1355 0 c-10 -2 -26
-2 -35 0 -10 3 -2 5 17 5 19 0 27 -2 18 -5z m-1240 -20 c-10 -2 -26 -2 -35 0
-10 3 -2 5 17 5 19 0 27 -2 18 -5z m365 0 c-7 -2 -19 -2 -25 0 -7 3 -2 5 12 5
14 0 19 -2 13 -5z m130 0 c-18 -2 -48 -2 -65 0 -18 2 -4 4 32 4 36 0 50 -2 33
-4z m85 0 c-10 -2 -26 -2 -35 0 -10 3 -2 5 17 5 19 0 27 -2 18 -5z m79 1 c-3
-3 -12 -4 -19 -1 -8 3 -5 6 6 6 11 1 17 -2 13 -5z m-1064 -21 c-7 -2 -21 -2
-30 0 -10 3 -4 5 12 5 17 0 24 -2 18 -5z m1202 -13 c3 -5 -1 -10 -9 -10 -8 0
-18 5 -21 10 -3 6 1 10 9 10 8 0 18 -4 21 -10z m-322 -47 c-7 -2 -21 -2 -30 0
-10 3 -4 5 12 5 17 0 24 -2 18 -5z m190 0 c-13 -2 -35 -2 -50 0 -16 2 -5 4 22
4 28 0 40 -2 28 -4z m152 0 c-27 -3 -56 -10 -64 -16 -11 -9 -13 -9 -8 0 5 7
-2 13 -20 16 -16 2 10 4 57 4 48 0 63 -2 35 -4z m250 -3 c3 -6 -1 -7 -9 -4
-18 7 -21 14 -7 14 6 0 13 -4 16 -10z m-98 -6 c-3 -3 -12 -4 -19 -1 -8 3 -5 6
6 6 11 1 17 -2 13 -5z m-709 -11 c-10 -2 -26 -2 -35 0 -10 3 -2 5 17 5 19 0
27 -2 18 -5z m575 -20 c-18 -2 -48 -2 -65 0 -18 2 -4 4 32 4 36 0 50 -2 33 -4z
m64 1 c-3 -3 -12 -4 -19 -1 -8 3 -5 6 6 6 11 1 17 -2 13 -5z m-250 -10 c-3 -3
-12 -4 -19 -1 -8 3 -5 6 6 6 11 1 17 -2 13 -5z m103 -14 c0 -5 11 -10 24 -10
14 0 28 5 31 10 10 16 62 12 69 -5 5 -13 -10 -15 -97 -14 -56 1 -90 4 -74 6
15 2 25 9 22 14 -4 5 1 9 9 9 9 0 16 -4 16 -10z m-157 -17 c-7 -2 -21 -2 -30
0 -10 3 -4 5 12 5 17 0 24 -2 18 -5z m80 -20 c-7 -2 -19 -2 -25 0 -7 3 -2 5
12 5 14 0 19 -2 13 -5z m120 0 c-13 -2 -35 -2 -50 0 -16 2 -5 4 22 4 28 0 40
-2 28 -4z m620 0 c-13 -2 -35 -2 -50 0 -16 2 -5 4 22 4 28 0 40 -2 28 -4z
m-1565 -20 c-10 -2 -28 -2 -40 0 -13 2 -5 4 17 4 22 1 32 -1 23 -4z m116 -22
c-2 -3 -12 3 -22 13 -16 17 -16 18 5 5 12 -7 20 -15 17 -18z m56 19 c8 -5 11
-10 5 -10 -5 0 -17 5 -25 10 -8 5 -10 10 -5 10 6 0 17 -5 25 -10z m1233 3
c-13 -2 -35 -2 -50 0 -16 2 -5 4 22 4 28 0 40 -2 28 -4z m3167 -1 c0 -5 -28
-9 -62 -10 -44 -1 -58 1 -48 8 18 12 110 13 110 2z m353 1 c-7 -2 -19 -2 -25
0 -7 3 -2 5 12 5 14 0 19 -2 13 -5z m-5018 -13 c-3 -5 -10 -10 -16 -10 -5 0
-9 5 -9 10 0 6 7 10 16 10 8 0 12 -4 9 -10z m4055 0 c-8 -5 -26 -9 -40 -9 -23
0 -23 1 -5 9 11 5 29 9 40 9 17 1 17 -1 5 -9z m-4093 -6 c-3 -3 -12 -4 -19 -1
-8 3 -5 6 6 6 11 1 17 -2 13 -5z m1650 0 c-3 -3 -12 -4 -19 -1 -8 3 -5 6 6 6
11 1 17 -2 13 -5z m296 -1 c-7 -2 -21 -2 -30 0 -10 3 -4 5 12 5 17 0 24 -2 18
-5z m110 0 c-7 -2 -19 -2 -25 0 -7 3 -2 5 12 5 14 0 19 -2 13 -5z m576 -3 c-8
-6 -6 -9 7 -12 10 -2 -36 -5 -103 -5 -68 -1 -123 3 -123 7 0 9 51 14 163 16
38 1 63 -2 56 -6z m48 4 c-3 -3 -12 -4 -19 -1 -8 3 -5 6 6 6 11 1 17 -2 13 -5z
m1808 -5 c4 -6 27 -9 53 -7 27 2 47 -1 49 -8 4 -11 -37 -12 -157 -5 l-45 3 40
13 c52 17 53 17 60 4z m722 5 c-3 -3 -12 -4 -19 -1 -8 3 -5 6 6 6 11 1 17 -2
13 -5z m186 -15 c-16 -16 -28 -20 -52 -14 -46 10 -38 23 17 28 26 2 49 4 52 5
2 1 -5 -7 -17 -19z m717 11 c0 -5 -8 -10 -17 -10 -15 0 -16 2 -3 10 19 12 20
12 20 0z m-3870 -4 c0 -2 -9 -6 -20 -9 -11 -3 -18 -1 -14 4 5 9 34 13 34 5z
m159 0 c-10 -8 -89 -13 -89 -5 0 5 21 9 47 9 25 0 44 -2 42 -4z m1288 -4 c8
-5 -1 -8 -22 -8 -19 0 -35 4 -35 8 0 10 41 10 57 0z m653 -2 c0 -5 -7 -10 -16
-10 -8 0 -12 5 -9 10 3 6 10 10 16 10 5 0 9 -4 9 -10z m1238 -4 c-15 -8 -37
-12 -50 -8 -20 6 -19 7 12 13 58 11 66 10 38 -5z m-2245 -3 c-18 -2 -48 -2
-65 0 -18 2 -4 4 32 4 36 0 50 -2 33 -4z m105 0 c-10 -2 -28 -2 -40 0 -13 2
-5 4 17 4 22 1 32 -1 23 -4z m535 0 c-7 -2 -19 -2 -25 0 -7 3 -2 5 12 5 14 0
19 -2 13 -5z m1220 0 c-7 -2 -19 -2 -25 0 -7 3 -2 5 12 5 14 0 19 -2 13 -5z
m283 -2 c-6 -9 49 -21 97 -21 15 0 27 -5 27 -10 0 -6 -15 -8 -37 -4 -21 4 -72
7 -114 8 -61 0 -73 3 -63 13 7 8 24 10 42 7 17 -4 32 -1 36 5 4 6 9 11 12 11
3 0 3 -4 0 -9z m303 -6 c25 -6 30 -10 18 -16 -8 -5 -28 -4 -46 2 -18 6 -46 9
-64 5 -29 -5 -30 -4 -14 8 18 14 48 14 106 1z m-5409 -5 c-8 -5 -26 -9 -40 -9
-23 1 -23 2 5 9 43 11 52 11 35 0z m1277 4 c-3 -3 -12 -4 -19 -1 -8 3 -5 6 6
6 11 1 17 -2 13 -5z m123 -5 c11 -7 -3 -8 -45 -3 -33 3 -62 8 -64 10 -10 9 96
3 109 -7z m1400 1 c0 -5 -8 -10 -17 -10 -15 0 -16 2 -3 10 19 12 20 12 20 0z
m2463 -1 c-8 -8 -16 -8 -30 0 -16 9 -14 10 12 11 21 0 26 -3 18 -11z m544 5
c-3 -3 -12 -4 -19 -1 -8 3 -5 6 6 6 11 1 17 -2 13 -5z m-6224 -11 c-7 -2 -21
-2 -30 0 -10 3 -4 5 12 5 17 0 24 -2 18 -5z m1990 0 c-7 -2 -19 -2 -25 0 -7 3
-2 5 12 5 14 0 19 -2 13 -5z m210 -3 c-50 -4 -111 -3 -135 0 -27 5 6 7 92 7
132 0 133 0 43 -7z m290 3 c-7 -2 -19 -2 -25 0 -7 3 -2 5 12 5 14 0 19 -2 13
-5z m44 1 c-3 -3 -12 -4 -19 -1 -8 3 -5 6 6 6 11 1 17 -2 13 -5z m61 -1 c-10
-2 -26 -2 -35 0 -10 3 -2 5 17 5 19 0 27 -2 18 -5z m180 0 c-21 -2 -55 -2 -75
0 -21 2 -4 4 37 4 41 0 58 -2 38 -4z m179 -13 c15 0 24 -2 22 -5 -3 -2 -18 -4
-35 -4 -16 0 -56 0 -89 0 l-60 0 45 12 c27 8 54 10 68 5 13 -4 35 -8 49 -8z
m20 14 c-3 -3 -12 -4 -19 -1 -8 3 -5 6 6 6 11 1 17 -2 13 -5z m140 0 c-3 -3
-12 -4 -19 -1 -8 3 -5 6 6 6 11 1 17 -2 13 -5z m161 -1 c-10 -2 -26 -2 -35 0
-10 3 -2 5 17 5 19 0 27 -2 18 -5z m75 0 c-7 -2 -19 -2 -25 0 -7 3 -2 5 12 5
14 0 19 -2 13 -5z m154 1 c-3 -3 -12 -4 -19 -1 -8 3 -5 6 6 6 11 1 17 -2 13
-5z m172 2 c-7 -8 -118 -10 -126 -3 -3 4 24 7 62 7 38 0 66 -2 64 -4z m101 0
c0 -2 -11 -6 -25 -8 -13 -3 -22 -1 -19 3 5 9 44 13 44 5z m176 -18 c0 -12 -8
-23 -16 -25 -13 -4 -13 -3 0 6 11 8 12 11 2 11 -7 0 -10 5 -7 10 4 6 -14 10
-47 9 -39 0 -48 -3 -33 -9 23 -10 5 -13 -20 -4 -29 12 5 24 66 24 51 0 56 -2
55 -22z m134 6 c0 -2 -17 -4 -37 -3 -29 0 -33 2 -18 8 18 7 55 4 55 -5z m257
2 c3 -3 -50 -5 -118 -5 -68 1 -111 4 -95 8 37 8 205 6 213 -3z m363 2 c0 -5
-13 -8 -30 -8 -16 0 -30 4 -30 9 0 4 13 8 30 7 16 -1 30 -4 30 -8z m517 6 c-3
-3 -12 -4 -19 -1 -8 3 -5 6 6 6 11 1 17 -2 13 -5z m40 0 c-3 -3 -12 -4 -19 -1
-8 3 -5 6 6 6 11 1 17 -2 13 -5z m43 2 c0 -11 -19 -15 -25 -6 -3 5 1 10 9 10
9 0 16 -2 16 -4z m608 -3 c-10 -2 -26 -2 -35 0 -10 3 -2 5 17 5 19 0 27 -2 18
-5z m-1404 -12 c17 -3 29 -10 27 -15 -1 -5 3 -12 9 -16 9 -5 9 -9 1 -14 -6 -4
-11 -4 -11 1 0 4 -21 7 -47 5 -35 -2 -44 0 -33 7 8 6 25 8 37 5 12 -3 28 -2
35 2 8 6 -8 13 -47 20 -33 7 -46 12 -30 12 17 0 43 -3 59 -7z m-1948 -8 c-7
-7 -98 -5 -105 3 -2 2 22 4 54 4 32 0 55 -3 51 -7z m113 -9 c10 -9 -35 -3 -49
6 -11 8 -7 9 15 4 17 -4 32 -8 34 -10z m105 8 c2 -4 -12 -6 -32 -4 -62 6 -69
10 -20 11 26 0 49 -3 52 -7z m393 2 c-7 -7 -178 -6 -186 1 -2 3 40 5 94 5 54
0 96 -3 92 -6z m56 -1 c-7 -2 -19 -2 -25 0 -7 3 -2 5 12 5 14 0 19 -2 13 -5z
m74 1 c-3 -3 -12 -4 -19 -1 -8 3 -5 6 6 6 11 1 17 -2 13 -5z m176 -1 c-7 -2
-19 -2 -25 0 -7 3 -2 5 12 5 14 0 19 -2 13 -5z m1430 0 c-7 -2 -19 -2 -25 0
-7 3 -2 5 12 5 14 0 19 -2 13 -5z m37 3 c0 -3 -4 -8 -10 -11 -5 -3 -10 -1 -10
4 0 6 5 11 10 11 6 0 10 -2 10 -4z m180 -5 c0 -5 -9 -7 -20 -4 -11 3 -20 7
-20 9 0 2 9 4 20 4 11 0 20 -4 20 -9z m657 3 c-3 -3 -12 -4 -19 -1 -8 3 -5 6
6 6 11 1 17 -2 13 -5z m-1142 -18 c11 -11 8 -13 -23 -11 -55 3 -58 4 -42 15
21 14 49 12 65 -4z m373 7 c-10 -2 -26 -2 -35 0 -10 3 -2 5 17 5 19 0 27 -2
18 -5z m-1143 -13 c-3 -5 -14 -10 -23 -9 -14 0 -13 2 3 9 27 11 27 11 20 0z
m122 4 c-3 -3 -12 -4 -19 -1 -8 3 -5 6 6 6 11 1 17 -2 13 -5z m392 -5 c-8 -5
-41 -8 -74 -8 -51 1 -55 3 -25 9 51 10 115 10 99 -1z m51 7 c0 -11 -19 -15
-25 -6 -3 5 1 10 9 10 9 0 16 -2 16 -4z m389 0 c-2 -3 -34 -7 -69 -10 -45 -4
-60 -3 -50 4 14 9 128 15 119 6z m-2001 -13 c-10 -2 -26 -2 -35 0 -10 3 -2 5
17 5 19 0 27 -2 18 -5z m719 1 c-3 -3 -12 -4 -19 -1 -8 3 -5 6 6 6 11 1 17 -2
13 -5z m70 0 c-3 -3 -12 -4 -19 -1 -8 3 -5 6 6 6 11 1 17 -2 13 -5z m1296 -1
c-7 -2 -19 -2 -25 0 -7 3 -2 5 12 5 14 0 19 -2 13 -5z m44 1 c-3 -3 -12 -4
-19 -1 -8 3 -5 6 6 6 11 1 17 -2 13 -5z m150 0 c-3 -3 -12 -4 -19 -1 -8 3 -5
6 6 6 11 1 17 -2 13 -5z m-4360 -10 c-3 -3 -12 -4 -19 -1 -8 3 -5 6 6 6 11 1
17 -2 13 -5z m2963 -4 c0 -5 -2 -10 -4 -10 -3 0 -8 5 -11 10 -3 6 -1 10 4 10
6 0 11 -4 11 -10z m-1175 -23 c10 -10 3 -8 -42 10 -12 5 -14 3 -8 -7 5 -9 4
-11 -4 -6 -6 4 -9 12 -5 17 6 11 44 2 59 -14z m98 16 c-7 -2 -19 -2 -25 0 -7
3 -2 5 12 5 14 0 19 -2 13 -5z m127 3 c0 -2 -9 -6 -20 -9 -11 -3 -20 -1 -20 4
0 5 9 9 20 9 11 0 20 -2 20 -4z m99 0 c-2 -2 -17 -6 -34 -10 -22 -5 -26 -4
-15 4 14 9 59 15 49 6z m468 -2 c-3 -3 -12 -4 -19 -1 -8 3 -5 6 6 6 11 1 17
-2 13 -5z m126 -1 c-7 -2 -19 -2 -25 0 -7 3 -2 5 12 5 14 0 19 -2 13 -5z m684
1 c-3 -3 -12 -4 -19 -1 -8 3 -5 6 6 6 11 1 17 -2 13 -5z m86 -1 c-7 -2 -19 -2
-25 0 -7 3 -2 5 12 5 14 0 19 -2 13 -5z m54 1 c-3 -3 -12 -4 -19 -1 -8 3 -5 6
6 6 11 1 17 -2 13 -5z m-1687 -14 c0 -5 -4 -10 -10 -10 -5 0 -10 5 -10 10 0 6
5 10 10 10 6 0 10 -4 10 -10z m1160 -6 c0 -2 -16 -4 -35 -4 -19 0 -35 4 -35 8
0 4 16 6 35 4 19 -2 35 -6 35 -8z m1575 -13 c15 -7 11 -9 -19 -9 -26 0 -34 3
-25 9 16 10 18 10 44 0z m265 5 c0 -2 -7 -7 -16 -10 -8 -3 -12 -2 -9 4 6 10
25 14 25 6z m-933 -12 c-3 -3 -12 -4 -19 -1 -8 3 -5 6 6 6 11 1 17 -2 13 -5z
m486 -1 c-7 -2 -21 -2 -30 0 -10 3 -4 5 12 5 17 0 24 -2 18 -5z m-1308 -23
c-3 -5 -14 -10 -23 -9 -14 0 -13 2 3 9 27 11 27 11 20 0z m-844 -7 c-10 -4 -5
-10 15 -19 l29 -13 -30 6 c-16 3 -32 7 -34 9 -6 6 10 24 22 23 7 0 6 -3 -2 -6z
m62 0 c-7 -2 -19 -2 -25 0 -7 3 -2 5 12 5 14 0 19 -2 13 -5z m54 1 c-3 -3 -12
-4 -19 -1 -8 3 -5 6 6 6 11 1 17 -2 13 -5z m236 -1 c-7 -2 -19 -2 -25 0 -7 3
-2 5 12 5 14 0 19 -2 13 -5z m50 0 c-7 -2 -19 -2 -25 0 -7 3 -2 5 12 5 14 0
19 -2 13 -5z m110 0 c-7 -2 -19 -2 -25 0 -7 3 -2 5 12 5 14 0 19 -2 13 -5z
m44 1 c-3 -3 -12 -4 -19 -1 -8 3 -5 6 6 6 11 1 17 -2 13 -5z m340 0 c-3 -3
-12 -4 -19 -1 -8 3 -5 6 6 6 11 1 17 -2 13 -5z m-927 -14 c0 -5 -5 -10 -11
-10 -5 0 -7 5 -4 10 3 6 8 10 11 10 2 0 4 -4 4 -10z m1210 0 c0 -5 -8 -10 -17
-10 -15 0 -16 2 -3 10 19 12 20 12 20 0z m100 -1 c-12 -9 -11 -10 5 -6 11 3
29 8 39 13 13 5 17 4 13 -3 -4 -6 -2 -13 5 -15 7 -3 5 -7 -6 -11 -11 -5 -15
-3 -10 5 5 8 2 9 -12 3 -26 -12 -88 -10 -110 4 -16 10 -15 10 8 5 15 -3 35 -1
45 5 24 14 42 14 23 0z m-3076 -13 c-3 -8 -16 -16 -29 -19 -14 -2 -22 0 -19 4
3 5 13 9 22 10 14 0 13 2 -3 9 -18 8 -17 9 7 9 20 1 26 -3 22 -13z m1025 8
c47 -10 37 -19 -16 -17 l-48 1 40 -7 c37 -8 35 -8 -25 -9 -36 -1 -76 1 -89 5
l-23 6 28 13 c32 14 86 17 133 8z m306 -4 c-3 -5 0 -10 9 -10 8 0 16 6 19 13
4 10 7 10 18 0 7 -7 20 -13 29 -13 13 0 13 1 0 10 -17 11 -10 13 14 4 9 -3 14
-10 11 -14 -3 -5 4 -6 15 -3 11 3 18 9 15 13 -7 11 44 5 78 -9 22 -9 34 -8 58
4 16 9 29 11 29 5 0 -14 53 -13 69 3 9 7 12 8 7 0 -7 -13 42 -22 112 -22 32 0
42 4 42 17 1 16 2 16 14 0 7 -10 16 -15 19 -12 3 3 34 8 69 10 35 2 80 5 101
6 20 2 37 0 37 -4 0 -4 6 -5 13 -2 8 3 20 -2 27 -11 13 -16 35 -21 25 -6 -3 5
0 13 6 17 7 4 9 3 5 -4 -3 -6 -2 -13 3 -16 5 -4 12 -2 16 4 4 7 12 7 25 0 29
-15 46 -12 24 5 -23 17 -14 19 21 3 72 -32 17 -37 -455 -34 -217 2 -404 6
-415 10 -14 6 -16 5 -7 -2 11 -7 9 -10 -7 -15 -12 -3 -19 -1 -16 3 6 10 -70
19 -194 23 -65 1 -96 6 -99 15 -3 9 13 12 58 12 38 0 59 -4 55 -10 -4 -6 12
-10 42 -9 39 1 43 3 23 9 l-25 8 28 1 c15 1 27 -3 27 -9 0 -5 4 -10 10 -10 5
0 7 7 4 15 -5 11 1 15 21 15 15 0 24 -4 20 -10z m250 0 c-3 -5 -10 -10 -16
-10 -5 0 -9 5 -9 10 0 6 7 10 16 10 8 0 12 -4 9 -10z m1965 0 c11 -7 4 -10
-25 -9 -31 0 -36 2 -20 9 26 11 28 11 45 0z m-3343 -15 c5 -4 -12 -5 -37 -1
-31 4 -40 3 -30 -4 24 -16 -5 -12 -36 5 -28 16 -28 16 33 12 35 -2 66 -7 70
-12z m100 -1 c-16 -9 -31 -13 -35 -10 -3 3 1 6 9 7 8 0 6 4 -6 9 -16 7 -11 9
20 9 l40 0 -28 -15z m429 -3 c-19 -18 -143 -30 -132 -12 5 7 -1 11 -14 11 -12
0 -18 -4 -15 -10 4 -6 -19 -8 -62 -4 -37 3 -90 6 -116 6 -26 0 -45 3 -42 7 10
9 107 16 258 17 123 0 136 -1 123 -15z m2461 13 c-3 -3 -12 -4 -19 -1 -8 3 -5
6 6 6 11 1 17 -2 13 -5z m-841 -14 c13 5 24 6 24 2 0 -4 48 -8 107 -10 59 -2
109 -5 112 -7 2 -3 -58 -4 -135 -3 -76 1 -145 -1 -152 -6 -7 -4 -12 -2 -12 8
0 16 23 28 28 15 2 -4 14 -4 28 1z m918 -5 c-10 -8 -26 -15 -34 -15 -9 0 -22
-6 -29 -12 -11 -11 -12 -10 -6 0 5 10 1 13 -11 12 -35 -4 -77 0 -71 6 3 4 36
8 72 9 37 2 69 6 72 9 4 3 11 6 17 6 5 0 1 -7 -10 -15z m-2477 -1 c-3 -3 -12
-4 -19 -1 -8 3 -5 6 6 6 11 1 17 -2 13 -5z m1853 2 c0 -2 -9 -6 -20 -9 -11 -3
-18 -1 -14 4 5 9 34 13 34 5z m136 -8 c6 -10 -39 -9 -81 2 -25 7 -21 8 23 7
29 0 55 -4 58 -9z m223 8 c-2 -3 -27 -7 -54 -10 -35 -4 -45 -3 -35 4 14 9 98
15 89 6z m101 -6 c0 -5 -10 -10 -22 -9 -22 0 -22 1 -3 9 11 5 21 9 23 9 1 1 2
-3 2 -9z m409 -6 c2 -2 -40 -3 -95 -2 -88 1 -92 2 -39 7 55 6 124 3 134 -5z
m391 0 c0 -2 -28 -3 -62 -3 -56 2 -58 3 -23 8 38 6 85 3 85 -5z m-1023 0 c-3
-3 -12 -4 -19 -1 -8 3 -5 6 6 6 11 1 17 -2 13 -5z m160 0 c-3 -3 -12 -4 -19
-1 -8 3 -5 6 6 6 11 1 17 -2 13 -5z m270 0 c-3 -3 -12 -4 -19 -1 -8 3 -5 6 6
6 11 1 17 -2 13 -5z m316 -1 c6 -10 -50 -9 -60 0 -3 4 8 7 25 7 17 0 33 -3 35
-7z m-3113 -17 c0 -2 -9 -6 -20 -9 -11 -3 -18 -1 -14 4 5 9 34 13 34 5z m737
-2 c-3 -3 -12 -4 -19 -1 -8 3 -5 6 6 6 11 1 17 -2 13 -5z m1741 -9 c3 -3 -16
-5 -41 -5 -26 0 -47 4 -47 9 0 10 78 6 88 -4z m127 5 c16 -7 11 -9 -20 -9 -29
-1 -36 2 -25 9 17 11 19 11 45 0z m420 0 c16 -6 14 -8 -12 -7 -18 0 -30 4 -27
9 6 10 12 9 39 -2z m-2550 -10 c13 -5 14 -9 5 -9 -8 0 -24 4 -35 9 -13 5 -14
9 -5 9 8 0 24 -4 35 -9z m389 -11 c6 -5 -4 -5 -23 1 -22 6 -40 6 -52 0 -28
-16 -37 -11 -9 5 25 15 67 12 84 -6z m75 10 c-16 -6 -35 -6 -50 0 -20 8 -16
10 26 10 43 -1 46 -2 24 -10z m81 7 c0 -2 -9 -6 -20 -9 -11 -3 -20 -1 -20 4 0
5 9 9 20 9 11 0 20 -2 20 -4z m218 -2 c-7 -7 -199 -6 -206 1 -3 3 43 5 103 5
60 0 106 -3 103 -6z m65 -1 c-7 -2 -21 -2 -30 0 -10 3 -4 5 12 5 17 0 24 -2
18 -5z m50 0 c-7 -2 -19 -2 -25 0 -7 3 -2 5 12 5 14 0 19 -2 13 -5z m975 0
c-10 -2 -28 -2 -40 0 -13 2 -5 4 17 4 22 1 32 -1 23 -4z m195 0 c-7 -2 -19 -2
-25 0 -7 3 -2 5 12 5 14 0 19 -2 13 -5z m-3155 -10 c-10 -2 -26 -2 -35 0 -10
3 -2 5 17 5 19 0 27 -2 18 -5z m822 1 c0 -8 -19 -13 -24 -6 -3 5 1 9 9 9 8 0
15 -2 15 -3z m385 -3 c14 -6 8 -8 -22 -7 -24 0 -43 4 -43 8 0 10 39 9 65 -1z
m172 3 c-3 -3 -12 -4 -19 -1 -8 3 -5 6 6 6 11 1 17 -2 13 -5z m360 -10 c-3 -3
-12 -4 -19 -1 -8 3 -5 6 6 6 11 1 17 -2 13 -5z m80 0 c-3 -3 -12 -4 -19 -1 -8
3 -5 6 6 6 11 1 17 -2 13 -5z m223 -8 c-5 -5 -25 -4 -47 2 l-38 10 47 -1 c26
-1 43 -6 38 -11z m180 -2 c0 -2 -17 -3 -38 -2 -22 0 -44 -2 -50 -6 -7 -4 -12
-3 -12 3 0 5 10 11 23 13 24 3 77 -2 77 -8z m-1070 -14 c54 -9 54 -9 -19 -5
-41 2 -79 9 -85 15 -7 7 -2 9 19 5 17 -3 55 -10 85 -15z m1177 14 c-3 -3 -12
-4 -19 -1 -8 3 -5 6 6 6 11 1 17 -2 13 -5z m33 -4 c0 -5 -5 -10 -11 -10 -5 0
-7 5 -4 10 3 6 8 10 11 10 2 0 4 -4 4 -10z m110 0 c-18 -12 -30 -13 -30 -2 0
4 10 9 22 9 18 2 20 0 8 -7z m150 0 c0 -5 -7 -7 -15 -4 -8 4 -15 8 -15 10 0 2
7 4 15 4 8 0 15 -4 15 -10z m-1793 -16 c-3 -3 -12 -4 -19 -1 -8 3 -5 6 6 6 11
1 17 -2 13 -5z m70 0 c-3 -3 -12 -4 -19 -1 -8 3 -5 6 6 6 11 1 17 -2 13 -5z
m363 2 c0 -2 -7 -7 -16 -10 -8 -3 -12 -2 -9 4 6 10 25 14 25 6z m937 -12 c-3
-3 -12 -4 -19 -1 -8 3 -5 6 6 6 11 1 17 -2 13 -5z m423 -34 c19 -6 12 -8 -30
-8 -39 -1 -49 2 -35 8 24 10 33 10 65 0z m-123 -6 c-10 -10 -87 -13 -87 -3 0
5 21 9 47 9 25 0 44 -3 40 -6z m-1064 -11 c-7 -2 -19 -2 -25 0 -7 3 -2 5 12 5
14 0 19 -2 13 -5z"/>
        <path d="M5207 1148 c5 -10 84 -10 100 0 6 4 -15 7 -47 7 -32 0 -56 -3 -53 -7z"/>
        <path d="M7864 3518 c-5 -9 -18 -17 -29 -20 -18 -3 -20 -11 -20 -88 1 -151 6
-178 32 -183 23 -4 23 -4 24 112 0 70 4 108 9 96 4 -11 5 -32 3 -47 -3 -15 -2
-61 2 -101 6 -66 9 -76 31 -86 13 -6 24 -10 24 -8 0 1 3 61 6 134 6 128 6 132
-13 127 -16 -4 -24 3 -40 37 -16 34 -22 39 -29 27z"/>
        <path d="M7650 3510 c0 -6 26 -10 57 -10 68 0 67 5 -4 13 -31 4 -53 2 -53 -3z"/>
        <path d="M1992 3475 c8 -8 77 -9 85 -2 3 4 -15 7 -42 7 -27 0 -46 -2 -43 -5z"/>
        <path d="M2385 3470 c3 -5 8 -10 11 -10 2 0 4 5 4 10 0 6 -5 10 -11 10 -5 0
-7 -4 -4 -10z"/>
        <path d="M2300 3449 c0 -5 5 -7 10 -4 6 3 10 8 10 11 0 2 -4 4 -10 4 -5 0 -10
-5 -10 -11z"/>
        <path d="M2335 3450 c3 -5 21 -10 38 -9 31 1 31 1 7 9 -36 11 -52 11 -45 0z"/>
        <path d="M6880 3388 c0 -32 8 -35 36 -12 12 10 14 14 4 11 -8 -2 -20 3 -27 12
-11 14 -12 12 -13 -11z"/>
        <path d="M6972 3371 c-9 -5 -12 -28 -10 -72 3 -56 6 -64 24 -67 17 -2 23 4 27
26 13 63 -12 131 -41 113z"/>
        <path d="M6929 3363 c0 -5 -2 -18 -3 -31 -2 -12 -11 -32 -22 -45 -23 -26 -22
-117 1 -117 10 0 12 11 7 43 -5 38 -4 41 11 28 16 -12 17 -7 17 58 0 39 -2 71
-5 71 -3 0 -5 -3 -6 -7z"/>
        <path d="M10160 3345 c0 -8 5 -15 10 -15 6 0 10 7 10 15 0 8 -4 15 -10 15 -5
0 -10 -7 -10 -15z"/>
        <path d="M3085 3333 c-41 -11 -40 -53 1 -53 20 0 24 5 24 30 0 17 -1 29 -2 29
-2 -1 -12 -4 -23 -6z"/>
        <path d="M9292 3205 c-17 -14 -35 -25 -41 -25 -13 0 -25 -45 -17 -65 7 -18 46
-20 68 -2 13 10 33 117 22 117 -1 0 -16 -11 -32 -25z m18 -55 c0 -5 -5 -10
-11 -10 -5 0 -7 5 -4 10 3 6 8 10 11 10 2 0 4 -4 4 -10z"/>
        <path d="M8987 3192 c-25 -15 -27 -21 -22 -54 6 -34 5 -37 -21 -40 -27 -3 -27
-4 -10 -20 12 -13 22 -15 34 -9 9 5 21 8 27 8 5 -1 11 7 13 18 2 11 12 29 22
40 24 28 31 62 13 69 -19 8 -23 7 -56 -12z"/>
        <path d="M6970 3030 c0 -11 7 -20 15 -20 17 0 18 2 9 24 -9 23 -24 20 -24 -4z"/>
        <path d="M9010 3010 c0 -13 5 -20 13 -17 6 2 12 10 12 17 0 7 -6 15 -12 18 -8
2 -13 -5 -13 -18z"/>
        <path d="M9030 2960 c0 -11 5 -20 12 -20 9 0 9 -3 0 -12 -7 -7 -12 -16 -12
-21 0 -6 11 2 25 17 27 29 24 56 -6 56 -12 0 -19 -7 -19 -20z"/>
        <path d="M9041 2858 c-7 -15 -19 -28 -27 -28 -8 0 -14 -4 -14 -9 0 -6 -11 -22
-25 -37 -27 -29 -31 -50 -15 -74 8 -12 10 -12 11 5 3 67 13 84 49 85 19 0 70
53 70 72 0 25 -37 15 -49 -14z"/>
        <path d="M2106 2729 c-10 -53 -7 -78 13 -88 13 -7 24 -6 37 3 18 13 18 16 -6
65 -14 27 -28 50 -31 51 -4 0 -9 -14 -13 -31z"/>
        <path d="M1161 2711 c-15 -10 -7 -66 11 -77 13 -8 38 23 38 48 0 21 -31 40
-49 29z"/>
        <path d="M1958 2573 c7 -3 16 -2 19 1 4 3 -2 6 -13 5 -11 0 -14 -3 -6 -6z"/>
        <path d="M1875 2430 c-3 -5 -1 -10 4 -10 6 0 11 5 11 10 0 6 -2 10 -4 10 -3 0
-8 -4 -11 -10z"/>
        <path d="M1900 2428 c0 -4 60 -9 133 -10 72 0 157 -2 187 -3 30 0 75 2 100 5
l45 7 -50 3 c-120 6 -415 5 -415 -2z"/>
        <path d="M2220 2400 l-85 -6 68 -3 c119 -5 137 -4 144 2 3 4 1 7 -5 7 -5 0
-16 1 -24 3 -7 2 -51 0 -98 -3z"/>
        <path d="M2593 2373 c9 -2 23 -2 30 0 6 3 -1 5 -18 5 -16 0 -22 -2 -12 -5z"/>
        <path d="M2520 2360 c-8 -5 -11 -12 -8 -16 10 -9 58 4 58 16 0 13 -30 13 -50
0z"/>
        <path d="M1999 2349 c16 -6 28 -6 35 1 7 7 -1 10 -24 9 -33 0 -34 -1 -11 -10z"/>
        <path d="M2089 2347 c5 -5 19 -7 32 -5 20 3 19 5 -9 9 -20 3 -29 2 -23 -4z"/>
        <path d="M2808 2343 c7 -3 16 -2 19 1 4 3 -2 6 -13 5 -11 0 -14 -3 -6 -6z"/>
        <path d="M2038 2283 c6 -2 18 -2 25 0 6 3 1 5 -13 5 -14 0 -19 -2 -12 -5z"/>
        <path d="M1963 2253 c-13 -2 -23 -9 -23 -14 0 -13 34 -11 48 3 9 9 12 9 12 0
0 -14 49 -16 70 -2 11 7 6 10 -22 10 -20 0 -42 2 -50 4 -7 2 -23 1 -35 -1z"/>
        <path d="M1858 2243 c7 -3 16 -2 19 1 4 3 -2 6 -13 5 -11 0 -14 -3 -6 -6z"/>
        <path d="M2098 2233 c7 -3 16 -2 19 1 4 3 -2 6 -13 5 -11 0 -14 -3 -6 -6z"/>
        <path d="M2153 2233 c9 -2 23 -2 30 0 6 3 -1 5 -18 5 -16 0 -22 -2 -12 -5z"/>
        <path d="M2213 2233 c9 -2 25 -2 35 0 9 3 1 5 -18 5 -19 0 -27 -2 -17 -5z"/>
        <path d="M2763 2213 c9 -2 23 -2 30 0 6 3 -1 5 -18 5 -16 0 -22 -2 -12 -5z"/>
        <path d="M2090 2180 l-55 -7 57 -1 c31 -1 60 3 63 8 3 6 3 9 -2 8 -4 -1 -33
-4 -63 -8z"/>
        <path d="M2230 2186 c0 -8 51 -13 56 -5 3 5 -9 9 -25 9 -17 0 -31 -2 -31 -4z"/>
        <path d="M2809 2179 c-10 -6 -7 -9 14 -9 29 0 35 5 14 13 -8 3 -20 1 -28 -4z"/>
        <path d="M2865 2179 c-4 -6 167 -12 310 -10 6 0 33 4 60 9 39 8 4 10 -158 10
-114 0 -210 -4 -212 -9z"/>
        <path d="M3108 2143 c17 -2 47 -2 65 0 17 2 3 4 -33 4 -36 0 -50 -2 -32 -4z"/>
        <path d="M3285 2140 c3 -5 8 -10 11 -10 2 0 4 5 4 10 0 6 -5 10 -11 10 -5 0
-7 -4 -4 -10z"/>
        <path d="M1920 2130 l-25 -8 28 -1 c15 -1 27 4 27 9 0 6 -1 10 -2 9 -2 -1 -14
-5 -28 -9z"/>
        <path d="M2138 2133 c7 -3 16 -2 19 1 4 3 -2 6 -13 5 -11 0 -14 -3 -6 -6z"/>
        <path d="M1933 1953 c15 -2 37 -2 50 0 12 2 0 4 -28 4 -27 0 -38 -2 -22 -4z"/>
        <path d="M1908 1933 c7 -3 16 -2 19 1 4 3 -2 6 -13 5 -11 0 -14 -3 -6 -6z"/>
        <path d="M1988 1933 c7 -3 16 -2 19 1 4 3 -2 6 -13 5 -11 0 -14 -3 -6 -6z"/>
        <path d="M7745 1870 c-3 -5 3 -10 15 -10 12 0 18 5 15 10 -3 6 -10 10 -15 10
-5 0 -12 -4 -15 -10z"/>
        <path d="M8068 1873 c6 -2 18 -2 25 0 6 3 1 5 -13 5 -14 0 -19 -2 -12 -5z"/>
        <path d="M6648 1843 c6 -2 18 -2 25 0 6 3 1 5 -13 5 -14 0 -19 -2 -12 -5z"/>
        <path d="M8077 1844 c-3 -3 -62 -6 -132 -6 -81 -1 -122 -4 -113 -10 9 -7 4 -8
-14 -5 -16 2 -28 0 -28 -5 0 -5 50 -9 113 -8 61 1 114 1 117 0 3 0 79 -1 169
-2 115 -1 166 2 169 10 2 8 -21 10 -80 7 -80 -4 -81 -4 -24 5 32 5 61 12 64
15 3 3 -49 5 -115 4 -67 0 -123 -3 -126 -5z m56 -21 c-7 -2 -19 -2 -25 0 -7 3
-2 5 12 5 14 0 19 -2 13 -5z"/>
        <path d="M2188 1823 c12 -2 32 -2 45 0 12 2 2 4 -23 4 -25 0 -35 -2 -22 -4z"/>
        <path d="M2313 1823 c9 -2 23 -2 30 0 6 3 -1 5 -18 5 -16 0 -22 -2 -12 -5z"/>
        <path d="M2578 1823 c6 -2 18 -2 25 0 6 3 1 5 -13 5 -14 0 -19 -2 -12 -5z"/>
        <path d="M6638 1813 c6 -2 18 -2 25 0 6 3 1 5 -13 5 -14 0 -19 -2 -12 -5z"/>
        <path d="M6960 1810 c0 -5 7 -10 16 -10 8 0 12 5 9 10 -3 6 -10 10 -16 10 -5
0 -9 -4 -9 -10z"/>
        <path d="M3240 1800 c-12 -8 -12 -10 5 -10 11 0 27 5 35 10 12 8 12 10 -5 10
-11 0 -27 -5 -35 -10z"/>
        <path d="M7345 1789 c57 -6 93 -5 99 1 7 7 -23 10 -89 9 l-100 -2 90 -8z"/>
        <path d="M7468 1783 c7 -3 16 -2 19 1 4 3 -2 6 -13 5 -11 0 -14 -3 -6 -6z"/>
        <path d="M8150 1710 c8 -5 22 -9 30 -9 10 0 8 3 -5 9 -27 12 -43 12 -25 0z"/>
        <path d="M8335 1700 c3 -5 8 -10 11 -10 2 0 4 5 4 10 0 6 -5 10 -11 10 -5 0
-7 -4 -4 -10z"/>
        <path d="M7731 1666 c9 -9 78 -13 73 -5 -3 5 -21 9 -41 9 -20 0 -34 -2 -32 -4z"/>
        <path d="M7840 1659 c0 -5 5 -7 10 -4 6 3 10 8 10 11 0 2 -4 4 -10 4 -5 0 -10
-5 -10 -11z"/>
        <path d="M7888 1663 c6 -2 18 -2 25 0 6 3 1 5 -13 5 -14 0 -19 -2 -12 -5z"/>
        <path d="M8038 1663 c7 -3 16 -2 19 1 4 3 -2 6 -13 5 -11 0 -14 -3 -6 -6z"/>
        <path d="M7713 1623 c9 -2 23 -2 30 0 6 3 -1 5 -18 5 -16 0 -22 -2 -12 -5z"/>
        <path d="M7880 1620 c-41 -6 -39 -7 28 -8 47 -1 71 2 67 8 -7 11 -25 11 -95 0z"/>
        <path d="M8238 1623 c7 -3 16 -2 19 1 4 3 -2 6 -13 5 -11 0 -14 -3 -6 -6z"/>
        <path d="M8288 1623 c12 -2 32 -2 45 0 12 2 2 4 -23 4 -25 0 -35 -2 -22 -4z"/>
        <path d="M7770 1610 c0 -5 5 -10 11 -10 5 0 7 5 4 10 -3 6 -8 10 -11 10 -2 0
-4 -4 -4 -10z"/>
        <path d="M7148 1563 c7 -3 16 -2 19 1 4 3 -2 6 -13 5 -11 0 -14 -3 -6 -6z"/>
        <path d="M3513 1553 c9 -2 25 -2 35 0 9 3 1 5 -18 5 -19 0 -27 -2 -17 -5z"/>
        <path d="M7188 1553 c6 -2 18 -2 25 0 6 3 1 5 -13 5 -14 0 -19 -2 -12 -5z"/>
        <path d="M7365 1550 c-3 -5 -2 -10 4 -10 5 0 13 5 16 10 3 6 2 10 -4 10 -5 0
-13 -4 -16 -10z"/>
        <path d="M7487 1553 c-11 -10 -8 -33 4 -33 5 0 7 5 4 10 -3 6 2 10 12 10 10 0
25 5 33 10 11 7 8 10 -16 10 -17 0 -34 -3 -37 -7z"/>
        <path d="M6698 1543 c7 -3 16 -2 19 1 4 3 -2 6 -13 5 -11 0 -14 -3 -6 -6z"/>
        <path d="M7148 1533 c7 -3 16 -2 19 1 4 3 -2 6 -13 5 -11 0 -14 -3 -6 -6z"/>
        <path d="M7215 1530 c-17 -6 -17 -7 6 -13 33 -9 49 -9 49 2 0 12 -32 19 -55
11z"/>
        <path d="M7445 1530 c-3 -5 1 -10 10 -10 9 0 13 5 10 10 -3 6 -8 10 -10 10 -2
0 -7 -4 -10 -10z"/>
        <path d="M6518 1523 c7 -3 16 -2 19 1 4 3 -2 6 -13 5 -11 0 -14 -3 -6 -6z"/>
        <path d="M6961 1526 c2 -2 29 -6 59 -9 37 -4 50 -3 40 3 -14 9 -109 15 -99 6z"/>
        <path d="M7330 1520 c0 -5 5 -10 11 -10 5 0 7 5 4 10 -3 6 -8 10 -11 10 -2 0
-4 -4 -4 -10z"/>
        <path d="M7384 1518 c10 -6 22 -6 26 -2 5 5 -3 10 -18 11 -22 1 -24 0 -8 -9z"/>
        <path d="M7641 1518 c-1 -9 -11 -19 -23 -21 -13 -2 -6 -4 15 -4 21 0 34 3 29
6 -5 3 -12 13 -15 21 -4 12 -6 12 -6 -2z"/>
        <path d="M3478 1512 c-24 -2 -38 -8 -38 -17 0 -7 -7 -16 -16 -19 -8 -3 -13
-10 -10 -15 4 -5 0 -12 -6 -14 -8 -4 -7 -6 3 -6 9 -1 19 8 22 19 4 16 14 20
54 22 79 3 82 3 95 17 11 11 7 12 -24 7 -20 -4 -38 -3 -40 1 -1 4 -20 7 -40 5z
m30 -19 c-10 -2 -26 -2 -35 0 -10 3 -2 5 17 5 19 0 27 -2 18 -5z"/>
        <path d="M7416 1503 c-4 -4 -38 -8 -75 -9 -69 -2 -111 -10 -111 -22 0 -13 181
-14 197 -1 11 10 16 10 22 0 5 -7 20 -14 34 -15 15 -2 24 1 21 6 -3 5 -12 7
-20 4 -11 -4 -12 -2 -1 14 13 21 27 26 27 10 0 -5 12 -9 28 -9 23 2 24 2 5 6
-13 2 -23 8 -23 13 0 5 -13 8 -30 8 -16 -1 -27 -5 -23 -11 3 -5 -4 -4 -15 2
-24 13 -26 13 -36 4z m-18 -30 c-10 -2 -28 -2 -40 0 -13 2 -5 4 17 4 22 1 32
-1 23 -4z"/>
        <path d="M3608 1493 c6 -2 18 -2 25 0 6 3 1 5 -13 5 -14 0 -19 -2 -12 -5z"/>
        <path d="M3671 1484 c0 -11 3 -14 6 -6 3 7 2 16 -1 19 -3 4 -6 -2 -5 -13z"/>
        <path d="M7198 1493 c6 -2 18 -2 25 0 6 3 1 5 -13 5 -14 0 -19 -2 -12 -5z"/>
        <path d="M7008 1483 c7 -3 16 -2 19 1 4 3 -2 6 -13 5 -11 0 -14 -3 -6 -6z"/>
        <path d="M7048 1483 c7 -3 16 -2 19 1 4 3 -2 6 -13 5 -11 0 -14 -3 -6 -6z"/>
        <path d="M7108 1483 c6 -2 18 -2 25 0 6 3 1 5 -13 5 -14 0 -19 -2 -12 -5z"/>
        <path d="M3545 1460 c-3 -5 -1 -10 4 -10 6 0 11 5 11 10 0 6 -2 10 -4 10 -3 0
-8 -4 -11 -10z"/>
        <path d="M7038 1463 c7 -3 16 -2 19 1 4 3 -2 6 -13 5 -11 0 -14 -3 -6 -6z"/>
        <path d="M3614 1452 c5 -8 66 -4 66 4 0 2 -16 4 -36 4 -19 0 -33 -4 -30 -8z"/>
        <path d="M3778 1453 c7 -3 16 -2 19 1 4 3 -2 6 -13 5 -11 0 -14 -3 -6 -6z"/>
        <path d="M6891 1450 c-10 -5 -9 -8 2 -13 7 -3 19 -2 26 3 10 5 9 8 -2 13 -7 3
-19 2 -26 -3z"/>
        <path d="M6340 1441 c-15 -4 11 -7 62 -8 49 0 85 3 82 8 -6 10 -107 10 -144 0z"/>
        <path d="M6508 1443 c6 -2 18 -2 25 0 6 3 1 5 -13 5 -14 0 -19 -2 -12 -5z"/>
        <path d="M6582 1445 c11 -11 156 -16 163 -6 4 8 -21 11 -81 11 -48 0 -85 -2
-82 -5z"/>
        <path d="M6760 1439 c0 -4 14 -7 30 -7 17 1 30 5 30 9 0 4 -13 7 -30 7 -16 -1
-30 -5 -30 -9z"/>
        <path d="M6838 1438 c5 -5 16 -8 23 -6 8 3 3 7 -10 11 -17 4 -21 3 -13 -5z"/>
        <path d="M6983 1443 c15 -2 39 -2 55 0 15 2 2 4 -28 4 -30 0 -43 -2 -27 -4z"/>
        <path d="M7070 1446 c0 -9 30 -14 35 -6 4 6 -3 10 -14 10 -12 0 -21 -2 -21 -4z"/>
        <path d="M7165 1440 c3 -5 8 -10 11 -10 2 0 4 5 4 10 0 6 -5 10 -11 10 -5 0
-7 -4 -4 -10z"/>
        <path d="M7200 1440 c0 -5 7 -10 15 -10 8 0 15 5 15 10 0 6 -7 10 -15 10 -8 0
-15 -4 -15 -10z"/>
        <path d="M6498 1403 c7 -3 16 -2 19 1 4 3 -2 6 -13 5 -11 0 -14 -3 -6 -6z"/>
        <path d="M5495 1390 c-16 -7 -17 -9 -3 -9 9 -1 20 4 23 9 7 11 7 11 -20 0z"/>
        <path d="M4915 1380 c3 -5 18 -10 33 -9 24 0 25 1 7 9 -28 12 -47 12 -40 0z"/>
        <path d="M5025 1380 c-38 -5 -25 -7 58 -7 59 -1 119 2 135 7 33 10 -117 10
-193 0z"/>
        <path d="M5438 1383 c7 -3 16 -2 19 1 4 3 -2 6 -13 5 -11 0 -14 -3 -6 -6z"/>
        <path d="M4728 983 c7 -3 16 -2 19 1 4 3 -2 6 -13 5 -11 0 -14 -3 -6 -6z"/>
    </g>
</svg>
