<svg xmlns="http://www.w3.org/2000/svg" xmlns:xlink="http://www.w3.org/1999/xlink" width="158.213" height="61.622" viewBox="0 0 158.213 61.622">
  <defs>
    <clipPath id="clip-path">
      <rect id="Rectangle_229" data-name="Rectangle 229" width="158.213" height="61.622" fill="none"/>
    </clipPath>
    <clipPath id="clip-path-2">
      <path id="Path_697" data-name="Path 697" d="M4.319,8.282A2.3,2.3,0,0,0,3.393,11.4l12.95,23.9a6.616,6.616,0,0,0,11.7-.165L39.185,13.217a1.124,1.124,0,0,1,2.125.511L41.3,36.446a2.3,2.3,0,1,0,4.594,0L45.9,13.728a5.716,5.716,0,0,0-10.807-2.6L23.954,33.043a2.026,2.026,0,0,1-3.579.057L7.433,9.2A2.3,2.3,0,0,0,5.41,8a2.269,2.269,0,0,0-1.091.28" transform="translate(-3.115 -8.002)" fill="none"/>
    </clipPath>
    <radialGradient id="radial-gradient" cx="3.233" cy="0.645" r="3.671" gradientTransform="translate(-0.085 2.906) rotate(180) scale(0.783 1)" gradientUnits="objectBoundingBox">
      <stop offset="0" stop-color="#f90680"/>
      <stop offset="0.438" stop-color="#0683ff"/>
      <stop offset="1" stop-color="#06c4ff"/>
    </radialGradient>
    <clipPath id="clip-path-3">
      <path id="Path_698" data-name="Path 698" d="M57.638,8.074a2.3,2.3,0,0,0-1.593,2.832l6.3,23.6a5.776,5.776,0,0,0,11.222-.336l.009-.047c.019-.1,2.191-10.218,4.081-20.339a1.436,1.436,0,0,1,2.822,0c1.919,10.178,3.8,20.248,3.824,20.349l.009.047a5.776,5.776,0,0,0,11.212.355l5.291-18.8a4.338,4.338,0,0,1,4.164-3.1l18.775-.03h0a.911.911,0,0,1,.527,1.655l-20.29,14.482a5.511,5.511,0,0,0,3.1,10h19.873a2.3,2.3,0,0,0,.026-4.6h-19.82a.911.911,0,0,1-.523-1.655L126.941,18.01a5.5,5.5,0,0,0-3.183-9.994h-18.79a8.941,8.941,0,0,0-8.56,6.417l-.009.033L91.1,33.289a1.186,1.186,0,0,1-2.3-.052c-.111-.6-1.948-10.4-3.811-20.306a5.957,5.957,0,0,0-5.923-4.915h-.007a5.961,5.961,0,0,0-5.923,4.924c-1.837,9.846-3.956,19.7-4.07,20.294a1.186,1.186,0,0,1-2.3.042l-6.3-23.606a2.292,2.292,0,0,0-2.209-1.68,2.37,2.37,0,0,0-.62.083" transform="translate(-55.96 -7.991)" fill="none"/>
    </clipPath>
    <radialGradient id="radial-gradient-2" cx="0.962" cy="0.317" r="3.327" gradientTransform="translate(-1.539 2.716) rotate(180) scale(0.522 1)" xlink:href="#radial-gradient"/>
    <clipPath id="clip-path-4">
      <path id="Path_699" data-name="Path 699" d="M35.186,23.368c0,9.058,6.176,15.35,15.12,15.35a16.6,16.6,0,0,0,10.871-3.7,1.765,1.765,0,0,0,.623-1.358,1.829,1.829,0,0,0-2.993-1.413,12.947,12.947,0,0,1-8.154,2.723c-5.946,0-10.273-3.925-11.023-9.928a11.178,11.178,0,0,1,0-3.577c.635-5.884,4.792-9.693,10.62-9.693,5.3,0,8.991,3.022,9.935,7.847a1.549,1.549,0,0,1-1.522,1.846H45a1.789,1.789,0,0,0,0,3.577H59.04a5.066,5.066,0,0,0,4.977-6.068C62.61,12.192,57.964,8.015,50.25,8.015c-8.831.059-15.064,6.292-15.064,15.353" transform="translate(-35.186 -8.015)" fill="none"/>
    </clipPath>
    <radialGradient id="radial-gradient-3" cx="3.118" cy="0.496" r="3.877" gradientTransform="matrix(-1.031, 0, 0, -1, -2.961, 3.023)" xlink:href="#radial-gradient"/>
    <clipPath id="clip-path-5">
      <path id="Path_700" data-name="Path 700" d="M29.189,3.618A3.055,3.055,0,1,0,32.244.565a3.056,3.056,0,0,0-3.055,3.053" transform="translate(-29.189 -0.565)" fill="none"/>
    </clipPath>
    <radialGradient id="radial-gradient-4" cx="16.078" cy="3.866" r="19.609" gradientTransform="matrix(-1, 0, 0, -1, -12.082, 17.806)" xlink:href="#radial-gradient"/>
    <clipPath id="clip-path-6">
      <path id="Path_701" data-name="Path 701" d="M90.67,33.6l-3.131,5.413a1.855,1.855,0,0,0,1.592,2.766h5.057a.576.576,0,1,0,0-1.151H89.131a.693.693,0,0,1-.6-1.039l3.134-5.423a.636.636,0,0,1,.564-.333.647.647,0,0,1,.574.333l4.185,7.326a.578.578,0,0,0,.787.211.567.567,0,0,0,.211-.774l-4.2-7.328a1.8,1.8,0,0,0-3.121,0" transform="translate(-87.292 -32.703)" fill="none"/>
    </clipPath>
    <linearGradient id="linear-gradient" x1="-8.578" y1="1.243" x2="-8.479" y2="1.243" gradientUnits="objectBoundingBox">
      <stop offset="0" stop-color="#0683ff"/>
      <stop offset="1" stop-color="#06c4ff"/>
    </linearGradient>
    <clipPath id="clip-path-7">
      <path id="Path_702" data-name="Path 702" d="M92.729,33.563l4.216,7.3a1.859,1.859,0,0,0,3.211,0l4.238-7.3a.58.58,0,0,0-1.006-.579l-4.239,7.308a.7.7,0,0,1-1.216,0l-4.219-7.308a.55.55,0,0,0-.475-.287.58.58,0,0,0-.51.866" transform="translate(-92.652 -32.697)" fill="none"/>
    </clipPath>
    <linearGradient id="linear-gradient-2" x1="-11.012" y1="1.558" x2="-10.893" y2="1.558" xlink:href="#linear-gradient"/>
    <clipPath id="clip-path-8">
      <path id="Path_703" data-name="Path 703" d="M107.589,32.682h-2.768a2.258,2.258,0,0,0-1.949,1.13l-4.129,7.2a.577.577,0,0,0,.986.564l4.14-7.206a1.105,1.105,0,0,1,.952-.551h3.1c2.191.144,2.112,3.485-.079,3.64H105a1.143,1.143,0,0,0-.454,2.191s4.836,2.093,4.836,2.1a.58.58,0,0,0,.444-1.072s-3.475-1.509-4.5-1.948a.063.063,0,0,1,.023-.122h2.636a2.9,2.9,0,0,0,2.689-3.023,2.944,2.944,0,0,0-3.071-2.911Z" transform="translate(-98.693 -32.682)" fill="none"/>
    </clipPath>
    <linearGradient id="linear-gradient-3" x1="-9.845" y1="1.154" x2="-9.745" y2="1.154" xlink:href="#linear-gradient"/>
  </defs>
  <g id="Group_802" data-name="Group 802" transform="translate(0 0)">
    <g id="Group_747" data-name="Group 747" transform="translate(4.472 11.487)">
      <g id="Group_746" data-name="Group 746" clip-path="url(#clip-path-2)">
        <rect id="Rectangle_230" data-name="Rectangle 230" width="46.907" height="36.719" transform="matrix(0.991, -0.134, 0.134, 0.991, -4.472, 0.099)" fill="url(#radial-gradient)"/>
      </g>
    </g>
    <g id="Group_749" data-name="Group 749" transform="translate(80.333 11.471)">
      <g id="Group_748" data-name="Group 748" clip-path="url(#clip-path-3)">
        <rect id="Rectangle_231" data-name="Rectangle 231" width="77.504" height="40.476" transform="matrix(0.991, -0.134, 0.134, 0.991, -4.348, 0.554)" fill="url(#radial-gradient-2)"/>
      </g>
    </g>
    <g id="Group_751" data-name="Group 751" transform="translate(50.511 11.506)">
      <g id="Group_750" data-name="Group 750" clip-path="url(#clip-path-4)">
        <rect id="Rectangle_232" data-name="Rectangle 232" width="33.332" height="34.377" transform="matrix(0.991, -0.134, 0.134, 0.991, -4.077, 0.552)" fill="url(#radial-gradient-3)"/>
      </g>
    </g>
    <g id="Group_753" data-name="Group 753" transform="translate(41.902 0.811)">
      <g id="Group_752" data-name="Group 752" clip-path="url(#clip-path-5)">
        <rect id="Rectangle_233" data-name="Rectangle 233" width="6.873" height="6.873" transform="translate(-0.811 0.11) rotate(-7.7)" fill="url(#radial-gradient-4)"/>
      </g>
    </g>
    <g id="Group_755" data-name="Group 755" transform="translate(125.31 46.946)">
      <g id="Group_754" data-name="Group 754" clip-path="url(#clip-path-6)">
        <rect id="Rectangle_234" data-name="Rectangle 234" width="14.375" height="13.586" transform="translate(-4.428 2.29) rotate(-30)" fill="url(#linear-gradient)"/>
      </g>
    </g>
    <g id="Group_757" data-name="Group 757" transform="translate(133.005 46.937)">
      <g id="Group_756" data-name="Group 756" clip-path="url(#clip-path-7)">
        <rect id="Rectangle_235" data-name="Rectangle 235" width="12.063" height="9.476" transform="translate(-0.164 -0.077)" fill="url(#linear-gradient-2)"/>
      </g>
    </g>
    <g id="Group_759" data-name="Group 759" transform="translate(141.677 46.916)">
      <g id="Group_758" data-name="Group 758" clip-path="url(#clip-path-8)">
        <rect id="Rectangle_236" data-name="Rectangle 236" width="14.264" height="15.296" transform="translate(-4.3 7.058) rotate(-60)" fill="url(#linear-gradient-3)"/>
      </g>
    </g>
    <path id="Path_706" data-name="Path 706" d="M83.319,38.623a2.749,2.749,0,0,1-2.8,2.956,2.466,2.466,0,0,1-2.287-1.293v1.26h-.869V33.267h.869v3.671A2.454,2.454,0,0,1,80.5,35.644a2.778,2.778,0,0,1,2.824,2.979m-.881-.023a2.106,2.106,0,1,0-2.1,2.209,2.082,2.082,0,0,0,2.1-2.209" transform="translate(33.694 14.489)" fill="#fff"/>
    <path id="Path_707" data-name="Path 707" d="M82.9,43.012a1.848,1.848,0,0,1-1.236-.423l.368-.692a1.384,1.384,0,0,0,.825.279,1.182,1.182,0,0,0,1.071-.848l.245-.557-2.435-5.824h.916L84.6,39.833l1.863-4.887h.893l-2.7,6.705A1.9,1.9,0,0,1,82.9,43.012" transform="translate(35.566 15.221)" fill="#fff"/>
  </g>
</svg>
