<svg xmlns="http://www.w3.org/2000/svg" viewBox="0 0 518.13 487.53">
    <defs>
        <style>.cls-1{fill:#fff;}</style>
    </defs>
    <title>Asset 4ar</title>
    <g id="Layer_2" data-name="Layer 2">
        <g id="Layer_1-2" data-name="Layer 1">
            <path class="cls-1"
                  d="M239.32,118.4c0-23.16.2-46.32,0-69.48A48.78,48.78,0,0,1,273.77,2,50.79,50.79,0,0,1,288.57.09C348.71.09,408.86.32,469,0c27.6-.15,49.32,23,49.07,49.21-.44,46-.54,92,.06,138,.3,23.81-17.82,50-50,50-22.66.07-45.32.09-68-.06A11.7,11.7,0,0,0,391,241c-18.17,18.35-36.48,36.55-54.75,54.8a54.66,54.66,0,0,1-3.94,3.83c-3.49,2.87-7.42,3.73-11.67,1.92s-7-5.17-7-10c-.13-8.5-.06-17-.07-25.49,0-8,0-16,0-24,0-4.72-.07-4.73-4.7-4.83-8.66-.19-17.32.34-26-.48-23.54-2.21-42.57-21.65-43.31-45.37-.6-19.14-.19-38.31-.22-57.47C239.31,128.73,239.32,123.56,239.32,118.4Zm153.76,1.33q0,24.24,0,48.49a42.56,42.56,0,0,0,.31,6c1,6.76,6.44,11.41,12.67,11,6.48-.46,11.22-5.4,11.47-12.3.19-5.33,0-10.67,0-16,0-7.5,0-15,0-22.5,0-1.07-.33-2.49,1.21-2.92,1.33-.37,2.19.49,2.91,1.46.59.81,1.14,1.64,1.7,2.47L440,159.75q6.61,9.72,13.23,19.42c3,4.36,7.08,6.65,12.38,5.76A12,12,0,0,0,474,166.51c-3.4-5.53-7.24-10.79-10.89-16.17-4.31-6.34-8.65-12.65-12.92-19-2.07-3.1-2-3.15,1.31-5.16l1.29-.77a38.12,38.12,0,0,0,17.57-39.53c-3.18-16-15.51-28.12-31.78-30.44-11.25-1.6-22.64-.84-33.94-.46-6.46.22-10.57,4.81-11.36,11.28a41.54,41.54,0,0,0-.16,5Q393.08,95.49,393.08,119.73Zm-12.41,52.81c.09-2-.77-4-1.49-6q-14.9-42.15-29.81-84.27c-2.28-6.44-4.47-12.9-6.91-19.27-2-5.17-6-8.14-11.49-8.1s-9.42,2.92-11.42,8.17c-.53,1.4-1.06,2.8-1.56,4.21q-10.59,29.9-21.17,59.79-7.15,20.25-14.27,40.5c-1.45,4.11-1.74,8.2.8,12s6.33,6,11,5.55,8.52-2.94,10.3-7.57c2.21-5.75,4.32-11.54,6.2-17.4.93-2.88,2.47-3.84,5.45-3.78,9.49.17,19,0,28.48.07,5,0,5,0,6.67,4.77,2,5.48,3.7,11.06,5.9,16.44a12,12,0,0,0,13.37,7.29A12.24,12.24,0,0,0,380.67,172.54Z"/>
            <path class="cls-1"
                  d="M61.9,178.41c1,1.7,2.65,2.09,4.07,2.81,11,5.53,22.11,10.92,33.06,16.57,9.2,4.74,13,14.59,9.36,23.63-4.06,10.18-15.5,14.67-25.72,9.77-11.11-5.32-22.07-11-33.1-16.48-3.7-1.84-7.42-3.65-11.1-5.45-1.41,1.76-.86,3.48-.87,5.06q0,78.24-.1,156.49c0,3.65,1.07,5.62,4.41,7.28Q110.18,412,178.27,446.24a8.64,8.64,0,0,0,8.76,0q67.89-34.11,135.94-67.9c3.62-1.8,5-3.87,4.95-8-.25-14.66-.19-29.33-.06-44,.09-10.22,6.13-17.49,15.57-19.18a18.17,18.17,0,0,1,21.51,16.92c.35,7.65.12,15.33.13,23,0,12.83-.16,25.67.05,38.5.15,9-3.77,15.15-11.77,19.13q-80.28,40-160.5,80.2c-7,3.49-13.52,3.43-20.51-.08Q92.82,445,13.15,405.42C4.15,401,0,394.33,0,384.45Q.09,283,0,181.47c0-9.86,4.09-16.55,13.09-21q79-39.18,157.82-78.85c8.2-4.13,15.68-4.41,23.7.11,6.81,3.84,14,6.93,20.95,10.61,7.07,3.78,11,11.52,9.79,18.71-1.38,8.54-7.23,14.59-15.57,16.12a18.51,18.51,0,0,1-11.63-1.93c-4-2-8.1-3.93-12-6.07a6.27,6.27,0,0,0-6.5-.18q-57.39,28.83-114.88,57.45A6.59,6.59,0,0,0,61.9,178.41Z"/>
            <path class="cls-1"
                  d="M103.54,355.27a9.35,9.35,0,0,1-9.13-9.8c.17-5.26,5.54-10,11.15-9.91a9.4,9.4,0,0,1,9.17,9.78C114.53,350.62,109.19,355.37,103.54,355.27Z"/>
            <path class="cls-1"
                  d="M273,345.57a9.31,9.31,0,0,1-9.22,9.69c-5.7,0-11-4.72-11.09-10a9.43,9.43,0,0,1,9.27-9.69C267.65,335.52,272.88,340.26,273,345.57Z"/>
            <path class="cls-1"
                  d="M70.28,371.72a9.36,9.36,0,0,1-9.36-9.56c.21-5.26,5.49-9.87,11.26-9.83a9.41,9.41,0,0,1,9.35,9.07C81.63,366.88,76.3,371.77,70.28,371.72Z"/>
            <path class="cls-1"
                  d="M306.49,362.59a9.34,9.34,0,0,1-9.79,9.11c-5.83-.16-10.87-4.93-10.82-10.23a9.35,9.35,0,0,1,9.28-9.14C301.14,352.26,306.53,357.13,306.49,362.59Z"/>
            <path class="cls-1"
                  d="M192,230.13c0,6.19-3.93,10.47-9.53,10.33-5.38-.14-9.06-4.34-9-10.33s3.69-10.23,9-10.38C188,219.58,192,224,192,230.13Z"/>
            <path class="cls-1"
                  d="M138.87,319.15a8.87,8.87,0,0,1,9.07,9.12c0,5.66-5.1,10.36-11.2,10.24a9.26,9.26,0,0,1-9.11-9.72C127.83,323.38,132.88,319.05,138.87,319.15Z"/>
            <path class="cls-1"
                  d="M239.8,329.29a9.31,9.31,0,0,1-9.63,9.23c-5.88-.16-10.7-4.78-10.69-10.24a9,9,0,0,1,9.56-9.16C235,319.3,239.85,323.85,239.8,329.29Z"/>
            <path class="cls-1"
                  d="M192,156c-.07,5.93-3.89,10.15-9.23,10.2-5.53.05-9.37-4.3-9.33-10.57,0-6,3.77-10.1,9.22-10.13S192.05,149.73,192,156Z"/>
            <path class="cls-1"
                  d="M192,193.18c-.07,5.92-3.94,10.16-9.26,10.16-5.54,0-9.36-4.38-9.28-10.62.09-6,3.91-10.17,9.24-10.16C188.2,182.57,192.05,187,192,193.18Z"/>
            <path class="cls-1"
                  d="M192,267.17c.05,6.1-3.54,10.24-9,10.41-5.73.18-9.57-4-9.53-10.35,0-6.19,3.6-10.09,9.25-10.1S191.92,261,192,267.17Z"/>
            <path class="cls-1"
                  d="M427.4,106.62c-9.81,0-9.81,0-9.81-9.59,0-4.65.1-9.31,0-14-.08-2.69.8-4,3.67-3.87,4.15.15,8.31-.1,12.46.12a13.61,13.61,0,0,1,13,13.76,13.8,13.8,0,0,1-13.3,13.51C431.39,106.7,429.4,106.62,427.4,106.62Z"/>
            <path class="cls-1"
                  d="M330.69,104.52c1.94,2.29,2.25,4.46,3,6.41,2.23,6.09,4.28,12.25,6.49,18.35.72,2,.17,2.85-1.87,2.86-4.82,0-9.65,0-14.48,0-1.49,0-2.79-.38-2.1-2.33C324.61,121.56,327.56,113.31,330.69,104.52Z"/>
        </g>
    </g>
</svg>